<svg width="120" height="120" viewBox="0 0 120 120" fill="none" xmlns="http://www.w3.org/2000/svg">
<path fill-rule="evenodd" clip-rule="evenodd" d="M60 113.749H53.64C36.565 113.749 27.99 113.749 21.355 109.064C19.455 107.719 17.765 106.134 16.325 104.359C11.25 97.9539 11.25 89.834 11.25 73.649V60.899C11.25 45.644 11.25 37.9891 13.855 31.3741C18.03 20.8491 26.81 12.5738 37.945 8.65875C44.188 6.47666 51.4229 6.27058 64.7196 6.25111C64.8161 6.24976 64.9129 6.24908 65.0098 6.24908C65.0456 6.24908 65.0813 6.24959 65.1169 6.25059C66.3832 6.24908 67.7039 6.24908 69.0834 6.24908H69.09C78.4945 6.24908 83.2201 6.24908 87.41 7.70905C94.22 10.124 99.585 15.1889 102.145 21.6089C103.75 25.6889 103.75 30.1686 103.75 39.0984V49.9991C103.75 52.0691 102.07 53.7491 100 53.7491C97.93 53.7491 96.25 52.0691 96.25 49.9991V39.0987C96.25 31.1194 96.25 27.109 95.17 24.3741C93.415 19.9741 89.675 16.4688 84.92 14.7838C81.951 13.7491 77.6528 13.7491 69.0983 13.7491H69.0842C67.5798 13.7491 66.1491 13.7491 64.7867 13.751C57.7691 13.8703 52.0948 19.6084 52.0948 26.649C52.0948 27.4555 52.1348 28.3241 52.1771 29.2425C52.1797 29.2977 52.1822 29.3532 52.1848 29.4088L52.1862 29.44C52.3108 32.1573 52.4518 35.2299 51.6848 38.1138C50.5698 42.3088 47.2848 45.5938 43.1098 46.6788C40.2438 47.4301 37.155 47.3004 34.4248 47.1858L34.2262 47.1775C33.3245 47.1398 32.4684 47.1041 31.6748 47.1041C24.5548 47.1041 18.7598 52.889 18.7598 60.004C18.7598 60.0956 18.7565 60.1864 18.75 60.2764C18.75 60.4824 18.75 60.6899 18.75 60.899V73.649C18.75 88.0939 18.75 95.344 22.18 99.669C23.16 100.879 24.35 101.989 25.685 102.939C30.37 106.249 38.145 106.249 53.635 106.249H60C62.07 106.249 63.75 107.929 63.75 109.999C63.75 112.069 62.07 113.749 60 113.749ZM19.018 44.0033C22.4997 41.2465 26.8986 39.5987 31.6748 39.5987C32.6798 39.5987 33.7098 39.644 34.7098 39.689L34.7276 39.6898C37.037 39.7896 39.4244 39.8927 41.2098 39.4239C42.7798 39.0139 44.0098 37.779 44.4348 36.189C44.9098 34.414 44.7998 32.0489 44.6898 29.7589C44.6398 28.7389 44.5948 27.679 44.5948 26.649C44.5948 21.9441 46.1969 17.6065 48.8843 14.1519C45.4629 14.4351 42.7765 14.9175 40.43 15.7388C31.35 18.9288 24.205 25.6339 20.83 34.1339C19.8006 36.7471 19.2806 39.8258 19.018 44.0033Z" fill="#1B8354"/>
<path fill-rule="evenodd" clip-rule="evenodd" d="M101.145 113.808C97.24 113.808 93.495 110.128 87.56 104.288L87.445 104.178C84.9 101.678 83.9551 101.303 80.2201 101.303C75.5462 101.303 72.9697 101.303 70.57 99.753C66.137 96.8143 66.205 91.8222 66.25 88.5172C66.25 88.3459 66.2526 88.1703 66.2551 88.0004C66.2576 87.833 66.26 87.6668 66.26 87.503C66.26 87.173 66.26 86.8378 66.25 86.4928C66.205 83.1878 66.1369 78.1868 70.5351 75.273C72.9701 73.698 75.5451 73.6978 80.2201 73.6978C83.9551 73.6978 84.9 73.3228 87.45 70.8228L87.56 70.713L87.5642 70.7089C94.7816 63.6115 98.761 59.6981 103.725 61.7228C108.76 63.7727 108.76 69.3927 108.76 79.5976V95.398C108.76 105.598 108.76 111.218 103.725 113.273C102.84 113.633 101.99 113.808 101.145 113.808ZM100.77 68.9381C99.1932 69.7914 95.9731 72.9602 92.8391 76.0444L92.82 76.0631L92.705 76.1729C88.735 80.0729 85.9351 81.1978 80.2201 81.1978C77.6301 81.1978 75.18 81.1979 74.64 81.5479C73.76 82.1329 73.715 83.8429 73.75 86.3829C73.755 86.7566 73.76 87.134 73.76 87.4977C73.76 87.8524 73.7553 88.2121 73.7504 88.5809L73.75 88.6129C73.715 91.1529 73.7601 92.8678 74.6751 93.4727C75.1801 93.7978 77.6301 93.798 80.2201 93.798C85.9351 93.798 88.735 94.9228 92.7 98.8229L92.815 98.9381L92.9036 99.0251C96.0157 102.083 99.2048 105.216 100.765 106.063C101.26 104.333 101.26 99.7979 101.26 95.4029V79.6026C101.26 75.2026 101.26 70.673 100.765 68.943L100.77 68.9381Z" fill="#1B8354"/>
</svg>
