<svg width="13" height="8" viewBox="0 0 13 8" fill="none" xmlns="http://www.w3.org/2000/svg">
<g id="elements">
<path id="Icon" d="M12.2061 3.79161C12.2061 3.54473 12.0966 3.31569 11.993 3.14371C11.8811 2.95812 11.7307 2.76651 11.5656 2.5797C11.2345 2.20493 10.8025 1.80246 10.3833 1.4384C9.96154 1.0722 9.54129 0.735008 9.22735 0.489969C9.07012 0.367245 8.93895 0.267164 8.84682 0.197565C8.80074 0.162756 8.7644 0.135546 8.7394 0.116913L8.71061 0.0955104L8.70297 0.0898575L8.70032 0.0879011C8.47991 -0.0744531 8.16934 -0.0276027 8.00698 0.192804C7.84464 0.4132 7.89168 0.723472 8.11207 0.885832L8.12048 0.892052L8.14695 0.911727C8.17035 0.929175 8.205 0.955109 8.24928 0.988558C8.33786 1.05547 8.46484 1.15236 8.6174 1.27143C8.92303 1.50999 9.32888 1.83574 9.73327 2.1869C10.1401 2.5402 10.5342 2.90952 10.8227 3.23605C10.8409 3.2567 10.8586 3.277 10.8757 3.29693L1.13629 3.29693C0.862541 3.29693 0.640625 3.51885 0.640625 3.79259C0.640625 4.06634 0.862542 4.28826 1.13629 4.28826L10.874 4.28826C10.8574 4.30756 10.8403 4.3272 10.8227 4.34718C10.5342 4.6737 10.1401 5.04302 9.73327 5.39633C9.32888 5.74749 8.92303 6.07324 8.6174 6.3118C8.46484 6.43087 8.33786 6.52775 8.24928 6.59467C8.205 6.62812 8.17035 6.65405 8.14695 6.6715L8.12048 6.69118L8.11207 6.6974C7.89169 6.85976 7.84464 7.17003 8.00698 7.39042C8.16934 7.61083 8.47991 7.65768 8.70032 7.49533L8.70297 7.49337L8.71061 7.48772L8.7394 7.46632C8.7644 7.44768 8.80075 7.42047 8.84682 7.38566C8.93895 7.31606 9.07012 7.21598 9.22735 7.09326C9.54129 6.84822 9.96155 6.51103 10.3833 6.14483C10.8025 5.78077 11.2345 5.3783 11.5656 5.00353C11.7307 4.81671 11.8811 4.62511 11.993 4.43952C12.096 4.26857 12.2048 4.04124 12.2061 3.79606" fill="#161616"/>
</g>
</svg>
