<svg width="12" height="8" viewBox="0 0 12 8" fill="none" xmlns="http://www.w3.org/2000/svg">
<g id="elements">
<path id="Icon" d="M0.205566 3.79186C0.205568 4.03874 0.315045 4.26778 0.418715 4.43976C0.530587 4.62535 0.681036 4.81696 0.846085 5.00378C1.17718 5.37855 1.6092 5.78101 2.02844 6.14507C2.45015 6.51127 2.8704 6.84846 3.18434 7.0935C3.34157 7.21623 3.47274 7.31631 3.56487 7.38591C3.61095 7.42072 3.6473 7.44793 3.67229 7.46656L3.70109 7.48796L3.70873 7.49361L3.71138 7.49557C3.93178 7.65793 4.24236 7.61108 4.40471 7.39067C4.56706 7.17027 4.52001 6.86 4.29963 6.69764L4.29122 6.69142L4.26475 6.67175C4.24134 6.6543 4.20669 6.62836 4.16242 6.59491C4.07384 6.528 3.94685 6.43112 3.7943 6.31204C3.48866 6.07348 3.08282 5.74773 2.67842 5.39657C2.27157 5.04327 1.87748 4.67395 1.58901 4.34742C1.57076 4.32677 1.5531 4.30648 1.53604 4.28655L11.2754 4.28654C11.5492 4.28654 11.7711 4.06463 11.7711 3.79088C11.7711 3.51713 11.5492 3.29521 11.2754 3.29521L1.53771 3.29522C1.55426 3.27592 1.57136 3.25627 1.58901 3.23629C1.87748 2.90977 2.27157 2.54045 2.67842 2.18715C3.08282 1.83598 3.48866 1.51024 3.7943 1.27168C3.94685 1.1526 4.07384 1.05572 4.16242 0.988802C4.20669 0.955353 4.24134 0.929419 4.26475 0.911971L4.29121 0.892296L4.29963 0.886076C4.52001 0.723716 4.56706 0.413444 4.40471 0.193048C4.24236 -0.0273585 3.93178 -0.074209 3.71138 0.0881453L3.70873 0.0901017L3.70109 0.0957545L3.67229 0.117157C3.6473 0.135791 3.61095 0.163 3.56487 0.197809C3.47274 0.267408 3.34157 0.367489 3.18434 0.490214C2.8704 0.735252 2.45015 1.07245 2.02844 1.43864C1.6092 1.8027 1.17718 2.20517 0.846085 2.57994C0.681036 2.76676 0.530587 2.95837 0.418715 3.14395C0.315668 3.3149 0.206883 3.54223 0.205578 3.78742" fill="#161616"/>
</g>
</svg>
