<svg width="76" height="76" viewBox="0 0 76 76" fill="none" xmlns="http://www.w3.org/2000/svg">
<path d="M25.3333 38C23.5844 38 22.1666 39.4177 22.1666 41.1666C22.1666 42.9155 23.5844 44.3333 25.3333 44.3333H25.3617C27.1106 44.3333 28.5284 42.9155 28.5284 41.1666C28.5284 39.4177 27.1106 38 25.3617 38H25.3333Z" fill=" #161616"/>
<path d="M37.9858 38C36.2369 38 34.8191 39.4177 34.8191 41.1666C34.8191 42.9155 36.2369 44.3333 37.9858 44.3333H38.0142C39.7631 44.3333 41.1808 42.9155 41.1808 41.1666C41.1808 39.4177 39.7631 38 38.0142 38H37.9858Z" fill=" #161616"/>
<path d="M50.6382 38C48.8893 38 47.4715 39.4177 47.4715 41.1666C47.4715 42.9155 48.8893 44.3333 50.6382 44.3333H50.6666C52.4155 44.3333 53.8333 42.9155 53.8333 41.1666C53.8333 39.4177 52.4155 38 50.6666 38H50.6382Z" fill=" #161616"/>
<path d="M25.3333 50.6666C23.5844 50.6666 22.1666 52.0844 22.1666 53.8333C22.1666 55.5822 23.5844 57 25.3333 57H25.3617C27.1106 57 28.5284 55.5822 28.5284 53.8333C28.5284 52.0844 27.1106 50.6666 25.3617 50.6666H25.3333Z" fill=" #161616"/>
<path d="M37.9858 50.6666C36.2369 50.6666 34.8191 52.0844 34.8191 53.8333C34.8191 55.5822 36.2369 57 37.9858 57H38.0142C39.7631 57 41.1808 55.5822 41.1808 53.8333C41.1808 52.0844 39.7631 50.6666 38.0142 50.6666H37.9858Z" fill=" #161616"/>
<path fill-rule="evenodd" clip-rule="evenodd" d="M21.375 6.33331C21.375 5.02164 20.3116 3.95831 19 3.95831C17.6883 3.95831 16.625 5.02164 16.625 6.33331V8.34348C14.0766 9.06577 11.9272 10.2397 10.1382 12.1738C7.6748 14.8369 6.57981 18.2017 6.05541 22.4184C5.54156 26.5503 5.54159 31.8455 5.54163 38.6018V40.5649C5.54159 47.3212 5.54156 52.6164 6.05541 56.7482C6.57981 60.9649 7.6748 64.3297 10.1382 66.9928C12.6259 69.6823 15.8104 70.9019 19.7957 71.4811C23.6528 72.0418 28.5809 72.0417 34.7992 72.0416H41.2007C47.4191 72.0417 52.3471 72.0418 56.2042 71.4811C60.1895 70.9019 63.374 69.6823 65.8617 66.9928C68.3251 64.3297 69.4201 60.9649 69.9445 56.7482C70.4583 52.6163 70.4583 47.3211 70.4583 40.5648V38.6019C70.4583 31.8455 70.4583 26.5503 69.9445 22.4184C69.4201 18.2017 68.3251 14.8369 65.8617 12.1738C64.0727 10.2397 61.9234 9.06577 59.375 8.34348V6.33331C59.375 5.02164 58.3116 3.95831 57 3.95831C55.6883 3.95831 54.625 5.02164 54.625 6.33331V7.49198C51.0274 7.12489 46.6005 7.12493 41.2007 7.12498H34.7992C29.3994 7.12493 24.9725 7.12489 21.375 7.49198V6.33331ZM16.7155 13.3185C16.9988 14.3132 17.9143 15.0416 19 15.0416C20.3116 15.0416 21.375 13.9783 21.375 12.6666V12.2695C24.7348 11.8799 29.0775 11.875 34.9916 11.875H41.0083C46.9224 11.875 51.2651 11.8799 54.625 12.2695V12.6666C54.625 13.9783 55.6883 15.0416 57 15.0416C58.0856 15.0416 59.0011 14.3132 59.2844 13.3185C60.5742 13.8317 61.5535 14.5114 62.3748 15.3992C63.8729 17.0189 64.7598 19.2403 65.2276 22.9785C65.1258 22.9652 65.022 22.9583 64.9166 22.9583H11.0833C10.9779 22.9583 10.8741 22.9652 10.7724 22.9785C11.2401 19.2403 12.127 17.0189 13.6252 15.3992C14.4464 14.5114 15.4257 13.8317 16.7155 13.3185ZM10.4187 27.6141C10.2934 30.6633 10.2916 34.3151 10.2916 38.7703V40.3964C10.2916 47.3577 10.296 52.3574 10.7691 56.162C11.236 59.916 12.1235 62.144 13.6252 63.7674C15.1025 65.3645 17.0913 66.2881 20.4789 66.7805C23.955 67.2858 28.5376 67.2916 34.9916 67.2916H41.0083C47.4623 67.2916 52.0449 67.2858 55.521 66.7805C58.9086 66.2881 60.8974 65.3645 62.3748 63.7674C63.8764 62.144 64.764 59.916 65.2308 56.162C65.704 52.3574 65.7083 47.3577 65.7083 40.3964V38.7703C65.7083 34.3151 65.7065 30.6633 65.5812 27.6141C65.3703 27.6754 65.1473 27.7083 64.9166 27.7083H11.0833C10.8526 27.7083 10.6296 27.6754 10.4187 27.6141Z" fill=" #161616"/>
</svg>
