<svg width="24" height="24" viewBox="0 0 24 24" fill="none" xmlns="http://www.w3.org/2000/svg">
<path fill-rule="evenodd" clip-rule="evenodd" d="M21.25 13V7.79921C21.25 7.22662 21.25 6.73541 21.2383 6.31023C21.2331 6.12273 21.2256 5.94808 21.2149 5.78495C21.1789 5.23936 21.104 4.77102 20.9294 4.3299C20.4146 3.02895 19.3333 2.01938 17.984 1.54505C17.1431 1.24947 16.124 1.24968 14.489 1.25002L14.1259 1.25004C13.9163 1.25002 13.713 1.25001 13.5158 1.25016L13.5 1.25L13.4578 1.25021C10.8998 1.25272 9.36156 1.28734 8.08963 1.73447C5.87409 2.51332 4.10948 4.16688 3.27156 6.28428C2.99651 6.97932 2.8713 7.73359 2.81024 8.66059C2.75242 9.53843 2.7501 10.6176 2.75 11.9943L2.75 12L2.75 12.0014L2.75 12.9995C2.75 13.4137 3.08579 13.7495 3.5 13.7495C3.91421 13.7495 4.25 13.4137 4.25 12.9995L4.25001 11.9936C4.25345 10.5698 5.40872 9.41667 6.83333 9.41667C6.98046 9.41667 7.13864 9.42314 7.31624 9.43138L7.38206 9.43446C7.53691 9.44174 7.70564 9.44966 7.8737 9.45315C8.25379 9.46105 8.69733 9.44904 9.12548 9.33432C9.95945 9.11086 10.6109 8.45945 10.8343 7.62548C10.949 7.19733 10.961 6.75379 10.9532 6.3737C10.9497 6.20556 10.9417 6.03698 10.9345 5.88206L10.9314 5.81624C10.9231 5.63864 10.9167 5.48046 10.9167 5.33333C10.9167 3.92645 12.0413 2.78224 13.4406 2.75067C13.7174 2.75014 14.0095 2.75005 14.3182 2.75005C16.1808 2.75005 16.9193 2.76078 17.4865 2.96016C18.4472 3.29787 19.1879 4.00564 19.5347 4.88185C19.6281 5.11787 19.6871 5.41201 19.7181 5.88353C19.7299 6.06272 19.7374 6.26001 19.7421 6.4818C19.7499 6.85178 19.75 7.28993 19.75 7.82599V12.9995C19.75 13.4137 20.0858 13.75 20.5 13.75C20.9142 13.75 21.25 13.4142 21.25 13ZM10.273 2.83095C9.58008 2.88787 9.05598 2.98475 8.58709 3.14958C6.76019 3.79181 5.33615 5.14357 4.66632 6.83623C4.47243 7.32617 4.36317 7.90624 4.307 8.75918L4.30477 8.79355C5.00017 8.24441 5.87848 7.91667 6.83333 7.91667C7.01909 7.91667 7.2087 7.92478 7.38576 7.93299L7.45362 7.93616C7.6103 7.94351 7.75779 7.95042 7.90484 7.95348C8.24549 7.96055 8.51807 7.94416 8.73725 7.88543C9.05358 7.80067 9.30067 7.55358 9.38543 7.23725C9.44416 7.01807 9.46055 6.74549 9.45348 6.40484C9.45042 6.25781 9.44351 6.11034 9.43616 5.95369L9.43299 5.88576C9.42478 5.7087 9.41667 5.51909 9.41667 5.33333C9.41667 4.39042 9.73627 3.52215 10.273 2.83095Z" fill="#1B8354"/>
<path fill-rule="evenodd" clip-rule="evenodd" d="M11.9553 15.25C11.5512 15.2499 11.1722 15.2499 10.8622 15.2942C10.5141 15.3439 10.1464 15.4621 9.84818 15.7789C9.55606 16.0893 9.45303 16.4611 9.40906 16.8086C9.36858 17.1285 9.36862 17.5226 9.36866 17.9571V20.0429C9.36862 20.4774 9.36858 20.8716 9.40906 21.1914C9.45303 21.539 9.55606 21.9108 9.84818 22.2211C10.1464 22.5379 10.5141 22.6561 10.8622 22.7059C11.1722 22.7501 11.5511 22.7501 11.9552 22.75H12.0468C12.4508 22.7501 12.8299 22.7501 13.1398 22.7059C13.4879 22.6561 13.8557 22.5379 14.1539 22.2211C14.446 21.9108 14.549 21.539 14.593 21.1914C14.6335 20.8716 14.6334 20.4774 14.6334 20.0429V17.9571C14.6334 17.5226 14.6335 17.1285 14.593 16.8086C14.549 16.4611 14.446 16.0893 14.1539 15.7789C13.8557 15.4621 13.4879 15.3439 13.1398 15.2942C12.8299 15.2499 12.4509 15.2499 12.0468 15.25H11.9553ZM10.9376 16.8135L10.9393 16.8099C10.9539 16.8039 10.9925 16.7908 11.0744 16.7791C11.2653 16.7518 11.5349 16.75 12.001 16.75C12.4672 16.75 12.7367 16.7518 12.9277 16.7791C13.0095 16.7908 13.0482 16.8039 13.0628 16.8099C13.064 16.8125 13.0657 16.8162 13.0677 16.8214C13.0773 16.8463 13.0923 16.8979 13.1048 16.9969C13.132 17.2111 13.1334 17.5086 13.1334 18V20C13.1334 20.4914 13.132 20.7889 13.1048 21.0031C13.0923 21.1022 13.0773 21.1537 13.0677 21.1786C13.0657 21.1838 13.064 21.1875 13.0628 21.1901C13.0482 21.1962 13.0095 21.2092 12.9277 21.2209C12.7367 21.2482 12.4672 21.25 12.001 21.25C11.5349 21.25 11.2653 21.2482 11.0744 21.2209C10.9925 21.2092 10.9539 21.1962 10.9393 21.1901C10.938 21.1875 10.9364 21.1838 10.9344 21.1786C10.9247 21.1537 10.9097 21.1022 10.8972 21.0031C10.8701 20.7889 10.8687 20.4914 10.8687 20V18C10.8687 17.5086 10.8701 17.2111 10.8972 16.9969C10.9097 16.8979 10.9247 16.8463 10.9344 16.8214C10.9356 16.8183 10.9367 16.8157 10.9376 16.8135Z" fill="#1B8354"/>
<path fill-rule="evenodd" clip-rule="evenodd" d="M4.44243 15.25L4.41782 15.25C4.26357 15.25 4.09941 15.2499 3.95833 15.2635C3.79755 15.279 3.59346 15.3172 3.39144 15.4411C2.99796 15.6825 2.84465 16.0501 2.78819 16.3446C2.74628 16.5632 2.74914 16.8045 2.75076 16.9418C2.75103 16.9641 2.75126 16.9837 2.75126 17V21C2.75126 21.0163 2.75103 21.0359 2.75076 21.0582C2.74914 21.1955 2.74628 21.4368 2.78819 21.6554C2.84465 21.95 2.99796 22.3175 3.39144 22.5589C3.59346 22.6828 3.79755 22.721 3.95833 22.7365C4.09942 22.7501 4.26357 22.7501 4.41782 22.75L4.44243 22.75C6.45823 22.75 8.01596 21.0276 8.01596 19C8.01596 16.9724 6.45823 15.25 4.44243 15.25ZM4.44243 16.75C4.36612 16.75 4.30458 16.75 4.25124 16.7507L4.25107 16.7579C4.25033 16.7907 4.25028 16.8261 4.25051 16.8672L4.25078 16.9055C4.251 16.9356 4.25126 16.9693 4.25126 17V21C4.25126 21.0307 4.251 21.0643 4.25078 21.0945L4.25051 21.1328C4.25028 21.1739 4.25033 21.2093 4.25107 21.2422L4.25124 21.2493C4.30458 21.25 4.36612 21.25 4.44243 21.25C5.54543 21.25 6.51596 20.2861 6.51596 19C6.51596 17.7139 5.54543 16.75 4.44243 16.75Z" fill="#1B8354"/>
<path d="M18.6234 15.25C17.8305 15.25 17.0286 15.3276 16.5142 15.9018C16.2572 16.1887 16.1325 16.5334 16.067 16.8734C16.0027 17.2079 15.9863 17.5901 15.9863 18V20C15.9863 20.4099 16.0027 20.7922 16.067 21.1267C16.1325 21.4666 16.2572 21.8113 16.5142 22.0982C17.0286 22.6724 17.8305 22.75 18.6234 22.75C18.8825 22.75 19.1625 22.7487 19.4248 22.7234C19.6864 22.6981 19.9798 22.6453 20.2562 22.5151C20.5483 22.3776 20.8059 22.1607 20.986 21.8428C21.1586 21.5381 21.2339 21.1866 21.2503 20.8133C21.2684 20.3994 20.9477 20.0493 20.5339 20.0311C20.12 20.013 19.7699 20.3338 19.7517 20.7476C19.742 20.9694 19.7009 21.068 19.6808 21.1035C19.6681 21.1259 19.6566 21.1395 19.6172 21.1581C19.5621 21.184 19.4615 21.2129 19.2808 21.2303C19.1006 21.2477 18.8898 21.25 18.6234 21.25C17.7976 21.25 17.6559 21.1246 17.6315 21.0973C17.619 21.0834 17.5755 21.0278 17.54 20.8433C17.5035 20.6533 17.4863 20.3871 17.4863 20V18C17.4863 17.6129 17.5035 17.3467 17.54 17.1568C17.5755 16.9723 17.619 16.9166 17.6315 16.9027C17.6559 16.8754 17.7976 16.75 18.6234 16.75C18.8898 16.75 19.1006 16.7523 19.2808 16.7697C19.4615 16.7871 19.5621 16.816 19.6172 16.842C19.6566 16.8605 19.6681 16.8741 19.6808 16.8965C19.7009 16.932 19.742 17.0306 19.7517 17.2524C19.7699 17.6663 20.12 17.987 20.5339 17.9689C20.9477 17.9508 21.2684 17.6006 21.2503 17.1868C21.2339 16.8134 21.1586 16.462 20.986 16.1572C20.8059 15.8394 20.5484 15.6224 20.2562 15.4849C19.9798 15.3547 19.6864 15.3019 19.4248 15.2766C19.1625 15.2513 18.8825 15.25 18.6234 15.25Z" fill="#1B8354"/>
</svg>
