<svg width="24" height="24" viewBox="0 0 24 24" fill="none" xmlns="http://www.w3.org/2000/svg">
<path fill-rule="evenodd" clip-rule="evenodd" d="M8.78748 4.18228C8.43586 4.05042 8.01861 4.03902 6.79584 4.03902C5.8742 4.03902 5.2317 4.0397 4.73297 4.08366C4.2441 4.12676 3.96531 4.20696 3.75511 4.32426C3.39076 4.52759 3.09013 4.82822 2.8868 5.19257C2.7695 5.40276 2.6893 5.68156 2.64621 6.17043C2.60224 6.66916 2.60156 7.31165 2.60156 8.23329V11.289C2.60156 13.6672 2.60316 15.3755 2.77793 16.6754C2.94981 17.9538 3.2767 18.7246 3.84636 19.2942C4.41602 19.8639 5.18674 20.1908 6.46514 20.3626C7.76512 20.5374 9.47334 20.539 11.8516 20.539H13.1016C14.8728 20.539 16.1447 20.5381 17.1333 20.4375C18.1095 20.3382 18.726 20.148 19.2127 19.8228C19.6768 19.5127 20.0752 19.1143 20.3853 18.6502C20.7106 18.1634 20.9008 17.5469 21.0001 16.5708C21.1007 15.5821 21.1016 14.3102 21.1016 12.539C21.1016 11.4701 21.1007 10.7248 21.0422 10.1503C20.985 9.58835 20.8791 9.27355 20.7224 9.03899C20.5582 8.79331 20.3473 8.58237 20.1016 8.41821C19.867 8.26148 19.5522 8.15553 18.9903 8.09837C18.4158 8.03993 17.6705 8.03902 16.6016 8.03902H11.8678C11.8574 8.03924 11.8469 8.03924 11.8365 8.03902H6.85156C6.43735 8.03902 6.10156 7.70323 6.10156 7.28902C6.10156 6.87481 6.43735 6.53902 6.85156 6.53902H10.638L10.5316 6.32624C9.97795 5.21872 9.6149 4.49256 8.78748 4.18228ZM12.3151 6.53902L11.8889 5.68674C11.8578 5.62449 11.8262 5.5606 11.794 5.49538C11.322 4.54024 10.7096 3.30107 9.31416 2.77778C8.67529 2.53821 7.96361 2.53852 6.9342 2.53898C6.88871 2.539 6.84259 2.53902 6.79584 2.53902L6.76107 2.53902C5.88234 2.53901 5.17361 2.539 4.60126 2.58946C4.01152 2.64144 3.49544 2.7514 3.02414 3.01442C2.4169 3.3533 1.91584 3.85435 1.57696 4.4616C1.31394 4.9329 1.20398 5.44898 1.152 6.03872C1.10155 6.61107 1.10155 7.31979 1.10156 8.19853V11.3464C1.10155 13.6548 1.10154 15.4638 1.29131 16.8753C1.48555 18.3201 1.89089 19.4601 2.7857 20.3549C3.68051 21.2497 4.82053 21.655 6.26527 21.8493C7.67676 22.039 9.48579 22.039 11.7942 22.039H13.1438C14.8636 22.039 16.2117 22.039 17.2852 21.9298C18.3799 21.8185 19.2718 21.5874 20.0461 21.07C20.6739 20.6505 21.213 20.1114 21.6325 19.4835C22.1499 18.7092 22.381 17.8173 22.4924 16.7226C22.6016 15.6492 22.6016 14.3011 22.6016 12.5813V12.4986C22.6016 11.4796 22.6016 10.6578 22.5345 9.9985C22.4653 9.31794 22.3184 8.72774 21.9696 8.20563C21.696 7.79617 21.3444 7.4446 20.9349 7.17101C20.4128 6.82215 19.8226 6.6753 19.1421 6.60607C18.4828 6.539 17.661 6.53901 16.642 6.53902L12.3151 6.53902Z" fill="#1B8354"/>
</svg>
