<svg width="114" height="56" viewBox="0 0 114 56" fill="none" xmlns="http://www.w3.org/2000/svg">
<g id="Group_3975" clip-path="url(#clip0_5169_341)">
<path id="Vector" d="M42.5501 43.4639C28.8844 43.4639 15.2186 43.4639 1.56847 43.4639C0.564245 43.4639 0.0621338 42.95 0.0621338 41.9222C0.0621338 32.594 0.0621338 23.2503 0.0621338 13.9222C0.0621338 12.5362 0.0931922 12.505 1.47529 12.505C3.86679 12.505 6.25829 12.5362 8.63426 12.4894C9.5039 12.4739 9.81448 12.7698 9.81448 13.6418C9.78342 19.762 9.79895 25.8977 9.76789 32.0178C9.76789 32.703 10.0008 33.0301 10.6375 33.0456C11.3363 33.0612 12.0352 33.0145 12.734 33.0145C15.9641 33.0145 19.1941 32.9678 22.4242 33.0301C23.5268 33.0612 23.7752 32.6719 23.7597 31.6441C23.7287 21.5373 23.7597 11.4305 23.7131 1.32371C23.7131 0.249181 23.9927 -0.0622766 25.0642 -0.0311309C27.4867 0.0467334 29.9093 0.0311605 32.3318 -0.0311309C33.2015 -0.0467038 33.481 0.155743 33.481 1.07454C33.45 11.1813 33.4655 21.2881 33.45 31.3949C33.45 32.9989 33.45 32.9989 35.065 32.9989C36.5713 32.9989 38.0777 32.9989 39.5995 33.0456C40.8263 33.0923 40.935 33.0456 40.935 31.8154C40.935 21.5996 40.9506 11.3838 40.904 1.16798C40.904 0.140171 41.2146 -0.0778495 42.1618 -0.0467038C44.6465 0.0155877 47.1467 1.47969e-05 49.6469 -0.0467038C50.4234 -0.0467038 50.7029 0.140171 50.7029 0.949959C50.6719 11.228 50.6719 21.5217 50.6408 31.7998C50.6408 32.6252 50.734 33.1079 51.7589 33.0768C54.1038 32.9833 56.4642 32.9989 58.8092 32.9833C60.2223 32.9833 60.2223 32.9833 60.2223 31.5818C60.2223 21.5061 60.2068 11.4305 60.1913 1.37043C60.1913 -0.0311309 60.1913 -0.0311309 61.5734 -0.0311309C68.9808 -0.0311309 76.3882 -0.0155581 83.8112 -0.0467038C84.774 -0.0467038 85.0846 0.171316 85.0691 1.18355C85.0225 9.45274 85.0535 17.7375 85.0535 26.0067C85.0535 27.3927 85.0535 27.3927 83.6404 27.3771C81.3265 27.3771 78.9971 27.3148 76.6833 27.4082C75.6118 27.455 75.3012 27.1591 75.3167 26.069C75.3633 21.2414 75.3167 16.4138 75.3633 11.6018C75.3633 10.574 75.0838 10.2158 74.0589 10.2937C73.0805 10.3715 72.0866 10.356 71.1083 10.2937C70.2542 10.247 69.9436 10.4961 69.9436 11.4149C69.9747 18.2514 69.9747 25.0723 69.9436 31.9088C69.9436 32.6719 70.1455 32.9989 70.953 32.9833C75.1614 32.9522 79.3699 32.9833 83.5938 32.9522C84.9138 32.9522 85.0691 33.0456 85.0691 34.3382C85.0691 36.9388 85.038 39.5551 85.0846 42.1557C85.1001 43.1213 84.8206 43.4327 83.8423 43.4171C70.0678 43.386 56.309 43.4016 42.5345 43.4016L42.5501 43.4639ZM28.5427 7.584C29.3813 7.584 30.2354 7.55285 31.074 7.584C31.5864 7.59957 31.8815 7.45941 31.8815 6.89879C31.8815 5.77755 31.8815 4.64073 31.8815 3.51948C31.8815 3.03672 31.6486 2.84985 31.1516 2.84985C29.4745 2.86542 27.7818 2.86542 26.1046 2.84985C25.7164 2.84985 25.3903 2.89657 25.3592 3.37933C25.3126 4.20469 25.0797 5.01448 25.1263 5.87098C25.235 7.52171 25.2505 7.56842 26.8656 7.56842C27.4246 7.56842 27.9837 7.56842 28.5427 7.56842V7.584ZM83.7646 36.9544C83.687 35.7709 82.7707 35.2881 81.7769 35.8799C81.0004 36.3471 80.1929 36.7675 79.4009 37.2192C77.9101 38.0601 76.4193 38.901 74.944 39.7575C73.8414 40.396 74.9906 40.9566 75.0993 41.5173C75.208 42.0779 75.6739 41.9066 76.1087 41.6574C78.4691 40.3026 80.8451 38.9789 83.2211 37.6552C83.5006 37.4995 83.7801 37.3593 83.7646 36.97V36.9544Z" fill="#166837"/>
<path id="Vector_2" d="M88.0972 21.693C88.0972 14.9032 88.1128 8.09788 88.0817 1.30811C88.0817 0.37374 88.2681 0.015564 89.293 0.015564C97.1197 0.0622825 104.946 0.0467097 112.773 0.015564C113.767 0.015564 114 0.327021 113.984 1.26139C113.953 9.56173 113.953 17.8776 113.984 26.178C113.984 27.0968 113.814 27.4549 112.773 27.4394C108.208 27.3771 103.642 27.4394 99.0764 27.3927C98.1136 27.3927 97.803 27.6574 97.8185 28.6385C97.8651 33.139 97.8185 37.6552 97.8651 42.1557C97.8651 43.168 97.5701 43.5106 96.5451 43.4794C94.1226 43.4171 91.7 43.4327 89.2775 43.4794C88.3612 43.495 88.0507 43.2147 88.0507 42.2803C88.0817 35.4127 88.0662 28.545 88.0662 21.693H88.0972ZM104.294 13.7975C104.294 12.9099 104.279 12.0378 104.294 11.1502C104.31 10.5584 104.077 10.3404 103.487 10.3404C101.841 10.3559 100.179 10.3559 98.5329 10.3404C98.0049 10.3404 97.7564 10.574 97.7719 11.1034C97.7719 12.8632 97.7719 14.6229 97.7719 16.3826C97.7719 16.9277 98.0359 17.208 98.6261 17.1924C100.21 17.1457 101.778 17.1146 103.362 17.1301C104.046 17.1301 104.31 16.9121 104.279 16.2113C104.232 15.4015 104.279 14.5918 104.279 13.782L104.294 13.7975ZM101.033 7.5684C101.872 7.5684 102.71 7.55283 103.549 7.5684C104.123 7.58397 104.387 7.36595 104.372 6.77418C104.341 5.79309 104.356 4.812 104.356 3.83091C104.356 3.14571 104.092 2.78753 103.347 2.83425C102.617 2.88097 101.872 2.88097 101.142 2.83425C100.241 2.77196 99.8063 3.09899 99.8995 4.03336C99.9771 4.82758 99.6665 5.26362 98.8279 5.15461C97.7254 5.01445 97.803 5.7308 97.7719 6.4783C97.7409 7.27252 97.9738 7.66184 98.8279 7.58397C99.5578 7.52168 100.303 7.58397 101.033 7.58397V7.5684Z" fill="#C09231"/>
<path id="Vector_3" d="M9.79894 5.18574C9.79894 6.55616 9.76789 7.92657 9.79894 9.29698C9.81447 10.0912 9.56601 10.4649 8.72743 10.4494C6.27381 10.4182 3.8202 10.4338 1.36658 10.4494C0.37271 10.4494 -0.0310495 10.1535 8.88808e-06 9.04781C0.0931842 6.416 0.0621258 3.76861 8.88808e-06 1.1368C8.88808e-06 0.295866 0.295064 0.0155547 1.10258 0.0311276C3.69596 0.0622733 6.28934 0.0311276 8.88272 0.0311276C9.56601 0.0311276 9.81447 0.295866 9.79894 0.981072C9.76789 2.38263 9.79894 3.79976 9.79894 5.20132V5.18574Z" fill="#C09231"/>
<path id="Vector_4" d="M47.3486 50.7986C47.3486 49.4594 47.3952 48.1201 47.3486 46.7964C47.3176 45.9555 47.6592 45.6752 48.4512 45.6752C50.9825 45.6752 53.4982 45.6752 56.0295 45.6752C56.7283 45.6752 57.0544 45.9866 57.0388 46.703C57.0388 49.4438 57.0233 52.1846 57.0388 54.9255C57.0388 55.7041 56.6972 55.9844 55.9518 55.9844C53.3895 55.9844 50.8272 55.9844 48.2648 55.9844C47.566 55.9844 47.3486 55.6729 47.3486 55.0189C47.3641 53.6173 47.3486 52.2002 47.3486 50.7986Z" fill="#C09231"/>
<path id="Vector_5" d="M41.5872 45.7686C42.8917 45.7686 44.1806 45.7686 45.4851 45.7686C46.1683 45.7686 46.3547 46.0801 46.3547 46.7653C46.3081 49.0389 46.3392 51.3281 46.3392 53.6018C46.3392 53.6329 46.3392 53.6641 46.3392 53.7108C46.4789 55.7353 46.3547 55.8754 44.3825 55.891C42.2705 55.891 40.1741 55.8599 38.0621 55.9221C37.1303 55.9533 36.7421 55.673 36.7576 54.6607C36.8198 52.1224 36.8198 49.584 36.7576 47.0612C36.7266 46.0022 37.1303 45.7063 38.1087 45.7531C39.2578 45.8154 40.4225 45.7531 41.5872 45.7531V45.7686Z" fill="#C09231"/>
<path id="Vector_6" d="M28.5427 7.58399C27.9837 7.58399 27.4246 7.58399 26.8655 7.58399C25.2505 7.58399 25.235 7.53727 25.1263 5.88655C25.0642 5.03004 25.2971 4.23583 25.3592 3.39489C25.3903 2.91214 25.7009 2.86542 26.1046 2.86542C27.7818 2.86542 29.4745 2.86542 31.1516 2.86542C31.6485 2.86542 31.8815 3.05229 31.8815 3.53505C31.8815 4.6563 31.8815 5.79311 31.8815 6.91436C31.8815 7.49056 31.602 7.61514 31.074 7.59957C30.2354 7.56842 29.3968 7.59957 28.5427 7.59957V7.58399ZM29.6298 5.23249C29.754 4.46942 29.4589 4.09567 28.6048 4.11125C27.7818 4.11125 27.5022 4.4227 27.5022 5.23249C27.5022 6.01113 27.7041 6.40046 28.5582 6.38488C29.3658 6.38488 29.754 6.10457 29.6298 5.23249Z" fill="#FDFEFD"/>
<path id="Vector_7" d="M83.7646 36.9544C83.7956 37.3437 83.5006 37.4839 83.2211 37.6396C80.8451 38.9633 78.4691 40.287 76.1087 41.6418C75.6894 41.891 75.2235 42.0623 75.0993 41.5017C74.9906 40.9411 73.8414 40.396 74.944 39.7419C76.4193 38.8854 77.9101 38.0445 79.4009 37.2036C80.1929 36.752 81.0004 36.3315 81.7768 35.8643C82.7707 35.2725 83.6869 35.7553 83.7646 36.9388V36.9544Z" fill="#FDFEFD"/>
<path id="Vector_8" d="M104.294 13.7976C104.294 14.6073 104.263 15.4171 104.294 16.2269C104.325 16.9121 104.061 17.1457 103.378 17.1457C101.794 17.1302 100.226 17.1613 98.6416 17.208C98.0515 17.2236 97.7875 16.9588 97.7875 16.3982C97.7875 14.6385 97.7875 12.8788 97.7875 11.119C97.7875 10.5895 98.0204 10.356 98.5484 10.356C100.195 10.356 101.856 10.3715 103.502 10.356C104.092 10.356 104.325 10.574 104.31 11.1657C104.279 12.0378 104.31 12.9255 104.31 13.8131L104.294 13.7976Z" fill="#FDFEFD"/>
<path id="Vector_9" d="M101.033 7.56843C100.303 7.56843 99.5578 7.52171 98.828 7.56843C97.9583 7.64629 97.7409 7.25697 97.772 6.46276C97.803 5.71526 97.7409 4.99891 98.828 5.13906C99.6666 5.24807 99.9927 4.81203 99.8995 4.01782C99.8063 3.08345 100.241 2.75642 101.142 2.81871C101.872 2.86543 102.617 2.86543 103.347 2.81871C104.092 2.77199 104.356 3.13016 104.356 3.81537C104.356 4.79646 104.356 5.77755 104.372 6.75864C104.372 7.35041 104.108 7.56843 103.549 7.55286C102.71 7.52171 101.872 7.55286 101.033 7.55286V7.56843ZM102.182 5.26365C102.571 5.18578 103.176 5.46609 103.207 4.73417C103.238 4.00224 102.648 4.03339 102.151 4.06454C101.732 4.08011 101.157 3.87766 101.126 4.60959C101.095 5.4038 101.701 5.2325 102.182 5.26365Z" fill="#FDFEFD"/>
<path id="Vector_10" d="M29.6298 5.23245C29.754 6.10453 29.3813 6.36927 28.5582 6.38484C27.6886 6.38484 27.5023 6.01109 27.5023 5.23245C27.5023 4.40709 27.7818 4.11121 28.6048 4.11121C29.4589 4.11121 29.754 4.46938 29.6298 5.23245Z" fill="#166837"/>
<path id="Vector_11" d="M102.182 5.26365C101.701 5.23251 101.095 5.38824 101.126 4.60959C101.157 3.87767 101.747 4.08012 102.151 4.06454C102.633 4.04897 103.223 4.00225 103.207 4.73418C103.192 5.4661 102.57 5.18579 102.182 5.26365Z" fill="#C09231"/>
</g>
<defs>
<clipPath id="clip0_5169_341">
<rect width="114" height="56" fill="white"/>
</clipPath>
</defs>
</svg>
