<svg width="155" height="66" viewBox="0 0 155 66" fill="none" xmlns="http://www.w3.org/2000/svg">
<g id="Layer_1" clip-path="url(#clip0_5169_618)">
<path id="Vector" d="M152.294 65.619C148.474 65.619 144.827 63.5236 144.827 57.1547C144.827 51.9098 146.122 45.5726 146.122 37.4004C146.122 19.8622 142.662 16.6238 139.589 14.9157C139.492 14.8649 139.376 14.8014 139.235 14.7316C138.532 14.3823 137.257 13.8934 135.588 13.8172C134.551 13.7728 133.359 13.8934 132.057 14.3125C131.903 14.3633 131.755 14.4141 131.593 14.4712C130.331 14.9411 129.061 15.7475 127.85 16.6556C127.148 12.4647 127.489 8.5786 127.657 6.67366C127.657 6.66731 127.67 6.66096 127.683 6.66731C129.184 7.60073 128.765 10.2105 128.449 10.9534C128.449 10.9661 128.469 10.9788 128.475 10.9661C130.344 8.7818 129.429 6.37522 129.049 5.76563C129.042 5.75293 129.061 5.74023 129.074 5.74658C130.749 7.0864 130.672 8.87069 130.582 9.86762C130.582 9.88031 130.601 9.88667 130.608 9.87397C131.291 8.5532 131.497 6.31807 129.409 4.50837C129.396 4.49567 129.409 4.47662 129.422 4.48297C131.284 4.92746 132.038 6.66731 132.057 7.96902C132.057 7.98807 132.057 8.01347 132.057 8.03252C132.057 8.05157 132.083 8.05157 132.083 8.03252C132.354 7.061 132.289 6.26727 132.051 5.63864C131.51 4.20993 130.047 3.5813 129.338 3.4924C129.319 3.4924 129.326 3.467 129.338 3.467C130.724 3.34 131.568 3.76544 132.051 4.18453C132.347 4.44487 132.508 4.69886 132.573 4.81316C132.579 4.82586 132.599 4.81316 132.599 4.80046C132.547 4.27343 132.341 3.84164 132.051 3.49875C131.226 2.53358 129.68 2.26053 128.681 2.67962C128.668 2.67962 128.656 2.66692 128.662 2.66057C129.306 1.73985 130.601 1.65095 131.284 1.96844C131.297 1.97479 131.31 1.95574 131.304 1.94304C130.279 0.781027 128.598 0.755628 127.696 2.10179C127.696 2.10814 127.676 2.10814 127.67 2.10179C127.573 1.93034 127.477 1.73985 127.386 1.54301C127.18 1.07312 127.006 0.539734 126.922 0.0126996C126.922 0.00634982 126.916 0 126.91 0C126.91 0 126.897 0 126.897 0.0126996C126.806 0.539734 126.639 1.07312 126.433 1.54301C126.343 1.7462 126.252 1.93669 126.149 2.10179C126.149 2.10814 126.13 2.10814 126.124 2.10179C125.222 0.761978 123.54 0.787377 122.516 1.94304C122.503 1.95574 122.516 1.97479 122.535 1.96844C123.218 1.65095 124.513 1.73985 125.157 2.66057C125.164 2.67327 125.157 2.68597 125.138 2.67962C124.139 2.26688 122.593 2.53358 121.768 3.49875C121.472 3.84799 121.272 4.27978 121.221 4.80046C121.221 4.81951 121.24 4.82586 121.246 4.81316C121.311 4.69251 121.472 4.43852 121.768 4.18453C122.251 3.76544 123.089 3.34 124.481 3.467C124.5 3.467 124.5 3.4924 124.481 3.4924C123.772 3.5813 122.309 4.20358 121.768 5.63864C121.53 6.27362 121.472 7.061 121.736 8.03252C121.736 8.05157 121.762 8.04522 121.762 8.03252C121.762 8.01347 121.762 7.98807 121.762 7.96902C121.775 6.66731 122.528 4.92746 124.397 4.48297C124.41 4.48297 124.423 4.49567 124.41 4.50837C122.322 6.31807 122.528 8.5532 123.211 9.87397C123.218 9.88667 123.244 9.88031 123.237 9.86762C123.147 8.87069 123.07 7.09275 124.745 5.74658C124.758 5.73388 124.777 5.74658 124.771 5.76563C124.384 6.37522 123.469 8.78815 125.344 10.9661C125.357 10.9788 125.376 10.9661 125.37 10.9534C125.054 10.2105 124.635 7.60073 126.136 6.66731C126.143 6.66731 126.162 6.66731 126.162 6.67366C126.323 8.58495 126.665 12.471 125.969 16.6556C124.758 15.7412 123.488 14.9411 122.226 14.4712C122.071 14.4141 121.916 14.3633 121.762 14.3125C120.46 13.8934 119.268 13.7728 118.231 13.8172C116.562 13.887 115.287 14.3823 114.585 14.7316C114.443 14.8014 114.32 14.8649 114.23 14.9157C114.192 14.9348 114.224 14.9919 114.262 14.9792C114.372 14.9475 114.481 14.9157 114.585 14.884C115.867 14.5284 117.084 14.4268 118.231 14.5284C119.488 14.6363 120.66 14.9792 121.762 15.4682C123.308 16.1539 124.706 17.1318 125.969 18.1732C124.184 19.7098 122.677 21.202 121.762 21.7227C121.717 21.7481 121.672 21.7735 121.627 21.7989C121.407 21.5005 121.027 21.329 120.609 21.4243C120.248 21.5005 119.951 21.7862 119.868 22.1418C119.797 22.4593 119.874 22.8022 120.061 22.98C120.551 23.4626 121.111 23.4943 121.755 23.2213C122.992 22.7069 124.526 21.0941 126.413 19.3923C126.568 19.2526 126.729 19.1066 126.89 18.9669C127.051 19.1129 127.212 19.2526 127.367 19.3923C129.255 21.0941 130.788 22.7069 132.025 23.2213C132.669 23.488 133.236 23.4562 133.72 22.98C133.9 22.8022 133.984 22.4593 133.913 22.1418C133.829 21.7862 133.539 21.5005 133.172 21.4243C132.753 21.3354 132.373 21.5068 132.154 21.7989C132.109 21.7799 132.064 21.7545 132.019 21.7227C131.104 21.1957 129.596 19.7035 127.812 18.1732C129.074 17.1382 130.472 16.1603 132.019 15.4682C133.12 14.9792 134.299 14.6363 135.549 14.5284C137.669 14.3696 139.099 15.3094 140.124 16.2873C141.651 17.7477 142.057 19.8813 141.779 24.4214C141.515 28.752 140.575 34.7335 140.575 43.1216C140.575 57.0595 142.591 65.9936 151.006 65.9936C154.311 65.9936 154.974 65.219 154.974 65.219C154.974 65.219 153.989 65.6127 152.262 65.6127L152.294 65.619Z" fill="url(#paint0_radial_5169_618)"/>
<g id="Group">
<path id="Vector_2" d="M3.45342 32.981C3.45342 32.5873 3.75623 32.2635 4.18145 32.2635C4.60667 32.2635 4.90948 32.5873 4.90948 32.981C4.90948 33.3747 4.60667 33.6985 4.18145 33.6985C3.75623 33.6985 3.45342 33.3747 3.45342 32.981ZM2.12621 33.6985C2.53854 33.6985 2.85424 33.3747 2.85424 32.981C2.85424 32.5873 2.53854 32.2635 2.12621 32.2635C1.68166 32.2635 1.39817 32.5873 1.39817 32.981C1.39817 33.3747 1.68166 33.6985 2.12621 33.6985ZM9.71578 42.3025C9.31633 42.3025 8.97486 42.6264 8.97486 43.0327C8.97486 43.4391 9.31633 43.763 9.71578 43.763C10.1152 43.763 10.4567 43.4518 10.4567 43.0327C10.4567 42.6137 10.1152 42.3025 9.71578 42.3025ZM21.171 35.2606L23.0394 34.9113V39.3562C23.0394 40.5373 22.1696 41.185 20.9584 41.185C20.0306 41.185 19.3155 40.6643 19.0191 39.9912C18.8323 40.6643 17.9367 41.185 17.0476 41.185C16.0941 41.185 15.5465 40.8611 15.0633 40.2134C14.7476 40.8611 14.0389 41.185 13.1369 41.185H12.5248C11.8355 41.1469 11.2492 40.7214 10.8239 40.0864C10.4825 40.931 9.59981 41.185 8.71071 41.185H6.45574C5.48289 41.1723 4.68398 41.0008 4.68398 39.7245C4.47137 40.3277 3.8271 41.185 2.61586 41.185C1.11469 41.185 -0.00634766 39.6673 -0.00634766 37.9211C-0.00634766 36.3019 1.12114 34.7145 2.91867 34.7145C3.73046 34.7145 4.27165 35.0637 4.60023 35.2796C4.75485 35.3812 4.84505 35.432 4.84505 35.432C4.87082 35.432 4.94814 35.2479 4.99968 35.0828C5.02545 35.0256 4.99968 34.9685 5.10276 34.8732H5.81791C5.73415 35.2415 5.71483 35.6035 5.71483 35.9019V39.5467C5.71483 39.9277 5.7857 40.6135 6.45574 40.6706H8.453C9.2068 40.6706 9.5225 40.1753 9.5225 39.3626V35.8321C9.5225 35.5209 9.46452 35.4638 8.89755 35.2669L10.7788 34.9177V38.5053C10.7788 39.3943 11.378 40.6706 12.3766 40.6706H12.847C13.633 40.6706 13.9616 40.1499 13.9616 39.3181V36.8544C13.9616 36.5432 13.9616 36.4861 13.3173 36.2765L15.1986 35.94V38.7784C15.3017 39.6229 15.8235 40.7024 16.7126 40.7024C17.5244 40.7024 17.853 40.1817 17.853 39.3499V36.3273C17.853 36.0289 17.8401 35.9781 17.2087 35.7622L19.1093 35.413V38.4926C19.1093 39.3816 19.6634 40.7024 20.6492 40.7024C21.4481 40.7024 21.7766 40.1817 21.7766 39.3499V35.8892C21.7766 35.5527 21.7766 35.4511 21.1646 35.2542L21.171 35.2606ZM4.51003 37.737C4.51003 36.5432 4.3554 35.2034 2.92511 35.2034C1.81051 35.2034 1.30153 36.5559 1.30153 38.0037C1.30153 40.0737 2.21641 40.7024 2.81558 40.7024C3.51784 40.7024 4.12991 40.1817 4.3554 39.4388C4.48426 39.0197 4.51003 38.4799 4.51003 37.737ZM52.47 32.5429L54.3513 32.1936V39.3499C54.3513 40.5309 53.4815 41.1786 52.2702 41.1786H51.6131C50.885 41.1786 50.2601 40.7405 49.8155 40.0801C49.4741 40.9246 48.6043 41.1786 47.7023 41.1786H46.5877C45.6471 41.1786 45.1059 40.8548 44.6162 40.2388C44.2039 41.0961 43.3148 41.7882 41.936 41.7882C40.6346 41.7882 40.0354 41.1278 39.6102 40.5944C39.2816 40.9437 38.8693 41.185 38.109 41.185H27.4785C26.2672 41.185 25.3653 40.7659 25.3653 39.4261V33.254C25.3653 32.9175 25.1526 32.7905 24.3409 32.7905V32.327L26.6216 32.2254V39.4832C26.6216 40.2261 26.9631 40.6198 27.5622 40.6643H34.5655C34.5204 37.4894 33.3929 35.813 32.2397 35.813C30.9705 35.813 30.1393 37.0512 29.7012 38.499L29.1149 37.4449C29.3276 37.3306 29.4693 37.2227 29.6884 36.8988C30.1909 36.0988 30.8609 35.3241 32.2848 35.3241C34.5526 35.3241 35.9378 38.0672 35.9829 40.6643H38.1219C38.2508 40.6389 38.4956 40.5944 38.6631 40.4547C39.0883 40.0483 39.3203 39.2038 39.5071 38.499C39.8486 37.1909 40.2094 35.8956 42.3033 35.8956C44.0299 35.8956 44.9577 37.61 44.9577 38.9054C44.9577 39.0895 44.9448 39.2546 44.9126 39.4134C45.1574 40.0737 45.6535 40.6643 46.2978 40.6643H47.4382C48.192 40.6643 48.5077 40.169 48.5077 39.3562V33.0826C48.5077 32.7714 48.4497 32.7143 47.8827 32.5175L49.7511 32.1682V38.4926C49.7511 39.3816 50.3761 40.6579 51.3618 40.6579H51.961C52.7599 40.6579 53.0885 40.1372 53.0885 39.3054V33.1588C53.0885 32.8349 53.0885 32.7397 52.4635 32.5429H52.47ZM43.6498 38.9689C43.6498 37.6354 43.1473 36.3845 42.11 36.34H42.052C41.1371 36.34 40.8537 37.3497 40.5702 38.4482L40.5444 38.5307C40.4156 39.007 40.2867 39.5277 40.0161 40.0356C40.0419 40.0483 40.0741 40.0928 40.087 40.1182C40.4607 40.569 41.0985 41.2865 41.9876 41.2865C42.8767 41.2865 43.6563 40.2452 43.6563 38.9689H43.6498ZM66.0642 38.2831C66.0642 39.6483 65.0785 41.1532 63.0554 41.1532C61.754 41.1532 61.1741 40.5055 60.7296 39.9721C60.3881 40.4674 59.8727 42.3406 58.1332 42.3406L58.0301 42.3279C57.8883 42.2263 57.7144 42.0739 57.5275 41.9088C57.1861 41.6294 56.7157 41.1088 56.6127 41.0516C56.8382 41.1469 57.5275 41.4008 57.927 41.4008C59.4797 41.4008 60.008 39.2292 60.3495 38.137C60.7618 36.7718 61.2515 35.2796 63.4033 35.2669C65.1429 35.2669 66.0578 36.9814 66.0578 38.2894L66.0642 38.2831ZM64.7821 38.3402C64.7821 37.0195 64.2667 35.7559 63.2101 35.7241H63.165C62.2501 35.7241 61.9279 36.7147 61.6316 37.8005C61.4898 38.3085 61.303 38.8165 61.0904 39.4007C61.1162 39.4451 62.1019 40.677 63.1134 40.677C64.0154 40.677 64.7821 39.6356 64.7821 38.3402ZM80.9212 32.5429L82.8025 32.1936V39.3499C82.8025 40.5309 81.9327 41.1786 80.7215 41.1786H76.8816C75.825 41.1786 75.4835 40.9691 75.2709 40.8294C75.2709 40.8294 75.258 40.8294 75.258 40.8167C74.8328 41.0389 74.472 41.185 73.7311 41.185H70.5033C69.292 41.185 68.39 40.7659 68.39 39.4261V33.254C68.39 32.9175 68.1774 32.7905 67.3656 32.7905V32.327L69.6464 32.2254V39.4832C69.6464 40.2261 69.9878 40.6198 70.587 40.6643H73.3832C73.512 40.6643 74.3947 40.5944 74.7684 40.3658C74.356 39.9023 74.0854 39.4769 73.3252 37.9783C73.0804 37.5275 72.5843 36.8925 72.3523 36.6004C72.2364 36.448 72.0946 36.2511 72.0495 36.2067C72.0946 36.1813 72.1333 36.1368 72.2364 36.0797C73.351 35.432 74.4913 35.0256 75.4771 35.0256C77.2295 35.0256 78.4987 35.94 78.4987 37.5148C78.4987 38.8927 77.0749 39.7626 75.8314 40.423C76.0183 40.5754 76.218 40.6643 76.6754 40.6643H80.4122C81.2111 40.6643 81.5397 40.1436 81.5397 39.3118V33.1651C81.5397 32.8413 81.5397 32.746 80.9148 32.5492L80.9212 32.5429ZM75.4127 39.9404C76.4242 39.3245 77.0942 38.7847 77.0942 37.4513C77.0942 36.3845 76.553 35.6098 75.4964 35.6098C74.7233 35.6098 73.9115 35.8638 73.1706 36.2702C73.6731 36.8607 74.0275 37.4957 74.3109 38.1116C74.6137 38.7022 75.039 39.534 75.4127 39.9404ZM84.7031 33.1651V41.1786H85.9594V32.1936L84.091 32.5429C84.6902 32.7397 84.7031 32.8413 84.7031 33.1588V33.1651ZM97.0281 36.2702V38.9689C97.0281 42.22 95.5592 43.1153 94.116 43.1153C92.6728 43.1153 91.2039 42.2136 91.2039 38.9689V35.9718L88.9231 36.0734V36.5496C89.7349 36.5496 89.9475 36.6639 89.9475 37.0004V38.9689C89.9475 41.2358 91.3456 43.5979 94.116 43.5979C96.8864 43.5979 98.2845 41.2358 98.2845 38.9689V35.2987L96.4032 35.6479C97.0152 35.8448 97.0281 35.9464 97.0281 36.2638V36.2702ZM93.9356 34.778C94.335 34.778 94.6765 34.4668 94.6765 34.0478C94.6765 33.6287 94.335 33.3175 93.9356 33.3175C93.5361 33.3175 93.2076 33.6414 93.2076 34.0478C93.2076 34.4541 93.549 34.778 93.9356 34.778ZM100.185 33.1651V41.1786H101.441V32.1936L99.573 32.5429C100.172 32.7397 100.185 32.8413 100.185 33.1588V33.1651ZM112.143 42.474C111.718 42.474 111.415 42.7851 111.415 43.1788C111.415 43.5725 111.718 43.8963 112.143 43.8963C112.568 43.8963 112.871 43.5725 112.871 43.1788C112.871 42.7851 112.568 42.474 112.143 42.474ZM111.312 35.2606L113.193 34.9113V39.3562C113.193 40.5373 112.336 41.185 111.125 41.185H108.026C107.427 43.4328 105.945 43.7693 104.785 43.7693C104.585 43.7693 104.128 43.7439 103.613 43.6995L103.954 43.6423C104.978 43.4201 106.293 42.9693 106.821 41.1786H105.178C104.225 41.1786 102.994 40.3341 102.994 38.9879C102.994 36.5432 104.734 34.9685 107.163 34.9685H108.245V38.4164C108.245 39.3181 108.219 40.061 108.142 40.6643H110.867C111.621 40.6516 111.937 40.1309 111.937 39.3118V35.8956C111.937 35.559 111.924 35.4574 111.292 35.2606H111.312ZM107.002 35.4003H106.847C105.591 35.4003 104.25 36.8036 104.25 38.899C104.25 39.7308 104.695 40.6579 105.507 40.6579H106.976C106.989 40.5182 107.002 40.4039 107.002 40.2198V35.3939V35.4003ZM110.088 42.474C109.643 42.474 109.36 42.7851 109.36 43.1788C109.36 43.5725 109.643 43.8963 110.088 43.8963C110.5 43.8963 110.816 43.5725 110.816 43.1788C110.816 42.7851 110.5 42.474 110.088 42.474ZM122.503 33.1651V39.3118C122.503 40.1436 122.174 40.6643 121.375 40.6643H119.977C119.964 38.2894 119.578 34.9558 117.864 34.9304H117.838C117.265 34.9304 116.84 35.2796 116.537 35.6225C115.925 36.3146 115.667 36.3972 115.313 36.4099L115.57 37.5084C116.414 36.3146 117.155 35.3876 117.671 35.3876C118.399 35.3876 118.586 36.5242 118.586 38.9435V40.6706H114.436L114.881 41.1913H121.691C122.902 41.1913 123.772 40.5436 123.772 39.3626V32.2063L121.891 32.5556C122.516 32.7524 122.516 32.854 122.516 33.1715L122.503 33.1651ZM125.041 32.5429C125.64 32.7397 125.653 32.8413 125.653 33.1588V41.1723H126.91V32.1873L125.041 32.5365V32.5429Z" fill="#055B4F"/>
<g id="Group_2">
<g id="Group_3">
<path id="Vector_3" d="M86.0753 51.7193C86.4297 51.8654 86.7325 52.0622 86.9902 52.3162C87.2479 52.5702 87.4477 52.875 87.5958 53.2242C87.744 53.5735 87.8149 53.9544 87.8149 54.3672C87.8149 54.7799 87.744 55.1609 87.5958 55.5165C87.4477 55.8657 87.2479 56.1705 86.9902 56.4245C86.7325 56.6785 86.4297 56.8754 86.0753 57.0214C85.721 57.1611 85.3409 57.231 84.9285 57.231C84.5162 57.231 84.1425 57.1611 83.7882 57.0214C83.4402 56.8817 83.1374 56.6849 82.8797 56.4245C82.622 56.1642 82.4223 55.8657 82.2741 55.5165C82.1259 55.1673 82.0551 54.7863 82.0551 54.3672C82.0551 53.9481 82.1259 53.5735 82.2741 53.2242C82.4223 52.875 82.622 52.5702 82.8797 52.3162C83.1374 52.0622 83.4402 51.859 83.7882 51.7193C84.1361 51.5796 84.5162 51.5034 84.9285 51.5034C85.3409 51.5034 85.721 51.5733 86.0753 51.7193ZM83.3629 55.4848C83.4402 55.8149 83.5562 56.1007 83.698 56.3293C83.8461 56.5642 84.0201 56.742 84.2263 56.869C84.4324 56.996 84.6708 57.0595 84.9285 57.0595C85.1862 57.0595 85.4182 56.996 85.6308 56.869C85.837 56.742 86.0174 56.5642 86.1655 56.3293C86.3137 56.0943 86.4232 55.8149 86.507 55.4848C86.5908 55.1546 86.623 54.7863 86.623 54.3735C86.623 53.9608 86.5843 53.5989 86.5006 53.2687C86.4168 52.9385 86.3073 52.6527 86.1591 52.4241C86.0109 52.1892 85.837 52.0114 85.6243 51.8844C85.4182 51.7574 85.1862 51.6939 84.9285 51.6939C84.6708 51.6939 84.4389 51.7574 84.2327 51.8844C84.0265 52.0114 83.8526 52.1892 83.7044 52.4241C83.5562 52.6591 83.4467 52.9385 83.3629 53.2687C83.2792 53.5989 83.247 53.9671 83.247 54.3735C83.247 54.7799 83.2856 55.1546 83.3629 55.4848Z" fill="#656565"/>
<path id="Vector_4" d="M90.8301 50.3414V51.6558H92.138V51.8273H90.8301V56.6087L91.7579 56.996V57.0976H88.878V56.996L89.7413 56.6087V51.8273H88.8586V51.6558H89.7477V50.4684C89.7477 48.8873 91.2296 48.6523 91.6935 48.6523C92.254 48.6523 92.866 48.8746 93.0142 48.9444L92.8145 50.2398H92.7179C92.647 50.1001 92.0027 48.9952 91.9383 48.8873C91.9254 48.8873 91.7708 48.8301 91.6226 48.8301C91.0878 48.8301 90.8366 49.5223 90.8366 50.3414H90.8301Z" fill="#656565"/>
</g>
<g id="Group_4">
<path id="Vector_5" d="M14.0452 56.0371C13.8068 56.399 13.4912 56.6847 13.0981 56.9006C12.7051 57.1165 12.2413 57.2245 11.7065 57.2245C11.3264 57.2245 10.9785 57.161 10.6692 57.0276C10.36 56.8943 10.0894 56.7101 9.87032 56.4689C9.64482 56.2276 9.47731 55.9418 9.3549 55.6053C9.23248 55.2687 9.1745 54.9004 9.1745 54.4941C9.1745 54.0496 9.23893 53.6432 9.37423 53.2749C9.50952 52.9066 9.68992 52.5955 9.9283 52.3288C10.1667 52.0621 10.4437 51.8652 10.7659 51.7192C11.088 51.5731 11.4424 51.5033 11.8289 51.5033C12.2155 51.5033 12.5247 51.5668 12.8147 51.6938C13.1046 51.8208 13.343 51.9922 13.5427 52.2145C13.7424 52.4367 13.8906 52.6971 13.9937 52.9955C14.0968 53.2939 14.1483 53.6178 14.1483 53.9543H10.3342C10.3278 53.9924 10.3213 54.0369 10.3213 54.075V54.2083C10.3213 54.5766 10.3664 54.9131 10.4502 55.2052C10.5339 55.5037 10.6563 55.7513 10.8174 55.9609C10.9785 56.1704 11.1718 56.3292 11.4101 56.4371C11.6421 56.545 11.9127 56.6022 12.2219 56.6022C12.3959 56.6022 12.5634 56.5831 12.7309 56.5514C12.8984 56.5196 13.0595 56.4752 13.2141 56.4181C13.3687 56.3609 13.5105 56.2911 13.6393 56.2149C13.7682 56.1387 13.8842 56.0434 13.9808 55.9482L14.0581 56.0244L14.0452 56.0371ZM11.204 51.8462C11.0365 51.9478 10.8883 52.0938 10.7594 52.278C10.637 52.4621 10.5339 52.6907 10.4631 52.9511C10.3922 53.2114 10.3471 53.5035 10.3278 53.821L13.0144 53.7003C13.0144 53.0336 12.9049 52.532 12.6922 52.1954C12.4796 51.8589 12.1704 51.6938 11.7709 51.6938C11.5583 51.6938 11.3715 51.7446 11.204 51.8462Z" fill="#656565"/>
<path id="Vector_6" d="M18.568 57.0975V57.0022L19.412 56.6085V53.2622C19.412 52.8939 19.3089 52.6018 19.0963 52.3796C18.8837 52.1573 18.568 52.043 18.1428 52.043C17.8915 52.043 17.6403 52.0875 17.4083 52.1764C17.1699 52.2653 16.9573 52.4113 16.764 52.6018V56.6085L17.608 57.0022V57.0975H14.8119V57.0022L15.6752 56.6085V52.3288L14.915 52.0049V51.9097L16.6996 51.5096L16.764 51.5668V52.3669C17.0282 52.1002 17.331 51.8906 17.6725 51.7382C18.0139 51.5858 18.3747 51.5096 18.7549 51.5096C19.0126 51.5096 19.251 51.5477 19.4636 51.6303C19.6762 51.7128 19.863 51.8208 20.0176 51.9668C20.1723 52.1129 20.2947 52.2843 20.3784 52.4875C20.4622 52.6907 20.5073 52.913 20.5073 53.1606V56.6149L21.3642 57.0086V57.1038H18.5745L18.568 57.0975Z" fill="#656565"/>
<path id="Vector_7" d="M27.0274 56.0371C26.789 56.399 26.4733 56.6847 26.0803 56.9006C25.6873 57.1165 25.2234 57.2245 24.6887 57.2245C24.3086 57.2245 23.9607 57.161 23.6514 57.0276C23.3421 56.8943 23.0716 56.7101 22.8525 56.4689C22.627 56.2276 22.4595 55.9418 22.3371 55.6053C22.2147 55.2687 22.1567 54.9004 22.1567 54.4941C22.1567 54.0496 22.2211 53.6432 22.3564 53.2749C22.4917 52.9066 22.6721 52.5955 22.9105 52.3288C23.1489 52.0621 23.4259 51.8652 23.748 51.7192C24.0702 51.5731 24.4245 51.5033 24.8111 51.5033C25.1977 51.5033 25.5069 51.5668 25.7968 51.6938C26.0868 51.8208 26.3251 51.9922 26.5249 52.2145C26.7246 52.4367 26.8728 52.6971 26.9759 52.9955C27.0789 53.2939 27.1305 53.6178 27.1305 53.9543H23.3164C23.3099 53.9924 23.3035 54.0369 23.3035 54.075V54.2083C23.3035 54.5766 23.3486 54.9131 23.4323 55.2052C23.5161 55.5037 23.6385 55.7513 23.7996 55.9609C23.9607 56.1704 24.1539 56.3292 24.3923 56.4371C24.6243 56.545 24.8949 56.6022 25.2041 56.6022C25.3781 56.6022 25.5456 56.5831 25.7131 56.5514C25.8806 56.5196 26.0417 56.4752 26.1963 56.4181C26.3509 56.3609 26.4927 56.2911 26.6215 56.2149C26.7504 56.1387 26.8663 56.0434 26.963 55.9482L27.0403 56.0244L27.0274 56.0371ZM24.1861 51.8462C24.0186 51.9478 23.8705 52.0938 23.7416 52.278C23.6192 52.4621 23.5161 52.6907 23.4452 52.9511C23.3744 53.2114 23.3293 53.5035 23.3099 53.821L25.9966 53.7003C25.9966 53.0336 25.887 52.532 25.6744 52.1954C25.4618 51.8589 25.1526 51.6938 24.7531 51.6938C24.5405 51.6938 24.3537 51.7446 24.1861 51.8462Z" fill="#656565"/>
<path id="Vector_8" d="M31.853 53.0273H31.7822C31.7113 52.9257 31.6404 52.8241 31.5696 52.7288C31.4987 52.6336 31.4149 52.5447 31.3247 52.4621C31.2345 52.3796 31.1379 52.3224 31.0348 52.2716C30.9253 52.2272 30.8029 52.2018 30.6611 52.2018C30.4872 52.2018 30.3197 52.2462 30.1586 52.3351C29.9975 52.424 29.8622 52.532 29.7527 52.659V56.6086L30.6547 57.0022V57.0975H27.8005V57.0022L28.6639 56.6086V52.3288L27.9036 52.0049V51.9097L29.6883 51.5097L29.7527 51.5668V52.4558C29.8558 52.3097 29.9782 52.1764 30.1199 52.0621C30.2617 51.9414 30.4099 51.8462 30.5709 51.7573C30.732 51.6684 30.9059 51.6112 31.0863 51.5668C31.2667 51.5223 31.4471 51.4969 31.634 51.4969C31.7177 51.4969 31.7951 51.5033 31.8724 51.516C31.9497 51.5287 32.027 51.5477 32.1043 51.5795L31.8595 53.0273H31.853Z" fill="#656565"/>
<path id="Vector_9" d="M37.2714 56.4625L37.877 56.8244V56.8879L36.3372 57.2245L36.2019 56.4371C35.9699 56.672 35.6993 56.8625 35.3836 57.0086C35.0679 57.1546 34.7329 57.2245 34.3657 57.2245C34.1466 57.2245 33.9469 57.1991 33.7601 57.1419C33.5797 57.0848 33.425 57.0086 33.2962 56.907C33.1673 56.8054 33.0642 56.6784 32.9934 56.526C32.9225 56.38 32.8839 56.2085 32.8839 56.0117C32.8839 55.7069 32.974 55.4338 33.1544 55.1989C33.3348 54.9639 33.5797 54.7544 33.8825 54.5893C34.1853 54.4242 34.5396 54.2845 34.9326 54.1893C35.3257 54.094 35.738 54.0305 36.1697 54.0051V53.3765C36.1697 53.186 36.1439 53.0146 36.0988 52.8495C36.0537 52.6844 35.9764 52.5447 35.8668 52.424C35.7573 52.3034 35.622 52.2081 35.4481 52.1383C35.2741 52.0684 35.0679 52.0367 34.8167 52.0367C34.5268 52.0367 34.2562 52.0684 34.0049 52.1256C33.7536 52.1827 33.5152 52.278 33.2962 52.405L33.2253 52.3034C33.4895 52.0684 33.8116 51.8779 34.1917 51.7255C34.5719 51.5795 34.9842 51.5033 35.4287 51.5033C35.7895 51.5033 36.0859 51.5477 36.3243 51.643C36.5627 51.7382 36.7495 51.8652 36.8848 52.0367C37.0201 52.2018 37.1167 52.3986 37.1747 52.6209C37.2327 52.8431 37.2585 53.0844 37.2585 53.3384V56.4562L37.2714 56.4625ZM34.2304 56.4435C34.3721 56.6022 34.6041 56.6784 34.9133 56.6784C35.1581 56.6784 35.3901 56.6466 35.6027 56.5768C35.8153 56.507 36.0086 56.399 36.1825 56.2466V54.1956C35.8668 54.2274 35.5769 54.2845 35.3063 54.3671C35.0357 54.4496 34.8102 54.5576 34.6234 54.6909C34.4301 54.8242 34.2819 54.983 34.1724 55.1608C34.0629 55.3386 34.0113 55.5418 34.0113 55.7704C34.0113 56.0561 34.0822 56.2784 34.2239 56.4371L34.2304 56.4435Z" fill="#656565"/>
<path id="Vector_10" d="M40.8084 48.9189L40.8729 48.9761V56.6086L41.7298 57.0023V57.0975H38.9207V57.0023L39.784 56.6086V49.7381L39.2042 49.4206V49.319L40.8084 48.9189Z" fill="#656565"/>
<path id="Vector_11" d="M7.25455 51.2113H7.13858C7.09993 51.097 7.04838 50.9319 6.98396 50.7224C6.91953 50.5128 6.81644 50.2906 6.68115 50.0493C6.54585 49.808 6.37189 49.5794 6.15928 49.3445C5.94667 49.1159 5.66963 48.919 5.34105 48.7603L5.27662 48.7285C5.11555 48.6777 4.95448 48.6396 4.79986 48.6206C4.64523 48.6015 4.49061 48.5888 4.34242 48.5888C3.81412 48.5888 3.36957 48.7031 2.99588 48.9381C2.62865 49.1667 2.32584 49.4778 2.0939 49.8651C1.86196 50.2525 1.69445 50.7033 1.58492 51.2113C1.48184 51.7193 1.42385 52.2527 1.42385 52.8115C1.42385 53.4464 1.48828 54.0179 1.62358 54.5323C1.75243 55.0466 1.95216 55.4784 2.21631 55.8467C2.48046 56.2086 2.80904 56.488 3.21494 56.6912C3.62083 56.8944 4.08471 56.9896 4.61946 56.9896C4.81274 56.9896 5.00603 56.9579 5.20575 56.8944C5.40548 56.8309 5.59232 56.7483 5.75339 56.6467C5.9209 56.5452 6.0562 56.4309 6.16572 56.2975C6.27525 56.1642 6.32679 56.0308 6.32679 55.8911V53.9036L5.122 53.2242V53.148H7.54448V56.1705L7.49938 56.2023C7.35119 56.3166 7.17724 56.4309 6.97751 56.5579C6.77779 56.6848 6.54585 56.7928 6.28814 56.8944C6.03043 56.996 5.7405 57.0785 5.42481 57.1484C5.10911 57.2182 4.7612 57.25 4.38108 57.25C3.70459 57.25 3.09253 57.142 2.55133 56.9198C2.01014 56.6975 1.55271 56.3928 1.17258 55.9991C0.79246 55.6054 0.502536 55.1355 0.30281 54.5958C0.103084 54.056 0 53.4591 0 52.8115C0 52.1638 0.0966415 51.5796 0.296367 51.0335C0.496093 50.4874 0.786017 50.0175 1.1597 49.6175C1.53982 49.2175 2.0037 48.9063 2.56422 48.6777C3.1183 48.4491 3.74969 48.3412 4.45839 48.3412C4.90939 48.3412 5.36038 48.4047 5.81137 48.5317C6.26237 48.6587 6.68759 48.8111 7.09348 48.9889L7.25455 51.2113Z" fill="#656565"/>
</g>
<g id="Group_5">
<path id="Vector_12" d="M59.3829 51.7193C59.7372 51.8654 60.0401 52.0622 60.2978 52.3162C60.5555 52.5702 60.7552 52.875 60.9034 53.2242C61.0516 53.5735 61.1224 53.9544 61.1224 54.3672C61.1224 54.7799 61.0516 55.1609 60.9034 55.5165C60.7552 55.8657 60.5555 56.1705 60.2978 56.4245C60.0401 56.6785 59.7372 56.8754 59.3829 57.0214C59.0285 57.1611 58.6484 57.231 58.2361 57.231C57.8237 57.231 57.4501 57.1611 57.0957 57.0214C56.7478 56.8817 56.445 56.6849 56.1873 56.4245C55.9296 56.1642 55.7298 55.8657 55.5817 55.5165C55.4335 55.1673 55.3626 54.7863 55.3626 54.3672C55.3626 53.9481 55.4335 53.5735 55.5817 53.2242C55.7298 52.875 55.9296 52.5702 56.1873 52.3162C56.445 52.0622 56.7478 51.859 57.0957 51.7193C57.4436 51.5796 57.8237 51.5034 58.2361 51.5034C58.6484 51.5034 59.0285 51.5733 59.3829 51.7193ZM56.6705 55.4848C56.7478 55.8149 56.8638 56.0943 57.0055 56.3293C57.1537 56.5642 57.3277 56.742 57.5338 56.869C57.74 56.996 57.9719 57.0595 58.2361 57.0595C58.5002 57.0595 58.7257 56.996 58.9383 56.869C59.1445 56.742 59.3249 56.5642 59.4731 56.3293C59.6213 56.0943 59.7308 55.8149 59.8146 55.4848C59.8983 55.1546 59.9305 54.7863 59.9305 54.3735C59.9305 53.9608 59.8919 53.5989 59.8081 53.2687C59.7244 52.9385 59.6148 52.6527 59.4667 52.4241C59.3185 52.1892 59.1445 52.0114 58.9319 51.8844C58.7257 51.7574 58.4938 51.6939 58.2361 51.6939C57.9784 51.6939 57.7464 51.7574 57.5403 51.8844C57.3341 52.0114 57.1601 52.1892 57.012 52.4241C56.8638 52.6591 56.7542 52.9385 56.6705 53.2687C56.5867 53.5989 56.5545 53.9671 56.5545 54.3735C56.5545 54.7799 56.5932 55.1546 56.6705 55.4848Z" fill="#656565"/>
<path id="Vector_13" d="M67.5266 51.5034L67.5846 51.5606V56.4563L68.1902 56.8182V56.8817L66.6568 57.2183L66.5215 56.3293C66.412 56.4436 66.2767 56.5579 66.1221 56.6658C65.9674 56.7738 65.7935 56.869 65.6131 56.9516C65.4327 57.0341 65.2394 57.0976 65.0397 57.1484C64.8399 57.1992 64.6338 57.2246 64.4341 57.2246C64.2086 57.2246 63.9959 57.1865 63.7898 57.1167C63.5836 57.0468 63.4097 56.9389 63.255 56.7992C63.1068 56.6595 62.9844 56.488 62.8942 56.2848C62.804 56.0816 62.7589 55.8467 62.7589 55.58V52.3162L61.9922 51.9924V51.8971L63.7833 51.4971L63.8413 51.5542V55.3324C63.8413 55.5292 63.8671 55.7134 63.9122 55.8784C63.9573 56.0435 64.0282 56.1832 64.1248 56.3039C64.2214 56.4245 64.3439 56.5134 64.4856 56.5769C64.6338 56.6404 64.8013 56.6722 64.9946 56.6722C65.1363 56.6722 65.2781 56.6595 65.4198 56.6341C65.5615 56.6087 65.6968 56.5706 65.8257 56.5198C65.9545 56.469 66.077 56.4055 66.1929 56.3356C66.3089 56.2658 66.4055 56.1832 66.4893 56.1007V52.3162L65.7226 51.9924V51.8971L67.5137 51.4971L67.5266 51.5034Z" fill="#656565"/>
<path id="Vector_14" d="M73.3315 53.0274H73.2606C73.1897 52.9258 73.1189 52.8242 73.048 52.7289C72.9771 52.6337 72.8934 52.5448 72.8032 52.4622C72.713 52.3797 72.6163 52.3225 72.5133 52.2717C72.4037 52.2273 72.2813 52.2019 72.1396 52.2019C71.9656 52.2019 71.7981 52.2463 71.637 52.3352C71.476 52.4241 71.3407 52.5321 71.2311 52.6591V56.6087L72.1331 57.0024V57.0976H69.279V57.0024L70.1423 56.6087V52.3289L69.3821 52.0051V51.9098L71.1667 51.5098L71.2311 51.5669V52.4559C71.3342 52.3098 71.4566 52.1765 71.5984 52.0622C71.7401 51.9416 71.8883 51.8463 72.0494 51.7574C72.2105 51.6685 72.3844 51.6114 72.5648 51.5669C72.7452 51.5225 72.9256 51.4971 73.1124 51.4971C73.1962 51.4971 73.2735 51.5034 73.3508 51.5161C73.4281 51.5288 73.5054 51.5479 73.5828 51.5796L73.3379 53.0274H73.3315Z" fill="#656565"/>
<path id="Vector_15" d="M76.2372 51.8273V55.8213C76.2372 56.1197 76.3016 56.3483 76.4369 56.5007C76.5722 56.6595 76.7655 56.7357 77.0361 56.7357C77.2358 56.7357 77.4291 56.7103 77.616 56.6531C77.8028 56.596 77.9574 56.5325 78.0863 56.4436L78.1443 56.5261C78.067 56.615 77.9768 56.6976 77.8672 56.7865C77.7577 56.869 77.6353 56.9452 77.5 57.0151C77.3647 57.0786 77.223 57.1357 77.0619 57.1738C76.9073 57.2119 76.7398 57.231 76.5594 57.231C76.3467 57.231 76.1599 57.1992 75.986 57.1357C75.812 57.0722 75.6638 56.977 75.5414 56.85C75.419 56.723 75.3223 56.5706 75.2515 56.3864C75.1806 56.2023 75.1484 55.9927 75.1484 55.7514V51.8209H74.4075V51.7511L75.1548 51.4463L76.147 50.424H76.2243V51.6495H77.9768V51.8209H76.2372V51.8273Z" fill="#656565"/>
<path id="Vector_16" d="M53.8293 51.2113H53.7197C53.6811 51.097 53.6295 50.9319 53.5651 50.7224C53.5007 50.5128 53.3976 50.2906 53.2623 50.0493C53.127 49.808 52.953 49.5794 52.7404 49.3445C52.5278 49.1159 52.2508 48.919 51.9222 48.7603L51.8707 48.7349C51.7031 48.6841 51.5356 48.646 51.3681 48.6269C51.2071 48.6079 51.0395 48.5952 50.8849 48.5952C50.4082 48.5952 49.9958 48.7031 49.635 48.9127C49.2742 49.1222 48.9779 49.4143 48.733 49.7889C48.4946 50.1636 48.3078 50.6081 48.1854 51.1224C48.063 51.6367 47.9986 52.1955 47.9986 52.8115C47.9986 53.4274 48.063 54.0116 48.1983 54.5196C48.3271 55.0339 48.5204 55.472 48.7781 55.8403C49.0294 56.2086 49.3451 56.488 49.7123 56.6912C50.0796 56.888 50.5048 56.9896 50.9816 56.9896C51.1169 56.9896 51.2586 56.9769 51.4068 56.9579C51.555 56.9388 51.7096 56.9071 51.8642 56.8563L51.9158 56.8245C52.2379 56.6658 52.5085 56.4753 52.7275 56.2404C52.9466 56.0054 53.1206 55.7705 53.2559 55.5292C53.3912 55.2879 53.4942 55.0656 53.5651 54.8497C53.636 54.6402 53.6875 54.4815 53.7197 54.3672H53.8293L53.6682 56.5959C53.2172 56.7928 52.7726 56.9452 52.3281 57.0658C51.8835 57.1801 51.4197 57.2373 50.9236 57.2373C50.2729 57.2373 49.6801 57.1293 49.1454 56.9071C48.6106 56.6848 48.1532 56.3801 47.7731 55.9927C47.3929 55.599 47.0966 55.1355 46.8904 54.5958C46.6842 54.056 46.5747 53.4655 46.5747 52.8178C46.5747 52.1701 46.6778 51.5732 46.8775 51.0272C47.0772 50.4811 47.3736 50.0048 47.7473 49.6048C48.1274 49.2048 48.5848 48.8936 49.126 48.6714C49.6672 48.4491 50.2728 48.3348 50.9558 48.3348C51.4325 48.3348 51.89 48.392 52.341 48.5126C52.792 48.6333 53.2301 48.7857 53.6617 48.9825L53.8228 51.205L53.8293 51.2113Z" fill="#656565"/>
</g>
<g id="Group_6">
<path id="Vector_17" d="M110.944 51.5033L111.002 51.5604V56.4562L111.608 56.8181V56.8816L110.075 57.2181L109.939 56.3292C109.83 56.4435 109.694 56.5578 109.54 56.6657C109.385 56.7736 109.211 56.8689 109.031 56.9514C108.85 57.034 108.657 57.0975 108.457 57.1483C108.258 57.1991 108.052 57.2245 107.852 57.2245C107.626 57.2245 107.414 57.1864 107.208 57.1165C107.001 57.0467 106.827 56.9387 106.673 56.799C106.525 56.6593 106.402 56.4879 106.312 56.2847C106.222 56.0815 106.177 55.8466 106.177 55.5799V52.3161L105.41 51.9922V51.897L107.201 51.4969L107.259 51.5541V55.3322C107.259 55.5291 107.285 55.7132 107.33 55.8783C107.375 56.0434 107.446 56.1831 107.543 56.3038C107.639 56.4244 107.762 56.5133 107.903 56.5768C108.052 56.6403 108.219 56.6721 108.412 56.6721C108.554 56.6721 108.696 56.6594 108.838 56.634C108.979 56.6086 109.115 56.5705 109.243 56.5197C109.372 56.4689 109.495 56.4054 109.611 56.3355C109.727 56.2657 109.823 56.1831 109.907 56.1006V52.3161L109.14 51.9922V51.897L110.931 51.4969L110.944 51.5033Z" fill="#656565"/>
<path id="Vector_18" d="M117.851 48.919L117.915 48.9761V56.4625L118.521 56.8245V56.888L116.981 57.2245L116.846 56.4244C116.73 56.5324 116.614 56.634 116.485 56.7292C116.356 56.8245 116.221 56.9134 116.066 56.9832C115.918 57.0594 115.751 57.1166 115.57 57.161C115.39 57.2055 115.19 57.2245 114.971 57.2245C114.617 57.2245 114.301 57.161 114.018 57.0277C113.734 56.8943 113.496 56.7165 113.296 56.4752C113.096 56.2403 112.948 55.9609 112.845 55.6307C112.742 55.3069 112.69 54.9449 112.69 54.5576C112.69 54.1131 112.755 53.7004 112.89 53.3257C113.025 52.9511 113.219 52.6272 113.47 52.3606C113.721 52.0875 114.024 51.878 114.378 51.7256C114.733 51.5732 115.132 51.497 115.583 51.497C115.828 51.497 116.053 51.5351 116.26 51.6113C116.466 51.6875 116.653 51.7891 116.82 51.9288V49.7317L116.24 49.4142V49.3063L117.845 48.9062L117.851 48.919ZM113.998 55.3132C114.076 55.6117 114.185 55.8657 114.333 56.0688C114.481 56.272 114.655 56.4308 114.862 56.5324C115.068 56.6403 115.3 56.6911 115.564 56.6911C116.041 56.6911 116.459 56.5324 116.827 56.2149V52.7225C116.788 52.5447 116.73 52.3923 116.653 52.259C116.575 52.1256 116.485 52.024 116.382 51.9351C116.279 51.8526 116.157 51.7891 116.028 51.7446C115.899 51.7002 115.764 51.6811 115.628 51.6811C115.358 51.6811 115.119 51.7446 114.9 51.8716C114.688 51.9986 114.501 52.1764 114.353 52.405C114.204 52.6336 114.082 52.9066 114.005 53.2241C113.927 53.5416 113.882 53.8909 113.882 54.2782C113.882 54.6655 113.921 55.0084 113.998 55.3069V55.3132Z" fill="#656565"/>
<path id="Vector_19" d="M121.407 51.5034L121.472 51.5605V56.6086L122.329 57.0023V57.0975H119.52V57.0023L120.383 56.6086V52.3288L119.623 52.005V51.9097L121.407 51.5097V51.5034ZM120.409 49.3571C120.531 49.2365 120.692 49.1793 120.879 49.1793C121.066 49.1793 121.24 49.2365 121.362 49.3571C121.485 49.4778 121.549 49.6238 121.549 49.8016C121.549 49.9794 121.485 50.1381 121.362 50.2524C121.24 50.3667 121.079 50.4239 120.879 50.4239C120.679 50.4239 120.531 50.3667 120.409 50.2524C120.286 50.1381 120.222 49.9858 120.222 49.8016C120.222 49.6175 120.286 49.4714 120.409 49.3508V49.3571Z" fill="#656565"/>
<path id="Vector_20" d="M125.009 51.8271V55.8212C125.009 56.1196 125.073 56.3482 125.209 56.5006C125.344 56.6593 125.537 56.7355 125.808 56.7355C126.008 56.7355 126.201 56.7101 126.388 56.653C126.575 56.5958 126.729 56.5324 126.858 56.4435L126.916 56.526C126.839 56.6149 126.748 56.6974 126.639 56.7863C126.529 56.8689 126.407 56.9451 126.272 57.0149C126.136 57.0784 125.995 57.1356 125.834 57.1737C125.679 57.2118 125.511 57.2308 125.331 57.2308C125.118 57.2308 124.932 57.1991 124.758 57.1356C124.584 57.0721 124.436 56.9768 124.313 56.8498C124.191 56.7228 124.094 56.5705 124.023 56.3863C123.952 56.2022 123.92 55.9926 123.92 55.7513V51.8208H123.179V51.7509L123.927 51.4461L124.919 50.4238H124.996V51.6493H126.748V51.8208H125.009V51.8271Z" fill="#656565"/>
<path id="Vector_21" d="M104.695 56.9832V57.0975H101.28V56.9832L102.26 56.4245L101.48 54.2719H98.1104L97.3373 56.4245L98.6129 56.9832V57.0975H95.9199V56.9832L97.0087 56.4308L99.5729 49.3952L98.9931 48.5888V48.4745H100.675L103.651 56.4308L104.682 56.9832H104.695ZM99.792 49.6111L98.207 54.0179H101.383L99.7984 49.6111H99.792Z" fill="#656565"/>
</g>
</g>
</g>
</g>
<defs>
<radialGradient id="paint0_radial_5169_618" cx="0" cy="0" r="1" gradientUnits="userSpaceOnUse" gradientTransform="translate(142.443 33) scale(16.9445 16.7)">
<stop stop-color="#47B27A"/>
<stop offset="1" stop-color="#055B4F"/>
</radialGradient>
<clipPath id="clip0_5169_618">
<rect width="155" height="66" fill="white"/>
</clipPath>
</defs>
</svg>
