<svg width="126" height="56" viewBox="0 0 126 56" fill="none" xmlns="http://www.w3.org/2000/svg">
<g id="Group_3975" clip-path="url(#clip0_5169_295)">
<g id="Group_3969">
<g id="Group_3966">
<path id="Path_6866" d="M108.48 53.1899C107.79 53.1899 107.1 53.08 106.44 52.86L101.43 51.32C99.17 50.5999 96.75 50.5999 94.49 51.32L89.48 52.86C87.63 53.42 85.64 53.18 83.97 52.2C82.29 51.25 81.09 49.63 80.67 47.74L79.46 42.6199C78.92 40.32 77.71 38.2399 75.99 36.6199L72.19 33.04C69.39 30.43 69.24 26.0499 71.85 23.25C71.96 23.1299 72.07 23.02 72.19 22.91L75.99 19.33C77.72 17.72 78.93 15.6299 79.46 13.3299L80.67 8.20995C81.09 6.31995 82.29 4.69995 83.97 3.74995C85.63 2.76995 87.63 2.52995 89.48 3.08995L94.49 4.61995C96.75 5.33995 99.17 5.33995 101.43 4.61995L106.44 3.07995C108.29 2.51995 110.28 2.75995 111.95 3.73995C113.63 4.68995 114.83 6.30995 115.25 8.19995L116.46 13.3199C117 15.6199 118.21 17.7 119.93 19.32L123.73 22.9C126.53 25.51 126.68 29.8899 124.07 32.6899C123.96 32.8099 123.85 32.9199 123.73 33.0299L119.93 36.61C118.2 38.22 116.99 40.31 116.46 42.61L115.25 47.7299C114.83 49.6199 113.63 51.2399 111.95 52.1899C110.92 52.8699 109.71 53.2099 108.49 53.1899H108.48ZM87.44 4.34995C86.49 4.33995 85.56 4.58995 84.74 5.06995C83.44 5.82995 82.51 7.07995 82.15 8.53995L80.94 13.6599C80.33 16.2699 78.97 18.6399 77.03 20.49L73.23 24.07C71.04 26.1399 70.95 29.6 73.02 31.79C73.09 31.86 73.16 31.93 73.23 32L77.03 35.58C79 37.4 80.36 39.79 80.94 42.41L82.15 47.5299C82.85 50.4599 85.79 52.28 88.72 51.58C88.82 51.56 88.93 51.5299 89.03 51.5L94.04 49.9599C96.61 49.1899 99.35 49.1899 101.91 49.9599L106.92 51.5C108.36 51.9399 109.92 51.7599 111.21 51C112.51 50.24 113.44 48.9899 113.8 47.5299L115.01 42.41C115.62 39.7999 116.98 37.43 118.92 35.58L122.72 32C124.91 29.93 125 26.47 122.93 24.28C122.86 24.21 122.79 24.1399 122.72 24.07L118.92 20.49C116.95 18.67 115.59 16.2799 115.01 13.6599L113.8 8.53995C113.1 5.60995 110.16 3.78995 107.23 4.48995C107.13 4.50995 107.02 4.53995 106.92 4.56995L101.91 6.10995C99.34 6.87995 96.6 6.87995 94.04 6.10995L89.03 4.56995C88.51 4.44995 87.97 4.37995 87.43 4.34995H87.44Z" fill="#00CE7C"/>
</g>
<path id="Path_6867" opacity="0.66" d="M81.66 10.7399L82.16 8.53995C82.49 7.06995 83.43 5.80995 84.75 5.06995C85.57 4.58995 86.5 4.33995 87.45 4.34995C87.99 4.34995 88.53 4.41995 89.05 4.56995L91.14 5.22995C91.52 4.76995 91.94 4.33995 92.41 3.95995L89.49 3.07995C87.64 2.51995 85.65 2.75995 83.98 3.73995C82.3 4.68995 81.1 6.30995 80.68 8.19995L80.01 11.1199C80.51 11.0099 81.06 10.8399 81.66 10.7299V10.7399Z" fill="url(#paint0_linear_5169_295)"/>
<path id="Path_6868" opacity="0.66" d="M104.57 5.34001L106.94 4.62001C108.38 4.18001 109.94 4.36001 111.23 5.12001C112.53 5.88001 113.46 7.13001 113.82 8.59001L114.26 10.52C114.81 10.58 115.36 10.63 115.91 10.74L115.3 8.26001C114.88 6.37001 113.68 4.75001 112 3.80001C110.34 2.82001 108.34 2.58001 106.49 3.14001L104.01 3.86001C104.22 4.34001 104.41 4.84001 104.56 5.34001H104.57Z" fill="url(#paint1_linear_5169_295)"/>
<path id="Path_6869" opacity="0.66" d="M74.89 33.54L73.23 32C71.04 29.93 70.95 26.47 73.02 24.28C73.09 24.21 73.16 24.14 73.23 24.07L74.94 22.47C74.78 21.92 74.61 21.37 74.44 20.76L72.13 22.91C69.33 25.52 69.18 29.9 71.79 32.7C71.9 32.82 72.01 32.93 72.13 33.04L74.33 35.08C74.45 34.55 74.64 34.03 74.89 33.54Z" fill="url(#paint2_linear_5169_295)"/>
<path id="Path_6870" opacity="0.66" d="M123.78 22.91L121.63 20.93C121.52 21.51 121.37 22.08 121.19 22.64L122.73 24.07C124.92 26.14 125.01 29.6 122.94 31.79C122.87 31.86 122.8 31.93 122.73 32L121.74 32.94C122.17 33.24 122.5 33.66 122.68 34.15L123.78 33.16C126.61 30.48 126.73 26.02 124.05 23.19C123.96 23.1 123.87 23.01 123.78 22.92V22.91Z" fill="url(#paint3_linear_5169_295)"/>
<path id="Path_6871" opacity="0.66" d="M91.74 51.43C91.54 51.21 91.37 50.97 91.24 50.71L88.98 51.37C87.54 51.81 85.98 51.63 84.69 50.87C83.39 50.11 82.46 48.86 82.1 47.4L81.56 45.04H79.96L80.57 47.74C80.99 49.63 82.19 51.25 83.87 52.2C85.53 53.18 87.53 53.42 89.38 52.86L92.08 52.03C92.03 51.86 91.86 51.64 91.75 51.42L91.74 51.43Z" fill="url(#paint4_linear_5169_295)"/>
<path id="Path_6872" opacity="0.66" d="M114.15 45.76L113.77 47.47C113.07 50.4 110.13 52.22 107.2 51.52C107.1 51.5 106.99 51.47 106.89 51.44L104.52 50.72C104.19 51.13 103.89 51.58 103.64 52.04L106.45 52.92C107.11 53.14 107.79 53.25 108.49 53.25C109.71 53.24 110.9 52.92 111.96 52.31C113.64 51.36 114.84 49.74 115.26 47.85L115.81 45.59L114.16 45.76H114.15Z" fill="url(#paint5_linear_5169_295)"/>
<g id="Group_3967">
<path id="Path_6873" d="M97.96 56C96.04 56.01 94.2 55.21 92.89 53.8L89.31 50C87.7 48.27 85.61 47.06 83.31 46.53L78.19 45.32C76.3 44.9 74.68 43.7 73.73 42.02C72.75 40.36 72.51 38.36 73.07 36.51L74.61 31.49C75.33 29.23 75.33 26.81 74.61 24.55L73.07 19.54C72.51 17.69 72.75 15.7 73.73 14.03C74.68 12.35 76.3 11.15 78.19 10.73L83.31 9.50996C85.61 8.96996 87.69 7.75996 89.31 6.03996L92.89 2.23996C95.5 -0.560042 99.88 -0.710042 102.68 1.89996C102.8 2.00996 102.91 2.11996 103.02 2.23996L106.6 6.03996C108.21 7.76996 110.3 8.97996 112.6 9.50996L117.72 10.72C119.61 11.14 121.23 12.34 122.18 14.02C123.16 15.68 123.4 17.68 122.84 19.53L121.31 24.54C120.59 26.8 120.59 29.22 121.31 31.48L122.85 36.49C123.41 38.34 123.17 40.33 122.19 42C121.24 43.68 119.62 44.88 117.73 45.3L112.61 46.52C110.31 47.06 108.23 48.27 106.61 49.99L103.03 53.79C101.72 55.21 99.88 56.01 97.96 55.99V56ZM97.96 1.53996C96.46 1.52996 95.02 2.14996 94 3.24996L90.42 7.04996C88.6 9.01996 86.21 10.38 83.59 10.96L78.47 12.17C75.54 12.87 73.72 15.81 74.42 18.74C74.44 18.84 74.47 18.95 74.5 19.05L76.04 24.06C76.81 26.63 76.81 29.37 76.04 31.93L74.5 36.94C74.06 38.38 74.24 39.94 75 41.24C75.76 42.54 77.01 43.47 78.47 43.83L83.59 45.04C86.2 45.65 88.57 47.02 90.41 48.96L93.99 52.76C96.06 54.95 99.52 55.04 101.71 52.97C101.78 52.9 101.85 52.83 101.92 52.76L105.5 48.96C107.32 46.99 109.71 45.63 112.33 45.05L117.45 43.84C120.38 43.14 122.2 40.2 121.5 37.27C121.48 37.17 121.45 37.06 121.42 36.96L119.88 31.95C119.11 29.38 119.11 26.64 119.88 24.08L121.42 19.07C121.86 17.63 121.68 16.07 120.92 14.77C120.16 13.47 118.91 12.54 117.45 12.18L112.33 11.02C109.72 10.41 107.35 9.04996 105.5 7.10996L101.92 3.30996C100.92 2.17996 99.48 1.52996 97.96 1.54996V1.53996Z" fill="#00CE7C"/>
</g>
<g id="Group_3968">
<path id="Path_6874" d="M74.17 32.88L75.44 34.09L76.1 32C76.87 29.43 76.87 26.69 76.1 24.13L75.44 22.04L74.17 23.25L74.61 24.63C75.33 26.89 75.33 29.31 74.61 31.57L74.17 32.89V32.88Z" fill="#00CE7C"/>
<path id="Path_6875" d="M83.59 11.01C86.2 10.4 88.57 9.04 90.42 7.1L91.91 5.5L90.26 5L89.27 6.05C87.66 7.78 85.57 8.99 83.27 9.52L81.89 9.85L81.5 11.57L83.59 11.02V11.01Z" fill="#00CE7C"/>
<path id="Path_6876" d="M105.5 7.10996C107.32 9.07996 109.71 10.44 112.33 11.02L114.48 11.52L114.1 9.80996L112.72 9.47996C110.42 8.93996 108.34 7.72996 106.72 6.00996L105.73 4.95996L104.08 5.45996L105.51 7.10996H105.5Z" fill="#00CE7C"/>
<path id="Path_6877" d="M112.33 44.99C109.72 45.6 107.35 46.96 105.5 48.9L104.01 50.5L105.66 51L106.65 49.95C108.26 48.22 110.35 47.01 112.65 46.48L114.03 46.15L114.41 44.44L112.32 44.98L112.33 44.99Z" fill="#00CE7C"/>
<path id="Path_6878" d="M121.31 31.5C120.59 29.24 120.59 26.82 121.31 24.56L121.75 23.18L120.48 21.97L119.82 24.06C119.05 26.63 119.05 29.37 119.82 31.93L120.48 34.02L121.75 32.81L121.31 31.49V31.5Z" fill="#00CE7C"/>
<path id="Path_6879" opacity="0.66" d="M122.24 34.53L120.97 35.74L121.35 37.01C121.79 38.45 121.61 40.01 120.85 41.3C120.09 42.6 118.84 43.53 117.38 43.89L116.11 44.17L115.73 45.88L117.77 45.38C119.66 44.96 121.28 43.76 122.23 42.08C123.21 40.42 123.45 38.42 122.89 36.57L122.23 34.53H122.24Z" fill="url(#paint6_linear_5169_295)"/>
<path id="Path_6880" d="M90.42 48.95C88.6 46.98 86.21 45.62 83.59 45.04L81.44 44.54L81.82 46.25L83.2 46.58C85.5 47.12 87.58 48.33 89.2 50.05L90.19 51.1L91.84 50.6L90.41 48.96L90.42 48.95Z" fill="#00CE7C"/>
<path id="Path_6881" opacity="0.66" d="M79.79 44.11L78.52 43.83C75.59 43.13 73.77 40.19 74.47 37.26C74.49 37.16 74.52 37.05 74.55 36.95L74.93 35.68L73.66 34.47L73.05 36.45C72.49 38.3 72.73 40.29 73.71 41.96C74.66 43.64 76.28 44.84 78.17 45.26L80.21 45.76L79.77 44.11H79.79Z" fill="url(#paint7_linear_5169_295)"/>
<path id="Path_6882" opacity="0.66" d="M102.8 51.82L101.92 52.76C99.85 54.95 96.39 55.04 94.2 52.97C94.13 52.9 94.06 52.83 93.99 52.76L93.11 51.82L91.46 52.32L92.89 53.81C94.19 55.22 96.03 56.02 97.96 56.01C99.88 56.02 101.72 55.22 103.03 53.81L104.47 52.32L102.81 51.82H102.8Z" fill="url(#paint8_linear_5169_295)"/>
<path id="Path_6883" opacity="0.66" d="M93.12 4.23998L94 3.29998C96.07 1.10998 99.53 1.01998 101.72 3.08998C101.79 3.15998 101.86 3.22998 101.93 3.29998L102.81 4.23998L104.46 3.73998L103.08 2.19998C100.47 -0.60002 96.09 -0.75002 93.29 1.85998C93.17 1.96998 93.06 2.07998 92.95 2.19998L91.52 3.68998L93.12 4.23998Z" fill="url(#paint9_linear_5169_295)"/>
<path id="Path_6884" opacity="0.66" d="M73.68 21.53L74.95 20.32L74.57 19.05C74.13 17.61 74.31 16.05 75.07 14.75C75.83 13.45 77.08 12.52 78.54 12.16L79.81 11.89L80.19 10.18L78.15 10.68C76.26 11.1 74.64 12.3 73.69 13.98C72.71 15.64 72.47 17.64 73.03 19.49L73.69 21.53H73.68Z" fill="url(#paint10_linear_5169_295)"/>
<path id="Path_6885" opacity="0.66" d="M116.13 11.9L117.4 12.17C120.33 12.87 122.15 15.81 121.45 18.74C121.43 18.84 121.4 18.95 121.37 19.05L120.99 20.32L122.26 21.53L122.87 19.55C123.43 17.7 123.19 15.71 122.21 14.05C121.26 12.37 119.64 11.17 117.75 10.75L115.71 10.25L116.15 11.9H116.13Z" fill="url(#paint11_linear_5169_295)"/>
</g>
</g>
<g id="Group_3972">
<path id="Path_6886" d="M94.16 44.05L108.59 29.62C109.46 28.77 109.47 27.38 108.63 26.52C108.62 26.51 108.61 26.5 108.59 26.48L103.96 21.86L93.11 32.71C92.3 33.51 91.85 34.6 91.84 35.74V43.12C91.87 43.88 92.51 44.46 93.26 44.43C93.59 44.42 93.91 44.28 94.15 44.05H94.16Z" fill="#00CE7C"/>
<path id="Path_6887" opacity="0.66" d="M94.16 44.05L108.59 29.62C109.46 28.77 109.47 27.38 108.63 26.52C108.62 26.51 108.61 26.5 108.59 26.48L103.96 21.86L93.11 32.71C92.3 33.51 91.85 34.6 91.84 35.74V43.12C91.87 43.88 92.51 44.46 93.26 44.43C93.59 44.42 93.91 44.28 94.15 44.05H94.16Z" fill="url(#paint12_linear_5169_295)"/>
<g id="Group_3970">
<path id="Path_6888" d="M91.85 12.94V20.32C91.83 21.46 92.29 22.56 93.12 23.35L103.97 34.2L108.59 29.58C109.46 28.73 109.47 27.34 108.63 26.48C108.62 26.47 108.61 26.46 108.59 26.44L94.16 12.01C93.65 11.47 92.79 11.46 92.26 11.97C92 12.22 91.85 12.58 91.85 12.94Z" fill="#00665E"/>
</g>
<g id="Group_3971">
<path id="Path_6889" d="M91.85 12.94V20.32C91.83 21.46 92.29 22.56 93.12 23.35L103.97 34.2L108.59 29.58C109.46 28.73 109.47 27.34 108.63 26.48C108.62 26.47 108.61 26.46 108.59 26.44L94.16 12.01C93.65 11.47 92.79 11.46 92.26 11.97C92 12.22 91.85 12.58 91.85 12.94Z" fill="url(#paint13_linear_5169_295)"/>
</g>
</g>
<g id="Group_3973">
<path id="Path_6890" d="M7.98 27.42C8.1 25.45 7.56 23.49 6.44 21.86C5.3 20.53 3.78 19.57 2.09 19.11C1.91 19.06 1.72 19.16 1.65 19.33L1.32 20.49C1.27 20.66 1.37 20.83 1.54 20.87C2.79 21.2 3.91 21.91 4.73 22.91C5.5 24.05 5.91 25.39 5.89 26.76H0.33C0.16 26.87 0 26.98 0 27.2V28.19C0.01 28.37 0.15 28.51 0.33 28.52H7.65C7.83 28.51 7.97 28.37 7.98 28.19V27.42Z" fill="#009552"/>
<path id="Path_6891" d="M22.36 28.53H22.97C24.4 28.47 25.28 27.92 25.61 26.88C26.33 27.98 27.81 28.53 29.96 28.53H52.92C53.1 28.52 53.24 28.38 53.25 28.2V27.21C53.24 27.03 53.1 26.89 52.92 26.88H51.76C50.48 26.96 49.21 26.63 48.13 25.94C46.85 24.97 46.59 23.15 47.56 21.86C47.62 21.78 47.68 21.71 47.74 21.64C48.25 21.14 48.95 20.88 49.67 20.92C50.29 20.92 50.9 21.01 51.49 21.2C51.67 21.25 51.86 21.15 51.93 20.98L52.15 19.93C52.2 19.76 52.1 19.59 51.93 19.55C51.21 19.37 50.47 19.28 49.73 19.28C48.39 19.2 47.08 19.68 46.1 20.6C45.3 21.45 44.87 22.57 44.89 23.74C44.79 25.06 45.51 26.3 46.7 26.88H40.92V19.83C40.91 19.65 40.77 19.51 40.59 19.5H39.1C38.92 19.51 38.78 19.65 38.77 19.83V26.88H33.71V23.63C33.71 20.71 32.28 19.28 29.47 19.28C28.11 19.22 26.79 19.74 25.84 20.71C25.03 21.59 24.59 22.76 24.63 23.96C24.7 24.78 24.49 25.6 24.02 26.27C23.58 26.7 22.98 26.92 22.37 26.88H12.9V15.32C12.89 15.14 12.75 15 12.57 14.99H11.14C10.96 15 10.82 15.14 10.81 15.32V28.21C10.82 28.39 10.96 28.53 11.14 28.54H22.37L22.36 28.53ZM27.42 21.75C27.9 21.2 28.61 20.89 29.35 20.92C30.89 20.92 31.66 21.91 31.66 23.95V26.87H29.95C27.8 26.87 26.76 25.88 26.76 23.84C26.69 23.08 26.93 22.33 27.42 21.75Z" fill="#009552"/>
<path id="Path_6892" d="M41.02 17.84C41.66 17.84 42.18 17.32 42.18 16.68C42.18 16.04 41.66 15.52 41.02 15.52C40.73 15.52 40.45 15.63 40.25 15.85C39.81 16.31 39.81 17.04 40.25 17.5C40.44 17.73 40.73 17.85 41.02 17.83V17.84Z" fill="#009552"/>
<path id="Path_6893" d="M37.99 17.84C38.63 17.84 39.15 17.32 39.15 16.68C39.15 16.04 38.63 15.52 37.99 15.52C37.7 15.52 37.42 15.63 37.22 15.85C36.78 16.31 36.78 17.04 37.22 17.5C37.42 17.71 37.7 17.83 37.99 17.83V17.84Z" fill="#009552"/>
<path id="Path_6894" d="M57.54 14.98H56.11C55.93 14.99 55.79 15.13 55.78 15.31V28.2C55.79 28.38 55.93 28.52 56.11 28.53H57.54C57.72 28.52 57.86 28.38 57.87 28.2V15.31C57.89 15.15 57.78 15 57.62 14.98C57.59 14.98 57.57 14.98 57.54 14.98Z" fill="#009552"/>
</g>
<g id="Group_3974">
<path id="Path_6895" d="M23.07 40.97H26.81C26.93 40.97 27.02 40.87 27.03 40.75V40.09C27.03 39.97 26.93 39.88 26.81 39.87H24.17V37.45H26.7C26.82 37.45 26.91 37.35 26.92 37.23V36.57C26.92 36.45 26.82 36.36 26.7 36.35H24.17V34.15H26.81C26.93 34.15 27.02 34.05 27.03 33.93V33.27C27.03 33.15 26.93 33.06 26.81 33.05H23.06C22.94 33.05 22.85 33.15 22.84 33.27V40.76C22.9 40.87 22.95 40.98 23.06 40.98L23.07 40.97Z" fill="#00CE7C"/>
<path id="Path_6896" d="M31.28 39.98C31.05 40.01 30.83 39.93 30.67 39.76C30.53 39.49 30.48 39.18 30.5 38.88V36.13H31.82C31.94 36.13 32.03 36.03 32.04 35.91V35.36C32.04 35.24 31.94 35.15 31.82 35.14H30.5V33.27C30.5 33.15 30.4 33.06 30.28 33.05H29.45C29.33 33.05 29.24 33.15 29.23 33.27V35.14H28.35C28.23 35.14 28.14 35.24 28.13 35.36V35.91C28.13 36.03 28.23 36.12 28.35 36.13H29.23V39.27C29.18 39.75 29.3 40.24 29.56 40.65C29.91 40.96 30.37 41.1 30.83 41.04C31.18 41.04 31.53 40.99 31.88 40.93C31.99 40.93 32.05 40.82 32.05 40.71L31.99 40.1C31.99 39.99 31.88 39.88 31.77 39.93C31.61 39.98 31.44 39.99 31.28 39.99V39.98Z" fill="#00CE7C"/>
<path id="Path_6897" d="M33.98 40.97H34.81C34.93 40.97 35.02 40.87 35.03 40.75V35.35C35.03 35.23 34.93 35.14 34.81 35.13H33.98C33.86 35.13 33.77 35.23 33.76 35.35V40.75C33.82 40.86 33.87 40.97 33.98 40.97Z" fill="#00CE7C"/>
<path id="Path_6898" d="M34.31 32.6C33.89 32.61 33.57 32.96 33.58 33.37C33.59 33.78 33.94 34.11 34.35 34.1C34.77 34.09 35.09 33.74 35.08 33.33C35.08 33.14 35 32.95 34.86 32.82C34.72 32.67 34.52 32.59 34.31 32.6Z" fill="#00CE7C"/>
<path id="Path_6899" d="M43.34 35.08C42.49 35.04 41.72 35.55 41.41 36.35C41.32 35.56 40.61 34.99 39.82 35.08C38.97 35.03 38.18 35.54 37.89 36.35C37.94 36.04 37.9601 35.73 37.9501 35.41C37.9501 35.29 37.85 35.2 37.73 35.19H36.96C36.84 35.19 36.7501 35.29 36.7401 35.41V40.75C36.7401 40.87 36.84 40.96 36.96 40.97H37.7901C37.9101 40.97 38 40.87 38.01 40.75V38.22C38 37.69 38.1501 37.17 38.4501 36.73C38.6701 36.36 39.07 36.13 39.5 36.12C40.05 36.12 40.3301 36.51 40.3301 37.28V40.75C40.3301 40.87 40.43 40.96 40.55 40.97H41.3801C41.5001 40.97 41.59 40.87 41.6 40.75V38.22C41.6 37.67 41.7501 37.14 42.0401 36.68C42.2501 36.34 42.63 36.13 43.03 36.13C43.58 36.13 43.8601 36.52 43.8601 37.29V40.76C43.8601 40.88 43.9601 40.97 44.0801 40.98H44.91C45.03 40.98 45.1201 40.88 45.1301 40.76V36.96C45.0801 35.7 44.52 35.09 43.37 35.09L43.34 35.08Z" fill="#00CE7C"/>
<path id="Path_6900" d="M51.32 37.06C51.36 36.52 51.18 35.98 50.82 35.57C50.36 35.15 49.73 34.95 49.11 35.02C48.44 35.02 47.77 35.13 47.13 35.35C47.02 35.41 46.96 35.46 47.02 35.57L47.13 36.12C47.18 36.22 47.29 36.29 47.41 36.29C47.9 36.08 48.42 35.96 48.95 35.96C49.27 35.93 49.59 36.03 49.83 36.24C50.03 36.49 50.12 36.8 50.11 37.12V37.45C49.26 37.41 48.4 37.58 47.63 37.95C46.82 38.33 46.47 39.29 46.85 40.1C47.12 40.68 47.71 41.05 48.36 41.03C49.2 41.1 49.99 40.61 50.29 39.82C50.24 40.11 50.22 40.41 50.23 40.7C50.23 40.82 50.33 40.91 50.45 40.92H51.22C51.34 40.92 51.43 40.82 51.44 40.7V37.07H51.33L51.32 37.06ZM50.11 38.44C50.14 38.84 50 39.24 49.72 39.54C49.49 39.85 49.12 40.04 48.73 40.04C48.52 40.06 48.32 39.98 48.18 39.82C48.03 39.68 47.95 39.48 47.96 39.27C47.96 38.61 48.68 38.28 50.16 38.28V38.45H50.11V38.44Z" fill="#00CE7C"/>
<path id="Path_6901" d="M56.66 32.66V35.14C56.37 35.1 56.07 35.08 55.78 35.08C54.95 35.03 54.15 35.35 53.58 35.96C53.01 36.61 52.71 37.46 52.75 38.33C52.69 39.04 52.88 39.74 53.3 40.31C54.06 41.18 55.38 41.27 56.25 40.51C56.47 40.32 56.65 40.08 56.77 39.81C56.72 40.1 56.7 40.4 56.71 40.69C56.71 40.81 56.81 40.9 56.93 40.91H57.7C57.82 40.91 57.91 40.81 57.92 40.69V32.65C57.92 32.53 57.82 32.44 57.7 32.43H56.87C56.76 32.49 56.65 32.54 56.65 32.65L56.66 32.66ZM56.66 37.94C56.68 38.44 56.54 38.94 56.27 39.37C56.07 39.77 55.67 40.02 55.22 40.03C54.45 40.03 54.06 39.42 54.06 38.21C54.06 36.78 54.61 36.06 55.71 36.06C56.02 36.07 56.34 36.11 56.65 36.17V37.93L56.66 37.94Z" fill="#00CE7C"/>
</g>
</g>
<defs>
<linearGradient id="paint0_linear_5169_295" x1="81.766" y1="8.37155" x2="90.6562" y2="3.79687" gradientUnits="userSpaceOnUse">
<stop stop-color="white"/>
<stop offset="1" stop-color="#1E754A"/>
</linearGradient>
<linearGradient id="paint1_linear_5169_295" x1="109.903" y1="6.24001" x2="110.594" y2="-0.717868" gradientUnits="userSpaceOnUse">
<stop stop-color="white"/>
<stop offset="1" stop-color="#1E754A"/>
</linearGradient>
<linearGradient id="paint2_linear_5169_295" x1="70.9448" y1="34.5168" x2="77.2953" y2="31.9424" gradientUnits="userSpaceOnUse">
<stop stop-color="white"/>
<stop offset="1" stop-color="#1E754A"/>
</linearGradient>
<linearGradient id="paint3_linear_5169_295" x1="123.62" y1="27.7562" x2="118.157" y2="26.1937" gradientUnits="userSpaceOnUse">
<stop stop-color="white"/>
<stop offset="1" stop-color="#1E754A"/>
</linearGradient>
<linearGradient id="paint4_linear_5169_295" x1="84.0636" y1="52.0896" x2="85.7133" y2="45.9386" gradientUnits="userSpaceOnUse">
<stop stop-color="white"/>
<stop offset="1" stop-color="#1E754A"/>
</linearGradient>
<linearGradient id="paint5_linear_5169_295" x1="108.589" y1="53.6705" x2="111.992" y2="47.241" gradientUnits="userSpaceOnUse">
<stop stop-color="white"/>
<stop offset="1" stop-color="#1E754A"/>
</linearGradient>
<linearGradient id="paint6_linear_5169_295" x1="119.787" y1="44.7886" x2="127.086" y2="39.421" gradientUnits="userSpaceOnUse">
<stop stop-color="white"/>
<stop offset="1" stop-color="#1E754A"/>
</linearGradient>
<linearGradient id="paint7_linear_5169_295" x1="77.562" y1="44.2263" x2="79.5676" y2="34.5208" gradientUnits="userSpaceOnUse">
<stop stop-color="white"/>
<stop offset="1" stop-color="#1E754A"/>
</linearGradient>
<linearGradient id="paint8_linear_5169_295" x1="93.13" y1="54.1011" x2="95.2097" y2="47.6484" gradientUnits="userSpaceOnUse">
<stop stop-color="white"/>
<stop offset="1" stop-color="#1E754A"/>
</linearGradient>
<linearGradient id="paint9_linear_5169_295" x1="98.9352" y1="4.51478" x2="98.9769" y2="-0.321808" gradientUnits="userSpaceOnUse">
<stop stop-color="white"/>
<stop offset="1" stop-color="#1E754A"/>
</linearGradient>
<linearGradient id="paint10_linear_5169_295" x1="75.128" y1="18.1806" x2="84.0832" y2="14.0983" gradientUnits="userSpaceOnUse">
<stop stop-color="white"/>
<stop offset="1" stop-color="#1E754A"/>
</linearGradient>
<linearGradient id="paint11_linear_5169_295" x1="122.316" y1="19.1118" x2="114.328" y2="8.11483" gradientUnits="userSpaceOnUse">
<stop stop-color="white"/>
<stop offset="1" stop-color="#1E754A"/>
</linearGradient>
<linearGradient id="paint12_linear_5169_295" x1="99.014" y1="33.2455" x2="103.945" y2="30.8124" gradientUnits="userSpaceOnUse">
<stop stop-color="white"/>
<stop offset="0.66" stop-color="#1E754A"/>
</linearGradient>
<linearGradient id="paint13_linear_5169_295" x1="79.664" y1="-11.028" x2="108.434" y2="18.7483" gradientUnits="userSpaceOnUse">
<stop stop-color="white"/>
<stop offset="1" stop-color="#00665E"/>
</linearGradient>
<clipPath id="clip0_5169_295">
<rect width="125.99" height="56" fill="white"/>
</clipPath>
</defs>
</svg>
