<svg width="121" height="52" viewBox="0 0 121 52" fill="none" xmlns="http://www.w3.org/2000/svg">
<g id="Layer_1" clip-path="url(#clip0_5169_289)">
<path id="Vector" d="M91.1792 42.7351C91.5181 42.7803 91.7214 42.8254 91.9248 42.8254C96.7368 42.8254 101.571 42.848 106.383 42.8029C109.252 42.7803 110.902 41.2677 110.992 38.4232C111.128 33.6824 111.128 28.9416 111.128 24.2008C111.128 23.3204 111.376 22.8237 112.189 22.4173C114.652 21.1983 117.047 19.8889 119.486 18.6247C119.78 18.4667 120.096 18.3312 120.503 18.1506C120.526 18.4667 120.571 18.6924 120.571 18.9407C120.571 25.5102 120.684 32.0796 120.526 38.649C120.413 43.5704 118.402 47.6114 113.951 50.1624C111.67 51.4718 109.139 51.9459 106.564 51.9459C99.3122 51.991 92.0829 51.991 84.831 51.9459C82.9785 51.9233 81.126 51.5395 79.2735 51.4718C78.031 51.4266 76.7885 51.7201 75.5233 51.7878C73.4223 51.8781 71.2987 51.9459 69.1977 51.9684C63.2562 51.991 57.3146 52.0362 51.373 51.9459C49.6109 51.9233 47.781 51.675 46.0866 51.1783C40.9584 49.598 38.2022 45.9183 37.3211 40.7485C37.1404 39.6423 37.0952 38.5135 37.0952 37.3848C37.0726 27.7903 37.0952 18.1958 37.0726 8.60124C37.0726 7.78853 37.276 7.33703 38.0215 6.97582C40.5065 5.73418 42.9464 4.42481 45.4089 3.16059C45.7026 3.00256 46.0189 2.86711 46.4933 2.64136V36.2786C46.4933 37.1139 46.5385 37.9717 46.6514 38.807C46.9903 41.3129 48.3684 42.7577 50.876 42.8029C55.9817 42.8932 61.0648 42.8254 66.1705 42.8254C66.2608 42.8254 66.3738 42.7577 66.5997 42.69C66.3738 42.2385 66.1705 41.8095 65.9446 41.4032C62.3299 35.1273 63.3465 26.6841 67.526 21.7175C70.011 18.7376 73.2416 17.1121 77.0822 16.7735C80.9905 16.4349 84.7407 16.9767 87.9487 19.5051C91.4277 22.2367 93.2125 25.8939 93.7773 30.2284C94.3647 34.5403 93.5739 38.5361 91.3374 42.2611C91.3148 42.3288 91.2922 42.4642 91.1792 42.7351ZM84.9892 31.8764C84.8084 31.154 84.6503 29.7995 84.1081 28.6256C83.0011 26.2326 80.9679 25.2618 78.3473 25.3973C75.9978 25.5327 74.3034 26.7292 73.4901 28.9416C71.8183 33.389 73.829 39.0328 77.8729 41.4709C78.5958 41.8998 79.1832 41.9224 79.8835 41.4483C83.0915 39.3263 84.831 36.3689 84.9892 31.8764Z" fill="#0A9A8F"/>
<path id="Vector_2" d="M12.6964 24.9683C14.2326 22.3269 15.7689 19.7308 17.3277 17.0669C20.3775 18.8955 23.0885 20.995 25.2573 23.704C29.3463 28.7609 30.747 34.5853 30.0693 40.9742C29.9111 42.5319 29.5723 44.1121 29.0301 45.5795C27.6746 49.327 24.7829 51.5168 20.9423 51.6974C14.0293 52.0135 7.11632 51.878 0.180732 51.9458C0.15814 51.9458 0.112957 51.9232 0 51.8555C0.090366 51.6297 0.15814 51.3588 0.271098 51.1331C1.55881 48.6498 2.89171 46.1665 4.15683 43.6606C4.47311 43.0511 4.83458 42.8253 5.53491 42.8253C9.014 42.8705 12.4931 42.735 15.9722 42.8705C20.0612 43.0285 20.8519 40.5904 20.7616 37.6782C20.6034 32.3504 18.028 28.4449 13.6227 25.6229C13.3742 25.4198 13.0805 25.2166 12.6964 24.9683Z" fill="#0A9A8F"/>
<path id="Vector_3" d="M116.052 0C119.08 0 121 1.89633 121 4.89885C121 8.14969 119.328 9.88799 116.143 9.93314C113.116 9.97829 111.173 8.03681 111.15 4.944C111.15 1.94148 113.048 0 116.052 0Z" fill="#0A9A8F"/>
<path id="Vector_4" d="M22.2752 4.944C22.2752 8.28514 20.626 9.97829 17.418 9.93314C14.3682 9.88799 12.4479 7.90136 12.4705 4.85369C12.5157 1.87375 14.4585 0 17.5084 0C20.4905 0.0225753 22.2752 1.87375 22.2752 4.944Z" fill="#0A9A8F"/>
<path id="Vector_5" d="M83.7015 6.005C83.6789 9.32357 82.1653 10.8813 78.8895 10.8813C75.6137 10.8813 73.942 9.05267 73.942 5.89212C73.942 2.73158 75.8171 1.01585 79.0025 1.03843C82.0071 1.061 83.7015 2.8896 83.7015 6.005Z" fill="#0A9A8F"/>
</g>
<defs>
<clipPath id="clip0_5169_289">
<rect width="121" height="52" fill="white"/>
</clipPath>
</defs>
</svg>
