<svg width="127" height="50" viewBox="0 0 127 50" fill="none" xmlns="http://www.w3.org/2000/svg">
<g id="Layer_1" clip-path="url(#clip0_5169_573)">
<g id="Layer_2">
<g id="Layer_1-2">
<path id="Vector" d="M0.992149 34.3987C1.18453 34.5372 1.40439 34.6479 1.62425 34.731C1.62425 34.731 1.78915 34.5649 2.11894 34.2325L1.45935 33.8448C1.18453 34.094 1.04711 34.2048 1.0746 34.2048C0.882218 34.1217 0.68984 34.0109 0.524944 33.8448C0.305083 34.1217 0.16767 34.2879 0.0577393 34.371C0.250118 34.5095 0.442496 34.6203 0.662357 34.7033C0.68984 34.731 0.79977 34.6203 0.992149 34.3987ZM9.07204 39.4394C8.85218 39.3286 8.6598 39.2178 8.49491 39.0516C8.33001 39.2455 8.16512 39.4394 8.0277 39.6333C8.13763 39.7164 8.24756 39.7994 8.3575 39.8548C8.46743 39.9379 8.54987 39.9933 8.6598 40.021L8.8247 39.8548C8.87967 39.7717 8.96211 39.7164 9.04456 39.661L9.64918 40.021C9.81408 39.8271 9.97897 39.6333 10.1439 39.4117L9.48428 39.024C9.34687 39.1901 9.20946 39.3286 9.07204 39.4394ZM14.1563 37.3622H13.4418L13.057 37.3899L12.6448 37.4176C12.5898 37.4176 12.5074 37.4176 12.4524 37.3899C12.0951 37.196 11.8203 36.919 11.6004 36.559C11.8753 36.3651 12.2325 36.282 12.5623 36.3097C12.6998 36.3097 12.8372 36.3097 13.0021 36.3374C13.3319 36.3928 13.6342 36.5313 13.8815 36.7806V36.5867C13.8265 36.3651 13.7166 36.1712 13.5792 35.9774C13.4693 35.8112 13.3319 35.7004 13.167 35.5896C13.0295 35.4788 12.8372 35.4234 12.6723 35.4234C12.5898 35.4234 12.5074 35.4511 12.4524 35.4788C11.9852 35.7004 11.573 36.0605 11.2707 36.5036C11.1882 36.6144 11.1058 36.7529 11.0508 36.8913V37.3899H10.4462C10.0889 37.3345 9.92401 37.1683 9.92401 36.9467C9.92401 36.8359 9.95149 36.6975 9.97897 36.5867C10.0065 36.4482 10.0339 36.3097 10.0339 36.1712C10.0339 36.0882 10.0339 36.0328 10.0065 35.9497C9.78659 36.1158 9.6217 36.3374 9.4568 36.559C9.42932 36.6975 9.42932 36.8083 9.42932 36.9467C9.42932 37.1129 9.40183 37.2514 9.34687 37.4176H3.02586C2.83349 37.4176 2.72355 37.3899 2.69607 37.2791C2.47621 36.1435 2.3388 35.3127 2.25635 34.731C1.98152 35.2019 1.84411 35.4511 1.78915 35.5065C1.81663 35.5896 1.84411 35.7004 1.87159 35.7835C1.59677 35.9497 1.37691 36.0882 1.21201 36.1989C0.964666 36.3097 0.744805 36.5036 0.607392 36.7529C0.387531 37.3899 0.2776 37.7222 0.2776 37.6945V37.8053L1.59677 38.0546C1.7067 38.0546 1.84411 37.9438 1.92656 37.7222C2.00901 37.5007 2.11894 37.3899 2.20138 37.3622C2.25635 37.6391 2.31132 37.8884 2.3388 38.0269C2.36628 38.11 2.42125 38.1931 2.50369 38.2485C2.53118 38.2762 2.55866 38.3039 2.61362 38.3039H9.07204L9.37435 37.7499C9.40184 37.8884 9.4568 37.9992 9.56673 38.0823C9.64918 38.1931 9.75911 38.2762 9.89652 38.3039H13.8265L14.3487 37.3345H14.2113C14.2113 37.3622 14.1838 37.3622 14.1563 37.3622ZM2.14642 37.0852H1.65173C1.43187 37.0575 1.21201 37.0021 0.992149 36.919C1.12956 36.8636 1.26698 36.7806 1.43187 36.7252C1.62425 36.6421 1.76166 36.4759 1.81663 36.282C1.84411 36.1989 1.89908 36.1435 1.98152 36.1158C2.06397 36.3928 2.11894 36.6421 2.14642 36.919V37.0852ZM23.308 35.1465C23.418 35.0357 23.5279 34.8972 23.6653 34.8141C23.8577 34.9526 24.105 35.0911 24.3249 35.1465C24.3524 35.1465 24.3799 35.1188 24.4074 35.0911C24.5722 34.9249 24.7097 34.7587 24.8471 34.5926L24.1325 34.2048C23.8302 34.4264 23.6928 34.5372 23.6928 34.5372C23.6928 34.5372 23.6653 34.5095 23.5829 34.4818C23.5004 34.4264 23.3905 34.371 23.308 34.3156C23.2531 34.2602 23.1706 34.2325 23.0882 34.1771C23.0607 34.1771 22.9783 34.2602 22.8408 34.3987C22.7309 34.5095 22.6485 34.6203 22.566 34.731C22.7309 34.8695 22.9233 34.9803 23.1157 35.0357C23.1981 35.0911 23.2531 35.1188 23.308 35.1465ZM29.6291 36.4482L28.6946 35.9497C28.5298 35.8943 28.3649 35.8666 28.2 35.8666C27.9251 35.8666 27.5953 36.1158 27.2106 36.6144C27.1556 36.6698 27.1281 36.7252 27.1281 36.7806V36.8913C27.2381 36.8636 27.348 36.8083 27.4579 36.7806C27.5404 36.7529 27.6503 36.7252 27.7328 36.7252C28.1725 36.7806 28.5847 36.919 28.942 37.1406L28.9695 37.1683C28.8321 37.2514 28.7496 37.3068 28.6946 37.3345C28.5023 37.3899 28.3374 37.4176 28.145 37.4453H25.0395C24.957 37.4453 24.902 37.3899 24.8471 37.3345C24.7646 37.2791 24.7097 37.196 24.6822 37.1129V37.0021L24.7646 35.9774C24.6547 36.0882 24.5723 36.1712 24.4623 36.282C24.3524 36.3928 24.2699 36.5036 24.215 36.6421C24.1875 36.7806 24.16 36.919 24.1875 37.0298C24.1875 37.1683 24.1875 37.3068 24.1325 37.4453H21.6866C21.4117 37.1683 21.2194 36.8359 21.1094 36.4759C21.082 36.4205 21.082 36.3651 21.082 36.3097V36.1435C21.082 36.0328 20.9995 35.9774 20.8346 35.9774C20.5873 36.0051 20.3674 36.0882 20.1475 36.2266C19.9002 36.3374 19.6803 36.5313 19.5154 36.7252C19.433 36.8636 19.3505 37.0021 19.2956 37.1129C19.1857 37.3068 19.1032 37.4176 19.0757 37.4176H16.5748C16.5198 37.4176 16.4649 37.3899 16.4374 37.3622C16.3824 37.3345 16.3549 37.3345 16.3 37.3068C16.245 37.2791 16.2175 37.2791 16.2175 37.2237C16.1076 36.5867 16.0252 35.6173 15.9152 34.2879C15.8877 33.9002 15.8603 33.6509 15.8328 33.5124C15.5305 33.8448 15.3656 34.0386 15.3381 34.0663C15.2556 34.1494 15.2282 34.2048 15.2282 34.2602L15.6129 38.3039H18.8559C18.9383 38.3039 18.9933 38.2485 19.0757 38.11C19.1307 37.9992 19.2131 37.8884 19.2956 37.7776L21.1094 38.747C21.1644 38.747 21.2194 38.6639 21.2743 38.5254C21.3293 38.3869 21.3843 38.3039 21.4392 38.3039H24.0226L24.3249 37.7499C24.3524 37.8607 24.4074 37.9715 24.4898 38.0546C24.5448 38.1377 24.6272 38.1931 24.7371 38.2485C24.7921 38.2762 24.8471 38.3039 24.902 38.3039H28.145C28.3649 38.2208 28.5847 38.1377 28.7771 37.9992C29.0244 37.833 29.2993 37.7499 29.6016 37.7222L30.9482 37.833C30.9757 37.833 31.0856 37.7222 31.2505 37.5284C31.4704 37.2514 31.5803 37.1129 31.5803 37.0852C31.3055 37.0298 31.1131 36.9467 30.9757 36.919C30.3711 36.8083 29.9863 36.6421 29.6291 36.4482ZM20.9171 37.5561H20.7796C20.5873 37.5284 20.4224 37.4453 20.285 37.3345C20.1201 37.2514 19.9552 37.1406 19.8178 37.0298C19.9002 36.9467 19.9827 36.8636 20.0926 36.836C20.2025 36.8083 20.3124 36.7806 20.4224 36.7806C20.5873 36.7806 20.7522 36.8913 20.8071 37.0298C20.8621 37.1406 20.9171 37.3068 20.9171 37.4453V37.5561ZM28.3374 39.4948L29.1344 39.9379L29.794 39.3009C29.5191 39.1624 29.2443 39.024 28.9695 38.8578L28.3374 39.4948ZM35.9501 34.094C35.8401 34.0386 35.7302 33.9278 35.6478 33.8448C35.6203 33.734 35.5928 33.6232 35.5653 33.5401L34.9057 34.5649C35.0431 34.731 35.1256 34.9249 35.1256 35.1465C35.1531 35.5065 35.0706 35.8389 34.9057 36.1435C34.6859 35.7558 34.411 35.3957 34.0812 35.0634C33.7789 34.731 33.4217 34.4264 33.0644 34.1771C33.0919 34.2602 33.0644 34.3433 33.0369 34.4264H32.3773C32.3224 34.5926 32.2949 34.7864 32.2674 34.9526C32.2674 35.2019 32.3224 35.3404 32.4323 35.3957C33.0094 35.7281 33.3392 35.922 33.4491 35.9774C33.5041 35.8943 33.5316 35.8112 33.5866 35.7281C33.7789 35.8666 33.9713 36.0051 34.1362 36.1989C34.3011 36.3374 34.4385 36.5313 34.521 36.7252C33.9988 37.196 33.6415 37.4453 33.4766 37.4453C33.3667 37.4453 33.2568 37.3899 33.2018 37.3068L33.0369 37.1129C33.0094 37.2237 32.9545 37.3345 32.9545 37.4176C32.927 37.5838 32.927 37.7222 32.927 37.8053C32.927 38.11 32.9819 38.3039 33.0919 38.3592H35.4004C35.4554 38.11 35.4554 37.8884 35.4554 37.6391C35.4554 37.3345 35.3729 37.0298 35.2355 36.7806C35.2355 36.7621 35.2264 36.7344 35.208 36.6975C35.1805 36.6698 35.1805 36.6421 35.1805 36.6144C35.208 36.5036 35.263 36.4205 35.318 36.3374C35.4004 36.2266 35.4554 36.0882 35.5103 35.9497C35.5928 35.6727 35.6478 35.4234 35.7027 35.1465C35.7577 35.1742 35.8126 35.2019 35.8951 35.2296C35.9226 35.2296 35.9501 35.2296 35.9501 35.2019C36.115 34.9526 36.2799 34.7033 36.4173 34.4541C36.4447 34.371 36.2799 34.2602 35.9501 34.094ZM34.5759 37.4453C34.4385 37.4453 34.3286 37.4453 34.1912 37.4176C34.3836 37.2791 34.5484 37.1129 34.6859 36.9467C34.7683 37.1129 34.8782 37.2514 34.9332 37.4176C34.8233 37.4453 34.7133 37.4453 34.5759 37.4453ZM37.654 34.3987C37.5166 34.5649 37.4341 34.731 37.3792 34.9249L37.7914 38.3039C38.1212 37.833 38.2586 37.2514 38.2311 36.6698L38.0113 33.8448C37.8464 34.0386 37.7364 34.2048 37.654 34.3987ZM42.4085 34.9526L43.0131 35.285C43.178 35.1188 43.3429 34.9526 43.4803 34.7587L42.8482 34.4264C42.8207 34.4541 42.7383 34.5095 42.6283 34.5926C42.5734 34.6479 42.5184 34.7033 42.436 34.731C42.326 34.7033 42.2436 34.6479 42.1611 34.5926C42.0787 34.5372 41.9962 34.4818 41.8863 34.4264C41.8039 34.4264 41.639 34.5926 41.3916 34.9249C41.6115 35.0634 41.8313 35.1742 42.0512 35.2573C42.1886 35.1188 42.2711 35.008 42.4085 34.9526ZM44.3048 35.7004L43.8651 36.4759C44.03 36.6975 44.1399 36.9744 44.2223 37.2514C44.2223 37.3068 44.1949 37.3345 44.1674 37.3899H41.3092C41.1718 37.3622 41.0343 37.3345 40.9244 37.2514C40.787 37.196 40.6771 37.1129 40.6221 37.0021C40.5946 36.8913 40.5671 36.7806 40.5671 36.6698C40.5671 36.6421 40.5671 36.5313 40.5946 36.3097C40.6221 36.1712 40.6221 36.0051 40.6221 35.8666L40.5671 35.8389C40.4022 36.0328 40.2648 36.2543 40.2374 36.5036C40.1549 36.7806 40.0999 37.0852 40.0725 37.3899C40.0725 37.473 40.0725 37.5284 40.0999 37.6114C40.1549 37.7776 40.2373 37.9438 40.4022 38.0546C40.5397 38.1654 40.6771 38.2485 40.8695 38.2762C40.8878 38.2762 40.9061 38.2854 40.9244 38.3039H44.3323C44.6071 37.833 44.7445 37.3068 44.7995 36.7529C44.7995 36.559 44.7445 36.3651 44.6346 36.1989C44.5521 35.9774 44.4422 35.8112 44.3048 35.7004ZM53.3191 35.1188C53.4015 35.2019 53.5115 35.2573 53.6214 35.3127C53.6489 35.3127 53.6764 35.285 53.7038 35.285C53.8687 35.1742 54.0336 35.0634 54.171 34.9526C54.1985 34.9249 54.226 34.8972 54.226 34.8418C54.226 34.8141 54.1161 34.7033 53.9512 34.5372C53.8687 34.4264 53.7313 34.3433 53.6214 34.2602C53.5939 34.2602 53.5664 34.2879 53.5664 34.2879C53.5389 34.2879 53.5389 34.3156 53.5115 34.3156C53.3466 34.4264 53.2092 34.5649 53.0717 34.7033C53.0168 34.731 53.0168 34.7864 52.9893 34.8418C53.0168 34.8972 53.0992 34.9803 53.3191 35.1188ZM56.1223 39.4394C55.9025 39.3286 55.7101 39.2178 55.5452 39.0516C55.3803 39.2455 55.2154 39.4394 55.078 39.6333C55.1879 39.7164 55.2703 39.7994 55.3803 39.8548C55.4902 39.9379 55.5727 39.9933 55.6826 40.021L55.8475 39.8548C55.9025 39.7717 55.9849 39.7164 56.0673 39.661L56.672 40.021C56.8369 39.8271 57.0018 39.6333 57.1667 39.4117L56.5071 39.024C56.3697 39.1901 56.2597 39.3286 56.1223 39.4394ZM60.8768 35.5342C60.5195 35.5896 60.1897 35.7004 59.8874 35.8666C59.6401 35.9774 59.4477 36.1712 59.2828 36.3928C59.1179 36.5867 59.008 36.8083 58.9255 37.0575C58.8981 37.1683 58.8431 37.3068 58.7881 37.4176H57.3865C57.0567 37.3622 56.8918 37.196 56.8918 36.9744C56.8918 36.8636 56.9193 36.7252 56.9193 36.6144C56.9468 36.4759 56.9468 36.3374 56.9743 36.1989C56.9743 36.1158 56.9743 36.0605 56.9468 35.9774C56.7544 36.1435 56.562 36.3651 56.4246 36.5867C56.3971 36.7252 56.3971 36.836 56.3971 36.9744C56.3971 37.1406 56.3697 37.2791 56.3147 37.4453H54.7207C54.5558 37.4453 54.4184 37.3899 54.3359 37.2514C54.3085 37.196 54.3085 37.1406 54.3085 37.0852C54.3085 37.0021 54.3359 36.919 54.3359 36.836C54.3634 36.6975 54.3634 36.6421 54.3634 36.6144V36.0605C54.1436 36.2543 53.9512 36.4759 53.7863 36.7529C53.7588 36.8636 53.7313 36.9744 53.7588 37.0852C53.7588 37.196 53.7588 37.3345 53.7038 37.4453H46.8057C46.7507 37.4453 46.6958 37.4176 46.6683 37.3899C46.6133 37.3622 46.5584 37.3622 46.5034 37.3345C46.4484 37.3068 46.4209 37.3068 46.4209 37.2514C46.3385 36.6144 46.2286 35.645 46.1186 34.3156C46.0911 33.9278 46.0637 33.6786 46.0362 33.5401C45.7339 33.8725 45.569 34.0663 45.5415 34.094C45.4591 34.1771 45.4316 34.2325 45.4316 34.2879L45.8163 38.3315H53.5664L53.8413 37.7776C53.9512 38.0546 54.0611 38.2208 54.171 38.2762C54.226 38.3038 54.2535 38.3315 54.3085 38.3315H56.1498L56.4521 37.7776C56.4796 37.9161 56.562 38.0269 56.6445 38.11C56.7269 38.2208 56.8369 38.3038 56.9743 38.3315H57.6888V38.3039H58.7332C58.8431 38.1931 58.9255 38.0546 58.953 37.9161C59.008 37.7776 59.0904 37.6668 59.2278 37.6114L60.8493 38.1931C61.0967 37.8053 61.2616 37.5561 61.3165 37.4453C61.3715 37.3622 61.3715 37.3068 61.399 37.2237C61.399 37.1406 61.399 37.0575 61.3715 36.9744C61.1791 36.1435 61.0142 35.6727 60.8768 35.5342ZM59.6126 36.6698C59.7225 36.5867 59.8325 36.5313 59.9424 36.4759C60.0248 36.4482 60.1073 36.4205 60.1897 36.4205C60.2447 36.4205 60.2722 36.4205 60.2997 36.4482C60.3821 36.5313 60.4646 36.6144 60.4921 36.7252C60.5195 36.836 60.547 36.9467 60.5745 37.0575L59.6126 36.6698ZM63.3228 32.8477H62.7731C62.3884 32.82 62.196 32.7646 62.196 32.6538C62.196 32.5984 62.2509 32.5707 62.3334 32.5153C62.4158 32.4876 62.4708 32.4599 62.5532 32.4599C62.5807 32.4599 62.6082 32.4599 62.6357 32.4876C62.7456 32.543 62.8006 32.5707 62.8006 32.6261C62.8556 32.543 62.9105 32.4599 62.9655 32.3769C62.9655 32.2661 62.883 32.183 62.6907 32.183H62.5807C62.3059 32.2384 62.1135 32.4599 62.0311 32.7092C62.0036 32.7923 61.9761 32.9031 61.9761 32.9862C62.1135 33.0416 62.2784 33.097 62.4158 33.1524C62.2235 33.2908 62.1135 33.4016 62.1135 33.457V33.5401H62.196C62.4708 33.2908 62.8006 33.1524 63.1579 33.1524C63.2128 33.0693 63.2678 32.9585 63.3228 32.8477ZM65.8786 35.1465C65.9886 35.0357 66.126 34.8972 66.2634 34.8141C66.4558 34.9526 66.7031 35.0634 66.923 35.1465C66.9505 35.1465 66.978 35.1188 67.0054 35.0911C67.1703 34.9249 67.3077 34.7587 67.4177 34.5926L66.7031 34.2048L66.2634 34.5372C66.2359 34.5372 66.2084 34.5095 66.181 34.4818C66.071 34.4264 65.9886 34.371 65.9061 34.3156C65.8512 34.2602 65.7687 34.2048 65.6863 34.1771C65.6588 34.1771 65.5763 34.2602 65.4389 34.3987C65.329 34.5095 65.2465 34.6203 65.1641 34.731C65.329 34.8695 65.5214 34.9803 65.7138 35.0357C65.7962 35.0911 65.8512 35.1188 65.8786 35.1465ZM71.3752 34.0109C71.3202 33.9002 71.2927 33.7894 71.3202 33.6786C71.1004 34.0109 70.8805 34.371 70.7156 34.731L71.0179 34.9803C71.1553 35.6173 71.2653 36.1158 71.3202 36.4205C71.3752 36.6698 71.4027 36.919 71.4301 37.1406C71.4301 37.196 71.4027 37.2791 71.4027 37.3899H70.001C69.8087 37.3899 69.7262 37.3068 69.7262 37.1406C69.6163 35.9774 69.5338 35.1188 69.4789 34.5372C69.4514 34.2602 69.4239 34.0109 69.3964 33.8171L68.7368 34.731L69.1216 37.3899H67.665C67.5826 37.3899 67.5001 37.3345 67.4452 37.2791C67.3627 37.2237 67.3077 37.1406 67.2803 37.0575V36.9467L67.3627 35.922C67.2528 36.0328 67.1703 36.1158 67.0604 36.2266C66.9505 36.3374 66.868 36.4482 66.8131 36.5867C66.7856 36.7252 66.7581 36.8636 66.7856 36.9744C66.7856 37.1129 66.7856 37.2514 66.7306 37.3899H63.7075C63.6526 37.3899 63.5976 37.3622 63.5426 37.3345C63.4877 37.3068 63.4602 37.3068 63.4052 37.2791C63.3502 37.2514 63.3228 37.2514 63.3228 37.196C63.2403 36.559 63.1304 35.5896 63.0205 34.2602C62.993 33.8725 62.9655 33.6232 62.938 33.4847C62.6357 33.8171 62.4708 34.0109 62.4433 34.0386C62.3609 34.1217 62.3334 34.1771 62.3334 34.2325L62.7181 38.2762H66.5107L66.8131 37.7222C66.8405 37.833 66.8955 37.9438 66.978 38.0269C67.0329 38.11 67.1154 38.1654 67.1978 38.2208C67.2528 38.2485 67.3077 38.2762 67.3627 38.2762H68.8468C69.0117 38.0269 69.1491 37.8607 69.204 37.7499C69.2315 37.833 69.259 37.9438 69.2865 38.0269C69.2865 38.11 69.314 38.1931 69.3964 38.2762H71.6775C71.705 38.2762 71.7325 38.2485 71.7599 38.2485C71.7874 38.2485 71.8149 38.2208 71.8149 38.2208L72.0073 37.1129L71.8424 35.5896C71.8424 35.5619 71.8424 35.5065 71.8699 35.4788L72.2821 34.9249C72.3646 34.8418 72.4195 34.7587 72.4745 34.6479C72.1997 34.4818 72.0073 34.371 71.8699 34.2879C71.65 34.2325 71.5126 34.1217 71.3752 34.0109ZM75.5525 34.3987C75.7449 34.5372 75.9648 34.6479 76.1846 34.731C76.1846 34.731 76.3221 34.5649 76.6793 34.2325L76.0197 33.8448C75.7449 34.0663 75.6075 34.2048 75.635 34.2048C75.4151 34.1217 75.2227 34.0109 75.0853 33.8448C74.893 34.094 74.7281 34.2602 74.6456 34.371C74.838 34.5095 75.0304 34.6203 75.2502 34.7033C75.2502 34.7033 75.3602 34.6203 75.5525 34.3987ZM84.347 35.5342C83.9897 35.5896 83.6599 35.7004 83.3576 35.8666C83.1103 35.9774 82.9179 36.1712 82.753 36.3928C82.5881 36.5867 82.4782 36.8083 82.3957 37.0575C82.3682 37.1683 82.3133 37.3068 82.2583 37.4176H77.5863C77.3939 37.4176 77.2839 37.3899 77.2565 37.2791C77.0366 36.1435 76.8992 35.3127 76.8167 34.731C76.5419 35.2019 76.4045 35.4511 76.377 35.5065C76.4045 35.5896 76.432 35.7004 76.4595 35.7835C76.1846 35.9497 75.9648 36.0882 75.7999 36.1989C75.5525 36.3097 75.3327 36.5036 75.1953 36.7529C74.9754 37.3899 74.8655 37.7222 74.8655 37.6945V37.8053L76.1846 38.0546C76.3221 38.0546 76.432 37.9438 76.5144 37.7222C76.5969 37.5007 76.7068 37.3899 76.7893 37.3622C76.8717 37.6391 76.9267 37.8884 76.9542 38.0269C76.9816 38.11 77.0366 38.1931 77.119 38.2485C77.1465 38.2762 77.174 38.3039 77.229 38.3039H81.1315V38.2762H82.2033C82.3133 38.1654 82.3682 38.0269 82.4232 37.8884C82.4782 37.7499 82.5606 37.6391 82.698 37.5837L84.347 38.1654C84.5943 37.7776 84.7592 37.5284 84.8142 37.4176C84.8691 37.3622 84.8966 37.2791 84.8966 37.196C84.8966 37.1129 84.8966 37.0298 84.8691 36.9467C84.6218 36.1435 84.4844 35.645 84.347 35.5342ZM76.7343 37.0852H76.2396C76.0197 37.0575 75.7999 37.0021 75.58 36.919C75.7174 36.8636 75.8548 36.7806 76.0197 36.7252C76.2121 36.6421 76.3495 36.4759 76.4045 36.282C76.4045 36.1989 76.4869 36.1435 76.5694 36.1158C76.6518 36.3928 76.7068 36.6421 76.7343 36.919V37.0852ZM83.0828 36.6698C83.1927 36.5867 83.3026 36.5313 83.4126 36.4759C83.495 36.4482 83.5775 36.4205 83.6599 36.4205C83.7149 36.4205 83.7424 36.4205 83.7698 36.4482C83.8523 36.5313 83.9347 36.6144 83.9622 36.7252C83.9897 36.836 84.0172 36.9467 84.0447 37.0575L83.0828 36.6698ZM93.1964 34.0109C93.1414 33.9002 93.1139 33.7894 93.1414 33.6786C92.9216 34.0109 92.7017 34.371 92.5368 34.731C92.6742 34.8418 92.7841 34.9249 92.8391 34.9803C92.9765 35.6173 93.0865 36.1158 93.1139 36.4205C93.1689 36.6698 93.1964 36.919 93.2239 37.1406C93.2239 37.2237 93.1964 37.3068 93.1964 37.3899H91.3551V37.3068C91.41 37.196 91.4925 37.0852 91.5474 36.9744C91.6024 36.8913 91.6299 36.7806 91.6574 36.6698C91.6299 36.4205 91.52 36.2266 91.3276 36.0882C91.1352 35.922 90.8878 35.8389 90.613 35.8389C90.4481 35.8389 90.2832 35.8666 90.1183 35.922C89.9809 35.9774 89.8435 36.0051 89.7336 36.0605L89.2939 36.919C89.3763 36.8913 89.4588 36.8913 89.5412 36.8913C89.871 36.8913 90.1733 37.0852 90.3107 37.3899H87.1502C87.0952 37.3899 87.0403 37.3622 87.0128 37.3345C86.9578 37.3068 86.9029 37.3068 86.8754 37.2791C86.8204 37.2514 86.7929 37.2514 86.7929 37.196C86.7105 36.559 86.6006 35.5896 86.4906 34.2602C86.4631 33.8725 86.4357 33.6232 86.4082 33.4847C86.2433 33.6509 86.0784 33.8448 85.9135 34.0386C85.831 34.1217 85.8036 34.1771 85.8036 34.2325L86.1883 38.2762H90.3932L90.6955 37.7499L90.9703 38.2762H93.5262C93.5537 38.2762 93.5811 38.2485 93.6086 38.2485C93.6361 38.2485 93.6636 38.2208 93.6911 38.2208L93.9109 37.1129L93.7186 35.5896C93.7186 35.5342 93.7186 35.5065 93.746 35.4788C93.9384 35.2296 94.0758 35.0634 94.1583 34.9249C94.2407 34.8418 94.2957 34.7587 94.3507 34.6479C94.0758 34.4818 93.8835 34.371 93.746 34.2879C93.4987 34.2602 93.3338 34.1494 93.1964 34.0109ZM95.6423 34.3987C95.5049 34.5649 95.4225 34.731 95.3675 34.9249L95.7523 38.3039C96.0821 37.833 96.247 37.2514 96.192 36.6698L95.9721 33.8448C95.8622 34.0386 95.7248 34.2048 95.6423 34.3987ZM99.1876 34.3987C99.38 34.5372 99.5998 34.6479 99.8197 34.731C99.8197 34.731 99.9846 34.5649 100.314 34.2325L99.6548 33.8448C99.38 34.094 99.2426 34.2048 99.2701 34.2048C99.0502 34.1217 98.8578 34.0109 98.6929 33.8448C98.5005 34.094 98.3356 34.2602 98.2532 34.371C98.4456 34.5095 98.6379 34.6203 98.8578 34.7033C98.8853 34.731 99.0227 34.6203 99.1876 34.3987ZM113.231 36.5313C113.121 36.6421 113.066 36.7529 112.984 36.8913C112.984 36.8913 113.011 36.9744 113.011 37.1129C113.039 37.2237 113.039 37.3345 113.066 37.4453H112.379V37.1683L112.599 36.2543C112.489 36.3651 112.352 36.4759 112.242 36.5867C112.132 36.6698 112.049 36.7806 111.967 36.919C111.912 37.0852 111.885 37.2514 111.885 37.4453H111.252C111.28 37.4453 111.28 37.4176 111.28 37.4176L111.307 37.3899C111.28 37.3899 111.252 37.4176 111.225 37.4176C111.198 37.4453 111.17 37.4453 111.115 37.4453C110.978 37.4176 110.868 37.3622 110.785 37.2514C110.785 37.2237 110.84 37.0298 110.978 36.6144C111.033 36.4482 111.06 36.2543 111.088 36.0605C110.84 36.282 110.593 36.559 110.401 36.836C110.401 36.9467 110.373 37.0298 110.373 37.1406C110.346 37.3345 110.291 37.4176 110.208 37.4176H107.625C107.515 37.4176 107.432 37.3899 107.405 37.3068C107.46 37.1406 107.487 36.9744 107.515 36.7806V36.0882C107.46 36.1435 107.405 36.1989 107.322 36.2543C107.185 36.4482 107.048 36.6421 106.938 36.836C106.938 36.836 106.965 36.919 106.993 37.0298C107.02 37.0852 107.048 37.1683 107.048 37.2514V37.3899H106.251V37.1406L106.498 36.2266C106.223 36.4205 106.003 36.6421 105.838 36.9467V37.4176H104.986C104.986 37.4176 105.014 37.4176 105.014 37.3899C105.014 37.3622 105.041 37.3622 105.041 37.3622C105.014 37.3622 104.986 37.3899 104.959 37.3899C104.931 37.4176 104.904 37.4176 104.849 37.4176C104.712 37.3899 104.602 37.3345 104.519 37.2237L104.712 36.5867C104.767 36.4205 104.794 36.2266 104.794 36.0328C104.547 36.282 104.299 36.5313 104.107 36.8083C104.107 36.919 104.107 37.0021 104.08 37.1129C104.052 37.3068 103.997 37.3899 103.915 37.3899H101.249C101.056 37.3899 100.946 37.3622 100.919 37.2514C100.699 36.1158 100.562 35.285 100.479 34.7033C100.204 35.1742 100.067 35.4234 100.04 35.4788C100.012 35.5342 100.067 35.5896 100.122 35.7558C99.8472 35.922 99.6273 36.0605 99.4624 36.1712C99.2151 36.282 98.9952 36.4759 98.8578 36.7252C98.6379 37.3622 98.528 37.6945 98.528 37.6668V37.7776L99.8472 38.0269C99.9846 38.0269 100.095 37.9161 100.177 37.6945C100.259 37.473 100.369 37.3622 100.452 37.3345C100.534 37.6114 100.589 37.8607 100.617 37.9992C100.644 38.0823 100.699 38.1654 100.782 38.2208C100.809 38.2485 100.837 38.2762 100.892 38.2762H103.64C103.75 38.2762 103.887 38.1654 104.052 37.9438C104.08 38.0269 104.134 38.0823 104.189 38.1377C104.244 38.1931 104.299 38.2485 104.382 38.2485H105.728L105.921 38.0269C105.976 38.0823 106.031 38.1654 106.031 38.2485H107.185C107.213 38.1377 107.24 38.0546 107.295 37.9715L107.487 38.2485H109.961C110.071 38.2485 110.208 38.1377 110.346 37.9161C110.373 37.9992 110.428 38.0546 110.483 38.11C110.538 38.1654 110.593 38.2208 110.675 38.2208H111.775C111.857 38.2208 111.912 38.1654 111.967 38.11C112.022 38.0546 112.049 37.9992 112.077 37.9992C112.104 37.9992 112.132 38.0546 112.187 38.1931L113.286 38.2208C113.314 38.2208 113.341 38.1931 113.369 38.1931C113.451 38.0269 113.506 37.8607 113.589 37.6945C113.643 37.5561 113.671 37.4176 113.698 37.2791V36.0051C113.561 36.1435 113.451 36.282 113.314 36.4205M100.424 37.0852H99.9296C99.7098 37.0575 99.4899 37.0021 99.2701 36.919C99.4075 36.8636 99.5449 36.7806 99.7098 36.7252C99.9022 36.6144 100.04 36.4759 100.095 36.282C100.122 36.1989 100.177 36.1435 100.259 36.1158C100.342 36.3928 100.397 36.6421 100.424 36.919V37.0852ZM115.292 35.4234C115.018 35.5896 114.88 35.7558 114.88 35.8666L114.908 35.8943C115.265 35.6727 115.677 35.5065 116.117 35.4234C116.199 35.3127 116.282 35.1742 116.337 35.0634H115.485C115.375 35.0634 115.265 35.0357 115.155 34.9526C115.1 34.9249 115.073 34.8972 115.045 34.8418L115.073 34.8141C115.073 34.7957 115.082 34.7864 115.1 34.7864L115.292 34.6479C115.347 34.6203 115.402 34.5926 115.485 34.5926H115.54C115.65 34.6203 115.732 34.6756 115.815 34.7587C115.925 34.5372 115.979 34.4264 115.979 34.4541C115.979 34.3156 115.87 34.2325 115.677 34.2325C115.457 34.2602 115.237 34.371 115.1 34.5372C114.935 34.7033 114.825 34.9249 114.825 35.1465C114.825 35.2019 114.825 35.2296 114.88 35.2296C114.99 35.3127 115.128 35.3681 115.292 35.4234ZM124.032 33.9832C123.977 33.8725 123.949 33.7617 123.977 33.6509C123.757 33.9832 123.537 34.3433 123.372 34.7033L123.675 34.9526C123.812 35.5896 123.922 36.0882 123.977 36.3928C124.032 36.6421 124.059 36.8913 124.087 37.1129C124.087 37.196 124.059 37.2791 124.059 37.3622H122.41C122.136 37.0852 121.943 36.7529 121.833 36.3928C121.806 36.3374 121.806 36.282 121.806 36.2266V36.0605C121.806 35.9497 121.723 35.8943 121.558 35.8943C121.311 35.922 121.091 36.0051 120.899 36.1435C120.652 36.2543 120.432 36.4482 120.267 36.6421C120.184 36.7806 120.102 36.8913 120.047 37.0298C119.937 37.2237 119.855 37.3345 119.827 37.3345H117.271C117.216 36.8083 117.079 36.3097 116.831 35.8666C116.749 35.7281 116.612 35.6173 116.474 35.5619C116.447 35.5619 116.419 35.5342 116.364 35.5342C116.254 35.5342 116.144 35.5619 116.062 35.645C115.87 35.8112 115.705 36.0328 115.595 36.2543C115.485 36.4482 115.402 36.6698 115.32 36.8913C115.237 37.0852 115.183 37.3068 115.155 37.5284V37.6391C115.155 37.6945 115.237 37.833 115.375 37.9438C115.457 38.0269 115.567 38.0546 115.677 38.0823C115.979 38.1377 116.309 38.1931 116.612 38.2208C116.227 38.7193 115.677 39.107 115.045 39.3009C114.935 39.3286 114.798 39.3563 114.688 39.3563C114.688 39.3563 114.523 39.3286 114.276 39.2455C114.028 39.1624 113.863 39.1347 113.863 39.1347C113.808 39.1347 113.753 39.1347 113.726 39.1624V39.2455C113.836 39.3563 113.973 39.4394 114.111 39.4948L114.44 39.661C114.825 39.7994 115.128 39.9102 115.32 39.9656C115.402 39.9933 115.457 39.9933 115.54 39.9933C115.595 39.9933 115.677 39.9933 115.732 39.9656C115.952 39.9102 116.144 39.7994 116.309 39.6333C116.529 39.4394 116.722 39.2178 116.831 38.9409C116.969 38.6916 117.079 38.4423 117.161 38.1931H119.525C119.607 38.1931 119.662 38.1377 119.745 37.9992C119.8 37.8884 119.855 37.7776 119.937 37.6668L121.751 38.6362C121.806 38.6362 121.861 38.5531 121.916 38.4146C121.971 38.2762 122.026 38.1931 122.053 38.1931H124.279C124.307 38.1931 124.334 38.1654 124.362 38.1654C124.389 38.1654 124.417 38.1377 124.417 38.1377L124.609 37.0298L124.444 35.5065C124.444 35.4511 124.444 35.4234 124.472 35.3957C124.664 35.1465 124.801 34.9803 124.884 34.8418C124.966 34.7587 125.021 34.6756 125.076 34.5649L124.499 34.2048C124.307 34.2325 124.142 34.1217 124.032 33.9832ZM116.529 37.2237L116.502 37.2514C116.419 37.2791 116.337 37.2791 116.254 37.2791C116.199 37.2791 116.144 37.2791 116.089 37.2514C115.952 37.2514 115.815 37.1683 115.732 37.0575C115.677 37.0021 115.65 36.9467 115.65 36.8636C115.65 36.836 115.677 36.7529 115.76 36.6698C115.897 36.559 115.979 36.5036 116.034 36.5036C116.117 36.5313 116.172 36.559 116.227 36.6144C116.364 36.7806 116.474 36.9744 116.529 37.1683V37.2237ZM121.668 37.5007H121.531C121.339 37.473 121.174 37.3899 121.036 37.2791C120.871 37.196 120.707 37.0852 120.569 36.9744C120.597 36.919 120.679 36.8636 120.844 36.7806C120.954 36.7529 121.064 36.7252 121.174 36.7252C121.339 36.7252 121.476 36.836 121.558 36.9744C121.641 37.0852 121.668 37.2237 121.668 37.3899V37.5007ZM126.78 33.8171C126.643 33.9832 126.533 34.1771 126.423 34.371C126.285 34.5372 126.203 34.7033 126.148 34.8972L126.533 38.2762C126.863 37.8053 127.028 37.2237 126.973 36.6421L126.78 33.8171Z" fill="#1A5632"/>
<path id="Vector_2" d="M4.39995 44.3417L3.79534 45.0064C3.46554 44.591 2.97086 44.3417 2.44869 44.314C2.03645 44.314 1.62421 44.4802 1.34938 44.8125C1.04707 45.1449 0.882176 45.5603 0.909659 46.0035C0.909659 46.4466 1.07455 46.8897 1.37686 47.2221C1.65169 47.5544 2.06393 47.7206 2.50365 47.7206C2.77848 47.7206 3.02582 47.6652 3.24568 47.4991C3.46554 47.3329 3.65792 47.139 3.74037 46.862H2.44869V45.9481H4.72974V46.1696C4.72974 46.6128 4.61981 47.0282 4.42744 47.416C4.23506 47.776 3.96023 48.0807 3.63044 48.3022C3.30065 48.5238 2.88841 48.6346 2.47617 48.6069C2.03645 48.6069 1.59672 48.4961 1.21197 48.2746C0.827211 48.0253 0.524902 47.6929 0.332523 47.3052C0.112662 46.8897 0.0027318 46.4189 0.0027318 45.9481C-0.0247508 45.3111 0.19511 44.7017 0.579867 44.2309C1.01959 43.6493 1.70666 43.3169 2.4212 43.3446C2.80596 43.3446 3.16323 43.4277 3.52051 43.5939C3.87778 43.7878 4.18009 44.037 4.39995 44.3417Z" fill="#998543"/>
<path id="Vector_3" d="M8.79721 46.9451H6.10391C6.1314 47.1943 6.24133 47.4159 6.43371 47.5821C6.5986 47.7483 6.84595 47.8313 7.09329 47.8036C7.3956 47.8036 7.69791 47.6652 7.89029 47.4436L8.60483 47.8036C8.43994 48.0529 8.22008 48.2745 7.97273 48.413C7.69791 48.5514 7.3956 48.6345 7.09329 48.6068C6.5986 48.6345 6.1314 48.413 5.80161 48.0529C5.47181 47.6652 5.27944 47.1666 5.30692 46.6681C5.27944 46.1419 5.47181 45.6433 5.80161 45.2556C6.10392 44.8955 6.57112 44.7017 7.03832 44.7017C7.53301 44.674 8.00022 44.8955 8.33001 45.2556C8.68728 45.671 8.85218 46.1973 8.8247 46.7512L8.79721 46.9451ZM7.94525 46.225C7.89029 46.0311 7.78036 45.8372 7.61546 45.7264C7.45056 45.588 7.25819 45.5326 7.03832 45.5326C6.81846 45.5326 6.5986 45.6156 6.43371 45.7541C6.29629 45.8926 6.18636 46.0588 6.1314 46.225H7.94525Z" fill="#998543"/>
<path id="Vector_4" d="M9.48425 44.8402H10.3087V45.2279C10.4736 45.0894 10.6385 44.9509 10.8309 44.8402C10.9683 44.7848 11.1332 44.7294 11.2981 44.7294C11.6279 44.7294 11.9302 44.8678 12.1501 45.1171C12.3699 45.3941 12.4799 45.7264 12.4524 46.0865V48.5515H11.6279V46.9174C11.6279 46.6127 11.6279 46.3358 11.5729 46.0311C11.5455 45.8926 11.4905 45.7818 11.3806 45.6987C11.2981 45.6156 11.1607 45.5603 11.0508 45.588C10.8859 45.588 10.721 45.6433 10.611 45.7818C10.4736 45.9203 10.3912 46.1142 10.3637 46.3081C10.3362 46.5573 10.3087 46.8066 10.3362 47.0559V48.5515H9.51174L9.48425 44.8402Z" fill="#998543"/>
<path id="Vector_5" d="M16.6023 46.9451H13.909C13.9365 47.1943 14.0464 47.4159 14.2388 47.5821C14.4037 47.7483 14.651 47.8313 14.8709 47.8036C15.1732 47.8036 15.4755 47.6652 15.6679 47.4436L16.3824 47.8036C16.2175 48.0529 15.9977 48.2745 15.7503 48.413C15.4755 48.5514 15.1732 48.6345 14.8709 48.6068C14.3762 48.6345 13.909 48.413 13.5792 48.0529C13.2494 47.6652 13.057 47.1666 13.0845 46.6681C13.057 46.1419 13.2494 45.6433 13.5792 45.2556C13.8815 44.8955 14.3487 44.7017 14.8159 44.7017C15.3106 44.674 15.7778 44.8955 16.1076 45.2556C16.4649 45.671 16.6298 46.1973 16.6023 46.7512V46.9451ZM15.7778 46.225C15.7228 46.0311 15.6129 45.8372 15.448 45.7264C15.2831 45.588 15.0907 45.5326 14.8709 45.5326C14.651 45.5326 14.4312 45.6156 14.2663 45.7541C14.1288 45.8926 14.0189 46.0588 13.964 46.225H15.7778Z" fill="#998543"/>
<path id="Vector_6" d="M17.0969 44.8403H17.839V45.3111C17.8939 45.1449 18.0039 45.0064 18.1413 44.8956C18.3611 44.7295 18.6635 44.7018 18.8833 44.8403L18.636 45.6434C18.5535 45.5881 18.4711 45.5604 18.3886 45.5604C18.2787 45.5604 18.1688 45.6434 18.0588 45.8373C17.9489 46.1697 17.8939 46.5297 17.9214 46.8898V48.5515H17.0695V44.8403H17.0969Z" fill="#998543"/>
<path id="Vector_7" d="M21.7965 44.8402H22.621V48.5515H21.7965V48.1637C21.6591 48.3299 21.4942 48.4407 21.3018 48.5238C21.1369 48.6068 20.9445 48.6345 20.7522 48.6345C20.3124 48.6345 19.9002 48.4407 19.6254 48.0806C19.2956 47.6929 19.1307 47.1943 19.1582 46.6958C19.1307 46.1973 19.2956 45.671 19.6254 45.2833C19.9002 44.9232 20.3124 44.7294 20.7522 44.7294C20.9445 44.7294 21.1369 44.7571 21.3293 44.8679C21.5217 44.9509 21.6866 45.0894 21.824 45.2556L21.7965 44.8402ZM20.9171 45.588C20.6697 45.588 20.4224 45.6987 20.2575 45.8926C20.0926 46.1142 19.9826 46.3911 20.0101 46.6681C20.0101 46.9728 20.0926 47.2497 20.285 47.4713C20.4499 47.6652 20.6697 47.776 20.9171 47.776C21.1644 47.776 21.4117 47.6652 21.5766 47.4713C21.769 47.2497 21.8515 46.9451 21.8515 46.6681C21.8515 46.3911 21.769 46.1142 21.5766 45.8926C21.4117 45.6987 21.1644 45.588 20.9171 45.588Z" fill="#998543"/>
<path id="Vector_8" d="M24.2149 43.4H23.3904V48.5515H24.2149V43.4Z" fill="#998543"/>
<path id="Vector_9" d="M28.9694 43.4C29.6015 43.4 30.2061 43.677 30.6184 44.1755C31.0856 44.7017 31.3329 45.3665 31.3054 46.0589C31.3329 46.7513 31.0856 47.416 30.6184 47.9422C30.2061 48.413 29.6015 48.69 28.9694 48.69C28.3373 48.69 27.7052 48.413 27.2655 47.9145C26.8258 47.3883 26.5784 46.7513 26.5784 46.0589C26.5784 45.588 26.6884 45.1449 26.9082 44.7294C27.1006 44.3417 27.4029 44.0093 27.7602 43.7601C28.1449 43.5108 28.5572 43.4 28.9694 43.4ZM28.9694 44.314C28.5572 44.314 28.1724 44.4802 27.9251 44.8125C27.6228 45.1449 27.4854 45.588 27.4854 46.0589C27.4579 46.5574 27.6503 47.0559 28.035 47.3883C28.2824 47.6375 28.6396 47.776 28.9969 47.776C29.4091 47.776 29.7939 47.6099 30.0412 47.2775C30.6184 46.5574 30.6184 45.5603 30.0412 44.8402C29.7939 44.5079 29.4091 44.314 28.9694 44.314Z" fill="#998543"/>
<path id="Vector_10" d="M31.8551 44.8402H32.5697V45.311C32.6246 45.1448 32.7346 45.0063 32.872 44.8956C32.9819 44.8125 33.1468 44.7571 33.2842 44.7571C33.3941 44.7571 33.5316 44.7848 33.614 44.8402L33.3392 45.6434C33.2567 45.588 33.2018 45.5603 33.1193 45.5603C32.9819 45.5603 32.872 45.6434 32.7895 45.8372C32.6796 46.1696 32.6246 46.5296 32.6521 46.8897V48.5792H31.8276L31.8551 44.8402Z" fill="#998543"/>
<path id="Vector_11" d="M36.4997 44.8402H37.3241V48.0253C37.3516 48.5238 37.2417 48.9947 36.9943 49.4101C36.6646 49.8256 36.1424 50.0471 35.5927 49.9917C35.3179 49.9917 35.0431 49.964 34.7683 49.8533C34.5484 49.7702 34.356 49.6317 34.1911 49.4655C34.0262 49.2716 33.9163 49.0501 33.8613 48.8285H34.7957C34.8782 48.9393 34.9881 49.0224 35.1255 49.0778C35.2629 49.1332 35.4278 49.1609 35.5927 49.1609C35.7851 49.1609 35.9775 49.1332 36.1424 49.0501C36.2798 48.9947 36.3622 48.8839 36.4447 48.7454C36.5271 48.5515 36.5546 48.33 36.5271 48.1084C36.3897 48.2746 36.2523 48.3854 36.0599 48.4684C35.895 48.5515 35.7027 48.5792 35.5103 48.5792C35.0706 48.5792 34.6583 48.3854 34.356 48.053C34.0262 47.6653 33.8613 47.1667 33.8888 46.6682C33.8613 46.142 34.0537 45.6434 34.3835 45.2557C34.6583 44.951 35.0431 44.7572 35.4553 44.7849C35.6477 44.7849 35.8401 44.8125 36.005 44.8956C36.1974 45.0064 36.3897 45.1172 36.5271 45.2834L36.4997 44.8402ZM35.6202 45.588C35.3729 45.588 35.1255 45.6988 34.9606 45.8927C34.7957 46.0866 34.6858 46.3635 34.7133 46.6405C34.7133 46.9175 34.7957 47.1944 34.9881 47.416C35.153 47.6099 35.4004 47.693 35.6477 47.693C35.895 47.693 36.1424 47.6099 36.3073 47.416C36.4997 47.1944 36.5821 46.9452 36.5821 46.6405C36.5821 46.3635 36.4997 46.0866 36.3073 45.8927C36.1149 45.6988 35.895 45.588 35.6202 45.588Z" fill="#998543"/>
<path id="Vector_12" d="M40.6495 44.8402H41.474V48.5515H40.6495V48.1637C40.5121 48.3299 40.3472 48.4407 40.1549 48.5238C39.99 48.6068 39.7976 48.6345 39.6052 48.6345C39.1655 48.6345 38.7532 48.4407 38.4784 48.0806C38.1486 47.6929 37.9837 47.1943 37.9837 46.6958C37.9562 46.1973 38.1211 45.671 38.4509 45.2833C38.7258 44.9232 39.138 44.7294 39.5777 44.7294C39.7701 44.7294 39.9625 44.7848 40.1549 44.8679C40.3472 44.9509 40.5121 45.0894 40.6495 45.2556V44.8402ZM39.7701 45.588C39.5228 45.588 39.2754 45.6987 39.1105 45.8926C38.9181 46.1142 38.8357 46.3911 38.8632 46.6681C38.8357 46.9451 38.9456 47.2497 39.1105 47.4713C39.4128 47.8313 39.9625 47.8867 40.3198 47.5821C40.3472 47.5544 40.4022 47.5267 40.4297 47.4713C40.6221 47.2497 40.7045 46.9451 40.7045 46.6681C40.7045 46.3911 40.6221 46.1142 40.4297 45.8926C40.2648 45.6987 40.0174 45.5603 39.7701 45.588Z" fill="#998543"/>
<path id="Vector_13" d="M42.326 44.8402H43.1505V45.2279C43.3154 45.0894 43.4803 44.9509 43.6726 44.8402C43.8101 44.7848 43.9749 44.7294 44.1398 44.7294C44.4696 44.7294 44.7719 44.8678 44.9918 45.1171C45.1842 45.3941 45.2941 45.7541 45.2666 46.0865V48.5515H44.4422V46.9174C44.4422 46.6127 44.4422 46.3358 44.3872 46.0311C44.3597 45.8926 44.3047 45.7818 44.1948 45.6987C44.1124 45.6156 44.0024 45.588 43.865 45.588C43.7001 45.588 43.5352 45.671 43.4253 45.7818C43.2879 45.9203 43.2054 46.1142 43.178 46.3081C43.1505 46.5573 43.123 46.8066 43.1505 47.0559V48.5515H42.326V44.8402Z" fill="#998543"/>
<path id="Vector_14" d="M46.4484 43.2892C46.5858 43.2892 46.7232 43.3446 46.8332 43.4831C46.9431 43.5938 46.998 43.76 46.998 43.9262C46.998 44.0924 46.9431 44.2309 46.8332 44.3693C46.6683 44.5909 46.3659 44.6186 46.1461 44.4524L46.0636 44.3693C45.9537 44.2586 45.8987 44.0924 45.8987 43.9262C45.8987 43.76 45.9537 43.6215 46.0636 43.5108C46.1461 43.3446 46.2835 43.2892 46.4484 43.2892ZM46.0362 44.8402H46.8606V48.5515H46.0362V44.8402Z" fill="#998543"/>
<path id="Vector_15" d="M47.4928 44.8402H50.0486L48.5646 47.7483H49.9662V48.5515H47.2729L48.7295 45.6157H47.4928V44.8402Z" fill="#998543"/>
<path id="Vector_16" d="M53.0168 44.8402H53.8413V48.5515H53.0168V48.1637C52.8794 48.3299 52.7145 48.4407 52.5221 48.5515C52.3572 48.6346 52.1648 48.6622 51.9724 48.6622C51.5327 48.6622 51.1205 48.4684 50.8456 48.1083C50.5159 47.7206 50.351 47.222 50.3784 46.7235C50.351 46.225 50.5159 45.6988 50.8456 45.311C51.1205 44.951 51.5327 44.7571 51.9724 44.7571C52.1648 44.7571 52.3572 44.8125 52.5496 44.8956C52.742 44.9786 52.9068 45.1171 53.0443 45.2833L53.0168 44.8402ZM52.1373 45.588C51.89 45.588 51.6426 45.6987 51.4777 45.8926C51.3129 46.1142 51.2029 46.3912 51.2304 46.6681C51.2304 46.9451 51.3129 47.2497 51.4777 47.4713C51.7801 47.8314 52.3297 47.8868 52.687 47.5821C52.7145 47.5544 52.7694 47.5267 52.7969 47.4713C52.9893 47.2497 53.0717 46.9451 53.0717 46.6681C53.0717 46.3912 52.9893 46.1142 52.7969 45.8926C52.632 45.6987 52.3847 45.588 52.1373 45.588Z" fill="#998543"/>
<path id="Vector_17" d="M54.8031 43.4553H55.6276V44.8401H56.1223V45.6156H55.6276V48.5514H54.8031V45.6156H54.3634V44.8401H54.8031V43.4553Z" fill="#998543"/>
<path id="Vector_18" d="M56.9193 43.2892C57.0567 43.2892 57.1941 43.3446 57.304 43.4831C57.5239 43.7323 57.5239 44.0924 57.304 44.3416C57.1391 44.5632 56.8368 44.5909 56.617 44.4247L56.5345 44.3416C56.4246 44.2309 56.3696 44.0647 56.3696 43.8985C56.3696 43.7323 56.4246 43.5938 56.5345 43.4831C56.617 43.3446 56.7544 43.2892 56.9193 43.2892ZM56.4796 44.8402H57.304V48.5515H56.4796V44.8402Z" fill="#998543"/>
<path id="Vector_19" d="M59.6675 44.7294C59.9973 44.7294 60.2996 44.8125 60.547 45.0063C60.8218 45.1725 61.0417 45.4218 61.2066 45.7264C61.5089 46.3358 61.5089 47.0835 61.2066 47.6929C61.0691 47.9975 60.8493 48.2468 60.547 48.413C60.2721 48.5791 59.9698 48.6622 59.64 48.6622C59.1728 48.6622 58.7056 48.4684 58.4033 48.0806C57.6888 47.2497 57.7163 46.0311 58.4583 45.2556C58.8156 44.9232 59.2278 44.7571 59.6675 44.7294ZM59.6675 45.6156C59.4202 45.6156 59.1728 45.7264 59.0079 45.9203C58.6507 46.3911 58.6507 47.0282 59.0079 47.499C59.1728 47.6929 59.4202 47.8037 59.6675 47.8037C59.9149 47.8037 60.1622 47.6929 60.3271 47.499C60.5195 47.2774 60.6019 47.0005 60.5745 46.6958C60.5745 46.4188 60.492 46.1419 60.3271 45.9203C60.1897 45.7264 59.9424 45.6156 59.6675 45.6156Z" fill="#998543"/>
<path id="Vector_20" d="M62.1135 44.8402H62.938V45.2279C63.1029 45.0894 63.2678 44.9509 63.4601 44.8402C63.5976 44.7848 63.7625 44.7294 63.9274 44.7294C64.2571 44.7294 64.5595 44.8678 64.7793 45.1171C64.9992 45.3941 65.1091 45.7264 65.0816 46.0865V48.5515H64.2571V46.9174C64.2571 46.6127 64.2571 46.3358 64.2022 46.0311C64.1747 45.8926 64.1197 45.7818 64.0098 45.6987C63.9274 45.6156 63.8174 45.588 63.68 45.588C63.5151 45.588 63.3502 45.6433 63.2403 45.7818C63.1029 45.9203 63.0204 46.1142 62.9929 46.3081C62.9655 46.5573 62.938 46.8066 62.9655 47.0559V48.5515H62.141L62.1135 44.8402Z" fill="#998543"/>
<path id="Vector_21" d="M67.2802 44.8402H67.61C67.61 44.3416 67.61 44.0647 67.6375 43.9539C67.6375 43.76 67.7474 43.5938 67.8849 43.4553C68.0498 43.3169 68.2421 43.2615 68.4345 43.2615C68.6269 43.2615 68.8468 43.3169 69.0391 43.4V44.1201C68.9292 44.0924 68.8468 44.0647 68.7368 44.0647C68.6544 44.0647 68.5719 44.0924 68.517 44.1201C68.4895 44.1755 68.462 44.2585 68.462 44.3416V44.8125H69.0116V45.6157H68.4345V48.5238H67.61V45.6157H67.2802V44.8402Z" fill="#998543"/>
<path id="Vector_22" d="M71.0179 44.7294C71.3477 44.7294 71.65 44.8402 71.8973 45.0063C72.1722 45.1725 72.392 45.4218 72.5569 45.7264C72.8592 46.3358 72.8592 47.0835 72.5569 47.6929C72.4195 47.9975 72.1996 48.2468 71.9248 48.413C71.65 48.5791 71.3477 48.6622 71.0179 48.6622C70.5507 48.6622 70.0835 48.4684 69.8087 48.0806C69.4789 47.6929 69.2865 47.1943 69.2865 46.6958C69.259 46.1419 69.4789 45.6156 69.8636 45.2556C70.1384 44.9232 70.5782 44.7294 71.0179 44.7294ZM71.0179 45.6156C70.7705 45.6156 70.5232 45.7264 70.3583 45.9203C70.1659 46.1419 70.0835 46.4188 70.0835 46.6958C70.0835 46.9728 70.1659 47.2497 70.3308 47.499C70.4957 47.6929 70.7431 47.8037 70.9904 47.8037C71.2378 47.8037 71.4851 47.6929 71.65 47.499C71.8424 47.2774 71.9248 47.0005 71.9248 46.6958C71.9248 46.4188 71.8424 46.1419 71.6775 45.9203C71.5126 45.7264 71.2652 45.6156 71.0179 45.6156Z" fill="#998543"/>
<path id="Vector_23" d="M73.2715 44.8403H73.986V45.3111C74.041 45.1449 74.1509 45.0064 74.2883 44.8956C74.5082 44.7295 74.8105 44.7018 75.0303 44.8403L74.783 45.6434C74.7005 45.5881 74.6456 45.5604 74.5357 45.5604C74.3982 45.5604 74.2883 45.6434 74.2059 45.8373C74.0959 46.1697 74.041 46.5297 74.0685 46.8898V48.5792H73.2165L73.2715 44.8403Z" fill="#998543"/>
<path id="Vector_24" d="M79.7299 44.2032L79.0703 44.8402C78.8504 44.5078 78.6306 44.314 78.3832 44.314C78.2733 44.314 78.1908 44.3417 78.1084 44.4248C78.0534 44.4801 77.9985 44.5632 77.9985 44.6463C77.9985 44.7294 78.0259 44.8125 78.0809 44.8956C78.2733 45.1172 78.4932 45.3387 78.713 45.5603C78.9329 45.7265 79.1253 45.9204 79.3176 46.1419C79.4825 46.3081 79.5925 46.502 79.7024 46.6958C79.7848 46.8897 79.8123 47.0836 79.8123 47.2775C79.8123 47.6652 79.6749 48.0253 79.4276 48.3022C79.1527 48.5792 78.7955 48.7177 78.4107 48.69C78.1084 48.69 77.8061 48.5792 77.5587 48.413C77.2839 48.1914 77.0915 47.9145 76.9541 47.5821L77.6687 47.0836C77.8885 47.5267 78.1359 47.7483 78.4107 47.7483C78.5481 47.7483 78.6855 47.6929 78.7955 47.6098C78.8779 47.5267 78.9329 47.4159 78.9329 47.2775C78.9329 47.1667 78.9054 47.0282 78.8229 46.9451C78.6855 46.7512 78.4932 46.5851 78.3008 46.4189C77.9435 46.1142 77.6137 45.7819 77.3389 45.3941C77.2015 45.1725 77.119 44.9233 77.119 44.674C77.119 44.3417 77.2564 44.0093 77.4763 43.7877C77.6962 43.5385 78.0259 43.4 78.3557 43.4277C78.5756 43.4277 78.7955 43.4831 79.0153 43.5939C79.2627 43.76 79.51 43.9816 79.6749 44.2309" fill="#998543"/>
<path id="Vector_25" d="M82.0934 44.7294C82.4232 44.7294 82.7255 44.8402 83.0003 45.0063C83.2752 45.1725 83.495 45.4218 83.6599 45.7264C83.9622 46.3358 83.9622 47.0835 83.6599 47.6929C83.3576 48.3022 82.7805 48.6622 82.1209 48.6622C81.6537 48.6622 81.1865 48.4684 80.8842 48.0806C80.1696 47.2497 80.1971 46.0311 80.9391 45.2556C81.2414 44.9232 81.6537 44.7571 82.0934 44.7294ZM82.1209 45.6156C81.8735 45.6156 81.6262 45.7264 81.4613 45.9203C81.104 46.3911 81.104 47.0282 81.4613 47.499C81.6262 47.6929 81.8461 47.8037 82.1209 47.8037C82.3682 47.8037 82.6156 47.6929 82.7805 47.499C82.9728 47.2774 83.0553 47.0005 83.0553 46.6958C83.0553 46.4188 82.9728 46.1419 82.7805 45.9203C82.643 45.7264 82.3957 45.6156 82.1209 45.6156Z" fill="#998543"/>
<path id="Vector_26" d="M87.8647 45.5603L87.1777 45.9758C87.0677 45.8373 86.9303 45.7542 86.7929 45.6711C86.6555 45.6157 86.4906 45.588 86.3532 45.588C86.0784 45.588 85.776 45.6988 85.5837 45.8927C85.3913 46.1143 85.2814 46.3912 85.2814 46.6959C85.2814 46.9728 85.3638 47.2498 85.5562 47.4714C85.7486 47.6652 86.0234 47.776 86.2982 47.776C86.6555 47.776 86.9853 47.6376 87.1777 47.3329L87.8372 47.8591C87.5075 48.3577 86.9303 48.6623 86.3257 48.6346C85.8035 48.6623 85.2814 48.4407 84.9516 48.053C84.6218 47.6652 84.4294 47.1667 84.4569 46.6682C84.4569 46.3358 84.5393 45.9758 84.7042 45.6711C84.8691 45.3665 85.089 45.1172 85.3913 44.951C85.6936 44.7848 86.0234 44.6741 86.3532 44.7018C86.6555 44.7018 86.9853 44.7848 87.2326 44.9233C87.4525 45.0895 87.6998 45.2834 87.8647 45.5603Z" fill="#998543"/>
<path id="Vector_27" d="M88.9365 43.2892C89.0739 43.2892 89.2114 43.3446 89.3213 43.4831C89.4312 43.5938 89.4862 43.76 89.4862 43.9262C89.4862 44.0924 89.4312 44.2309 89.3213 44.3693C89.2389 44.4801 89.1014 44.5632 88.964 44.5355C88.8266 44.5355 88.6892 44.4801 88.5793 44.3693C88.4693 44.2586 88.4144 44.0924 88.4144 43.9262C88.4144 43.76 88.4693 43.6215 88.5793 43.5108C88.6342 43.3446 88.7716 43.2892 88.9365 43.2892ZM88.5243 44.8402H89.3488V48.5515H88.5243V44.8402Z" fill="#998543"/>
<path id="Vector_28" d="M92.5918 44.8402H93.4162V48.5515H92.5918V48.1637C92.4543 48.3299 92.2894 48.4407 92.0971 48.5238C91.9322 48.6068 91.7398 48.6345 91.5474 48.6345C91.1077 48.6345 90.6955 48.4407 90.4206 48.0806C90.0908 47.6929 89.9259 47.1943 89.9534 46.6958C89.9259 46.1973 90.0908 45.671 90.4206 45.2833C90.6955 44.9232 91.1077 44.7294 91.5474 44.7294C91.7398 44.7294 91.9322 44.7848 92.0971 44.8679C92.2894 44.9509 92.4543 45.0894 92.5918 45.2556V44.8402ZM91.7123 45.588C91.465 45.588 91.2176 45.6987 91.0802 45.8926C90.8878 46.1142 90.8054 46.3911 90.8054 46.6681C90.8054 46.9728 90.8878 47.2497 91.0802 47.4713C91.3825 47.8313 91.9047 47.8867 92.2894 47.5821C92.3169 47.5544 92.3719 47.5267 92.3994 47.4713C92.5918 47.2497 92.6742 46.9451 92.6742 46.6681C92.6742 46.3911 92.5918 46.0865 92.3994 45.8926C92.207 45.6987 91.9597 45.588 91.7123 45.588Z" fill="#998543"/>
<path id="Vector_29" d="M95.0377 43.4H94.1857V48.5515H95.0377V43.4Z" fill="#998543"/>
<path id="Vector_30" d="M98.4455 43.5107H97.5936V48.5515H98.4455V43.5107Z" fill="#998543"/>
<path id="Vector_31" d="M99.2975 44.8402H100.122V45.2279C100.287 45.0894 100.452 44.9509 100.644 44.8402C100.809 44.7848 100.946 44.7294 101.139 44.7294C101.469 44.7294 101.771 44.8678 101.991 45.1171C102.211 45.3941 102.321 45.7264 102.293 46.0865V48.5515H101.469V46.9174C101.469 46.6127 101.469 46.3358 101.414 46.0311C101.386 45.8926 101.331 45.7818 101.221 45.6987C101.139 45.6156 101.001 45.588 100.891 45.588C100.727 45.588 100.562 45.6433 100.452 45.7818C100.314 45.9203 100.232 46.1142 100.204 46.3081C100.177 46.5573 100.149 46.8066 100.177 47.0559V48.5515H99.3525L99.2975 44.8402Z" fill="#998543"/>
<path id="Vector_32" d="M105.151 45.3664L104.629 45.948C104.492 45.7542 104.272 45.6157 104.052 45.588C103.97 45.588 103.887 45.6157 103.832 45.6434C103.777 45.6711 103.75 45.7542 103.75 45.8096C103.75 45.8649 103.777 45.9203 103.805 45.948C103.887 46.0034 103.97 46.0588 104.052 46.1142L104.354 46.2804C104.629 46.3912 104.849 46.5851 105.014 46.8343C105.151 47.0282 105.206 47.2498 105.206 47.4713C105.206 47.776 105.096 48.0806 104.876 48.3022C104.629 48.5238 104.327 48.6623 103.997 48.6346C103.53 48.6346 103.09 48.413 102.843 47.9976L103.365 47.3605C103.447 47.4713 103.585 47.5821 103.722 47.6652C103.832 47.7483 103.942 47.776 104.079 47.776C104.189 47.776 104.272 47.7483 104.354 47.6929C104.409 47.6375 104.464 47.5821 104.464 47.499C104.464 47.3605 104.327 47.2221 104.079 47.0836L103.805 46.9174C103.255 46.6127 103.008 46.225 103.008 45.7819C103.008 45.5049 103.118 45.2279 103.31 45.0341C103.502 44.8125 103.805 44.7017 104.079 44.7294C104.299 44.7294 104.519 44.7848 104.684 44.8956C104.876 45.0064 105.041 45.1725 105.151 45.3664Z" fill="#998543"/>
<path id="Vector_33" d="M105.866 44.8402H106.69V46.6405C106.69 46.8897 106.69 47.139 106.745 47.3606C106.773 47.499 106.855 47.6098 106.965 47.6929C107.075 47.776 107.185 47.8037 107.322 47.8037C107.46 47.8037 107.57 47.776 107.68 47.6929C107.79 47.6098 107.872 47.499 107.9 47.3606C107.955 47.139 107.955 46.8897 107.955 46.6682V44.8402H108.779V46.3912C108.807 46.8343 108.752 47.3052 108.642 47.7206C108.532 47.9976 108.367 48.2192 108.147 48.3853C107.9 48.5515 107.597 48.6346 107.295 48.6069C106.965 48.6346 106.663 48.5238 106.416 48.3299C106.168 48.1361 106.003 47.8591 105.948 47.5821C105.866 47.1667 105.838 46.7512 105.838 46.3635L105.866 44.8402Z" fill="#998543"/>
<path id="Vector_34" d="M109.466 44.8402H110.181V45.311C110.236 45.1448 110.346 45.0063 110.483 44.8956C110.593 44.8125 110.758 44.7571 110.895 44.7571C111.005 44.7571 111.115 44.7848 111.225 44.8402L110.978 45.6434C110.895 45.588 110.813 45.5603 110.73 45.5603C110.593 45.5603 110.483 45.6434 110.4 45.8372C110.291 46.1696 110.236 46.5296 110.263 46.8897V48.5792H109.439L109.466 44.8402Z" fill="#998543"/>
<path id="Vector_35" d="M114.166 44.8402H114.99V48.5515H114.166V48.1637C114.028 48.3299 113.863 48.4407 113.671 48.5515C113.506 48.6346 113.314 48.6622 113.149 48.6622C112.709 48.6622 112.297 48.4684 112.022 48.1083C111.692 47.7206 111.527 47.222 111.555 46.7235C111.527 46.1973 111.692 45.6988 112.022 45.311C112.297 44.951 112.709 44.7571 113.149 44.7571C113.341 44.7571 113.534 44.8125 113.726 44.8956C113.918 44.9786 114.083 45.1171 114.221 45.2833L114.166 44.8402ZM113.259 45.588C113.011 45.588 112.764 45.6987 112.599 45.8926C112.407 46.1142 112.324 46.3912 112.324 46.6681C112.324 46.9451 112.407 47.2497 112.599 47.4713C112.901 47.8314 113.451 47.8868 113.808 47.5821C113.836 47.5544 113.891 47.5267 113.918 47.4713C114.111 47.2497 114.193 46.9451 114.193 46.6681C114.193 46.3912 114.111 46.1142 113.918 45.8926C113.753 45.6987 113.534 45.588 113.259 45.588Z" fill="#998543"/>
<path id="Vector_36" d="M115.842 44.8402H116.667V45.2279C116.831 45.0894 116.996 44.9509 117.189 44.8402C117.326 44.7848 117.491 44.7294 117.656 44.7294C117.986 44.7294 118.288 44.8678 118.508 45.1171C118.728 45.3941 118.81 45.7264 118.81 46.0865V48.5515H117.986V46.9174C117.986 46.6127 117.986 46.3358 117.931 46.0311C117.903 45.8926 117.848 45.7818 117.738 45.6987C117.656 45.6156 117.519 45.5603 117.409 45.588C117.244 45.588 117.079 45.6433 116.969 45.7818C116.831 45.9203 116.749 46.1142 116.722 46.3081C116.694 46.5573 116.667 46.8066 116.694 47.0559V48.5515H115.87L115.842 44.8402Z" fill="#998543"/>
<path id="Vector_37" d="M122.905 45.5603L122.191 45.9758C122.081 45.8373 121.943 45.7542 121.806 45.6711C121.668 45.6157 121.503 45.588 121.366 45.588C121.091 45.588 120.789 45.6988 120.597 45.8927C120.404 46.1143 120.294 46.3912 120.294 46.6959C120.294 46.9728 120.377 47.2498 120.569 47.4714C120.761 47.6652 121.036 47.776 121.311 47.776C121.668 47.8037 121.998 47.6376 122.191 47.3329L122.85 47.8591C122.493 48.3577 121.943 48.6623 121.339 48.6346C120.816 48.6623 120.294 48.4407 119.964 48.053C119.635 47.6652 119.442 47.1667 119.47 46.6682C119.47 46.3358 119.552 45.9758 119.717 45.6711C119.882 45.3665 120.129 45.1172 120.404 44.951C120.706 44.7848 121.036 44.6741 121.394 44.7018C121.696 44.7018 121.998 44.7848 122.273 44.9233C122.52 45.0895 122.74 45.2834 122.905 45.5603Z" fill="#998543"/>
<path id="Vector_38" d="M127 46.9451H124.279C124.307 47.1943 124.417 47.4159 124.582 47.5821C124.774 47.7483 124.994 47.8313 125.241 47.8036C125.543 47.8036 125.846 47.6652 126.038 47.4436L126.753 47.8036C126.588 48.0529 126.395 48.2745 126.121 48.413C125.846 48.5514 125.543 48.6345 125.241 48.6068C124.746 48.6345 124.279 48.413 123.949 48.0529C123.62 47.6652 123.427 47.1666 123.455 46.6681C123.427 46.1419 123.62 45.6433 123.949 45.2556C124.252 44.8955 124.719 44.7017 125.186 44.7017C125.681 44.674 126.148 44.8955 126.478 45.2556C126.835 45.671 127 46.1973 126.973 46.7512L127 46.9451ZM126.176 46.225C126.121 46.0311 126.011 45.8372 125.846 45.7264C125.681 45.588 125.488 45.5326 125.269 45.5326C125.049 45.5326 124.829 45.6156 124.664 45.7541C124.527 45.8926 124.417 46.0588 124.362 46.225H126.176Z" fill="#998543"/>
<path id="Vector_39" d="M61.1241 12.8787C61.1241 12.8787 59.9973 11.1062 60.8493 10.0814L66.2084 4.90223L74.673 13.0726L60.7943 26.4499C60.7943 26.4499 48.7569 26.3668 42.6558 17.3655C42.6558 17.3655 38.0112 10.1091 46.6133 3.73899C46.6133 3.73899 51.8625 0.276962 55.1329 0L55.2153 0.360051C50.4609 1.30172 46.6408 4.54218 46.6408 4.54218C38.6708 11.0231 45.0193 17.3101 45.0193 17.3101C50.7357 23.2371 60.2722 23.6526 60.2722 23.6526L71.3202 12.9618L66.1534 8.00421L61.1516 12.8511L61.1241 12.8787Z" fill="#998543"/>
<path id="Vector_40" d="M65.9336 14.0143C65.9336 14.0143 67.0604 15.7315 66.2359 16.7563L60.8768 21.9355L52.4121 13.7651L66.2908 0.360107C66.2908 0.360107 78.3282 0.443196 84.4294 9.41677C84.4294 9.41677 89.1014 16.6732 80.4719 23.0433C80.4719 23.0433 75.2227 26.5053 71.9523 26.7823L71.8423 26.4223C76.5968 25.4806 80.4169 22.2401 80.4169 22.2401C88.3869 15.7592 82.0384 9.47217 82.0384 9.47217C76.322 3.54517 66.7855 3.12973 66.7855 3.12973L55.7375 13.8205L60.9317 18.8335L65.9336 14.0143Z" fill="#1A5632"/>
<path id="Vector_41" d="M65.6862 10.026L60.7943 14.8174C60.7943 14.8174 60.2172 16.0084 61.0691 17.4763L65.5213 13.0726C65.5213 13.0726 66.7855 11.5493 65.6862 10.026Z" fill="#1A5632"/>
</g>
</g>
</g>
<defs>
<clipPath id="clip0_5169_573">
<rect width="127" height="50" fill="white"/>
</clipPath>
</defs>
</svg>
