<svg width="24" height="24" viewBox="0 0 24 24" fill="none" xmlns="http://www.w3.org/2000/svg">
<path fill-rule="evenodd" clip-rule="evenodd" d="M20.5005 13.75C20.0867 13.7497 19.751 13.4138 19.751 13V7.82998C19.751 6.22898 19.751 5.42504 19.535 4.89004C19.183 3.99704 18.438 3.29396 17.489 2.95596C16.8941 2.75 16.0344 2.75 14.3221 2.75H14.321C14.0176 2.75 13.7293 2.75 13.4548 2.75039C12.0526 2.77459 10.92 3.92208 10.92 5.32998C10.92 5.48969 10.9272 5.66192 10.9347 5.84326L10.936 5.875C10.96 6.421 10.987 7.04102 10.835 7.62002C10.618 8.46002 9.95899 9.11904 9.11699 9.33604C8.53999 9.48704 7.92002 9.46004 7.37402 9.43604L7.33986 9.43462C7.15952 9.42711 6.98894 9.42002 6.829 9.42002C5.43009 9.42002 4.28827 10.5382 4.25001 11.928L4.25 13C4.25 13.414 3.914 13.75 3.5 13.75C3.086 13.75 2.75 13.414 2.75 13L2.75001 11.9918C2.75027 9.07164 2.76195 7.57662 3.27197 6.28398C4.10497 4.17498 5.86102 2.51603 8.09102 1.73203C9.34065 1.29588 10.786 1.25437 13.4413 1.25042C13.4608 1.25014 13.4804 1.25 13.5 1.25C13.5072 1.25 13.5145 1.2501 13.5217 1.25031C13.7765 1.25 14.0423 1.25 14.32 1.25C16.2019 1.25 17.146 1.25 17.9859 1.54199C19.3489 2.02799 20.4189 3.04496 20.9279 4.33496C21.2499 5.13496 21.25 6.03598 21.25 7.82998V13C21.25 13.4138 20.9143 13.7497 20.5005 13.75ZM8.58799 3.14805C9.0576 2.98409 9.59425 2.88767 10.2768 2.83097C9.73996 3.52182 9.42002 4.38918 9.42002 5.32998C9.42002 5.53198 9.42899 5.74004 9.43799 5.94004L9.43815 5.94384C9.4581 6.40466 9.47872 6.88099 9.38398 7.24199C9.30198 7.55599 9.05604 7.80198 8.74004 7.88398C8.38096 7.97775 7.90447 7.95712 7.44357 7.93716L7.44004 7.93701C7.23904 7.92801 7.03198 7.91904 6.82998 7.91904C5.8773 7.91904 4.99992 8.24712 4.30488 8.79624C4.35797 7.96705 4.46243 7.3547 4.66797 6.83496C5.34097 5.13096 6.76999 3.78705 8.58799 3.14805Z" fill="#1B8354"/>
<path d="M16.25 22.001C16.25 22.415 16.586 22.751 17 22.751C17.414 22.751 17.75 22.415 17.75 22.001V19.751H19.5C19.914 19.751 20.25 19.415 20.25 19.001C20.25 18.587 19.914 18.251 19.5 18.251H17.75V18.001C17.75 17.524 17.75 16.935 17.821 16.822C17.935 16.751 18.5239 16.751 18.9999 16.751H20.5C20.914 16.751 21.25 16.415 21.25 16.001C21.25 15.587 20.914 15.251 20.5 15.251H19C17.9321 15.251 17.287 15.251 16.769 15.752L16.751 15.77C16.25 16.288 16.25 16.9329 16.25 18.0008V22.001Z" fill="#1B8354"/>
<path fill-rule="evenodd" clip-rule="evenodd" d="M9.92803 22.572C10.241 22.751 10.559 22.751 11 22.751C13.068 22.751 14.75 21.068 14.75 19C14.75 16.932 13.068 15.25 11 15.25C10.5601 15.25 10.2409 15.25 9.92598 15.43C9.24298 15.823 9.247 16.541 9.25 16.926V21.074C9.247 21.46 9.24203 22.177 9.92803 22.572ZM10.9944 21.251C10.9111 21.251 10.8234 21.251 10.75 21.25V16.917C10.749 16.868 10.748 16.807 10.75 16.752C10.8233 16.751 10.9119 16.751 10.9943 16.751H11C12.241 16.751 13.25 17.76 13.25 19.001C13.25 20.242 12.241 21.251 11 21.251H10.9944Z" fill="#1B8354"/>
<path fill-rule="evenodd" clip-rule="evenodd" d="M2.75 22.001C2.75 22.415 3.086 22.751 3.5 22.751C3.914 22.751 4.25 22.415 4.25 22.001V19.751H5.5C6.741 19.751 7.75 18.742 7.75 17.501C7.75 16.26 6.741 15.251 5.5 15.251H4.7C4.028 15.251 3.54 15.251 3.15 15.651C2.75 16.04 2.75 16.528 2.75 17.201V22.001ZM5.5 18.251H4.25V17.1977C4.25 17.0436 4.25 16.8771 4.25596 16.7569C4.37511 16.751 4.54262 16.751 4.69672 16.751H5.5C5.914 16.751 6.25 17.087 6.25 17.501C6.25 17.915 5.914 18.251 5.5 18.251Z" fill="#1B8354"/>
</svg>
