<svg width="24" height="24" viewBox="0 0 24 24" fill="none" xmlns="http://www.w3.org/2000/svg">
<path d="M18 11C17.4477 11 17 11.4477 17 12C17 12.5523 17.4477 13 18 13H18.009C18.5613 13 19.009 12.5523 19.009 12C19.009 11.4477 18.5613 11 18.009 11H18Z" fill="#161616"/>
<path fill-rule="evenodd" clip-rule="evenodd" d="M13.052 1.25H10.948C10.0495 1.24997 9.3003 1.24995 8.70552 1.32991C8.07773 1.41432 7.51093 1.59999 7.05546 2.05546C6.59999 2.51093 6.41432 3.07773 6.32991 3.70552C6.24995 4.3003 6.24997 5.04951 6.25 5.94799L6.25 7.2544C5.86117 7.25968 5.51709 7.27129 5.21173 7.2968C4.6344 7.34502 4.13151 7.44666 3.66499 7.68655C3.10651 7.97374 2.62704 8.3906 2.27103 8.90269C1.97157 9.33345 1.81377 9.81457 1.70522 10.3696C1.60044 10.9055 1.5314 11.5705 1.44628 12.3904L1.43866 12.4639C1.33644 13.4483 1.25407 14.2417 1.25015 14.8833C1.24612 15.5438 1.32242 16.128 1.59682 16.6653C1.9189 17.296 2.41585 17.8231 3.0278 18.19C3.54485 18.5001 4.12804 18.6291 4.8033 18.6903C5.26638 18.7323 5.81096 18.7447 6.45125 18.7484C6.39076 19.0221 6.3412 19.2644 6.30703 19.4789C6.24759 19.8519 6.22268 20.2066 6.2915 20.5588C6.44953 21.3673 6.94712 22.0768 7.67159 22.4603C7.99394 22.6309 8.34088 22.6935 8.69884 22.7223C9.04456 22.75 9.47142 22.75 9.98109 22.75H14.0189C14.5286 22.75 14.9554 22.75 15.3011 22.7223C15.6591 22.6935 16.006 22.6309 16.3284 22.4603C17.0528 22.0768 17.5504 21.3673 17.7085 20.5588C17.7773 20.2066 17.7524 19.8519 17.6929 19.4789C17.6588 19.2644 17.6092 19.0221 17.5487 18.7484C18.189 18.7447 18.7336 18.7323 19.1967 18.6903C19.872 18.6291 20.4552 18.5001 20.9722 18.19C21.5841 17.8231 22.0811 17.296 22.4032 16.6653C22.6776 16.128 22.7539 15.5438 22.7499 14.8833C22.7459 14.2416 22.6636 13.4483 22.5613 12.4638L22.5537 12.3904C22.4686 11.5705 22.3996 10.9055 22.2948 10.3696C22.1862 9.81457 22.0284 9.33345 21.729 8.90269C21.373 8.3906 20.8935 7.97374 20.335 7.68655C19.8685 7.44666 19.3656 7.34502 18.7883 7.2968C18.4829 7.27129 18.1388 7.25968 17.75 7.2544L17.75 5.94801C17.75 5.04957 17.7501 4.30029 17.6701 3.70552C17.5857 3.07773 17.4 2.51093 16.9445 2.05546C16.4891 1.59999 15.9223 1.41432 15.2945 1.32991C14.6997 1.24995 13.9505 1.24997 13.052 1.25ZM7.10282 16.5244C6.97571 16.7366 6.88576 16.9753 6.80699 17.2496C6.0136 17.2481 5.41787 17.2398 4.93865 17.1964C4.3634 17.1443 4.03792 17.0467 3.79919 16.9036C3.42321 16.6781 3.12427 16.3582 2.93269 15.9831C2.81413 15.7509 2.74677 15.4417 2.75012 14.8924C2.75354 14.3327 2.82749 13.6123 2.93467 12.5799C3.02425 11.7172 3.08701 11.1194 3.17734 10.6575C3.26538 10.2073 3.36848 9.95191 3.50265 9.75892C3.71603 9.45198 4.00668 9.19755 4.35095 9.02052C4.57195 8.90688 4.85589 8.83175 5.33659 8.79159C5.82717 8.75061 6.4552 8.75 7.35396 8.75H16.646C17.5448 8.75 18.1728 8.75061 18.6634 8.79159C19.1441 8.83175 19.4281 8.90688 19.6491 9.02052C19.9933 9.19755 20.284 9.45198 20.4974 9.75892C20.6315 9.95191 20.7346 10.2073 20.8227 10.6575C20.913 11.1194 20.9758 11.7172 21.0653 12.5799C21.1725 13.6123 21.2465 14.3327 21.2499 14.8924C21.2532 15.4417 21.1859 15.7509 21.0673 15.9831C20.8757 16.3582 20.5768 16.6781 20.2008 16.9036C19.9621 17.0467 19.6366 17.1443 19.0614 17.1964C18.5821 17.2398 17.9864 17.2481 17.193 17.2496C17.1142 16.9753 17.0242 16.7366 16.8971 16.5244C16.5905 16.0126 16.127 15.614 15.5705 15.4062C15.1486 15.2487 14.6745 15.2492 14.1016 15.2499H9.89832C9.32548 15.2492 8.85132 15.2487 8.42945 15.4062C7.87298 15.614 7.4095 16.0126 7.10282 16.5244ZM16.25 7.25V6C16.25 5.03599 16.2484 4.38843 16.1835 3.9054C16.1214 3.44393 16.0142 3.24644 15.8839 3.11612C15.7536 2.9858 15.5561 2.87858 15.0946 2.81654C14.6116 2.7516 13.964 2.75 13 2.75H11C10.036 2.75 9.38843 2.7516 8.90539 2.81654C8.44393 2.87858 8.24644 2.9858 8.11612 3.11612C7.9858 3.24644 7.87858 3.44393 7.81654 3.9054C7.7516 4.38843 7.75 5.03599 7.75 6V7.25H16.25ZM10.0113 16.75C9.26465 16.75 9.08796 16.7615 8.95416 16.8115C8.73319 16.894 8.53098 17.0593 8.38954 17.2954C8.29741 17.4491 8.23831 17.6655 8.05967 18.4408C7.92745 19.0146 7.83724 19.4079 7.78835 19.7148C7.74001 20.0183 7.74416 20.1713 7.76365 20.271C7.84113 20.6674 8.07758 20.978 8.3734 21.1346C8.43367 21.1665 8.54573 21.2052 8.81882 21.2271C9.09733 21.2494 9.46354 21.25 10.0113 21.25H13.9887C14.5364 21.25 14.9026 21.2494 15.1811 21.2271C15.4542 21.2052 15.5663 21.1665 15.6266 21.1346C15.9224 20.978 16.1588 20.6674 16.2363 20.271C16.2558 20.1713 16.26 20.0183 16.2116 19.7148C16.1627 19.4079 16.0725 19.0146 15.9403 18.4408C15.7617 17.6655 15.7025 17.4491 15.6104 17.2954C15.469 17.0593 15.2668 16.894 15.0458 16.8115C14.912 16.7615 14.7353 16.75 13.9887 16.75H10.0113Z" fill="#161616"/>
</svg>
