<svg width="24" height="24" viewBox="0 0 24 24" fill="none" xmlns="http://www.w3.org/2000/svg">
<path fill-rule="evenodd" clip-rule="evenodd" d="M20.501 13.7511C20.087 13.7511 19.751 13.4151 19.751 13.0011V7.82923C19.751 6.22944 19.751 5.42581 19.5351 4.89102C19.1831 3.99902 18.4381 3.29503 17.4891 2.95703C16.8942 2.75107 16.0344 2.75107 14.3221 2.75107H14.3198C14.0452 2.75107 13.7828 2.75107 13.532 2.75136C13.522 2.75175 13.512 2.75195 13.502 2.75195C12.079 2.75195 10.922 3.90893 10.922 5.33193C10.922 5.49164 10.9291 5.66387 10.9367 5.84521L10.938 5.87695C10.962 6.42395 10.989 7.04297 10.837 7.62197C10.62 8.46197 9.96095 9.11999 9.11895 9.33799C8.54195 9.48899 7.92198 9.46199 7.37598 9.43799L7.34182 9.43657C7.16148 9.42907 6.99089 9.42197 6.83096 9.42197C5.40796 9.42197 4.25098 10.579 4.25098 12.002C4.25098 12.0149 4.25065 12.0277 4.25 12.0405L4.25 13.0011C4.25 13.4151 3.914 13.7511 3.5 13.7511C3.086 13.7511 2.75 13.4151 2.75 13.0011V12.2011C2.75 9.14307 2.75005 7.60806 3.27305 6.28506C4.10605 4.17606 5.86199 2.51701 8.09199 1.73301C9.47299 1.25001 11.093 1.25 14.321 1.25C16.2029 1.25 17.148 1.25 17.987 1.54199C19.349 2.02799 20.42 3.04506 20.929 4.33506C21.251 5.13499 21.251 6.03593 21.251 7.82963V13C21.251 13.414 20.915 13.75 20.501 13.75V13.7511ZM8.58799 3.14902C9.05826 2.98484 9.59575 2.8884 10.2796 2.83174C9.74228 3.52279 9.42197 4.3906 9.42197 5.33193C9.42197 5.53393 9.43104 5.74189 9.44004 5.94189L9.44023 5.94618C9.46017 6.40684 9.48074 6.88207 9.38604 7.24395C9.30404 7.55795 9.05799 7.80394 8.74199 7.88594C8.38291 7.9797 7.90643 7.95907 7.44553 7.93912L7.44199 7.93896C7.24099 7.92997 7.03403 7.9209 6.83203 7.9209C5.87836 7.9209 5.00013 8.24968 4.30471 8.79985C4.35776 7.96938 4.46222 7.3563 4.66797 6.83603C5.34097 5.13203 6.76999 3.78802 8.58799 3.14902Z" fill="#1B8354"/>
<path d="M6.87624 22.4162C7.02124 22.6332 7.25924 22.7503 7.50124 22.7503C7.64424 22.7503 7.78818 22.7092 7.91618 22.6242C8.26118 22.3942 8.35419 21.9292 8.12419 21.5842L6.40124 19.0003L8.12419 16.4162C8.35419 16.0712 8.26118 15.6062 7.91618 15.3762C7.57218 15.1462 7.10624 15.2392 6.87624 15.5842L5.50016 17.6482L4.12419 15.5842C3.89419 15.2392 3.42925 15.1462 3.08425 15.3762C2.73925 15.6062 2.64624 16.0712 2.87624 16.4162L4.59919 19.0003L2.87624 21.5842C2.64624 21.9292 2.73925 22.3942 3.08425 22.6242C3.42825 22.8542 3.89419 22.7612 4.12419 22.4162L5.50016 20.3522L6.87624 22.4162Z" fill="#1B8354"/>
<path d="M17.8602 22.7503H19.0702C19.5852 22.7503 19.8982 22.7502 20.2152 22.6052C21.2502 22.1583 21.2502 21.0933 21.2502 20.5202V20.4802C21.2502 19.9072 21.2502 18.8422 20.2152 18.3952C19.8984 18.2503 19.5855 18.2503 19.071 18.2503C18.844 18.2503 18.6092 18.2502 18.5332 18.2342L18.5302 18.2327C18.5276 18.2313 18.5252 18.23 18.5222 18.2293C18.4242 18.1883 18.3892 18.0752 18.3892 17.5202V17.4802C18.3892 16.9262 18.4242 16.8133 18.5222 16.7713C18.5262 16.7693 18.5292 16.7682 18.5332 16.7662C18.6088 16.7503 18.8408 16.7503 19.0667 16.7503H20.1802C20.5942 16.7503 20.9302 16.4143 20.9302 16.0003C20.9302 15.5863 20.5942 15.2503 20.1802 15.2503H19.0702C18.5557 15.2503 18.242 15.2503 17.9252 15.3952C16.8902 15.8422 16.8902 16.9072 16.8902 17.4802V17.5202C16.8902 18.0932 16.8902 19.1583 17.9252 19.6052C18.2422 19.7502 18.5552 19.7503 19.0702 19.7503H19.0736C19.2996 19.7503 19.5316 19.7503 19.6072 19.7662C19.6112 19.7682 19.6142 19.7703 19.6182 19.7713C19.7162 19.8123 19.7512 19.9252 19.7512 20.4802V20.5202C19.7512 21.0742 19.7162 21.1873 19.6182 21.2293C19.6162 21.2303 19.6127 21.2318 19.6127 21.2318C19.6127 21.2318 19.6092 21.2332 19.6072 21.2342C19.5312 21.2502 19.2972 21.2503 19.0702 21.2503H17.8602C17.4462 21.2503 17.1102 21.5863 17.1102 22.0003C17.1102 22.4143 17.4462 22.7503 17.8602 22.7503Z" fill="#1B8354"/>
<path d="M13.0002 22.7503H14.0002C14.4142 22.7503 14.7502 22.4143 14.7502 22.0003C14.7502 21.5863 14.4142 21.2503 14.0002 21.2503H13.0002C12.5232 21.2503 11.9342 21.2503 11.8212 21.1793C11.7502 21.0653 11.7502 20.4763 11.7502 20.0003V16.0003C11.7502 15.5863 11.4142 15.2503 11.0002 15.2503C10.5862 15.2503 10.2502 15.5863 10.2502 16.0003V20.0003C10.2502 21.0683 10.2502 21.7132 10.7512 22.2312L10.7692 22.2492C11.2872 22.7502 11.9322 22.7503 13.0002 22.7503Z" fill="#1B8354"/>
</svg>
