<svg width="24" height="24" viewBox="0 0 24 24" fill="none" xmlns="http://www.w3.org/2000/svg">
<path d="M6.60372 8.55529C6.7256 8.71666 7.08951 9.1984 7.30624 9.47611C7.74031 10.0323 8.33342 10.7714 8.97323 11.5083C9.61627 12.2489 10.2918 12.9702 10.8919 13.5005C11.1928 13.7663 11.4571 13.9684 11.6753 14.0999C11.8804 14.2235 12.0016 14.2493 12.0016 14.2493C12.0016 14.2493 12.1192 14.2235 12.3244 14.0999C12.5425 13.9684 12.8068 13.7663 13.1078 13.5005C13.7079 12.9702 14.3834 12.2489 15.0264 11.5083C15.6662 10.7714 16.2593 10.0323 16.6934 9.47608C16.9101 9.19837 17.2735 8.7173 17.3954 8.55593C17.6411 8.22241 18.1111 8.15047 18.4446 8.3961C18.7781 8.64173 18.8494 9.11123 18.6037 9.44476L18.6018 9.4473C18.474 9.61655 18.0971 10.1156 17.8759 10.3989C17.4321 10.9677 16.8216 11.7286 16.1591 12.4917C15.4997 13.2511 14.7741 14.0298 14.101 14.6245C13.7653 14.9212 13.425 15.1879 13.0988 15.3845C12.7932 15.5687 12.4063 15.75 11.9998 15.75C11.5933 15.75 11.2064 15.5687 10.9008 15.3845C10.5747 15.1879 10.2344 14.9212 9.89869 14.6245C9.22557 14.0298 8.4999 13.2511 7.84058 12.4917C7.17803 11.7286 6.5676 10.9677 6.12372 10.399C5.90243 10.1154 5.52551 9.61637 5.39793 9.44747L5.39628 9.44528C5.15064 9.11176 5.22154 8.64179 5.55506 8.39615C5.88857 8.15053 6.35808 8.22179 6.60372 8.55529Z" fill="#161616"/>
</svg>
