<svg width="12" height="8" viewBox="0 0 12 8" fill="none" xmlns="http://www.w3.org/2000/svg">
<g id="elements">
<path id="Icon" d="M11.8327 3.99966C11.8327 3.75062 11.7223 3.51958 11.6177 3.34609C11.5048 3.15888 11.3531 2.9656 11.1866 2.77714C10.8526 2.3991 10.4168 1.99311 9.99387 1.62586C9.56847 1.25646 9.14454 0.916319 8.82786 0.669137C8.66925 0.545339 8.53694 0.444382 8.444 0.374175C8.39752 0.339062 8.36086 0.311614 8.33564 0.292817L8.30659 0.271227L8.29889 0.265525L8.29621 0.263552C8.07388 0.0997772 7.76059 0.147037 7.59681 0.369372C7.43305 0.591696 7.48051 0.904682 7.70282 1.06846L7.7113 1.07474L7.738 1.09458C7.76161 1.11219 7.79656 1.13835 7.84123 1.17209C7.93058 1.23959 8.05868 1.33732 8.21257 1.45744C8.52088 1.69808 8.93027 2.02668 9.3382 2.38091C9.74862 2.73731 10.1462 3.10986 10.4372 3.43924C10.4556 3.46007 10.4734 3.48055 10.4906 3.50065L0.666016 3.50065C0.389873 3.50065 0.166016 3.72451 0.166016 4.00065C0.166016 4.27679 0.389874 4.50065 0.666016 4.50065L10.4889 4.50065C10.4722 4.52012 10.455 4.53994 10.4372 4.56009C10.1462 4.88947 9.74862 5.26202 9.3382 5.61841C8.93027 5.97265 8.52088 6.30125 8.21257 6.54189C8.05868 6.66201 7.93058 6.75974 7.84123 6.82724C7.79656 6.86098 7.76161 6.88714 7.738 6.90474L7.7113 6.92459L7.70282 6.93087C7.48051 7.09465 7.43305 7.40763 7.59682 7.62996C7.76059 7.85229 8.07388 7.89955 8.29621 7.73578L8.29889 7.7338L8.30659 7.7281L8.33564 7.70651C8.36086 7.68772 8.39752 7.66027 8.444 7.62515C8.53694 7.55495 8.66926 7.45399 8.82786 7.33019C9.14455 7.08301 9.56848 6.74287 9.99387 6.37347C10.4168 6.00622 10.8526 5.60023 11.1866 5.22218C11.3531 5.03373 11.5048 4.84045 11.6177 4.65324C11.7216 4.48079 11.8314 4.25147 11.8327 4.00415" fill="#161616"/>
</g>
</svg>
