<svg width="22" height="22" viewBox="0 0 22 22" fill="none" xmlns="http://www.w3.org/2000/svg">
<g id="elements">
<g id="Icon">
<path d="M6.49951 11.7507C6.08551 11.7507 5.74951 11.4147 5.74951 11.0007C5.74951 10.5867 6.08551 10.2507 6.49951 10.2507H12.4995C12.9135 10.2507 13.2495 10.5867 13.2495 11.0007C13.2495 11.4147 12.9135 11.7507 12.4995 11.7507H6.49951Z" fill="#161616"/>
<path d="M9.49951 7.75073H6.49951C6.08551 7.75073 5.74951 7.41473 5.74951 7.00073C5.74951 6.58673 6.08551 6.25073 6.49951 6.25073H9.49951C9.91351 6.25073 10.2495 6.58673 10.2495 7.00073C10.2495 7.41473 9.91351 7.75073 9.49951 7.75073Z" fill="#161616"/>
<path fill-rule="evenodd" clip-rule="evenodd" d="M2.8028 17.7517H2.80445C3.85645 17.7517 4.71042 17.4848 5.47642 16.9198L5.53843 16.8748L5.55999 16.8592C5.61749 16.8179 5.67686 16.7752 5.7275 16.7397C5.8375 16.7817 5.98345 16.8427 6.10445 16.8937C6.55445 17.0787 7.08345 17.2007 7.60045 17.2387C8.86045 17.3207 10.1385 17.3207 11.3985 17.2387H11.4004C15.3084 16.9747 18.4545 13.8108 18.7185 9.87377C18.7605 9.15677 18.7605 8.39371 18.7185 7.65971C18.4545 3.72371 15.3075 0.564762 11.3995 0.311762C10.1385 0.228762 8.86142 0.228762 7.60142 0.311762C3.69342 0.565762 0.5465 3.72472 0.2815 7.66772C0.2395 8.39372 0.2395 9.15668 0.2815 9.88168C0.3685 11.1367 0.844457 12.4018 1.73746 13.7488C1.97146 14.1988 1.71149 14.8848 1.44849 15.3868C1.08549 16.0518 0.800473 16.5778 1.12847 17.1528C1.1299 17.1563 1.13184 17.1594 1.13393 17.1627C1.13476 17.164 1.13562 17.1653 1.13648 17.1667C1.47266 17.7274 2.05963 17.7387 2.68094 17.7506L2.6855 17.7507C2.72561 17.7517 2.76372 17.7517 2.8028 17.7517ZM2.71343 16.2507H2.68648C2.71448 16.1997 2.74144 16.1487 2.76744 16.1007C2.76844 16.0977 2.77052 16.0938 2.77252 16.0908C3.41452 14.8698 3.50248 13.8277 3.03248 12.9937C3.02377 12.9782 3.01413 12.9628 3.00446 12.9473L3.00347 12.9457C2.24747 11.8117 1.84647 10.7757 1.77847 9.78871C1.74047 9.12871 1.74047 8.42574 1.77847 7.76274C1.99347 4.57474 4.53847 2.01569 7.69947 1.81069C8.89347 1.73169 10.1054 1.73269 11.3014 1.81069C14.4624 2.01569 17.0074 4.57373 17.2214 7.75473C17.2594 8.42473 17.2594 9.12768 17.2214 9.78168C17.0074 12.9667 14.4615 15.5297 11.2995 15.7437C10.1045 15.8217 8.89345 15.8217 7.70445 15.7437C7.35245 15.7177 6.97745 15.6317 6.67945 15.5097C6.13245 15.2797 5.84845 15.1608 5.52945 15.2078C5.23945 15.2438 5.01943 15.4018 4.66343 15.6578L4.59449 15.7067C4.06449 16.0967 3.48443 16.2627 2.71343 16.2507Z" fill="#161616"/>
<path d="M19.3018 21.7518C18.3278 21.7518 17.4968 21.4958 16.7638 20.9698C16.6848 20.9118 16.6069 20.8548 16.5419 20.8088C16.4239 20.8538 16.2789 20.9138 16.2079 20.9438C15.7969 21.1148 15.2959 21.2308 14.7979 21.2688H14.7869C13.6239 21.3398 12.3889 21.3398 11.2149 21.2688C9.65592 21.1608 8.24685 20.5929 7.02185 19.5779C6.70285 19.3139 6.65892 18.8408 6.92292 18.5218C7.18692 18.2028 7.65988 18.1588 7.97888 18.4228C8.95688 19.2328 10.0779 19.6868 11.3119 19.7718C12.4169 19.8398 13.5868 19.8398 14.6888 19.7718C15.0248 19.7458 15.3689 19.6678 15.6319 19.5578C16.1599 19.3388 16.4269 19.2358 16.7149 19.2638C16.7349 19.2658 16.7559 19.2688 16.7759 19.2728C17.0549 19.3238 17.2649 19.4768 17.6439 19.7558C18.1129 20.0918 18.6429 20.2518 19.3009 20.2518H19.3449L19.3298 20.2233C19.3222 20.2089 19.3147 20.1946 19.3069 20.1808L19.2969 20.1618C18.5189 18.7268 18.7329 17.7678 19.0499 17.2168C19.0579 17.2028 19.0669 17.1888 19.0759 17.1748C19.7869 16.1088 20.1618 15.1458 20.2219 14.2318C20.2599 13.6208 20.2599 12.9658 20.2219 12.3408C20.1679 11.6158 19.9979 10.9318 19.7169 10.3088C19.5469 9.93081 19.7148 9.48682 20.0928 9.31682C20.4698 9.14682 20.9148 9.31479 21.0848 9.69279C21.4388 10.4778 21.6519 11.3338 21.7189 12.2358V12.2458C21.7609 12.9318 21.7609 13.6508 21.7189 14.3268C21.6419 15.5058 21.1909 16.6998 20.3409 17.9818C20.1179 18.4018 20.4179 19.0818 20.6199 19.4538L20.6339 19.4798C20.9709 20.1168 21.2369 20.6198 20.9199 21.1668C20.5949 21.7278 19.9959 21.7398 19.4159 21.7508C19.3969 21.7508 19.3779 21.751 19.3589 21.7513C19.3398 21.7515 19.3208 21.7518 19.3018 21.7518Z" fill="#161616"/>
</g>
</g>
</svg>
