<svg width="32" height="32" viewBox="0 0 32 32" fill="none" xmlns="http://www.w3.org/2000/svg">
<path d="M0.5 4C0.5 2.067 2.067 0.5 4 0.5H28C29.933 0.5 31.5 2.067 31.5 4V28C31.5 29.933 29.933 31.5 28 31.5H4C2.067 31.5 0.5 29.933 0.5 28V4Z" stroke="white" stroke-opacity="0.3"/>
<path fill-rule="evenodd" clip-rule="evenodd" d="M10.4304 7.07149C10.9026 7.16909 11.2787 7.48637 11.5124 7.90557L12.2567 9.24093C12.5309 9.73277 12.7616 10.1467 12.9123 10.5065C13.0721 10.8882 13.1671 11.2646 13.1237 11.6807C13.0803 12.0968 12.9097 12.4455 12.6746 12.786C12.4529 13.107 12.1418 13.4644 11.772 13.8891L9.91545 16.0216C11.3878 18.4349 13.5619 20.61 15.9777 22.0839L18.1103 20.2273C18.5349 19.8576 18.8923 19.5464 19.2133 19.3247C19.5538 19.0896 19.9025 18.919 20.3186 18.8757C20.7348 18.8323 21.1112 18.9272 21.4928 19.087C21.8526 19.2377 22.2666 19.4684 22.7584 19.7426L24.0938 20.4869C24.513 20.7206 24.8302 21.0967 24.9278 21.5689C25.0265 22.0461 24.881 22.5257 24.5597 22.9199C23.3939 24.3502 21.5262 25.2609 19.5669 24.8657C18.3625 24.6227 17.1741 24.2179 15.7369 23.3937C12.8491 21.7375 10.2599 19.1469 8.60564 16.2624C7.78138 14.8252 7.37662 13.6369 7.13366 12.4325C6.73842 10.4731 7.64911 8.60538 9.07941 7.43963C9.47361 7.11834 9.95323 6.97287 10.4304 7.07149ZM17.142 22.7276C18.114 23.2065 18.9594 23.4679 19.814 23.6403C21.2274 23.9255 22.6543 23.2792 23.5908 22.1302C23.7137 21.9793 23.7145 21.874 23.7037 21.8219C23.6919 21.7649 23.6442 21.6674 23.4852 21.5788L22.1797 20.8511C21.65 20.5559 21.2974 20.3604 21.01 20.24C20.7372 20.1258 20.5807 20.1051 20.4483 20.1189C20.3159 20.1327 20.167 20.1852 19.9236 20.3533C19.6673 20.5304 19.3626 20.7944 18.9052 21.1926L17.142 22.7276ZM9.27173 14.8573L10.8067 13.0942C11.2049 12.6368 11.469 12.3321 11.646 12.0757C11.8141 11.8323 11.8666 11.6834 11.8804 11.551C11.8942 11.4187 11.8736 11.2621 11.7593 10.9893C11.639 10.7019 11.4434 10.3493 11.1482 9.81959L10.4205 8.51416C10.3319 8.35512 10.2344 8.3074 10.1774 8.29562C10.1253 8.28485 10.02 8.28561 9.86914 8.40856C8.72015 9.34503 8.07387 10.7719 8.35898 12.1853C8.53138 13.0399 8.79279 13.8853 9.27173 14.8573Z" fill="white"/>
</svg>
