<svg width="24" height="24" viewBox="0 0 24 24" fill="none" xmlns="http://www.w3.org/2000/svg">
<path d="M11.5862 1.25H10.4197C8.46879 1.24999 6.93234 1.24998 5.73178 1.40242C4.5028 1.55847 3.51258 1.88575 2.72845 2.62631C1.93827 3.37259 1.58353 4.32468 1.41548 5.50521C1.2529 6.64729 1.25291 8.1054 1.25293 9.94067V14.0593C1.25291 15.8946 1.2529 17.3527 1.41548 18.4948C1.58353 19.6753 1.93827 20.6274 2.72847 21.3737C3.51259 22.1142 4.50281 22.4415 5.73177 22.5976C6.93234 22.75 8.4688 22.75 10.4197 22.75H11.0029C11.4171 22.75 11.7529 22.4142 11.7529 22C11.7529 21.5858 11.4171 21.25 11.0029 21.25H10.4735C8.45693 21.25 7.0158 21.2486 5.92073 21.1095C4.84305 20.9727 4.21474 20.7141 3.75837 20.2831C3.30808 19.8579 3.04257 19.2814 2.90051 18.2834C2.75471 17.2592 2.75293 15.908 2.75293 14V10C2.75293 8.09197 2.75471 6.74077 2.90051 5.71661C3.04257 4.71864 3.30807 4.14213 3.75839 3.71683C4.21475 3.28582 4.84304 3.02731 5.92073 2.89047C7.0158 2.75142 8.45694 2.75 10.4735 2.75H11.5323C13.5489 2.75 14.9901 2.75142 16.0851 2.89047C17.1628 3.02731 17.7911 3.28582 18.2475 3.71683C18.6978 4.14213 18.9633 4.71864 19.1054 5.71661C19.2512 6.74077 19.2529 8.09197 19.2529 10V11C19.2529 11.4142 19.5887 11.75 20.0029 11.75C20.4171 11.75 20.7529 11.4142 20.7529 11V9.94069C20.753 8.10541 20.753 6.64729 20.5904 5.50521C20.4223 4.32467 20.0676 3.37259 19.2774 2.62631C18.4933 1.88575 17.5031 1.55847 16.2741 1.40242C15.0735 1.24998 13.5371 1.24999 11.5862 1.25Z" fill="#161616"/>
<path d="M7.00293 6.25C6.58872 6.25 6.25293 6.58579 6.25293 7C6.25293 7.41421 6.58872 7.75 7.00293 7.75H15.0029C15.4171 7.75 15.7529 7.41421 15.7529 7C15.7529 6.58579 15.4171 6.25 15.0029 6.25H7.00293Z" fill="#161616"/>
<path d="M6.25293 12C6.25293 11.5858 6.58872 11.25 7.00293 11.25H15.0029C15.4171 11.25 15.7529 11.5858 15.7529 12C15.7529 12.4142 15.4171 12.75 15.0029 12.75H7.00293C6.58872 12.75 6.25293 12.4142 6.25293 12Z" fill="#161616"/>
<path fill-rule="evenodd" clip-rule="evenodd" d="M21.3926 13.9083C20.5125 13.0306 19.0863 13.0306 18.2062 13.9083L14.5224 17.5818C14.1316 17.9715 13.8672 18.4696 13.7635 19.0114L13.2856 21.2378C13.0942 22.1292 13.8893 22.9131 14.7742 22.7216L17.0188 22.2356C17.5604 22.1323 18.0589 21.8692 18.4494 21.4798L22.0896 17.7814C22.9682 16.9023 22.9673 15.4786 22.0869 14.6006L21.3926 13.9083ZM19.2654 14.9704C19.5601 14.6765 20.0387 14.6765 20.3334 14.9704L21.0277 15.6628C21.3212 15.9555 21.3212 16.4292 21.0277 16.7219L17.388 20.4198C17.2094 20.5971 16.981 20.7169 16.7326 20.7632C16.7254 20.7645 16.7183 20.7659 16.7112 20.7675L14.8334 21.174L15.232 19.3173L15.2359 19.298C15.2822 19.0505 15.4026 18.8224 15.5816 18.644L19.2654 14.9704Z" fill="#161616"/>
</svg>
