<?xml version="1.0" encoding="UTF-8"?>
<svg id="Layer_1" data-name="Layer 1" xmlns="http://www.w3.org/2000/svg" xmlns:xlink="http://www.w3.org/1999/xlink" viewBox="0 0 792.59 342.42">
  <defs>
    <style>
      .cls-1 {
        fill: #fff;
      }

      .cls-2 {
        clip-path: url(#clippath);
      }
    </style>
    <clipPath id="clippath">
      <path class="cls-1" d="M648.93,0s-.05.02-.06.06c-.46,2.74-1.33,5.51-2.39,7.96-.45,1.03-.94,2.02-1.44,2.91-.02.04-.08.04-.11,0-4.6-6.96-13.21-6.82-18.46-.81-.06.06.01.15.1.12,3.48-1.67,10.1-1.17,13.4,3.58.04.06-.02.15-.08.11-5.12-2.15-13.02-.75-17.22,4.27-1.5,1.8-2.54,4.04-2.81,6.76-.01.09.1.13.13.07.34-.62,1.16-1.95,2.67-3.29,2.46-2.17,6.76-4.38,13.86-3.71.08,0,.1.12.01.14-3.64.45-11.11,3.7-13.87,11.12-1.22,3.28-1.54,7.38-.16,12.43.03.08.15.07.15-.01,0-.11.01-.22.01-.34.07-6.75,3.93-15.79,13.46-18.09.08-.02.13.08.07.13-10.68,9.39-9.61,20.98-6.13,27.83.04.07.15.04.15-.05-.46-5.17-.83-14.4,7.73-21.36.06-.06.16.02.11.09-1.96,3.17-6.63,15.66,2.93,26.98.06.07.17.02.13-.06-1.6-3.86-3.75-17.39,3.93-22.23.05-.03.11,0,.11.05.84,9.9,2.59,30.07-.99,51.79-6.18-4.73-12.69-8.91-19.14-11.34-.79-.3-1.57-.56-2.35-.83-6.66-2.19-12.75-2.81-18.07-2.58-8.54.38-15.07,2.94-18.65,4.73-.74.36-1.35.69-1.82.97-.19.11-.04.39.16.32.56-.18,1.11-.33,1.66-.49,6.56-1.85,12.77-2.35,18.65-1.84,6.41.56,12.44,2.33,18.07,4.88,7.9,3.57,15.06,8.65,21.51,14.03-9.12,7.96-16.83,15.71-21.51,18.44-.23.12-.48.26-.68.37-1.12-1.53-3.07-2.42-5.2-1.96-1.85.41-3.36,1.89-3.77,3.74-.37,1.65.05,3.42.98,4.34,2.5,2.49,5.37,2.66,8.67,1.26,6.31-2.66,14.16-11.02,23.82-19.86.81-.73,1.62-1.47,2.44-2.22h0c.83.75,1.64,1.49,2.44,2.22,9.65,8.85,17.5,17.21,23.81,19.86,3.32,1.4,6.18,1.23,8.68-1.26.93-.93,1.36-2.7.98-4.34-.41-1.85-1.92-3.33-3.77-3.74-2.13-.46-4.08.43-5.2,1.96-.21-.11-.45-.25-.69-.37-4.69-2.73-12.39-10.47-21.5-18.44,6.45-5.38,13.61-10.45,21.5-14.03,5.64-2.54,11.67-4.31,18.07-4.88,10.84-.84,18.16,4.05,23.38,9.12,7.82,7.58,9.86,18.64,8.47,42.2-1.35,22.47-6.18,53.48-6.18,97.03,0,72.32,10.31,118.66,53.34,118.66,16.91,0,20.31-4.01,20.31-4.01,0,0-5.02,2.04-13.87,2.04-19.53,0-38.18-10.86-38.18-43.92,0-27.22,6.62-60.08,6.62-102.48,0-91-17.71-107.79-33.42-116.65-.48-.28-1.1-.61-1.81-.97-3.6-1.79-10.12-4.35-18.66-4.73-5.32-.23-11.41.39-18.07,2.58-.77.27-1.55.53-2.35.83-6.44,2.43-12.95,6.61-19.14,11.34-3.57-21.73-1.82-41.89-.98-51.79,0-.05.07-.08.12-.05,7.66,4.85,5.51,18.37,3.91,22.23-.03.08.08.13.14.06,9.57-11.32,4.89-23.81,2.92-26.98-.03-.07.06-.15.13-.09,8.56,6.96,8.18,16.19,7.72,21.36-.02.08.1.12.15.05,3.48-6.85,4.53-18.44-6.13-27.83-.06-.06-.01-.15.07-.13,9.53,2.3,13.39,11.34,13.45,18.09,0,.11.01.23.01.34,0,.08.13.1.15.01,1.38-5.04,1.07-9.14-.16-12.43-2.75-7.42-10.22-10.67-13.87-11.12-.08-.02-.07-.13.02-.14,7.1-.67,11.39,1.54,13.85,3.71,1.52,1.34,2.35,2.67,2.68,3.29.03.07.15.02.14-.07-.26-2.72-1.31-4.97-2.82-6.76-4.22-5.03-12.1-6.43-17.22-4.27-.06.03-.12-.06-.09-.11,3.31-4.76,9.93-5.25,13.42-3.58.07.03.14-.06.08-.12-5.24-6.01-13.85-6.15-18.44.81-.03.04-.11.04-.13,0-.5-.88-.97-1.87-1.43-2.91-1.06-2.45-1.93-5.22-2.38-7.96,0-.03-.03-.05-.06-.06h0Z"/>
    </clipPath>
  </defs>
  <g>
    <path class="cls-1" d="M648.93,0s-.05.02-.06.06c-.46,2.74-1.33,5.51-2.39,7.96-.45,1.03-.94,2.02-1.44,2.91-.02.04-.08.04-.11,0-4.6-6.96-13.21-6.82-18.46-.81-.06.06.01.15.1.12,3.48-1.67,10.1-1.17,13.4,3.58.04.06-.02.15-.08.11-5.12-2.15-13.02-.75-17.22,4.27-1.5,1.8-2.54,4.04-2.81,6.76-.01.09.1.13.13.07.34-.62,1.16-1.95,2.67-3.29,2.46-2.17,6.76-4.38,13.86-3.71.08,0,.1.12.01.14-3.64.45-11.11,3.7-13.87,11.12-1.22,3.28-1.54,7.38-.16,12.43.03.08.15.07.15-.01,0-.11.01-.22.01-.34.07-6.75,3.93-15.79,13.46-18.09.08-.02.13.08.07.13-10.68,9.39-9.61,20.98-6.13,27.83.04.07.15.04.15-.05-.46-5.17-.83-14.4,7.73-21.36.06-.06.16.02.11.09-1.96,3.17-6.63,15.66,2.93,26.98.06.07.17.02.13-.06-1.6-3.86-3.75-17.39,3.93-22.23.05-.03.11,0,.11.05.84,9.9,2.59,30.07-.99,51.79-6.18-4.73-12.69-8.91-19.14-11.34-.79-.3-1.57-.56-2.35-.83-6.66-2.19-12.75-2.81-18.07-2.58-8.54.38-15.07,2.94-18.65,4.73-.74.36-1.35.69-1.82.97-.19.11-.04.39.16.32.56-.18,1.11-.33,1.66-.49,6.56-1.85,12.77-2.35,18.65-1.84,6.41.56,12.44,2.33,18.07,4.88,7.9,3.57,15.06,8.65,21.51,14.03-9.12,7.96-16.83,15.71-21.51,18.44-.23.12-.48.26-.68.37-1.12-1.53-3.07-2.42-5.2-1.96-1.85.41-3.36,1.89-3.77,3.74-.37,1.65.05,3.42.98,4.34,2.5,2.49,5.37,2.66,8.67,1.26,6.31-2.66,14.16-11.02,23.82-19.86.81-.73,1.62-1.47,2.44-2.22h0c.83.75,1.64,1.49,2.44,2.22,9.65,8.85,17.5,17.21,23.81,19.86,3.32,1.4,6.18,1.23,8.68-1.26.93-.93,1.36-2.7.98-4.34-.41-1.85-1.92-3.33-3.77-3.74-2.13-.46-4.08.43-5.2,1.96-.21-.11-.45-.25-.69-.37-4.69-2.73-12.39-10.47-21.5-18.44,6.45-5.38,13.61-10.45,21.5-14.03,5.64-2.54,11.67-4.31,18.07-4.88,10.84-.84,18.16,4.05,23.38,9.12,7.82,7.58,9.86,18.64,8.47,42.2-1.35,22.47-6.18,53.48-6.18,97.03,0,72.32,10.31,118.66,53.34,118.66,16.91,0,20.31-4.01,20.31-4.01,0,0-5.02,2.04-13.87,2.04-19.53,0-38.18-10.86-38.18-43.92,0-27.22,6.62-60.08,6.62-102.48,0-91-17.71-107.79-33.42-116.65-.48-.28-1.1-.61-1.81-.97-3.6-1.79-10.12-4.35-18.66-4.73-5.32-.23-11.41.39-18.07,2.58-.77.27-1.55.53-2.35.83-6.44,2.43-12.95,6.61-19.14,11.34-3.57-21.73-1.82-41.89-.98-51.79,0-.05.07-.08.12-.05,7.66,4.85,5.51,18.37,3.91,22.23-.03.08.08.13.14.06,9.57-11.32,4.89-23.81,2.92-26.98-.03-.07.06-.15.13-.09,8.56,6.96,8.18,16.19,7.72,21.36-.02.08.1.12.15.05,3.48-6.85,4.53-18.44-6.13-27.83-.06-.06-.01-.15.07-.13,9.53,2.3,13.39,11.34,13.45,18.09,0,.11.01.23.01.34,0,.08.13.1.15.01,1.38-5.04,1.07-9.14-.16-12.43-2.75-7.42-10.22-10.67-13.87-11.12-.08-.02-.07-.13.02-.14,7.1-.67,11.39,1.54,13.85,3.71,1.52,1.34,2.35,2.67,2.68,3.29.03.07.15.02.14-.07-.26-2.72-1.31-4.97-2.82-6.76-4.22-5.03-12.1-6.43-17.22-4.27-.06.03-.12-.06-.09-.11,3.31-4.76,9.93-5.25,13.42-3.58.07.03.14-.06.08-.12-5.24-6.01-13.85-6.15-18.44.81-.03.04-.11.04-.13,0-.5-.88-.97-1.87-1.43-2.91-1.06-2.45-1.93-5.22-2.38-7.96,0-.03-.03-.05-.06-.06h0Z"/>
    <g class="cls-2">
      <rect class="cls-1" x="583.94" y="0" width="208.65" height="342.42"/>
    </g>
  </g>
  <g>
    <path class="cls-1" d="M639.38,169.83c3.07,1.02,3.14,1.54,3.14,3.22v41.58h6.42v-46.62l-9.56,1.82ZM626.39,173.04v31.88c0,4.31-1.67,7.01-5.77,7.01h-7.16c-.07-12.33-2.04-29.62-10.79-29.77h-.15c-2.91,0-5.11,1.82-6.64,3.57-3.14,3.58-4.45,4.02-6.27,4.09l1.32,5.69c4.3-6.2,8.09-11.01,10.73-11.01,3.72,0,4.67,5.91,4.67,18.45v8.98h-21.23l2.26,2.7h34.81c6.2,0,10.65-3.36,10.65-9.48v-37.13l-9.63,1.82c3.21,1.02,3.21,1.54,3.21,3.22M562.91,221.33c-2.26,0-3.72,1.6-3.72,3.65s1.47,3.72,3.72,3.72c2.11,0,3.72-1.68,3.72-3.72s-1.6-3.65-3.72-3.65M547.15,184.64h-.81c-6.41,0-13.28,7.29-13.28,18.16,0,4.31,2.26,9.12,6.42,9.12h7.51c.07-.73.15-1.31.15-2.26v-25.02ZM569.18,183.91l9.64-1.82v23.05c0,6.13-4.38,9.48-10.58,9.48h-15.84c-3.06,11.68-10.65,13.43-16.56,13.43-1.02,0-3.36-.15-5.98-.37l1.75-.29c5.25-1.16,11.96-3.5,14.66-12.77h-8.39c-4.89,0-11.16-4.37-11.16-11.38,0-12.69,8.9-20.86,21.3-20.86h5.54v17.88c0,4.66-.14,8.53-.51,11.67h13.94c3.86-.07,5.47-2.77,5.47-7.01v-17.73c0-1.75-.07-2.26-3.28-3.28M573.42,221.33c-2.19,0-3.72,1.6-3.72,3.65s1.53,3.72,3.72,3.72,3.72-1.68,3.72-3.72-1.53-3.65-3.72-3.65M512.27,173.04v41.58h6.43v-46.62l-9.56,1.82c3.06,1.02,3.13,1.54,3.13,3.22M480.31,181.43c2.05,0,3.79-1.6,3.79-3.8s-1.74-3.79-3.79-3.79-3.72,1.68-3.72,3.79,1.75,3.8,3.72,3.8M496.14,189.16v14c0,16.85-7.52,21.52-14.89,21.52s-14.88-4.67-14.88-21.52v-15.53l-11.67.51v2.48c4.15,0,5.25.58,5.25,2.33v10.21c0,11.74,7.15,24,21.3,24s21.31-12.26,21.31-24v-19.04l-9.63,1.83c3.14,1.02,3.21,1.53,3.21,3.21M433.11,173.04v41.58h6.42v-46.62l-9.56,1.82c3.06,1.02,3.14,1.54,3.14,3.22M385.61,208.2c5.18-3.21,8.61-5.98,8.61-12.91,0-5.54-2.77-9.56-8.17-9.56-3.94,0-8.1,1.31-11.89,3.43,2.56,3.06,4.38,6.34,5.84,9.55,1.53,3.06,3.72,7.37,5.62,9.48M413.77,169.83l9.64-1.82v37.13c0,6.13-4.46,9.48-10.65,9.48h-19.63c-5.4,0-7.15-1.09-8.25-1.82,0,0-.07,0-.07-.07-2.18,1.17-4.01,1.9-7.81,1.9h-16.49c-6.21,0-10.8-2.19-10.8-9.12v-32.03c0-1.75-1.09-2.41-5.26-2.41v-2.4l11.68-.51v37.64c0,3.86,1.75,5.91,4.81,6.13h14.3c.66,0,5.18-.36,7.08-1.53-2.12-2.41-3.51-4.6-7.36-12.4-1.25-2.33-3.8-5.61-4.97-7.15-.58-.81-1.31-1.82-1.53-2.05.22-.15.44-.36.95-.65,5.69-3.36,11.53-5.47,16.56-5.47,8.98,0,15.47,4.74,15.47,12.91,0,7.15-7.3,11.67-13.64,15.1.95.8,1.97,1.24,4.31,1.24h19.12c4.08,0,5.76-2.7,5.76-7.01v-31.88c0-1.68,0-2.19-3.21-3.22M331.25,199.88c0-6.86-2.63-13.42-8.02-13.57h-.22c-4.66,0-6.31,5.14-7.85,10.75-.73,2.63-1.68,5.29-2.78,8.31.15.22,5.18,6.62,10.35,6.62,4.6,0,8.53-5.4,8.53-12.11M337.81,199.59c0,7.07-5.03,14.88-15.4,14.88-6.63,0-9.63-3.36-11.89-6.12-1.74,2.55-4.38,12.27-13.27,12.27l-.51-.07c-.73-.51-1.61-1.31-2.55-2.19-1.74-1.45-4.16-4.16-4.67-4.45,1.15.5,4.67,1.82,6.71,1.82,7.94,0,10.64-11.26,12.39-16.94,2.11-7.08,4.6-14.81,15.61-14.89,8.9,0,13.57,8.9,13.57,15.69M223.19,203.17c0-6.93-2.56-13.42-7.88-13.64h-.29c-4.67,0-6.13,5.25-7.58,10.94l-.15.44c-.66,2.48-1.31,5.18-2.7,7.81.15.07.29.29.36.44,1.9,2.33,5.18,6.06,9.71,6.06s8.53-5.4,8.53-12.04M268.29,169.83l9.63-1.82v37.13c0,6.13-4.45,9.48-10.65,9.48h-3.36c-3.72,0-6.93-2.26-9.18-5.69-1.76,4.37-6.21,5.69-10.8,5.69h-5.7c-4.81,0-7.59-1.68-10.06-4.89-2.11,4.45-6.64,8.02-13.72,8.02-6.64,0-9.7-3.43-11.89-6.2-1.67,1.82-3.79,3.06-7.66,3.06h-54.36c-6.2,0-10.8-2.19-10.8-9.12v-32.03c0-1.75-1.1-2.41-5.25-2.41v-2.4l11.67-.51v37.64c0,3.86,1.76,5.91,4.82,6.13h35.82c-.22-16.49-5.98-25.17-11.89-25.17-6.49,0-10.73,6.42-12.98,13.94l-2.99-5.47c1.09-.58,1.82-1.16,2.91-2.84,2.56-4.16,5.98-8.17,13.28-8.17,11.6,0,18.68,14.22,18.9,27.72h10.95c.65-.15,1.9-.36,2.77-1.1,2.19-2.11,3.36-6.49,4.3-10.14,1.76-6.78,3.58-13.5,14.3-13.5,8.82,0,13.57,8.9,13.57,15.61,0,.95-.07,1.82-.22,2.63,1.24,3.43,3.79,6.49,7.08,6.49h5.84c3.86,0,5.47-2.56,5.47-6.79v-32.54c0-1.6-.3-1.9-3.21-2.91l9.56-1.83v32.83c0,4.6,3.21,11.23,8.24,11.23h3.06c4.09,0,5.77-2.7,5.77-7.01v-31.88c0-1.68,0-2.19-3.22-3.22M23.05,196.75c0-6.2-.8-13.13-8.09-13.13-5.69,0-8.32,7.01-8.32,14.52,0,10.73,4.67,14.01,7.73,14.01,3.57,0,6.71-2.7,7.88-6.57.65-2.19.8-4.96.8-8.83M108.27,183.91l9.55-1.82v23.05c0,6.13-4.45,9.48-10.65,9.48-4.74,0-8.39-2.7-9.92-6.2-.95,3.5-5.55,6.2-10.07,6.2-4.89,0-7.67-1.68-10.14-5.03-1.6,3.36-5.25,5.03-9.85,5.03h-3.14v-.03c-3.53-.17-6.51-2.36-8.68-5.65-1.74,4.37-6.27,5.69-10.8,5.69h-11.53c-4.97-.07-9.05-.95-9.05-7.58-1.1,3.14-4.37,7.58-10.58,7.58-7.66,0-13.42-7.87-13.42-16.92,0-8.39,5.77-16.63,14.96-16.63,4.16,0,6.93,1.82,8.61,2.91.79.51,1.24.81,1.24.81.14,0,.51-.95.8-1.82.15-.29,0-.59.51-1.1h3.65c-.44,1.9-.51,3.79-.51,5.32v18.9c0,1.97.37,5.55,3.8,5.84h10.22c3.86,0,5.47-2.56,5.47-6.79v-18.31c0-1.6-.3-1.9-3.22-2.92l9.63-1.82v18.6c0,4.6,3.06,11.23,8.17,11.23h2.42c4.01,0,5.68-2.7,5.68-7.01v-12.77c0-1.6,0-1.9-3.28-2.99l9.62-1.75v14.73c.51,4.37,3.21,9.99,7.73,9.99,4.16,0,5.84-2.7,5.84-7.01v-15.68c0-1.53-.07-1.82-3.28-2.92l9.7-1.82v15.98c0,4.6,2.85,11.45,7.88,11.45,4.08,0,5.77-2.7,5.77-7.01v-17.95c0-1.75,0-2.26-3.14-3.28M49.69,220.46c-2.05,0-3.8,1.68-3.8,3.79s1.75,3.8,3.8,3.8,3.79-1.6,3.79-3.8-1.75-3.79-3.79-3.79M10.87,175.81c2.11,0,3.72-1.68,3.72-3.72s-1.61-3.72-3.72-3.72c-2.26,0-3.72,1.68-3.72,3.72s1.45,3.72,3.72,3.72M17.65,172.09c0-2.04,1.53-3.72,3.72-3.72s3.72,1.68,3.72,3.72-1.53,3.72-3.72,3.72-3.72-1.68-3.72-3.72"/>
    <path class="cls-1" d="M426.27,288.83c.4,1.72.97,3.18,1.72,4.4.75,1.21,1.65,2.15,2.72,2.8,1.06.65,2.25.97,3.57.97s2.51-.32,3.58-.97c1.06-.65,1.97-1.59,2.73-2.8.75-1.21,1.33-2.68,1.73-4.4.41-1.71.61-3.64.61-5.77s-.21-4.02-.62-5.74c-.41-1.72-1-3.18-1.76-4.4-.75-1.22-1.66-2.15-2.72-2.81-1.06-.66-2.24-.99-3.55-.99s-2.51.33-3.56.99c-1.06.66-1.96,1.59-2.71,2.81-.75,1.21-1.33,2.68-1.73,4.4-.41,1.72-.62,3.63-.62,5.74s.21,4.05.62,5.77M440.15,269.31c1.8.74,3.36,1.78,4.66,3.11,1.31,1.33,2.34,2.9,3.08,4.72.75,1.82,1.12,3.79,1.12,5.92s-.37,4.13-1.12,5.95c-.74,1.82-1.77,3.39-3.08,4.71-1.3,1.31-2.86,2.34-4.66,3.08-1.8.73-3.75,1.1-5.87,1.1s-4.03-.37-5.82-1.1c-1.79-.74-3.34-1.77-4.65-3.08-1.31-1.32-2.34-2.89-3.09-4.71-.75-1.82-1.13-3.8-1.13-5.95s.37-4.1,1.13-5.92c.75-1.82,1.78-3.39,3.09-4.72,1.31-1.33,2.86-2.37,4.65-3.11,1.79-.74,3.73-1.12,5.82-1.12s4.07.37,5.87,1.12"/>
    <path class="cls-1" d="M464.45,262.14v6.82h6.67v.9h-6.67v24.82l4.75,2.01v.54h-14.72v-.54l4.41-2.01v-24.82h-4.53v-.9h4.56v-6.17c0-8.19,7.57-9.43,9.94-9.43,2.87,0,6,1.15,6.76,1.53l-1.02,6.73h-.5c-.39-.72-3.65-6.45-3.99-7.01-.06-.02-.87-.28-1.62-.28-2.73,0-4.02,3.58-4.02,7.83"/>
    <path class="cls-1" d="M57.29,269.98c-.86.53-1.62,1.27-2.25,2.25-.64.97-1.15,2.14-1.52,3.49-.36,1.36-.6,2.86-.69,4.52l13.73-.62c0-3.47-.55-6.07-1.64-7.82-1.09-1.74-2.67-2.61-4.72-2.61-1.08,0-2.05.26-2.92.79M71.82,291.71c-1.22,1.87-2.84,3.37-4.83,4.5-2,1.13-4.37,1.69-7.12,1.69-1.94,0-3.71-.34-5.3-1.03-1.59-.69-2.96-1.66-4.1-2.91-1.15-1.25-2.02-2.75-2.65-4.5-.62-1.74-.93-3.66-.93-5.75,0-2.32.34-4.43,1.02-6.34.68-1.9,1.62-3.53,2.82-4.9,1.21-1.36,2.64-2.42,4.3-3.17,1.66-.74,3.47-1.11,5.42-1.11s3.56.33,5.03.99c1.47.66,2.71,1.56,3.72,2.71,1.01,1.15,1.77,2.5,2.3,4.05.53,1.55.79,3.22.79,4.99h-19.5c-.04.21-.06.42-.06.64v.69c.02,1.92.24,3.65.67,5.18.43,1.54,1.05,2.84,1.87,3.91.82,1.08,1.82,1.9,3.03,2.48,1.19.58,2.57.86,4.14.86.88,0,1.76-.08,2.62-.26.85-.17,1.67-.4,2.45-.69.78-.3,1.5-.65,2.16-1.06.65-.41,1.24-.88,1.75-1.39l.4.4Z"/>
    <path class="cls-1" d="M94.94,297.22v-.51l4.32-2.04v-17.35c0-1.91-.54-3.43-1.62-4.6-1.08-1.16-2.71-1.74-4.87-1.74-1.3,0-2.56.23-3.76.71-1.2.47-2.3,1.2-3.28,2.2v20.77l4.32,2.04v.51h-14.3v-.51l4.4-2.04v-22.22l-3.89-1.67v-.51l9.13-2.09.34.31v4.15c1.36-1.38,2.9-2.47,4.64-3.27,1.73-.8,3.58-1.2,5.54-1.2,1.32,0,2.52.21,3.62.62,1.09.42,2.04,1,2.82,1.76.79.75,1.4,1.66,1.84,2.71.42,1.06.65,2.21.65,3.47v17.92l4.38,2.04v.51h-14.27Z"/>
    <path class="cls-1" d="M123.68,269.98c-.86.53-1.62,1.27-2.25,2.25-.64.97-1.15,2.14-1.52,3.49-.37,1.36-.6,2.86-.69,4.52l13.74-.62c0-3.47-.55-6.07-1.64-7.82-1.1-1.74-2.67-2.61-4.72-2.61-1.08,0-2.05.26-2.92.79M138.22,291.71c-1.23,1.87-2.84,3.37-4.83,4.5-2,1.13-4.37,1.69-7.13,1.69-1.93,0-3.71-.34-5.3-1.03-1.59-.69-2.96-1.66-4.1-2.91-1.14-1.25-2.02-2.75-2.64-4.5-.62-1.74-.93-3.66-.93-5.75,0-2.32.34-4.43,1.02-6.34.68-1.9,1.62-3.53,2.82-4.9,1.2-1.36,2.63-2.42,4.3-3.17,1.66-.74,3.46-1.11,5.42-1.11s3.56.33,5.03.99c1.48.66,2.71,1.56,3.71,2.71,1.02,1.15,1.78,2.5,2.31,4.05.53,1.55.79,3.22.79,4.99h-19.51c-.03.21-.06.42-.06.64v.69c.02,1.92.24,3.65.67,5.18.42,1.54,1.05,2.84,1.87,3.91.82,1.08,1.82,1.9,3.02,2.48,1.2.58,2.58.86,4.14.86.88,0,1.76-.08,2.62-.26.85-.17,1.67-.4,2.45-.69.78-.3,1.5-.65,2.16-1.06.66-.41,1.25-.88,1.76-1.39l.4.4Z"/>
    <path class="cls-1" d="M162.89,276.08h-.36c-.36-.53-.73-1.05-1.11-1.55-.38-.51-.79-.96-1.24-1.37-.45-.4-.96-.73-1.5-.98-.55-.24-1.19-.36-1.92-.36-.88,0-1.74.23-2.57.69-.83.46-1.52,1.02-2.06,1.68v20.5l4.61,2.04v.51h-14.58v-.51l4.41-2.04v-22.22l-3.9-1.67v-.51l9.13-2.09.34.31v4.61c.53-.75,1.15-1.44,1.87-2.05.72-.62,1.49-1.14,2.32-1.57.83-.43,1.71-.77,2.63-1,.92-.23,1.86-.35,2.8-.35.41,0,.82.03,1.21.1.4.06.79.17,1.19.32l-1.24,7.52Z"/>
    <path class="cls-1" d="M175.04,293.81c.74.82,1.91,1.23,3.51,1.23,1.26,0,2.43-.17,3.52-.52,1.08-.35,2.06-.92,2.95-1.71v-10.66c-1.62.17-3.11.47-4.46.89-1.36.42-2.53.98-3.51,1.68-.98.7-1.74,1.52-2.29,2.45-.54.93-.82,1.99-.82,3.18,0,1.49.36,2.65,1.1,3.46M190.59,293.92l3.11,1.9v.34l-7.86,1.75-.68-4.1c-1.19,1.22-2.58,2.21-4.18,2.96-1.6.75-3.33,1.14-5.19,1.14-1.14,0-2.16-.15-3.09-.42-.92-.28-1.72-.69-2.39-1.23-.67-.54-1.19-1.19-1.55-1.96-.36-.77-.55-1.66-.55-2.66,0-1.58.46-2.99,1.4-4.23.93-1.24,2.18-2.29,3.73-3.17,1.55-.88,3.34-1.57,5.37-2.08,2.02-.5,4.13-.83,6.31-.96v-3.25c0-.98-.12-1.9-.35-2.74-.23-.85-.63-1.58-1.17-2.2-.54-.63-1.26-1.11-2.13-1.47-.88-.36-1.96-.54-3.24-.54-1.47,0-2.85.15-4.14.45-1.29.3-2.5.78-3.63,1.44l-.37-.54c1.36-1.22,3.01-2.21,4.93-2.98,1.93-.76,4.04-1.15,6.32-1.15,1.85,0,3.37.25,4.58.74,1.2.49,2.16,1.17,2.87,2.04.7.87,1.2,1.87,1.48,3.03.29,1.15.43,2.39.43,3.73v16.17Z"/>
    <polygon class="cls-1" points="208.68 254.77 209.02 255.08 209.02 294.68 213.4 296.71 213.4 297.22 199.04 297.22 199.04 296.71 203.45 294.68 203.45 259.03 200.48 257.4 200.48 256.86 208.68 254.77"/>
    <path class="cls-1" d="M37.1,266.66h-.59c-.18-.6-.45-1.44-.79-2.53-.35-1.09-.86-2.25-1.54-3.48-.69-1.23-1.57-2.45-2.67-3.65-1.1-1.2-2.5-2.21-4.2-3.01l-.34-.16c-.83-.27-1.64-.45-2.44-.56-.81-.11-1.58-.16-2.35-.16-2.7,0-4.99.6-6.87,1.81-1.89,1.2-3.43,2.81-4.62,4.81-1.19,2.01-2.05,4.34-2.59,6.98-.54,2.64-.81,5.41-.81,8.29,0,3.3.34,6.27,1.02,8.93.67,2.66,1.68,4.93,3.03,6.81,1.35,1.88,3.04,3.34,5.1,4.37,2.05,1.02,4.44,1.54,7.18,1.54.97,0,1.97-.16,3-.48,1.03-.32,1.97-.74,2.81-1.28.86-.53,1.55-1.14,2.1-1.82.55-.69.82-1.39.82-2.11l.04-10.32-6.19-3.52v-.4h12.38v15.67l-.22.16c-.74.58-1.63,1.2-2.66,1.83-1.03.64-2.2,1.23-3.51,1.76-1.32.53-2.79.97-4.42,1.33-1.63.35-3.41.53-5.33.53-3.46,0-6.58-.57-9.34-1.71-2.77-1.14-5.12-2.73-7.06-4.77-1.93-2.04-3.42-4.47-4.46-7.28C.52,281.41,0,278.32,0,274.97s.5-6.39,1.52-9.22c1.02-2.83,2.49-5.28,4.43-7.35,1.94-2.07,4.33-3.69,7.17-4.87,2.84-1.17,6.07-1.76,9.7-1.76,2.32,0,4.62.32,6.92.98,2.29.65,4.47,1.45,6.54,2.38l.82,11.54Z"/>
    <path class="cls-1" d="M289.78,288.83c.41,1.72.98,3.18,1.72,4.4.75,1.21,1.65,2.15,2.72,2.8,1.06.65,2.25.97,3.57.97s2.51-.32,3.58-.97c1.06-.65,1.97-1.59,2.73-2.8.75-1.21,1.33-2.68,1.73-4.4.41-1.72.61-3.64.61-5.77s-.21-4.02-.62-5.74c-.42-1.72-1-3.18-1.76-4.4-.75-1.22-1.66-2.15-2.73-2.81-1.06-.66-2.24-.99-3.55-.99s-2.51.33-3.57.99c-1.05.66-1.95,1.59-2.71,2.81-.75,1.21-1.33,2.68-1.74,4.4-.4,1.72-.61,3.63-.61,5.74s.21,4.05.61,5.77M303.66,269.31c1.8.74,3.36,1.78,4.66,3.11,1.31,1.33,2.34,2.9,3.08,4.72.74,1.82,1.12,3.79,1.12,5.92s-.37,4.13-1.12,5.95c-.74,1.82-1.77,3.39-3.08,4.71-1.31,1.31-2.86,2.34-4.66,3.08-1.8.73-3.75,1.1-5.87,1.1s-4.04-.37-5.82-1.1c-1.79-.74-3.34-1.77-4.65-3.08-1.31-1.32-2.34-2.89-3.09-4.71-.75-1.82-1.13-3.8-1.13-5.95s.37-4.1,1.13-5.92c.75-1.82,1.78-3.39,3.09-4.72,1.31-1.33,2.86-2.37,4.65-3.11,1.78-.74,3.73-1.12,5.82-1.12s4.07.37,5.87,1.12"/>
    <path class="cls-1" d="M345.27,268.19l.32.31v25.41l3.1,1.89v.34l-7.83,1.75-.67-4.6c-.57.6-1.25,1.18-2.05,1.73-.81.56-1.67,1.05-2.6,1.47-.93.42-1.92.77-2.95,1.02-1.02.26-2.06.38-3.09.38-1.15,0-2.25-.18-3.29-.55-1.05-.37-1.96-.92-2.72-1.64-.77-.73-1.4-1.62-1.86-2.67-.46-1.06-.69-2.27-.69-3.65v-16.93l-3.93-1.67v-.51l9.16-2.09.32.31v19.62c0,1.03.11,1.98.35,2.84.23.86.6,1.59,1.08,2.2.49.61,1.11,1.09,1.86,1.43.74.34,1.62.51,2.61.51.72,0,1.44-.07,2.16-.21.72-.14,1.42-.34,2.09-.61.67-.26,1.3-.58,1.88-.95s1.09-.78,1.53-1.23v-19.65l-3.93-1.67v-.51l9.16-2.09Z"/>
    <path class="cls-1" d="M374.98,276.08h-.36c-.36-.53-.73-1.05-1.11-1.55-.38-.51-.79-.96-1.24-1.37-.45-.4-.96-.73-1.5-.98-.55-.24-1.19-.36-1.92-.36-.89,0-1.74.23-2.57.69-.83.46-1.52,1.02-2.06,1.68v20.5l4.61,2.04v.51h-14.58v-.51l4.41-2.04v-22.22l-3.9-1.67v-.51l9.13-2.09.34.31v4.61c.53-.75,1.15-1.44,1.87-2.05.72-.62,1.49-1.14,2.32-1.57.83-.43,1.71-.77,2.63-1,.92-.23,1.86-.35,2.8-.35.42,0,.82.03,1.22.1.4.06.79.17,1.19.32l-1.24,7.52Z"/>
    <path class="cls-1" d="M389.82,269.86v20.72c0,1.54.34,2.72,1.02,3.53.68.81,1.69,1.21,3.05,1.21,1.02,0,2-.14,2.95-.42.95-.28,1.76-.64,2.41-1.08l.29.43c-.4.45-.87.9-1.43,1.34-.56.44-1.19.84-1.87,1.17-.69.34-1.43.62-2.24.82-.81.21-1.65.31-2.56.31-1.07,0-2.05-.16-2.92-.49-.88-.33-1.63-.82-2.28-1.47-.64-.65-1.14-1.45-1.48-2.4-.35-.95-.53-2.05-.53-3.29v-20.38h-3.79v-.37l3.81-1.58,5.09-5.31h.4v6.36h8.96v.91h-8.9Z"/>
    <path class="cls-1" d="M275.26,266.66h-.56c-.19-.6-.45-1.44-.79-2.53-.35-1.09-.86-2.25-1.54-3.48-.69-1.23-1.58-2.45-2.67-3.65-1.1-1.2-2.49-2.21-4.19-3.01l-.25-.13c-.87-.27-1.73-.45-2.56-.56-.84-.1-1.67-.15-2.47-.15-2.43,0-4.56.54-6.39,1.63-1.83,1.09-3.37,2.61-4.6,4.54-1.23,1.94-2.16,4.24-2.8,6.9-.64,2.67-.95,5.59-.95,8.76s.33,6.21,1.01,8.87c.67,2.67,1.65,4.94,2.95,6.84,1.29,1.9,2.88,3.37,4.76,4.4,1.89,1.03,4.06,1.55,6.5,1.55.69,0,1.4-.05,2.16-.16.76-.1,1.54-.28,2.35-.53l.28-.16c1.66-.81,3.04-1.82,4.15-3.03,1.1-1.21,2-2.44,2.69-3.69.69-1.24,1.2-2.42,1.57-3.51.36-1.1.63-1.93.79-2.49h.56l-.82,11.56c-2.3,1.02-4.58,1.82-6.83,2.43-2.26.6-4.65.9-7.19.9-3.32,0-6.34-.57-9.08-1.71-2.74-1.14-5.08-2.72-7.03-4.75-1.95-2.03-3.46-4.45-4.53-7.26-1.06-2.81-1.59-5.88-1.59-9.22s.52-6.46,1.55-9.3c1.04-2.84,2.53-5.3,4.46-7.36,1.94-2.07,4.29-3.69,7.06-4.85,2.77-1.16,5.88-1.74,9.34-1.74,2.42,0,4.78.31,7.09.93,2.3.62,4.55,1.43,6.74,2.42l.82,11.54Z"/>
    <path class="cls-1" d="M567.3,268.19l.32.31v25.41l3.1,1.89v.34l-7.83,1.75-.67-4.6c-.57.6-1.25,1.18-2.05,1.73-.81.56-1.67,1.05-2.59,1.47-.93.42-1.92.77-2.95,1.02-1.02.26-2.06.38-3.09.38-1.15,0-2.25-.18-3.29-.55-1.05-.37-1.96-.92-2.72-1.64-.78-.73-1.4-1.62-1.86-2.67-.46-1.06-.69-2.27-.69-3.65v-16.93l-3.93-1.67v-.51l9.16-2.09.31.31v19.62c0,1.03.12,1.98.35,2.84.23.86.6,1.59,1.08,2.2.49.61,1.11,1.09,1.86,1.43.74.34,1.62.51,2.61.51.72,0,1.44-.07,2.16-.21.72-.14,1.42-.34,2.09-.61.67-.26,1.3-.58,1.88-.95.58-.37,1.09-.78,1.53-1.23v-19.65l-3.93-1.67v-.51l9.16-2.09Z"/>
    <path class="cls-1" d="M582.91,287.97c.4,1.55.96,2.86,1.71,3.93.75,1.06,1.66,1.87,2.72,2.42,1.06.55,2.26.82,3.57.82,2.44,0,4.6-.82,6.48-2.46v-18.12c-.19-.92-.48-1.72-.88-2.4-.39-.68-.86-1.24-1.4-1.67-.53-.43-1.13-.75-1.79-.97-.66-.22-1.34-.32-2.04-.32-1.38,0-2.61.32-3.71.97-1.11.65-2.05,1.57-2.82,2.76-.77,1.19-1.37,2.61-1.8,4.26-.42,1.65-.63,3.47-.63,5.47s.19,3.77.59,5.33M602.61,254.77l.34.31v38.84l3.1,1.9v.34l-7.86,1.75-.7-4.15c-.59.55-1.2,1.07-1.85,1.57-.65.5-1.36.94-2.13,1.33-.78.39-1.62.69-2.54.92-.93.22-1.95.34-3.06.34-1.81,0-3.43-.34-4.87-1.02-1.45-.68-2.67-1.63-3.67-2.85-1.01-1.22-1.78-2.68-2.3-4.38-.53-1.69-.79-3.55-.79-5.56,0-2.32.35-4.45,1.03-6.39.68-1.94,1.67-3.61,2.95-5.02,1.27-1.4,2.83-2.5,4.65-3.29,1.81-.79,3.86-1.19,6.15-1.19,1.24,0,2.39.19,3.46.58,1.06.38,2.02.93,2.86,1.65v-11.39l-2.97-1.64v-.56l8.2-2.06Z"/>
    <path class="cls-1" d="M615.71,257.04c.63-.62,1.44-.92,2.42-.92s1.84.31,2.47.93c.63.63.96,1.4.96,2.32s-.32,1.74-.96,2.34c-.63.6-1.45.91-2.47.91s-1.8-.3-2.42-.91c-.63-.6-.95-1.38-.95-2.34s.32-1.72.95-2.33M620.81,268.19l.35.31v26.17l4.38,2.04v.51h-14.37v-.51l4.41-2.04v-22.22l-3.9-1.67v-.51l9.13-2.09Z"/>
    <path class="cls-1" d="M639.21,269.86v20.72c0,1.54.34,2.72,1.02,3.53.68.81,1.69,1.21,3.05,1.21,1.01,0,2-.14,2.95-.42.95-.28,1.75-.64,2.41-1.08l.29.43c-.39.45-.87.9-1.43,1.34-.55.44-1.18.84-1.87,1.17-.69.34-1.43.62-2.23.82-.8.21-1.65.31-2.56.31-1.07,0-2.05-.16-2.92-.49-.88-.33-1.63-.82-2.28-1.47-.63-.65-1.14-1.45-1.48-2.4-.35-.95-.53-2.05-.53-3.29v-20.38h-3.79v-.37l3.82-1.58,5.09-5.31h.39v6.36h8.97v.91h-8.91Z"/>
    <path class="cls-1" d="M510.27,258.36l-8.11,22.85h16.23l-8.11-22.85ZM535.33,296.63v.59h-17.48v-.59l5-2.89-3.98-11.16h-17.22l-3.95,11.16h.04l6.53,2.89v.59h-13.78v-.59l5.57-2.86,13.12-36.51-2.95-4.2v-.59h8.61l15.24,41.29,5.26,2.86Z"/>
  </g>
</svg>