<svg xmlns="http://www.w3.org/2000/svg" width="22" height="22" viewBox="0 0 22 22" fill="none">
  <path d="M10 16C10 15.4477 10.4477 15 11 15H11.009C11.5613 15 12.009 15.4477 12.009 16C12.009 16.5523 11.5613 17 11.009 17H11C10.4477 17 10 16.5523 10 16Z" fill="#161616"/>
  <path fill-rule="evenodd" clip-rule="evenodd" d="M2.25 9.34049L1.51908 10.0413C1.2201 10.328 0.745336 10.3181 0.458655 10.0191C0.171975 9.7201 0.181943 9.24533 0.48092 8.95865L4.86414 4.75571C6.16347 3.5098 7.19322 2.52238 8.10742 1.85356C9.04948 1.16435 9.95116 0.75 11 0.75C12.0488 0.75 12.9505 1.16435 13.8926 1.85357C14.8068 2.52238 15.8365 3.50981 17.1359 4.75572L21.5191 8.95865C21.8181 9.24533 21.828 9.7201 21.5413 10.0191C21.2547 10.3181 20.7799 10.328 20.4809 10.0413L19.75 9.34049V12.5564C19.75 14.3942 19.75 15.8498 19.5969 16.989C19.4392 18.1614 19.1071 19.1104 18.3588 19.8588C17.6104 20.6071 16.6614 20.9392 15.489 21.0969C14.3498 21.25 12.8942 21.25 11.0565 21.25H10.9436C9.10585 21.25 7.65018 21.25 6.51098 21.0969C5.33856 20.9392 4.38961 20.6071 3.64124 19.8588C2.89288 19.1104 2.56076 18.1614 2.40314 16.989C2.24997 15.8498 2.24998 14.3942 2.25 12.5564L2.25 9.34049ZM5.86223 5.87683C7.21064 4.58388 8.16912 3.66699 8.99309 3.06418C9.79857 2.47489 10.392 2.25 11 2.25C11.608 2.25 12.2014 2.47489 13.0069 3.06418C13.8309 3.66699 14.7894 4.58388 16.1378 5.87683L18.25 7.90218V12.5C18.25 14.4068 18.2484 15.7615 18.1102 16.7892C17.975 17.7952 17.7213 18.3749 17.2981 18.7981C16.8749 19.2213 16.2952 19.475 15.2892 19.6102C14.2615 19.7484 12.9068 19.75 11 19.75C9.09318 19.75 7.73851 19.7484 6.71085 19.6102C5.70476 19.475 5.12511 19.2213 4.7019 18.7981C4.27869 18.3749 4.02502 17.7952 3.88976 16.7892C3.75159 15.7615 3.75 14.4068 3.75 12.5V7.90218L5.86223 5.87683Z" fill="#161616"/>
</svg>