<svg width="32" height="32" viewBox="0 0 32 32" fill="none" xmlns="http://www.w3.org/2000/svg">
<path d="M0.5 4C0.5 2.067 2.067 0.5 4 0.5H28C29.933 0.5 31.5 2.067 31.5 4V28C31.5 29.933 29.933 31.5 28 31.5H4C2.067 31.5 0.5 29.933 0.5 28V4Z" stroke="white" stroke-opacity="0.3"/>
<path fill-rule="evenodd" clip-rule="evenodd" d="M11.6252 16.0007C11.6252 13.5844 13.5839 11.6257 16.0002 11.6257C18.4164 11.6257 20.3752 13.5844 20.3752 16.0007C20.3752 18.4169 18.4164 20.3756 16.0002 20.3756C13.5839 20.3756 11.6252 18.4169 11.6252 16.0007ZM16.0002 12.8757C14.2743 12.8757 12.8752 14.2748 12.8752 16.0007C12.8752 17.7265 14.2743 19.1257 16.0002 19.1257C17.7261 19.1257 19.1252 17.7265 19.1252 16.0007C19.1252 14.2748 17.7261 12.8757 16.0002 12.8757Z" fill="white"/>
<path d="M20.59 12.2507C21.0502 12.2507 21.4233 11.8776 21.4233 11.4173C21.4233 10.9571 21.0502 10.584 20.59 10.584H20.5825C20.1223 10.584 19.7492 10.9571 19.7492 11.4173C19.7492 11.8776 20.1223 12.2507 20.5825 12.2507H20.59Z" fill="white"/>
<path fill-rule="evenodd" clip-rule="evenodd" d="M16.0478 7.45898C17.8734 7.45897 19.3073 7.45897 20.4268 7.60948C21.574 7.76372 22.4842 8.08625 23.1994 8.80141C23.9146 9.51658 24.2371 10.4268 24.3913 11.574C24.5418 12.6935 24.5418 14.1274 24.5418 15.953V16.0483C24.5418 17.8739 24.5418 19.3078 24.3913 20.4273C24.2371 21.5745 23.9146 22.4847 23.1994 23.1999C22.4842 23.9151 21.574 24.2376 20.4268 24.3918C19.3073 24.5423 17.8734 24.5423 16.0478 24.5423H15.9525C14.1269 24.5423 12.693 24.5423 11.5735 24.3918C10.4263 24.2376 9.51609 23.9151 8.80092 23.1999C8.08576 22.4847 7.76323 21.5745 7.60899 20.4273C7.45848 19.3078 7.45849 17.8739 7.4585 16.0483V15.953C7.45849 14.1274 7.45848 12.6935 7.60899 11.574C7.76323 10.4268 8.08576 9.51658 8.80092 8.80141C9.51609 8.08625 10.4263 7.76372 11.5735 7.60948C12.693 7.45897 14.1269 7.45897 15.9525 7.45898H16.0478ZM11.7401 8.84833C10.7315 8.98394 10.129 9.24109 9.68481 9.6853C9.2406 10.1295 8.98345 10.732 8.84784 11.7406C8.70982 12.7671 8.7085 14.117 8.7085 16.0007C8.7085 17.8843 8.70982 19.2342 8.84784 20.2607C8.98345 21.2693 9.2406 21.8718 9.68481 22.316C10.129 22.7602 10.7315 23.0174 11.7401 23.153C12.7667 23.291 14.1165 23.2923 16.0002 23.2923C17.8838 23.2923 19.2337 23.291 20.2603 23.153C21.2689 23.0174 21.8713 22.7602 22.3155 22.316C22.7597 21.8718 23.0169 21.2693 23.1525 20.2607C23.2905 19.2342 23.2918 17.8843 23.2918 16.0007C23.2918 14.117 23.2905 12.7671 23.1525 11.7406C23.0169 10.732 22.7597 10.1295 22.3155 9.6853C21.8713 9.24109 21.2689 8.98394 20.2603 8.84833C19.2337 8.71031 17.8838 8.70898 16.0002 8.70898C14.1165 8.70898 12.7667 8.71031 11.7401 8.84833Z" fill="white"/>
</svg>
