<svg width="32" height="32" viewBox="0 0 32 32" fill="none" xmlns="http://www.w3.org/2000/svg">
<path d="M0.5 4C0.5 2.067 2.067 0.5 4 0.5H28C29.933 0.5 31.5 2.067 31.5 4V28C31.5 29.933 29.933 31.5 28 31.5H4C2.067 31.5 0.5 29.933 0.5 28V4Z" stroke="white" stroke-opacity="0.3"/>
<path fill-rule="evenodd" clip-rule="evenodd" d="M18.4332 8.32266C16.8057 8.28177 15.194 8.28177 13.5665 8.32266L13.518 8.32388C12.2473 8.35578 11.2249 8.38145 10.4054 8.52416C9.5475 8.67357 8.85024 8.96013 8.26118 9.55143C7.6746 10.1402 7.38954 10.8275 7.24297 11.6715C7.10341 12.4751 7.08216 13.4727 7.05583 14.7084L7.05478 14.7573C7.03708 15.5876 7.03708 16.413 7.05478 17.2433L7.05583 17.2923C7.08216 18.528 7.10341 19.5255 7.24297 20.3292C7.38954 21.1732 7.6746 21.8604 8.26119 22.4492C8.85024 23.0405 9.54751 23.3271 10.4054 23.4765C11.2248 23.6192 12.2473 23.6449 13.518 23.6768L13.5665 23.678C15.194 23.7189 16.8057 23.7189 18.4332 23.678L18.4817 23.6768C19.7524 23.6449 20.7748 23.6192 21.5943 23.4765C22.4522 23.3271 23.1494 23.0405 23.7385 22.4492C24.3251 21.8604 24.6101 21.1732 24.7567 20.3292C24.8963 19.5255 24.9175 18.528 24.9439 17.2923L24.9449 17.2433C24.9626 16.4131 24.9626 15.5876 24.9449 14.7573L24.9439 14.7084C24.9175 13.4727 24.8963 12.4752 24.7567 11.6715C24.6101 10.8275 24.3251 10.1403 23.7385 9.55144C23.1494 8.96015 22.4522 8.67358 21.5943 8.52417C20.7748 8.38146 19.7523 8.35579 18.4817 8.32388L18.4332 8.32266ZM13.5979 9.57226C15.2045 9.5319 16.7952 9.5319 18.4018 9.57227C19.7323 9.6057 20.6621 9.63065 21.3798 9.75564C22.0694 9.87574 22.4994 10.0787 22.8529 10.4336C22.9979 10.5791 23.117 10.7358 23.215 10.9156L18.2643 13.7207C17.2182 14.3134 16.5834 14.542 15.9999 14.542C15.4164 14.542 14.7816 14.3134 13.7355 13.7207L8.78468 10.9155C8.88275 10.7357 9.00181 10.5791 9.14674 10.4336C9.5003 10.0787 9.93027 9.87572 10.6199 9.75563C11.3376 9.63064 12.2673 9.60569 13.5979 9.57226ZM8.43402 12.1535C8.34779 12.8134 8.32874 13.6474 8.3045 14.784C8.28717 15.5965 8.28717 16.4042 8.3045 17.2167C8.33214 18.513 8.35305 19.4157 8.47454 20.1153C8.59086 20.7851 8.79073 21.2096 9.14675 21.567C9.5003 21.9219 9.93028 22.1249 10.6199 22.245C11.3376 22.37 12.2673 22.395 13.5979 22.4284C15.2045 22.4688 16.7952 22.4688 18.4018 22.4284C19.7323 22.395 20.6621 22.37 21.3798 22.245C22.0694 22.1249 22.4994 21.9219 22.8529 21.567C23.209 21.2096 23.4088 20.7851 23.5251 20.1153C23.6466 19.4157 23.6675 18.513 23.6952 17.2167C23.7125 16.4042 23.7125 15.5965 23.6952 14.784C23.6709 13.6474 23.6519 12.8134 23.5657 12.1536L18.8805 14.8082C17.8028 15.4189 16.927 15.792 15.9999 15.792C15.0728 15.792 14.1971 15.4189 13.1193 14.8082L8.43402 12.1535Z" fill="white"/>
</svg>
