<svg width="32" height="32" viewBox="0 0 32 32" fill="none" xmlns="http://www.w3.org/2000/svg">
<path d="M0.5 4C0.5 2.067 2.067 0.5 4 0.5H28C29.933 0.5 31.5 2.067 31.5 4V28C31.5 29.933 29.933 31.5 28 31.5H4C2.067 31.5 0.5 29.933 0.5 28V4Z" stroke="white" stroke-opacity="0.3"/>
<path fill-rule="evenodd" clip-rule="evenodd" d="M15.9999 11.6253C14.0439 11.6253 12.4583 13.211 12.4583 15.167C12.4583 17.123 14.0439 18.7087 15.9999 18.7087C17.9559 18.7087 19.5416 17.123 19.5416 15.167C19.5416 13.211 17.9559 11.6253 15.9999 11.6253ZM13.7083 15.167C13.7083 13.9013 14.7343 12.8753 15.9999 12.8753C17.2656 12.8753 18.2916 13.9013 18.2916 15.167C18.2916 16.4326 17.2656 17.4587 15.9999 17.4587C14.7343 17.4587 13.7083 16.4326 13.7083 15.167Z" fill="white"/>
<path fill-rule="evenodd" clip-rule="evenodd" d="M16.0008 7.04199C12.8123 7.04199 9.77039 8.92785 8.49712 11.9042C7.31216 14.6742 7.95365 17.0314 9.28927 19.0499C10.3843 20.7049 11.9815 22.1818 13.4224 23.5143C13.6971 23.7684 13.9663 24.0173 14.2251 24.2611L14.2264 24.2624C14.7056 24.711 15.3421 24.9587 16.0008 24.9587C16.6594 24.9587 17.296 24.711 17.7751 24.2624C18.0198 24.0333 18.2733 23.7997 18.532 23.5614C19.9886 22.2193 21.6082 20.727 22.7147 19.051C24.0487 17.0305 24.688 14.6708 23.5045 11.9042C22.2312 8.92785 19.1893 7.04199 16.0008 7.04199ZM9.64638 12.3959C10.7121 9.90473 13.2846 8.29199 16.0008 8.29199C18.7169 8.29199 21.2895 9.90473 22.3552 12.3959C23.3319 14.679 22.8391 16.594 21.6715 18.3623C20.6569 19.8991 19.1706 21.2705 17.7096 22.6185C17.4449 22.8628 17.1809 23.1063 16.9208 23.3499C16.6772 23.578 16.3476 23.7087 16.0008 23.7087C15.6543 23.7087 15.3249 23.5782 15.0813 23.3504C14.8043 23.0894 14.5229 22.8288 14.2407 22.5675C12.7983 21.2318 11.3355 19.8772 10.3317 18.3602C9.16308 16.594 8.66842 14.6819 9.64638 12.3959Z" fill="white"/>
</svg>
