<svg width="40" height="40" viewBox="0 0 40 40" fill="none" xmlns="http://www.w3.org/2000/svg">
<path d="M11.25 13C11.25 12.5858 11.5858 12.25 12 12.25H28C28.4142 12.25 28.75 12.5858 28.75 13C28.75 13.4142 28.4142 13.75 28 13.75L12 13.75C11.5858 13.75 11.25 13.4142 11.25 13Z" fill="#161616"/>
<path d="M11.25 20C11.25 19.5858 11.5858 19.25 12 19.25L28 19.25C28.4142 19.25 28.75 19.5858 28.75 20C28.75 20.4142 28.4142 20.75 28 20.75L12 20.75C11.5858 20.75 11.25 20.4142 11.25 20Z" fill="#161616"/>
<path d="M12 26.25C11.5858 26.25 11.25 26.5858 11.25 27C11.25 27.4142 11.5858 27.75 12 27.75L28 27.75C28.4142 27.75 28.75 27.4142 28.75 27C28.75 26.5858 28.4142 26.25 28 26.25L12 26.25Z" fill="#161616"/>
</svg>
