<svg width="22" height="22" viewBox="0 0 22 22" fill="none" xmlns="http://www.w3.org/2000/svg">
<g id="elements">
<path id="Icon" fill-rule="evenodd" clip-rule="evenodd" d="M11.0011 0.25C6.43343 0.25 2.72631 3.94128 2.72627 8.49994C2.72618 9.56028 2.65505 10.3606 2.16744 11.0799C2.09963 11.1785 2.00967 11.3019 1.91137 11.4368C1.74063 11.6711 1.54475 11.9399 1.39617 12.1727C1.13393 12.5836 0.877724 13.0791 0.789647 13.6565C0.502294 15.5402 1.82694 16.7598 3.14616 17.3063C4.12828 17.7132 5.18948 18.034 6.29634 18.2689C6.87041 20.2894 8.77 21.7499 11.0002 21.7499C13.2302 21.7499 15.1297 20.2896 15.7039 18.2693C16.8115 18.0344 17.8734 17.7134 18.8561 17.3063C20.1754 16.7598 21.5 15.5402 21.2126 13.6565C21.1246 13.0791 20.8684 12.5836 20.6061 12.1727C20.4576 11.9399 20.2617 11.6711 20.0909 11.4368C19.9927 11.302 19.9027 11.1785 19.8349 11.08C19.3472 10.3606 19.2761 9.56041 19.276 8.5C19.276 3.94131 15.5689 0.25 11.0011 0.25ZM4.22627 8.5C4.22627 4.77442 7.25715 1.75 11.0011 1.75C14.7452 1.75 17.776 4.77448 17.776 8.50006C17.7761 9.58249 17.8295 10.7967 18.595 11.9242L18.5974 11.9277C18.7233 12.1108 18.8338 12.261 18.9379 12.4025C19.0766 12.5909 19.2041 12.7642 19.3417 12.9797C19.5549 13.3138 19.6872 13.6034 19.7298 13.8827C19.8678 14.7871 19.2909 15.5026 18.2821 15.9206C14.0031 17.6932 7.99921 17.6932 3.72024 15.9205C2.71135 15.5026 2.13454 14.7871 2.27249 13.8827C2.31511 13.6034 2.44736 13.3138 2.6606 12.9797C2.79816 12.7642 2.92562 12.591 3.06434 12.4025C3.16833 12.2612 3.2792 12.1106 3.40486 11.9277L3.40725 11.9242C4.17279 10.7967 4.22618 9.58243 4.22627 8.5ZM13.9641 18.5634C12.0155 18.8123 9.98463 18.8122 8.03615 18.5631C8.60766 19.5618 9.71369 20.2499 11.0002 20.2499C12.2866 20.2499 13.3925 19.562 13.9641 18.5634Z" fill="#161616"/>
</g>
</svg>
