<svg width="18" height="18" viewBox="0 0 18 18" fill="none" xmlns="http://www.w3.org/2000/svg">
<g id="elements">
<path id="Icon" fill-rule="evenodd" clip-rule="evenodd" d="M8.16699 0.041748C3.67968 0.041748 0.0419922 3.67943 0.0419922 8.16675C0.0419922 12.6541 3.67968 16.2917 8.16699 16.2917C10.1857 16.2917 12.0324 15.5556 13.4534 14.337L16.8917 17.7754C17.1358 18.0194 17.5315 18.0194 17.7756 17.7754C18.0197 17.5313 18.0197 17.1356 17.7756 16.8915L14.3373 13.4531C15.5558 12.0322 16.292 10.1854 16.292 8.16675C16.292 3.67943 12.6543 0.041748 8.16699 0.041748ZM1.29199 8.16675C1.29199 4.36979 4.37004 1.29175 8.16699 1.29175C11.964 1.29175 15.042 4.36979 15.042 8.16675C15.042 11.9637 11.964 15.0417 8.16699 15.0417C4.37004 15.0417 1.29199 11.9637 1.29199 8.16675Z" fill="#161616" />
</g>
</svg>
