<svg width="22" height="22" viewBox="0 0 22 22" fill="none" xmlns="http://www.w3.org/2000/svg">
<g id="elements">
<g id="Icon">
<path fill-rule="evenodd" clip-rule="evenodd" d="M11 6.75C8.65279 6.75 6.75 8.65279 6.75 11C6.75 13.3472 8.65279 15.25 11 15.25C13.3472 15.25 15.25 13.3472 15.25 11C15.25 8.65279 13.3472 6.75 11 6.75ZM8.25 11C8.25 9.48122 9.48122 8.25 11 8.25C12.5188 8.25 13.75 9.48122 13.75 11C13.75 12.5188 12.5188 13.75 11 13.75C9.48122 13.75 8.25 12.5188 8.25 11Z" fill="#161616"/>
<path fill-rule="evenodd" clip-rule="evenodd" d="M11.1756 0.256569C11.0587 0.24781 10.9413 0.24781 10.8244 0.256569C10.3208 0.294309 9.91271 0.521547 9.53981 0.813294C9.18908 1.0877 8.80107 1.47574 8.34729 1.92957L8.31552 1.96133C7.85876 2.4181 7.75539 2.50606 7.64525 2.55658C7.626 2.56542 7.60642 2.57352 7.58657 2.58089C7.47295 2.62305 7.33766 2.63394 6.69171 2.63394L6.53268 2.63394C5.82148 2.6339 5.21358 2.63387 4.7278 2.69919C4.20911 2.76892 3.71886 2.92526 3.32206 3.32206C2.92526 3.71886 2.76892 4.20911 2.69919 4.7278C2.63387 5.21358 2.6339 5.82147 2.63394 6.53268L2.63394 6.69171C2.63394 7.33766 2.62305 7.47295 2.58089 7.58657C2.57352 7.60642 2.56542 7.626 2.55658 7.64525C2.50606 7.75539 2.4181 7.85876 1.96133 8.31552L1.92957 8.34729C1.47574 8.80107 1.0877 9.18908 0.813294 9.53981C0.521547 9.91271 0.294309 10.3208 0.256569 10.8244C0.24781 10.9413 0.24781 11.0587 0.256569 11.1756C0.294309 11.6792 0.521547 12.0873 0.813294 12.4602C1.0877 12.8109 1.47574 13.1989 1.92957 13.6527L1.96133 13.6845C2.4181 14.1412 2.50606 14.2446 2.55658 14.3547C2.56542 14.374 2.57352 14.3936 2.58089 14.4134C2.62305 14.527 2.63394 14.6623 2.63394 15.3083L2.63394 15.4673C2.6339 16.1785 2.63387 16.7864 2.69919 17.2722C2.76892 17.7909 2.92526 18.2811 3.32206 18.6779C3.71886 19.0747 4.20911 19.2311 4.7278 19.3008C5.21358 19.3661 5.82148 19.3661 6.53269 19.3661H6.69171C7.33766 19.3661 7.47295 19.377 7.58657 19.4191C7.60643 19.4265 7.626 19.4346 7.64525 19.4434C7.7554 19.4939 7.85876 19.5819 8.31552 20.0387L8.34732 20.0705C8.80109 20.5243 9.18908 20.9123 9.53981 21.1867C9.9127 21.4785 10.3208 21.7057 10.8244 21.7434C10.9413 21.7522 11.0587 21.7522 11.1756 21.7434C11.6792 21.7057 12.0873 21.4785 12.4602 21.1867C12.8109 20.9123 13.1989 20.5243 13.6527 20.0704L13.6845 20.0387C14.1412 19.5819 14.2446 19.4939 14.3547 19.4434C14.374 19.4346 14.3936 19.4265 14.4134 19.4191C14.527 19.377 14.6623 19.3661 15.3083 19.3661H15.4673C16.1785 19.3661 16.7864 19.3661 17.2722 19.3008C17.7909 19.2311 18.2811 19.0747 18.6779 18.6779C19.0747 18.2811 19.2311 17.7909 19.3008 17.2722C19.3661 16.7864 19.3661 16.1785 19.3661 15.4673V15.3083C19.3661 14.6623 19.377 14.527 19.4191 14.4134C19.4265 14.3936 19.4346 14.374 19.4434 14.3547C19.4939 14.2446 19.5819 14.1412 20.0387 13.6845L20.0704 13.6527C20.5243 13.1989 20.9123 12.8109 21.1867 12.4602C21.4785 12.0873 21.7057 11.6792 21.7434 11.1756C21.7522 11.0587 21.7522 10.9413 21.7434 10.8244C21.7057 10.3208 21.4785 9.91271 21.1867 9.53981C20.9123 9.18909 20.5243 8.8011 20.0705 8.34733L20.0387 8.31552C19.5819 7.85876 19.4939 7.75539 19.4434 7.64525C19.4346 7.626 19.4265 7.60643 19.4191 7.58657C19.377 7.47295 19.3661 7.33766 19.3661 6.69171V6.53269C19.3661 5.82148 19.3661 5.21358 19.3008 4.7278C19.2311 4.20911 19.0747 3.71886 18.6779 3.32206C18.2811 2.92526 17.7909 2.76892 17.2722 2.69919C16.7864 2.63387 16.1785 2.6339 15.4673 2.63394L15.3083 2.63394C14.6623 2.63394 14.527 2.62305 14.4134 2.58089C14.3936 2.57352 14.374 2.56542 14.3547 2.55658C14.2446 2.50606 14.1412 2.4181 13.6845 1.96133L13.6527 1.92957C13.1989 1.47574 12.8109 1.0877 12.4602 0.813294C12.0873 0.521547 11.6792 0.294309 11.1756 0.256569ZM10.9365 1.75238C10.9788 1.74921 11.0212 1.74921 11.0635 1.75238C11.1516 1.75898 11.2799 1.79439 11.5359 1.99468C11.8059 2.20593 12.1294 2.52758 12.6238 3.022L12.6928 3.09108C13.0418 3.44097 13.3427 3.74261 13.7293 3.91997C13.7826 3.9444 13.8367 3.96683 13.8916 3.98721C14.2904 4.13518 14.7165 4.13464 15.2107 4.13402L15.4173 4.13394C16.1925 4.13394 16.6984 4.13553 17.0723 4.18581C17.4247 4.23318 17.5456 4.31107 17.6173 4.38272C17.6889 4.45436 17.7668 4.57531 17.8142 4.92768C17.8645 5.30162 17.8661 5.80753 17.8661 6.58269L17.866 6.78933C17.8654 7.28352 17.8648 7.70957 18.0128 8.10837C18.0332 8.16329 18.0556 8.21744 18.08 8.27069C18.2574 8.65732 18.559 8.9582 18.9089 9.3072L18.978 9.37618C19.4724 9.87059 19.7941 10.1941 20.0053 10.4641C20.2056 10.7201 20.241 10.8483 20.2476 10.9365C20.2508 10.9788 20.2508 11.0212 20.2476 11.0635C20.241 11.1516 20.2056 11.2799 20.0053 11.5359C19.7941 11.8059 19.4724 12.1294 18.978 12.6238L18.9089 12.6928C18.559 13.0418 18.2574 13.3427 18.08 13.7293C18.0556 13.7826 18.0332 13.8367 18.0128 13.8916C17.8648 14.2904 17.8654 14.7165 17.866 15.2107L17.8661 15.4173C17.8661 16.1925 17.8645 16.6984 17.8142 17.0723C17.7668 17.4247 17.6889 17.5456 17.6173 17.6173C17.5456 17.6889 17.4247 17.7668 17.0723 17.8142C16.6984 17.8645 16.1925 17.8661 15.4173 17.8661L15.2107 17.866C14.7165 17.8654 14.2904 17.8648 13.8916 18.0128C13.8367 18.0332 13.7826 18.0556 13.7293 18.08C13.3427 18.2574 13.0418 18.559 12.6928 18.9089L12.6238 18.978C12.1294 19.4724 11.8059 19.7941 11.5359 20.0053C11.2799 20.2056 11.1516 20.241 11.0635 20.2476C11.0212 20.2508 10.9788 20.2508 10.9365 20.2476C10.8484 20.241 10.7201 20.2056 10.4641 20.0053C10.1941 19.7941 9.87059 19.4724 9.37618 18.978L9.30721 18.9089C8.9582 18.559 8.65732 18.2574 8.27069 18.08C8.21744 18.0556 8.16329 18.0332 8.10837 18.0128C7.70957 17.8648 7.28352 17.8654 6.78933 17.866L6.58269 17.8661C5.80753 17.8661 5.30162 17.8645 4.92768 17.8142C4.57531 17.7668 4.45436 17.6889 4.38272 17.6173C4.31107 17.5456 4.23318 17.4247 4.18581 17.0723C4.13553 16.6984 4.13394 16.1925 4.13394 15.4173L4.13402 15.2107C4.13464 14.7165 4.13518 14.2904 3.98721 13.8916C3.96683 13.8367 3.9444 13.7826 3.91997 13.7293C3.74261 13.3427 3.44097 13.0418 3.09108 12.6928L3.022 12.6238C2.52758 12.1294 2.20593 11.8059 1.99468 11.5359C1.79439 11.2799 1.75898 11.1516 1.75238 11.0635C1.74921 11.0212 1.74921 10.9788 1.75238 10.9365C1.75898 10.8483 1.79439 10.7201 1.99468 10.4641C2.20593 10.1941 2.52758 9.87059 3.022 9.37618L3.09109 9.30721C3.44097 8.9582 3.74261 8.65732 3.91997 8.27069C3.9444 8.21744 3.96683 8.1633 3.98721 8.10837C4.13518 7.70957 4.13464 7.28353 4.13402 6.78933L4.13394 6.58269C4.13394 5.80753 4.13553 5.30162 4.18581 4.92768C4.23318 4.57531 4.31107 4.45436 4.38272 4.38272C4.45436 4.31107 4.57531 4.23318 4.92768 4.18581C5.30162 4.13553 5.80753 4.13394 6.58269 4.13394L6.78933 4.13402C7.28353 4.13464 7.70957 4.13518 8.10837 3.98721C8.1633 3.96683 8.21744 3.9444 8.27069 3.91997C8.65732 3.74261 8.9582 3.44097 9.30721 3.09109L9.37618 3.02199C9.87059 2.52758 10.1941 2.20593 10.4641 1.99468C10.7201 1.79439 10.8483 1.75898 10.9365 1.75238Z" fill="#161616"/>
</g>
</g>
</svg>
