<svg width="24" height="24" viewBox="0 0 24 24" fill="none" xmlns="http://www.w3.org/2000/svg">
<path fill-rule="evenodd" clip-rule="evenodd" d="M18 2.75C15.9289 2.75 14.25 4.42893 14.25 6.5C14.25 6.78627 14.2821 7.06505 14.3428 7.33293L9.02696 9.78597C8.34465 8.85471 7.24294 8.25 6 8.25C3.92893 8.25 2.25 9.92893 2.25 12C2.25 14.0711 3.92893 15.75 6 15.75C7.2429 15.75 8.34458 15.1453 9.0269 14.2141L14.3428 16.6672C14.2821 16.935 14.25 17.2138 14.25 17.5C14.25 19.5711 15.9289 21.25 18 21.25C20.0711 21.25 21.75 19.5711 21.75 17.5C21.75 15.4289 20.0711 13.75 18 13.75C16.7504 13.75 15.6436 14.3612 14.9621 15.301L9.65301 12.851C9.71646 12.5776 9.75 12.2927 9.75 12C9.75 11.7073 9.71647 11.4225 9.65304 11.1491L14.9622 8.69913C15.6436 9.63884 16.7504 10.25 18 10.25C20.0711 10.25 21.75 8.57107 21.75 6.5C21.75 4.42893 20.0711 2.75 18 2.75ZM15.75 6.5C15.75 5.25736 16.7574 4.25 18 4.25C19.2426 4.25 20.25 5.25736 20.25 6.5C20.25 7.74264 19.2426 8.75 18 8.75C16.7574 8.75 15.75 7.74264 15.75 6.5ZM3.75 12C3.75 10.7574 4.75736 9.75 6 9.75C7.24264 9.75 8.25 10.7574 8.25 12C8.25 13.2426 7.24264 14.25 6 14.25C4.75736 14.25 3.75 13.2426 3.75 12ZM18 15.25C16.7574 15.25 15.75 16.2574 15.75 17.5C15.75 18.7426 16.7574 19.75 18 19.75C19.2426 19.75 20.25 18.7426 20.25 17.5C20.25 16.2574 19.2426 15.25 18 15.25Z" fill="#161616"/>
</svg>
