<svg width="32" height="32" viewBox="0 0 32 32" fill="none" xmlns="http://www.w3.org/2000/svg">
<path d="M0.5 4C0.5 2.067 2.067 0.5 4 0.5H28C29.933 0.5 31.5 2.067 31.5 4V28C31.5 29.933 29.933 31.5 28 31.5H4C2.067 31.5 0.5 29.933 0.5 28V4Z" stroke="white" stroke-opacity="0.3"/>
<path fill-rule="evenodd" clip-rule="evenodd" d="M10.8546 12.1864C10.8546 9.34468 13.1582 7.04102 16 7.04102C18.8417 7.04102 21.1453 9.34468 21.1453 12.1864C21.1453 13.6144 21.1747 14.7114 21.3522 15.604C21.6241 14.7562 22.2608 13.9153 23.0885 13.0637C23.3291 12.8162 23.7248 12.8106 23.9723 13.0512C24.2199 13.2918 24.2255 13.6875 23.9849 13.935C22.7951 15.159 22.3988 15.9956 22.4655 16.6208C22.5294 17.2206 23.0608 17.9278 24.6323 18.7838C24.8985 18.9288 25.0172 19.2393 24.9303 19.518C24.9536 19.5932 24.963 19.6736 24.9561 19.7554C24.9337 20.0218 24.7443 20.2445 24.4849 20.3094C23.571 20.5379 23.1408 20.7377 22.8655 21.0131C22.5902 21.2884 22.3903 21.7185 22.1618 22.6324C22.0923 22.9106 21.8423 23.1058 21.5555 23.1058C20.0843 23.1058 19.2714 23.5163 18.5845 23.939C18.4935 23.995 18.4011 24.0543 18.3065 24.115C17.6962 24.5065 16.993 24.9577 16 24.9577C15.0069 24.9577 14.3038 24.5066 13.6935 24.1151C13.5989 24.0544 13.5063 23.995 13.4154 23.939C12.7285 23.5163 11.9156 23.1058 10.4444 23.1058C10.1576 23.1058 9.90761 22.9106 9.83806 22.6324C9.60958 21.7185 9.40972 21.2884 9.1344 21.0131C8.85908 20.7377 8.42895 20.5379 7.51503 20.3094C7.25561 20.2445 7.06619 20.0218 7.04381 19.7554C7.03694 19.6736 7.04628 19.5932 7.06961 19.518C6.98274 19.2393 7.10144 18.9288 7.36764 18.7838C8.93908 17.9278 9.4705 17.2206 9.53444 16.6208C9.60108 15.9956 9.20478 15.159 8.01503 13.935C7.77444 13.6875 7.78006 13.2918 8.02757 13.0512C8.27509 12.8106 8.67078 12.8162 8.91137 13.0637C9.73911 13.9153 10.3758 14.7562 10.6477 15.604C10.8252 14.7114 10.8546 13.6144 10.8546 12.1864ZM16 8.29102C13.8486 8.29102 12.1046 10.035 12.1046 12.1864C12.1046 14.1394 12.0638 15.7546 11.5048 17.0782C11.0739 18.0983 10.359 18.9015 9.2515 19.5862C9.54111 19.732 9.79627 19.9072 10.0183 20.1292C10.4623 20.5731 10.719 21.1497 10.9275 21.8692C12.4086 21.9533 13.3302 22.4189 14.0706 22.8745C14.1883 22.9469 14.2974 23.0157 14.3998 23.0802C15.0173 23.4693 15.3955 23.7077 16 23.7077C16.6044 23.7077 16.9825 23.4694 17.5999 23.0803C17.7024 23.0157 17.8116 22.9469 17.9293 22.8745C18.6697 22.4189 19.5913 21.9533 21.0724 21.8692C21.2809 21.1497 21.5377 20.5731 21.9816 20.1292C22.2036 19.9072 22.4588 19.732 22.7484 19.5862C21.6409 18.9015 20.926 18.0983 20.4952 17.0782C19.9361 15.7546 19.8953 14.1394 19.8953 12.1864C19.8953 10.035 18.1513 8.29102 16 8.29102Z" fill="white"/>
</svg>
