<svg width="24" height="24" viewBox="0 0 24 24" fill="none" xmlns="http://www.w3.org/2000/svg">
<path d="M8 6.25C7.58579 6.25 7.25 6.58579 7.25 7C7.25 7.41421 7.58579 7.75 8 7.75H16C16.4142 7.75 16.75 7.41421 16.75 7C16.75 6.58579 16.4142 6.25 16 6.25H8Z" fill="#161616"/>
<path d="M7.25 12C7.25 11.5858 7.58579 11.25 8 11.25H16C16.4142 11.25 16.75 11.5858 16.75 12C16.75 12.4142 16.4142 12.75 16 12.75H8C7.58579 12.75 7.25 12.4142 7.25 12Z" fill="#161616"/>
<path d="M8 16.25C7.58579 16.25 7.25 16.5858 7.25 17C7.25 17.4142 7.58579 17.75 8 17.75H12C12.4142 17.75 12.75 17.4142 12.75 17C12.75 16.5858 12.4142 16.25 12 16.25H8Z" fill="#161616"/>
<path fill-rule="evenodd" clip-rule="evenodd" d="M12.5833 1.25H11.4167C9.46585 1.24999 7.92941 1.24998 6.72885 1.40242C5.49987 1.55847 4.50965 1.88575 3.72552 2.62631C2.93534 3.37259 2.5806 4.32468 2.41255 5.50521C2.24997 6.64729 2.24998 8.1054 2.25 9.94067V14.0593C2.24998 15.8946 2.24997 17.3527 2.41255 18.4948C2.5806 19.6753 2.93534 20.6274 3.72552 21.3737C4.50965 22.1142 5.49987 22.4415 6.72885 22.5976C7.92941 22.75 9.46586 22.75 11.4167 22.75H12.5833C14.5342 22.75 16.0706 22.75 17.2712 22.5976C18.5001 22.4415 19.4904 22.1143 20.2745 21.3737C21.0647 20.6274 21.4194 19.6753 21.5875 18.4948C21.75 17.3527 21.75 15.8946 21.75 14.0593V9.94074C21.75 8.10547 21.75 6.64729 21.5875 5.50521C21.4194 4.32468 21.0647 3.37259 20.2745 2.62631C19.4904 1.88575 18.5001 1.55847 17.2712 1.40242C16.0706 1.24998 14.5342 1.24999 12.5833 1.25ZM4.75546 3.71683C5.21182 3.28582 5.84011 3.02731 6.9178 2.89047C8.01287 2.75142 9.454 2.75 11.4706 2.75H12.5294C14.546 2.75 15.9871 2.75142 17.0822 2.89047C18.1599 3.02731 18.7882 3.28582 19.2445 3.71683C19.6949 4.14213 19.9604 4.71864 20.1024 5.71661C20.2482 6.74077 20.25 8.09197 20.25 10V14C20.25 15.908 20.2482 17.2592 20.1024 18.2834C19.9604 19.2814 19.6949 19.8579 19.2445 20.2832C18.7882 20.7142 18.1599 20.9727 17.0822 21.1095C15.9871 21.2486 14.546 21.25 12.5294 21.25H11.4706C9.454 21.25 8.01287 21.2486 6.9178 21.1095C5.84011 20.9727 5.21182 20.7142 4.75546 20.2832C4.30515 19.8579 4.03964 19.2814 3.89758 18.2834C3.75178 17.2592 3.75 15.908 3.75 14L3.75 10C3.75 8.09197 3.75178 6.74077 3.89758 5.71661C4.03964 4.71864 4.30515 4.14213 4.75546 3.71683Z" fill="#161616"/>
</svg>
