<svg width="24" height="24" viewBox="0 0 24 24" fill="none" xmlns="http://www.w3.org/2000/svg">
<path d="M17.055 2.25H12.9476C11.8148 2.24998 10.889 2.24996 10.1582 2.34822C9.39423 2.45093 8.7319 2.67321 8.2032 3.20191C7.75706 3.64804 7.52758 4.1913 7.40548 4.81464C7.28748 5.41705 7.26115 6.14296 7.25393 6.99364C7.25042 7.40784 7.58335 7.74646 7.99755 7.74998C8.41175 7.75349 8.75037 7.42056 8.75388 7.00636C8.76114 6.15049 8.78941 5.55272 8.8775 5.10298C8.9615 4.67419 9.08959 4.43684 9.26386 4.26257C9.4674 4.05903 9.76044 3.91519 10.3581 3.83484C10.9772 3.7516 11.8016 3.75 13.0013 3.75H17.0013C18.201 3.75 19.0254 3.7516 19.6445 3.83484C20.2422 3.91519 20.5352 4.05903 20.7387 4.26257C20.9423 4.46611 21.0861 4.75914 21.1665 5.35676C21.2497 5.97595 21.2513 6.80029 21.2513 8V10C21.2513 11.1997 21.2497 12.0241 21.1665 12.6432C21.0861 13.2409 20.9423 13.5339 20.7387 13.7374C20.5352 13.941 20.2422 14.0848 19.6445 14.1652C19.0254 14.2484 18.201 14.25 17.0013 14.25H15.5C15.0858 14.25 14.75 14.5858 14.75 15C14.75 15.4142 15.0858 15.75 15.5 15.75H17.055C18.1878 15.75 19.1136 15.75 19.8444 15.6518C20.6084 15.5491 21.2707 15.3268 21.7994 14.7981C22.3281 14.2694 22.5504 13.6071 22.6531 12.8431C22.7513 12.1123 22.7513 11.1866 22.7513 10.0538V7.94632C22.7513 6.81352 22.7513 5.88773 22.6531 5.15689C22.5504 4.39294 22.3281 3.7306 21.7994 3.20191C21.2707 2.67321 20.6084 2.45093 19.8444 2.34822C19.1136 2.24996 18.1878 2.24998 17.055 2.25Z" fill="#161616"/>
<path d="M13.7008 15.2678C13.8486 14.8809 13.6548 14.4474 13.2678 14.2996C12.8809 14.1518 12.4474 14.3457 12.2996 14.7326C11.7926 16.06 11.1032 16.6378 10.3639 16.9266C9.55979 17.2409 8.62042 17.2502 7.5002 17.2502L7.43519 17.2502C6.39281 17.25 5.18284 17.2498 4.09051 17.6766C2.91045 18.1378 1.93843 19.06 1.29957 20.7326C1.15177 21.1195 1.34565 21.553 1.7326 21.7008C2.11955 21.8486 2.55304 21.6548 2.70084 21.2678C3.20781 19.9405 3.89724 19.3626 4.63646 19.0738C5.44061 18.7595 6.37998 18.7502 7.5002 18.7502L7.56522 18.7502C8.6076 18.7504 9.81757 18.7506 10.9099 18.3238C12.09 17.8626 13.062 16.9405 13.7008 15.2678Z" fill="#161616"/>
<path fill-rule="evenodd" clip-rule="evenodd" d="M4.25 12.5C4.25 10.7051 5.70507 9.25 7.5 9.25C9.29493 9.25 10.75 10.7051 10.75 12.5C10.75 14.2949 9.29492 15.75 7.5 15.75C5.70507 15.75 4.25 14.2949 4.25 12.5ZM7.5 10.75C6.5335 10.75 5.75 11.5335 5.75 12.5C5.75 13.4665 6.5335 14.25 7.5 14.25C8.4665 14.25 9.25 13.4665 9.25 12.5C9.25 11.5335 8.4665 10.75 7.5 10.75Z" fill="#161616"/>
<path d="M12 6.25C11.5858 6.25 11.25 6.58579 11.25 7C11.25 7.41421 11.5858 7.75 12 7.75H18C18.4142 7.75 18.75 7.41421 18.75 7C18.75 6.58579 18.4142 6.25 18 6.25H12Z" fill="#161616"/>
<path d="M15 10.25C14.5858 10.25 14.25 10.5858 14.25 11C14.25 11.4142 14.5858 11.75 15 11.75H18C18.4142 11.75 18.75 11.4142 18.75 11C18.75 10.5858 18.4142 10.25 18 10.25H15Z" fill="#161616"/>
</svg>
