<svg width="20" height="20" viewBox="0 0 20 20" fill="none" xmlns="http://www.w3.org/2000/svg">
<g id="elements">
<path id="Icon" fill-rule="evenodd" clip-rule="evenodd" d="M12.7728 2.2577L12.9074 2.12316C13.5107 1.51986 14.4863 1.52554 15.0865 2.1257L17.8742 4.91342C18.4744 5.51359 18.4801 6.48922 17.8768 7.09253L17.7423 7.22704C18.1686 8.00667 18.6769 9.11251 19.0749 10.3739C19.5665 11.9318 19.9081 13.7838 19.6752 15.5769C19.6352 15.885 19.4095 16.1365 19.1076 16.2094C18.8056 16.2823 18.49 16.1616 18.3138 15.9058C17.0546 14.0775 16.3457 13.0663 14.2562 10.691C13.6514 11.144 12.7914 11.0912 12.2439 10.5437L9.45618 7.75597C8.90866 7.20846 8.85589 6.34848 9.3089 5.74375C6.93358 3.65432 5.92242 2.94536 4.09411 1.68623C3.83829 1.51004 3.71754 1.19439 3.79047 0.892455C3.8634 0.590516 4.1149 0.364776 4.42294 0.32478C6.21606 0.0919589 8.06809 0.433527 9.62597 0.925092C10.8874 1.32311 11.9932 1.83136 12.7728 2.2577ZM10.3599 4.67059L11.6622 3.3683C10.9993 3.03298 10.1379 2.65952 9.17461 2.35557C8.45153 2.12741 7.6853 1.94297 6.91281 1.83992C7.87493 2.55133 8.85608 3.34593 10.3599 4.67059ZM15.3293 9.63994C16.654 11.1438 17.4487 12.125 18.1601 13.0871C18.057 12.3146 17.8726 11.5484 17.6444 10.8253C17.3405 9.86201 16.967 9.00055 16.6317 8.33763L15.3293 9.63994ZM14.0258 3.18637C14.0069 3.16743 13.981 3.17084 13.968 3.18383L10.5143 6.63753C10.5013 6.65052 10.4979 6.67638 10.5168 6.69531L13.3046 9.48303C13.3235 9.50196 13.3494 9.49856 13.3624 9.48557L16.8161 6.03186C16.8291 6.01888 16.8325 5.99302 16.8136 5.97409L14.0258 3.18637ZM9.00306 8.88798C9.29596 9.18087 9.29595 9.65575 9.00306 9.94864L1.95365 16.998C1.68387 17.2678 1.6741 17.7285 1.97283 18.0272C2.27156 18.3259 2.73228 18.3161 3.00206 18.0464L10.0515 10.997C10.3444 10.7041 10.8192 10.7041 11.1121 10.997C11.405 11.2899 11.405 11.7648 11.1121 12.0577L4.06272 19.107C3.18888 19.9809 1.77825 19.9539 0.912177 19.0878C0.0460984 18.2218 0.0191511 16.8111 0.892992 15.9373L7.9424 8.88797C8.2353 8.59508 8.71017 8.59508 9.00306 8.88798Z" fill="#161616"/>
</g>
</svg>
