<svg width="24" height="24" viewBox="0 0 24 24" fill="none" xmlns="http://www.w3.org/2000/svg">
<path fill-rule="evenodd" clip-rule="evenodd" d="M12 3.25C9.65279 3.25 7.75 5.15279 7.75 7.5C7.75 9.84721 9.65279 11.75 12 11.75C14.3472 11.75 16.25 9.84721 16.25 7.5C16.25 5.15279 14.3472 3.25 12 3.25ZM9.25 7.5C9.25 5.98122 10.4812 4.75 12 4.75C13.5188 4.75 14.75 5.98122 14.75 7.5C14.75 9.01878 13.5188 10.25 12 10.25C10.4812 10.25 9.25 9.01878 9.25 7.5Z" fill="#161616"/>
<path d="M5.50004 5.25C3.70512 5.25 2.25004 6.70507 2.25004 8.5C2.25004 10.2949 3.70512 11.75 5.50004 11.75C5.91426 11.75 6.25004 11.4142 6.25004 11C6.25004 10.5858 5.91426 10.25 5.50004 10.25C4.53355 10.25 3.75004 9.4665 3.75004 8.5C3.75004 7.5335 4.53355 6.75 5.50004 6.75C5.91426 6.75 6.25004 6.41421 6.25004 6C6.25004 5.58579 5.91426 5.25 5.50004 5.25Z" fill="#161616"/>
<path d="M5.74699 12.9324C5.70967 12.5199 5.345 12.2157 4.93247 12.253C3.99394 12.338 3.08139 12.699 2.2771 13.3184C2.23076 13.3541 2.16971 13.3985 2.09798 13.4506C1.75729 13.6985 1.1756 14.1217 0.783584 14.6179C0.533102 14.935 0.298862 15.3499 0.25669 15.8489C0.212523 16.3714 0.387699 16.8791 0.763256 17.3418C1.33811 18.0501 2.12691 18.75 3.226 18.75C3.64021 18.75 3.976 18.4142 3.976 18C3.976 17.5858 3.64021 17.25 3.226 17.25C2.82649 17.25 2.42331 17.0069 1.92792 16.3965C1.75575 16.1844 1.74495 16.051 1.75136 15.9752C1.75976 15.8758 1.81264 15.7351 1.96062 15.5477C2.20986 15.2322 2.55925 14.9754 2.89885 14.7258C2.99843 14.6526 3.09716 14.5801 3.19228 14.5068C3.78265 14.0522 4.42731 13.8049 5.06762 13.747C5.48015 13.7096 5.78431 13.345 5.74699 12.9324Z" fill="#161616"/>
<path d="M18 5.25C17.5858 5.25 17.25 5.58579 17.25 6C17.25 6.41421 17.5858 6.75 18 6.75C18.9665 6.75 19.75 7.5335 19.75 8.5C19.75 9.4665 18.9665 10.25 18 10.25C17.5858 10.25 17.25 10.5858 17.25 11C17.25 11.4142 17.5858 11.75 18 11.75C19.7949 11.75 21.25 10.2949 21.25 8.5C21.25 6.70507 19.7949 5.25 18 5.25Z" fill="#161616"/>
<path d="M19.0676 12.253C18.655 12.2157 18.2904 12.5199 18.253 12.9324C18.2157 13.345 18.5199 13.7096 18.9324 13.747C19.5727 13.8049 20.2174 14.0522 20.8078 14.5068C20.9029 14.5801 21.0016 14.6526 21.1011 14.7258C21.4407 14.9754 21.7902 15.2322 22.0394 15.5477C22.1874 15.7351 22.2403 15.8758 22.2487 15.9752C22.2551 16.051 22.2443 16.1844 22.0721 16.3965C21.5767 17.0069 21.1736 17.25 20.774 17.25C20.3598 17.25 20.024 17.5858 20.024 18C20.024 18.4142 20.3598 18.75 20.774 18.75C21.8731 18.75 22.6619 18.0501 23.2368 17.3418C23.6123 16.8791 23.7875 16.3714 23.7434 15.8489C23.7012 15.3499 23.4669 14.935 23.2165 14.6179C22.8244 14.1217 22.2429 13.6986 21.9022 13.4507C21.8304 13.3985 21.7693 13.3541 21.7229 13.3184C20.9187 12.699 20.0061 12.338 19.0676 12.253Z" fill="#161616"/>
<path fill-rule="evenodd" clip-rule="evenodd" d="M7.68951 14.4733C10.3273 12.8422 13.673 12.8422 16.3108 14.4733C16.3885 14.5214 16.487 14.579 16.6001 14.6452C17.1124 14.9449 17.9257 15.4208 18.4806 15.9849C18.8291 16.3391 19.1767 16.8221 19.2401 17.4242C19.3079 18.0683 19.0345 18.6646 18.5129 19.1806C17.6513 20.033 16.584 20.75 15.1845 20.75H8.81577C7.41632 20.75 6.34899 20.033 5.48736 19.1806C4.9658 18.6646 4.6924 18.0683 4.7602 17.4242C4.82357 16.8221 5.17117 16.3391 5.5197 15.9849C6.0746 15.4208 6.88779 14.945 7.40006 14.6452C7.51324 14.579 7.61174 14.5214 7.68951 14.4733ZM15.5219 15.7491C13.3676 14.417 10.6327 14.417 8.47839 15.7491C8.34907 15.8291 8.21041 15.9108 8.06734 15.9952C7.55547 16.297 6.9872 16.6321 6.58898 17.0368C6.34399 17.2859 6.26391 17.4676 6.25196 17.5812C6.24443 17.6527 6.24804 17.8231 6.54233 18.1143C7.27487 18.839 7.98302 19.25 8.81577 19.25H15.1845C16.0173 19.25 16.7254 18.839 17.458 18.1143C17.7523 17.8231 17.7559 17.6527 17.7483 17.5812C17.7364 17.4676 17.6563 17.2859 17.4113 17.0368C17.0131 16.6321 16.4449 16.297 15.933 15.9952C15.7899 15.9108 15.6512 15.8291 15.5219 15.7491Z" fill="#161616"/>
</svg>
