<svg width="32" height="32" viewBox="0 0 32 32" fill="none" xmlns="http://www.w3.org/2000/svg">
<path d="M0.5 4C0.5 2.067 2.067 0.5 4 0.5H28C29.933 0.5 31.5 2.067 31.5 4V28C31.5 29.933 29.933 31.5 28 31.5H4C2.067 31.5 0.5 29.933 0.5 28V4Z" stroke="white" stroke-opacity="0.3"/>
<path fill-rule="evenodd" clip-rule="evenodd" d="M17.5402 13.6176L17.472 13.5801C16.7849 13.2014 16.223 12.8918 15.7604 12.7002C15.2908 12.5057 14.8091 12.3817 14.3188 12.5102C14.0403 12.5833 13.7788 12.7128 13.5553 12.8935C13.1451 13.2252 13.0001 13.7001 12.9364 14.1787C12.8749 14.6416 12.8749 15.2404 12.8749 15.9548V16.0439C12.8749 16.7584 12.8749 17.3572 12.9364 17.8201C13.0001 18.2987 13.1451 18.7736 13.5553 19.1053C13.7788 19.2859 14.0403 19.4155 14.3188 19.4885C14.8091 19.617 15.2908 19.493 15.7604 19.2985C16.223 19.107 16.7849 18.7973 17.472 18.4187L17.5402 18.3811C18.1688 18.0347 18.688 17.7487 19.0617 17.4835C19.436 17.2179 19.7912 16.8888 19.9088 16.4088C19.9748 16.1393 19.9748 15.8594 19.9088 15.59C19.7912 15.11 19.436 14.7808 19.0617 14.5152C18.688 14.2501 18.1688 13.964 17.5402 13.6176ZM14.6357 13.7194C14.7251 13.696 14.8912 13.6932 15.2821 13.8551C15.6726 14.0168 16.1734 14.2917 16.9024 14.6934C17.5742 15.0636 18.0299 15.3158 18.3383 15.5347C18.6529 15.7579 18.6886 15.8625 18.6947 15.8873C18.7128 15.9614 18.7128 16.0373 18.6947 16.1114C18.6886 16.1363 18.6529 16.2409 18.3383 16.4641C18.0299 16.683 17.5742 16.9351 16.9024 17.3054C16.1734 17.7071 15.6726 17.982 15.2821 18.1437C14.8912 18.3056 14.7251 18.3028 14.6357 18.2794C14.5216 18.2494 14.4214 18.1981 14.3412 18.1332C14.3031 18.1024 14.224 18.0199 14.1755 17.6554C14.1263 17.2848 14.1249 16.7702 14.1249 15.9994C14.1249 15.2286 14.1263 14.714 14.1755 14.3434C14.224 13.9789 14.3031 13.8963 14.3412 13.8656C14.4214 13.8007 14.5216 13.7493 14.6357 13.7194Z" fill="white"/>
<path fill-rule="evenodd" clip-rule="evenodd" d="M15.9999 8.29102C14.4511 8.29102 12.963 8.44398 11.5806 8.7258L11.4745 8.74739C9.89563 9.06876 8.84363 9.28288 7.93709 10.4484C7.04027 11.6015 7.04077 12.9387 7.04155 15.0097V16.989C7.04077 19.06 7.04027 20.3972 7.93709 21.5502C8.84363 22.7158 9.89563 22.9299 11.4745 23.2513L11.5806 23.2729C12.963 23.5547 14.4511 23.7077 15.9999 23.7077C17.5488 23.7077 19.0368 23.5547 20.4193 23.2729L20.5254 23.2513C22.1042 22.9299 23.1562 22.7158 24.0628 21.5502C24.9596 20.3972 24.9591 19.06 24.9583 16.989L24.9583 15.0097C24.9591 12.9387 24.9596 11.6015 24.0628 10.4484C23.1562 9.28288 22.1042 9.06876 20.5254 8.74739L20.4193 8.7258C19.0368 8.44398 17.5488 8.29102 15.9999 8.29102ZM11.8302 9.95061C13.1283 9.686 14.5326 9.54102 15.9999 9.54102C17.4672 9.54102 18.8716 9.686 20.1696 9.95061C21.8797 10.2992 22.4751 10.4432 23.0761 11.2159C23.6803 11.9927 23.7083 12.8649 23.7083 15.1964L23.7083 16.8023C23.7083 19.1338 23.6803 20.006 23.0761 20.7828C22.4751 21.5555 21.8797 21.6995 20.1696 22.0481C18.8716 22.3127 17.4672 22.4577 15.9999 22.4577C14.5326 22.4577 13.1283 22.3127 11.8302 22.0481C10.1201 21.6995 9.52476 21.5555 8.92378 20.7828C8.31959 20.006 8.2916 19.1338 8.2916 16.8023V15.1964C8.2916 12.8649 8.31959 11.9927 8.92378 11.2159C9.52476 10.4432 10.1201 10.2992 11.8302 9.95061Z" fill="white"/>
</svg>
