<svg width="50" height="50" viewBox="0 0 50 50" fill="none" xmlns="http://www.w3.org/2000/svg">
<path fill-rule="evenodd" clip-rule="evenodd" d="M15.0735 42.0959C12.8674 40.8292 10.0493 40.8292 7.84323 42.0959C7.71292 42.1707 7.56057 42.2538 7.41494 42.3332C7.37985 42.3524 7.34515 42.3713 7.31123 42.3899C7.12647 42.491 6.94059 42.594 6.7564 42.7028C6.37697 42.927 6.07063 43.1381 5.86474 43.3315C6.58437 43.9775 7.20246 44.2708 7.88617 44.2708H15.0306C15.7143 44.2708 16.3324 43.9775 17.052 43.3315C16.8461 43.1381 16.5398 42.927 16.1604 42.7028C15.9762 42.594 15.7903 42.4909 15.6055 42.3899C15.5716 42.3713 15.5369 42.3524 15.5018 42.3332C15.3562 42.2538 15.2038 42.1707 15.0735 42.0959ZM16.6296 39.3858C16.6964 39.4242 16.7886 39.474 16.8996 39.5341C17.4587 39.8365 18.4968 40.398 19.2009 41.0625C19.6368 41.474 20.1922 42.1407 20.296 43.056C20.4117 44.077 19.9252 44.9361 19.2297 45.5751C18.1884 46.5317 16.8309 47.3958 15.0306 47.3958H7.88617C6.08583 47.3958 4.72834 46.5317 3.68702 45.5751C2.99155 44.9361 2.50507 44.077 2.62081 43.056C2.72457 42.1407 3.27999 41.474 3.7159 41.0625C4.41992 40.398 5.45811 39.8365 6.01712 39.5341C6.12818 39.474 6.22033 39.4242 6.28719 39.3858C9.45687 37.5659 13.4599 37.5659 16.6296 39.3858Z" fill="#1B8354"/>
<path fill-rule="evenodd" clip-rule="evenodd" d="M20.3116 7.29167C20.3116 4.70284 22.4103 2.60417 24.9991 2.60417C27.5879 2.60417 29.6866 4.70284 29.6866 7.29167C29.6866 9.88051 27.5879 11.9792 24.9991 11.9792C22.4103 11.9792 20.3116 9.88051 20.3116 7.29167ZM24.9991 5.72917C24.1362 5.72917 23.4366 6.42873 23.4366 7.29167C23.4366 8.15462 24.1362 8.85417 24.9991 8.85417C25.862 8.85417 26.5616 8.15462 26.5616 7.29167C26.5616 6.42873 25.862 5.72917 24.9991 5.72917Z" fill="#1B8354"/>
<path fill-rule="evenodd" clip-rule="evenodd" d="M19.8284 14.3858C22.998 12.5659 27.0011 12.5659 30.1707 14.3858C30.2376 14.4242 30.3298 14.474 30.4408 14.5341C30.9998 14.8365 32.038 15.398 32.742 16.0625C33.1779 16.474 33.7334 17.1406 33.8371 18.056C33.9529 19.077 33.4664 19.9361 32.7709 20.5751C31.7296 21.5317 30.3721 22.3958 28.5718 22.3958H21.4273C19.627 22.3958 18.2695 21.5317 17.2282 20.5751C16.5327 19.9361 16.0462 19.077 16.162 18.056C16.2657 17.1406 16.8212 16.474 17.2571 16.0625C17.9611 15.398 18.9993 14.8365 19.5583 14.5341C19.6693 14.474 19.7615 14.4242 19.8284 14.3858ZM28.6147 17.0958C26.4086 15.8292 23.5905 15.8292 21.3844 17.0958C21.2541 17.1707 21.1017 17.2538 20.9561 17.3332L20.8524 17.3899C20.6676 17.4909 20.4818 17.594 20.2976 17.7028C19.9182 17.927 19.6118 18.1381 19.4059 18.3315C20.1255 18.9775 20.7436 19.2708 21.4273 19.2708H28.5718C29.2555 19.2708 29.8736 18.9775 30.5932 18.3315C30.3873 18.1381 30.081 17.927 29.7015 17.7028C29.5174 17.594 29.3315 17.4909 29.1467 17.3899L29.043 17.3332C28.8973 17.2538 28.745 17.1707 28.6147 17.0958Z" fill="#1B8354"/>
<path fill-rule="evenodd" clip-rule="evenodd" d="M43.9825 39.5341C43.8714 39.474 43.7793 39.4242 43.7124 39.3858C40.5427 37.5658 36.5397 37.5658 33.37 39.3858C33.3032 39.4242 33.211 39.474 33.1 39.5341C32.541 39.8365 31.5028 40.398 30.7987 41.0625C30.3628 41.474 29.8074 42.1406 29.7037 43.056C29.5879 44.077 30.0744 44.9361 30.7699 45.5751C31.8112 46.5317 33.1687 47.3958 34.969 47.3958H42.1134C43.9138 47.3958 45.2713 46.5317 46.3126 45.5751C47.008 44.9361 47.4945 44.077 47.3788 43.056C47.275 42.1406 46.7196 41.474 46.2837 41.0625C45.5797 40.3981 44.5415 39.8365 43.9825 39.5341ZM34.9261 42.0958C37.1322 40.8292 39.9503 40.8292 42.1564 42.0958C42.2867 42.1707 42.439 42.2538 42.5847 42.3332L42.6884 42.3899C42.8731 42.4909 43.059 42.594 43.2432 42.7028C43.6226 42.927 43.929 43.1381 44.1349 43.3315C43.4152 43.9775 42.7971 44.2708 42.1134 44.2708H34.969C34.2853 44.2708 33.6672 43.9775 32.9476 43.3315C33.1535 43.1381 33.4598 42.927 33.8392 42.7028C34.0234 42.594 34.2093 42.4909 34.3941 42.3899L34.4978 42.3332C34.6434 42.2538 34.7958 42.1707 34.9261 42.0958Z" fill="#1B8354"/>
<path fill-rule="evenodd" clip-rule="evenodd" d="M33.8533 32.2917C33.8533 29.7028 35.9519 27.6042 38.5408 27.6042C41.1296 27.6042 43.2283 29.7028 43.2283 32.2917C43.2283 34.8805 41.1296 36.9792 38.5408 36.9792C35.9519 36.9792 33.8533 34.8805 33.8533 32.2917ZM38.5408 30.7292C37.6778 30.7292 36.9783 31.4287 36.9783 32.2917C36.9783 33.1546 37.6778 33.8542 38.5408 33.8542C39.4037 33.8542 40.1033 33.1546 40.1033 32.2917C40.1033 31.4287 39.4037 30.7292 38.5408 30.7292Z" fill="#1B8354"/>
<path fill-rule="evenodd" clip-rule="evenodd" d="M16.8979 39.5334C16.7875 39.4737 16.6957 39.424 16.6291 39.3858C13.4594 37.5658 9.45638 37.5658 6.2867 39.3858C6.21984 39.4242 6.1277 39.474 6.01663 39.5341C5.45762 39.8365 4.41943 40.398 3.71542 41.0625C3.2795 41.474 2.72408 42.1406 2.62032 43.056C2.50458 44.077 2.99107 44.9361 3.68653 45.5751C4.72785 46.5317 6.08534 47.3958 7.88568 47.3958H15.0301C16.8304 47.3958 18.1879 46.5317 19.2292 45.5751C19.9247 44.9361 20.4112 44.077 20.2955 43.056C20.1917 42.1406 19.6363 41.474 19.2004 41.0625C18.4964 40.398 17.4569 39.8358 16.8979 39.5334ZM7.84274 42.0958C10.0488 40.8292 12.867 40.8292 15.073 42.0958C15.2034 42.1707 15.3557 42.2538 15.5013 42.3332L15.605 42.3899C15.7898 42.4909 15.9757 42.594 16.1599 42.7028C16.5393 42.927 16.8456 43.1381 17.0515 43.3315C16.3319 43.9775 15.7138 44.2708 15.0301 44.2708H7.88568C7.20198 44.2708 6.58388 43.9775 5.86426 43.3315C6.07014 43.1381 6.37649 42.927 6.75591 42.7028C6.9401 42.594 7.12598 42.4909 7.31075 42.3899L7.41445 42.3332C7.56008 42.2538 7.71244 42.1707 7.84274 42.0958Z" fill="#1B8354"/>
<path fill-rule="evenodd" clip-rule="evenodd" d="M6.76994 32.2917C6.76994 29.7028 8.8686 27.6042 11.4574 27.6042C14.0463 27.6042 16.1449 29.7028 16.1449 32.2917C16.1449 34.8805 14.0463 36.9792 11.4574 36.9792C8.8686 36.9792 6.76994 34.8805 6.76994 32.2917ZM11.4574 30.7292C10.5945 30.7292 9.89494 31.4287 9.89494 32.2917C9.89494 33.1546 10.5945 33.8542 11.4574 33.8542C12.3204 33.8542 13.0199 33.1546 13.0199 32.2917C13.0199 31.4287 12.3204 30.7292 11.4574 30.7292Z" fill="#1B8354"/>
<path d="M26.5621 27.0833C26.5621 26.2204 25.8625 25.5208 24.9996 25.5208C24.1366 25.5208 23.4371 26.2204 23.4371 27.0833V31.407L18.9874 34.0768C18.2474 34.5208 18.0074 35.4806 18.4514 36.2206C18.8954 36.9605 19.8552 37.2005 20.5952 36.7565L24.9996 34.1138L29.404 36.7565C30.144 37.2005 31.1038 36.9605 31.5478 36.2206C31.9917 35.4806 31.7518 34.5208 31.0118 34.0768L26.5621 31.407V27.0833Z" fill="#1B8354"/>
</svg>
