<svg width="50" height="50" viewBox="0 0 50 50" fill="none" xmlns="http://www.w3.org/2000/svg">
<path d="M10.9375 25C10.9375 24.137 11.637 23.4375 12.5 23.4375H18.75C19.6129 23.4375 20.3125 24.137 20.3125 25C20.3125 25.8629 19.6129 26.5625 18.75 26.5625H12.5C11.637 26.5625 10.9375 25.8629 10.9375 25Z" fill="#1B8354"/>
<path d="M10.9375 35.4167C10.9375 34.5537 11.637 33.8542 12.5 33.8542H22.9166C23.7796 33.8542 24.4791 34.5537 24.4791 35.4167C24.4791 36.2796 23.7796 36.9792 22.9166 36.9792H12.5C11.637 36.9792 10.9375 36.2796 10.9375 35.4167Z" fill="#1B8354"/>
<path fill-rule="evenodd" clip-rule="evenodd" d="M34.4076 2.60416H32.2556C29.6328 2.60411 27.5049 2.60407 25.8282 2.83197C24.0806 3.06951 22.5921 3.58042 21.4091 4.7764C20.3793 5.81743 19.8635 7.0928 19.5938 8.57705C19.465 9.28575 19.3876 10.0716 19.3408 10.9375H17.5139C14.438 10.9375 11.9725 10.9374 10.0364 11.1952C8.033 11.462 6.36344 12.0301 5.03847 13.3425C3.71143 14.6569 3.13507 16.3166 2.86475 18.308C2.60405 20.2286 2.60409 22.6731 2.60413 25.7172V32.6161C2.60409 35.6602 2.60405 38.1047 2.86475 40.0253C3.13507 42.0167 3.71143 43.6764 5.03847 44.9908C6.36344 46.3032 8.033 46.8713 10.0364 47.1381C11.9725 47.3959 14.438 47.3959 17.5138 47.3958H19.9861C23.0619 47.3959 25.5274 47.3959 27.4635 47.1381C29.4669 46.8713 31.1365 46.3032 32.4615 44.9908C33.7885 43.6764 34.3649 42.0167 34.6352 40.0253C34.8273 38.6101 34.8778 36.9103 34.8911 34.8958C37.2932 34.895 39.2626 34.8817 40.835 34.668C42.5826 34.4305 44.0711 33.9196 45.2541 32.7236C46.4348 31.53 46.937 30.0321 47.1709 28.2734C47.3958 26.5817 47.3958 24.4334 47.3958 21.7791V15.7209C47.3958 13.0666 47.3958 10.9182 47.1709 9.2266C46.937 7.46792 46.4348 5.97001 45.2541 4.7764C44.0711 3.58042 42.5826 3.06951 40.835 2.83197C39.1583 2.60407 37.0304 2.60411 34.4076 2.60416ZM34.8958 31.7707C37.3399 31.7693 39.0797 31.7529 40.4141 31.5715C41.8089 31.3819 42.5254 31.0385 43.0324 30.526C43.5417 30.011 43.8845 29.2798 44.0732 27.8614C44.2675 26.3999 44.2708 24.4602 44.2708 21.6667V15.8333C44.2708 13.0398 44.2675 11.1001 44.0732 9.63855C43.8845 8.22023 43.5417 7.48894 43.0324 6.97401C42.5254 6.46145 41.8089 6.11808 40.4141 5.92849C38.9725 5.73255 37.0579 5.72916 34.2933 5.72916H32.3699C29.6053 5.72916 27.6907 5.73255 26.2491 5.92849C25.4488 6.03727 24.8719 6.19666 24.4297 6.40958L31.2367 12.3657L31.2247 12.3793C31.6657 12.6452 32.078 12.9627 32.4615 13.3425C33.7885 14.6569 34.3649 16.3166 34.6352 18.308C34.8959 20.2286 34.8958 22.6731 34.8958 25.7173V31.7707ZM24.9244 10.9948L22.6869 9.03711C22.6807 9.06953 22.6745 9.10239 22.6685 9.13569C22.5743 9.65393 22.5117 10.2482 22.4704 10.9434C23.348 10.9502 24.1651 10.9645 24.9244 10.9948ZM7.23758 15.5627C7.88401 14.9225 8.78661 14.5143 10.4489 14.2929C12.1547 14.0657 14.4115 14.0625 17.6282 14.0625H19.8718C23.0884 14.0625 25.3452 14.0657 27.051 14.2929C28.7133 14.5143 29.6159 14.9225 30.2623 15.5627C30.9067 16.201 31.316 17.0889 31.5386 18.7283C31.7674 20.4143 31.7708 22.646 31.7708 25.8333V32.5C31.7708 35.6873 31.7674 37.9191 31.5386 39.605C31.316 41.2444 30.9067 42.1324 30.2623 42.7706C29.6159 43.4109 28.7133 43.8191 27.051 44.0404C25.3452 44.2676 23.0884 44.2708 19.8718 44.2708H17.6282C14.4115 44.2708 12.1547 44.2676 10.4489 44.0404C8.78661 43.8191 7.88401 43.4109 7.23758 42.7706C6.59322 42.1324 6.18389 41.2444 5.96135 39.605C5.73251 37.9191 5.72913 35.6873 5.72913 32.5V25.8333C5.72913 22.646 5.73251 20.4143 5.96135 18.7283C6.18389 17.0889 6.59322 16.201 7.23758 15.5627Z" fill="#1B8354"/>
</svg>
