<svg width="52" height="52" viewBox="0 0 52 52" fill="none" xmlns="http://www.w3.org/2000/svg">
<path d="M26 7.04175L28.1667 7.04169C29.0641 7.04166 29.7917 6.3141 29.7916 5.41664C29.7916 4.51917 29.064 3.79166 28.1666 3.79169L25.8761 3.79175C21.1296 3.79172 17.4014 3.7917 14.4907 4.18304C11.5079 4.58406 9.14137 5.42264 7.28194 7.28206C5.42251 9.14149 4.58393 11.508 4.18291 14.4908C3.79157 17.4015 3.7916 21.1297 3.79163 25.8762V26.124C3.7916 30.8705 3.79157 34.5986 4.18291 37.5094C4.58393 40.4921 5.42251 42.8587 7.28194 44.7181C9.14137 46.5775 11.5079 47.4161 14.4907 47.8171C17.4014 48.2085 21.1295 48.2085 25.876 48.2084H26.1238C30.8703 48.2085 34.5985 48.2085 37.5092 47.8171C40.492 47.4161 42.8586 46.5775 44.718 44.7181C46.5774 42.8587 47.416 40.4921 47.817 37.5094C48.2083 34.5986 48.2083 30.8705 48.2083 26.124V26.0001C48.2083 25.2809 48.2059 24.7356 48.2034 24.3692C48.2022 24.1861 48.201 24.0476 48.2 23.9545L48.1989 23.849L48.1985 23.812C48.1867 22.9146 47.4496 22.1967 46.5523 22.2085C45.6549 22.2203 44.937 22.9588 44.9488 23.8562L44.9491 23.8865L44.9502 23.9868C44.9511 24.0764 44.9523 24.2113 44.9535 24.3909C44.9559 24.7501 44.9583 25.2882 44.9583 26.0001C44.9583 30.8976 44.9548 34.4072 44.596 37.0763C44.2434 39.6987 43.5748 41.2651 42.4199 42.42C41.2649 43.5749 39.6986 44.2435 37.0762 44.5961C34.4071 44.955 30.8974 44.9584 26 44.9584C21.1025 44.9584 17.5928 44.955 14.9237 44.5961C12.3014 44.2435 10.735 43.5749 9.58003 42.42C8.4251 41.2651 7.7565 39.6987 7.40393 37.0763C7.04508 34.4072 7.04163 30.8976 7.04163 26.0001C7.04163 21.1026 7.04508 17.593 7.40393 14.9239C7.7565 12.3015 8.4251 10.7351 9.58003 9.58016C10.735 8.42523 12.3014 7.75663 14.9237 7.40406C17.5928 7.0452 21.1025 7.04175 26 7.04175Z" fill="#1B8354"/>
<path fill-rule="evenodd" clip-rule="evenodd" d="M31.9583 11.9167C31.9583 7.42937 35.596 3.79169 40.0833 3.79169C44.5706 3.79169 48.2083 7.42937 48.2083 11.9167C48.2083 16.404 44.5706 20.0417 40.0833 20.0417C35.596 20.0417 31.9583 16.404 31.9583 11.9167ZM40.0833 7.04169C37.3909 7.04169 35.2083 9.2243 35.2083 11.9167C35.2083 14.6091 37.3909 16.7917 40.0833 16.7917C42.7757 16.7917 44.9583 14.6091 44.9583 11.9167C44.9583 9.2243 42.7757 7.04169 40.0833 7.04169Z" fill="#1B8354"/>
<path d="M24.9166 16.7917C25.8141 16.7917 26.5416 17.5192 26.5416 18.4167V37.9167C26.5416 38.8142 25.8141 39.5417 24.9166 39.5417C24.0192 39.5417 23.2916 38.8142 23.2916 37.9167V18.4167C23.2916 17.5192 24.0192 16.7917 24.9166 16.7917Z" fill="#1B8354"/>
<path d="M35.75 27.625C36.6474 27.625 37.375 28.3526 37.375 29.25V37.9167C37.375 38.8142 36.6474 39.5417 35.75 39.5417C34.8525 39.5417 34.125 38.8142 34.125 37.9167V29.25C34.125 28.3526 34.8525 27.625 35.75 27.625Z" fill="#1B8354"/>
<path d="M14.0833 29.7917C14.9808 29.7917 15.7083 30.5192 15.7083 31.4167V37.9167C15.7083 38.8142 14.9808 39.5417 14.0833 39.5417C13.1858 39.5417 12.4583 38.8142 12.4583 37.9167V31.4167C12.4583 30.5192 13.1858 29.7917 14.0833 29.7917Z" fill="#1B8354"/>
</svg>
