<svg width="45" height="45" viewBox="0 0 45 45" fill="none" xmlns="http://www.w3.org/2000/svg">
<path d="M34.4934 11.4133C30.1834 2.57602 18.4535 -0.385094 10.3225 5.1393C9.68012 5.57577 9.51317 6.45037 9.94964 7.09277C10.3861 7.73518 11.2607 7.90212 11.9031 7.46566C18.6558 2.87773 28.4266 5.38984 31.9655 12.6462C32.306 13.3442 33.1478 13.6341 33.8459 13.2937C34.544 12.9533 34.8339 12.1114 34.4934 11.4133Z" fill="#1B8354"/>
<path d="M19.6799 9.84008C18.9033 9.84008 18.2737 10.4697 18.2737 11.2463C18.2737 12.023 18.9033 12.6526 19.6799 12.6526C22.9793 12.6526 25.7699 15.4816 25.7699 19.1175C25.7699 19.8942 26.3995 20.5238 27.1761 20.5238C27.9528 20.5238 28.5824 19.8942 28.5824 19.1175C28.5824 14.0592 24.6604 9.84008 19.6799 9.84008Z" fill="#1B8354"/>
<path d="M7.37253 12.6908C7.71029 11.9915 7.41716 11.1507 6.7178 10.8129C6.01845 10.4752 5.17769 10.7683 4.83993 11.4677C3.84018 13.5377 3.28125 15.8508 3.28125 18.2884V26.6332C3.28125 32.0911 6.07824 36.8985 10.3225 39.7822C10.9649 40.2186 11.8395 40.0517 12.276 39.4093C12.7125 38.7669 12.5455 37.8923 11.9031 37.4558C8.37926 35.0616 6.09375 31.1005 6.09375 26.6332V18.2884C6.09375 16.2853 6.5522 14.3894 7.37253 12.6908Z" fill="#1B8354"/>
<path d="M14.1863 16.3238C14.5064 15.6162 14.1923 14.7831 13.4847 14.4629C12.7771 14.1428 11.944 14.4569 11.6238 15.1645C11.0799 16.3669 10.7775 17.708 10.7775 19.1175V25.8643C10.7775 30.9226 14.6993 35.1417 19.6799 35.1417C20.0581 35.1417 20.4321 35.1171 20.7999 35.0689C21.57 34.9678 22.1123 34.2616 22.0112 33.4915C21.9101 32.7215 21.204 32.1792 20.4339 32.2803C20.1878 32.3126 19.9362 32.3292 19.6799 32.3292C16.3804 32.3292 13.59 29.5003 13.59 25.8643V19.1175C13.59 18.1126 13.8052 17.1663 14.1863 16.3238Z" fill="#1B8354"/>
<path d="M36.0786 19.3673C36.0786 18.5907 35.449 17.9611 34.6723 17.9611C33.8957 17.9611 33.2661 18.5907 33.2661 19.3673V21.5539C33.2661 22.3305 33.8957 22.9601 34.6723 22.9601C35.449 22.9601 36.0786 22.3305 36.0786 21.5539V19.3673Z" fill="#1B8354"/>
<path d="M21.0862 19.6798C21.0862 18.9031 20.4566 18.2735 19.6799 18.2735C18.9033 18.2735 18.2737 18.9031 18.2737 19.6798V25.302C18.2737 26.0787 18.9033 26.7083 19.6799 26.7083C20.4566 26.7083 21.0862 26.0787 21.0862 25.302V19.6798Z" fill="#1B8354"/>
<path d="M22.7625 42.3292C23.5246 42.1792 24.0207 41.4399 23.8708 40.6779C23.7208 39.9158 22.9815 39.4197 22.2194 39.5697C20.7744 39.854 19.263 39.9093 17.7323 39.6959C16.9631 39.5887 16.2526 40.1253 16.1453 40.8945C16.0381 41.6637 16.5748 42.3742 17.344 42.4815C19.1932 42.7392 21.0194 42.6723 22.7625 42.3292Z" fill="#1B8354"/>
<path d="M36.1157 33.2397C36.7652 32.8138 36.9464 31.942 36.5206 31.2926C36.0947 30.6431 35.2229 30.4619 34.5735 30.8878C33.2117 31.7807 32.3164 32.9167 31.7354 33.8396C31.4868 33.6411 31.2128 33.457 30.9276 33.3201C30.2274 32.984 29.3874 33.2791 29.0513 33.9793C28.7152 34.6794 29.0104 35.5195 29.7105 35.8556C29.8036 35.9003 29.9949 36.0308 30.2242 36.2533C30.3891 36.4133 30.5282 36.5769 30.6267 36.7135C30.648 36.7693 30.6738 36.8276 30.7051 36.8862C30.7766 37.0203 30.9484 37.2946 31.2947 37.482C31.7013 37.7021 32.1301 37.6877 32.4571 37.5714C32.7317 37.4737 32.9089 37.3169 32.9865 37.2422C33.0759 37.1562 33.1397 37.0741 33.1775 37.0223C33.2523 36.9196 33.311 36.8166 33.3468 36.7517C33.4031 36.6495 33.4709 36.5148 33.5331 36.3913L33.582 36.2942C33.665 36.1304 33.7587 35.9491 33.8691 35.7528C34.3135 34.9618 35.0065 33.9671 36.1157 33.2397Z" fill="#1B8354"/>
<path fill-rule="evenodd" clip-rule="evenodd" d="M32.8125 24.8434C27.8937 24.8434 23.9062 28.8309 23.9062 33.7497C23.9062 38.6684 27.8937 42.6559 32.8125 42.6559C37.7313 42.6559 41.7188 38.6684 41.7188 33.7497C41.7188 28.8309 37.7313 24.8434 32.8125 24.8434ZM26.7188 33.7497C26.7188 30.3842 29.447 27.6559 32.8125 27.6559C36.178 27.6559 38.9062 30.3842 38.9062 33.7497C38.9062 37.1151 36.178 39.8434 32.8125 39.8434C29.447 39.8434 26.7188 37.1151 26.7188 33.7497Z" fill="#1B8354"/>
</svg>
