<svg width="50" height="50" viewBox="0 0 50 50" fill="none" xmlns="http://www.w3.org/2000/svg">
<path d="M36.5215 21.9382C37.1317 21.328 37.1317 20.3387 36.5215 19.7285C35.9113 19.1183 34.922 19.1183 34.3118 19.7285L28.4933 25.547C28.2899 25.7504 27.9601 25.7504 27.7567 25.547L24.453 22.2433C23.0292 20.8195 20.7208 20.8195 19.297 22.2433L13.4785 28.0618C12.8683 28.672 12.8683 29.6613 13.4785 30.2715C14.0887 30.8817 15.078 30.8817 15.6882 30.2715L21.5067 24.453C21.7101 24.2496 22.0399 24.2496 22.2433 24.453L25.547 27.7567C26.9708 29.1805 29.2792 29.1805 30.703 27.7567L36.5215 21.9382Z" fill="#1B8354"/>
<path fill-rule="evenodd" clip-rule="evenodd" d="M25.1186 4.6875H24.8814C20.5625 4.68747 17.1619 4.68745 14.5049 5.04467C11.7787 5.4112 9.60266 6.17938 7.89102 7.89102C6.17938 9.60266 5.4112 11.7787 5.04467 14.5049C4.68745 17.1619 4.68747 20.5625 4.6875 24.8814V25.1186C4.68747 29.4375 4.68745 32.8381 5.04467 35.4951C5.4112 38.2213 6.17938 40.3973 7.89102 42.109C9.60266 43.8206 11.7787 44.5888 14.5049 44.9553C17.1619 45.3126 20.5625 45.3125 24.8814 45.3125H25.1186C29.4375 45.3125 32.8381 45.3126 35.4951 44.9553C38.2213 44.5888 40.3973 43.8206 42.109 42.109C43.8206 40.3973 44.5888 38.2213 44.9553 35.4951C45.3126 32.8381 45.3125 29.4375 45.3125 25.1186V24.8814C45.3125 20.5625 45.3126 17.1619 44.9553 14.5049C44.5888 11.7787 43.8206 9.60266 42.109 7.89102C40.3973 6.17938 38.2213 5.4112 35.4951 5.04467C32.8381 4.68745 29.4375 4.68747 25.1186 4.6875ZM10.1007 10.1007C11.135 9.06649 12.5416 8.46174 14.9213 8.1418C17.3459 7.81582 20.5364 7.8125 25 7.8125C29.4636 7.8125 32.6541 7.81582 35.0787 8.1418C37.4584 8.46174 38.865 9.06649 39.8993 10.1007C40.9335 11.135 41.5383 12.5416 41.8582 14.9213C42.1842 17.3459 42.1875 20.5364 42.1875 25C42.1875 29.4636 42.1842 32.6541 41.8582 35.0787C41.5383 37.4584 40.9335 38.865 39.8993 39.8993C38.865 40.9335 37.4584 41.5383 35.0787 41.8582C32.6541 42.1842 29.4636 42.1875 25 42.1875C20.5364 42.1875 17.3459 42.1842 14.9213 41.8582C12.5416 41.5383 11.135 40.9335 10.1007 39.8993C9.06649 38.865 8.46174 37.4584 8.1418 35.0787C7.81582 32.6541 7.8125 29.4636 7.8125 25C7.8125 20.5364 7.81582 17.3459 8.1418 14.9213C8.46174 12.5416 9.06649 11.135 10.1007 10.1007Z" fill="#1B8354"/>
</svg>
