<svg width="50" height="50" viewBox="0 0 50 50" fill="none" xmlns="http://www.w3.org/2000/svg">
<path fill-rule="evenodd" clip-rule="evenodd" d="M19.2708 39.5833C19.2708 37.5698 20.9031 35.9375 22.9167 35.9375H27.0833C29.0969 35.9375 30.7292 37.5698 30.7292 39.5833V40.1042H33.3333C34.8506 40.1042 35.8314 40.1008 36.5541 40.0037C37.2318 39.9126 37.4442 39.7655 37.5632 39.6465C37.6821 39.5276 37.8292 39.3152 37.9204 38.6374C38.0175 37.9148 38.0208 36.934 38.0208 35.4167C38.0208 34.5537 38.7204 33.8542 39.5833 33.8542C40.4463 33.8542 41.1458 34.5537 41.1458 35.4167L41.1458 35.5195C41.1459 36.9046 41.146 38.0981 41.0175 39.0538C40.8798 40.0781 40.5692 41.0599 39.7729 41.8562C38.9765 42.6526 37.9948 42.9631 36.9705 43.1008C36.0148 43.2293 34.8213 43.2292 33.4362 43.2292L30.7292 43.2292V43.75C30.7292 45.7635 29.0969 47.3958 27.0833 47.3958H22.9167C20.9031 47.3958 19.2708 45.7635 19.2708 43.75V43.2292L16.5638 43.2292C15.1787 43.2292 13.9852 43.2293 13.0295 43.1008C12.0053 42.9631 11.0235 42.6526 10.2271 41.8562C9.43076 41.0599 9.12022 40.0781 8.98252 39.0538C8.85403 38.0981 8.85409 36.9047 8.85417 35.5195L8.85417 35.4167C8.85417 34.5537 9.55373 33.8542 10.4167 33.8542C11.2796 33.8542 11.9792 34.5537 11.9792 35.4167C11.9792 36.934 11.9825 37.9148 12.0797 38.6374C12.1708 39.3152 12.3179 39.5276 12.4368 39.6465C12.5558 39.7655 12.7682 39.9126 13.4459 40.0037C14.1686 40.1008 15.1494 40.1042 16.6667 40.1042H19.2708V39.5833ZM27.6042 43.75V39.5833C27.6042 39.2957 27.371 39.0625 27.0833 39.0625H22.9167C22.629 39.0625 22.3958 39.2957 22.3958 39.5833V41.6616L22.3958 41.6667L22.3958 41.6717V43.75C22.3958 44.0376 22.629 44.2708 22.9167 44.2708H27.0833C27.371 44.2708 27.6042 44.0376 27.6042 43.75Z" fill="#1B8354"/>
<path fill-rule="evenodd" clip-rule="evenodd" d="M19.2708 6.25C19.2708 4.23646 20.9031 2.60416 22.9167 2.60416H27.0833C29.0969 2.60416 30.7292 4.23646 30.7292 6.25V6.77084L33.4362 6.77083C34.8213 6.77076 36.0148 6.77069 36.9705 6.89918C37.9948 7.03689 38.9765 7.34743 39.7729 8.14378C40.5692 8.94012 40.8798 9.92192 41.0175 10.9462C41.146 11.9019 41.1459 13.0953 41.1458 14.4804L41.1458 14.5833C41.1458 15.4463 40.4463 16.1458 39.5833 16.1458C38.7204 16.1458 38.0208 15.4463 38.0208 14.5833C38.0208 13.066 38.0175 12.0852 37.9204 11.3626C37.8292 10.6848 37.6821 10.4724 37.5632 10.3535C37.4442 10.2345 37.2318 10.0874 36.5541 9.99632C35.8314 9.89916 34.8506 9.89584 33.3333 9.89584H30.7292V10.4167C30.7292 12.4302 29.0969 14.0625 27.0833 14.0625H22.9167C20.9031 14.0625 19.2708 12.4302 19.2708 10.4167V9.89584H16.6667C15.1494 9.89584 14.1686 9.89916 13.4459 9.99632C12.7682 10.0874 12.5558 10.2345 12.4368 10.3535C12.3179 10.4724 12.1708 10.6848 12.0797 11.3626C11.9825 12.0852 11.9792 13.066 11.9792 14.5833C11.9792 15.4463 11.2796 16.1458 10.4167 16.1458C9.55373 16.1458 8.85417 15.4463 8.85417 14.5833L8.85417 14.4805C8.85409 13.0953 8.85403 11.9019 8.98252 10.9462C9.12022 9.92192 9.43076 8.94012 10.2271 8.14378C11.0235 7.34743 12.0053 7.03689 13.0295 6.89918C13.9852 6.77069 15.1787 6.77076 16.5638 6.77083L19.2708 6.77084V6.25ZM22.3958 8.33334L22.3958 8.3283V6.25C22.3958 5.96235 22.629 5.72916 22.9167 5.72916H27.0833C27.371 5.72916 27.6042 5.96235 27.6042 6.25V10.4167C27.6042 10.7043 27.371 10.9375 27.0833 10.9375H22.9167C22.629 10.9375 22.3958 10.7043 22.3958 10.4167V8.33838L22.3958 8.33334Z" fill="#1B8354"/>
<path d="M20.8333 23.4375C19.9704 23.4375 19.2708 24.1371 19.2708 25C19.2708 25.8629 19.9704 26.5625 20.8333 26.5625H29.1667C30.0296 26.5625 30.7292 25.8629 30.7292 25C30.7292 24.1371 30.0296 23.4375 29.1667 23.4375H20.8333Z" fill="#1B8354"/>
<path fill-rule="evenodd" clip-rule="evenodd" d="M33.8542 22.9167C33.8542 20.9031 35.4865 19.2708 37.5 19.2708H41.6667C43.6802 19.2708 45.3125 20.9031 45.3125 22.9167V27.0833C45.3125 29.0969 43.6802 30.7292 41.6667 30.7292H37.5C35.4865 30.7292 33.8542 29.0969 33.8542 27.0833V22.9167ZM37.5 22.3958C37.2123 22.3958 36.9792 22.629 36.9792 22.9167V27.0833C36.9792 27.371 37.2123 27.6042 37.5 27.6042H41.6667C41.9543 27.6042 42.1875 27.371 42.1875 27.0833V22.9167C42.1875 22.629 41.9543 22.3958 41.6667 22.3958H37.5Z" fill="#1B8354"/>
<path fill-rule="evenodd" clip-rule="evenodd" d="M8.33333 19.2708C6.3198 19.2708 4.6875 20.9031 4.6875 22.9167V27.0833C4.6875 29.0969 6.3198 30.7292 8.33333 30.7292H12.5C14.5135 30.7292 16.1458 29.0969 16.1458 27.0833V22.9167C16.1458 20.9031 14.5135 19.2708 12.5 19.2708H8.33333ZM7.8125 22.9167C7.8125 22.629 8.04569 22.3958 8.33333 22.3958H12.5C12.7876 22.3958 13.0208 22.629 13.0208 22.9167V27.0833C13.0208 27.371 12.7876 27.6042 12.5 27.6042H8.33333C8.04568 27.6042 7.8125 27.371 7.8125 27.0833L7.8125 22.9167Z" fill="#1B8354"/>
</svg>
