<svg width="50" height="50" viewBox="0 0 50 50" fill="none" xmlns="http://www.w3.org/2000/svg">
<path fill-rule="evenodd" clip-rule="evenodd" d="M25 5.72919C16.4556 5.72919 9.89579 11.7483 9.89579 18.75V19.3035C10.1653 19.2686 10.4522 19.2604 10.7575 19.2851C11.5027 19.3453 12.2141 19.6709 12.9701 20.0169L13.1454 20.097L13.2816 20.1588C13.8497 20.4164 14.4062 20.6688 14.8501 21.0548C16.1478 22.1833 16.1465 23.6729 16.1458 24.5341V33.8C16.1465 34.6613 16.1478 36.1509 14.8501 37.2794C14.4066 37.6651 13.8507 37.9173 13.2831 38.1748L13.1454 38.2371L12.9703 38.3173C12.2148 38.6628 11.5022 38.9888 10.7575 39.0492C8.58033 39.2252 7.3608 37.7401 6.64431 36.8676L6.58579 36.7965C6.40419 36.5758 6.18061 36.3167 5.93917 36.0369C5.49775 35.5254 4.99665 34.9448 4.5834 34.404C3.90079 33.5106 3.21677 32.4402 2.87699 31.1965C2.51317 29.8646 2.51317 28.4696 2.87699 27.1377C3.12355 26.2352 3.56965 25.4388 4.15852 24.6027C4.72839 23.7937 5.496 22.8614 6.44508 21.7086L6.48563 21.6594C6.52426 21.6125 6.56472 21.5627 6.60707 21.5105C6.65846 21.4473 6.71365 21.3794 6.77079 21.3101V18.75C6.77079 9.64346 15.1348 2.60419 25 2.60419C34.8652 2.60419 43.2291 9.64346 43.2291 18.75V21.2996C43.2717 21.3533 43.3124 21.405 43.3498 21.4523L43.3551 21.4591C43.4232 21.5453 43.4802 21.6175 43.5143 21.659L43.5529 21.7058C44.5029 22.8597 45.271 23.7927 45.8414 24.6023C46.4302 25.4383 46.8764 26.2348 47.1229 27.1373C47.4866 28.4692 47.4866 29.8642 47.1229 31.1961C46.7831 32.4398 46.0991 33.5102 45.4164 34.4036C45.0033 34.9444 44.5023 35.525 44.0608 36.0365C43.8194 36.3163 43.5958 36.5754 43.4141 36.7961L43.2939 36.9423C43.269 36.9727 43.2442 37.003 43.2193 37.0333C43.1392 39.3476 42.5689 41.2491 41.5195 42.7669C40.3831 44.4106 38.7864 45.4571 37.0068 46.1244C33.6147 47.3965 29.2133 47.3963 25.1964 47.3959H25C24.137 47.3959 23.4375 46.6963 23.4375 45.8334C23.4375 44.9704 24.137 44.2709 25 44.2709C29.2639 44.2709 33.1073 44.2494 35.9097 43.1984C37.2552 42.694 38.2627 41.9825 38.9491 40.9896C39.3062 40.4731 39.6038 39.8408 39.8074 39.0567C39.6195 39.0666 39.4307 39.064 39.2425 39.0488C38.498 38.9884 37.7872 38.6634 37.0318 38.3179L36.8546 38.2367L36.7187 38.1756C35.9766 37.8442 34.5777 37.2192 34.0448 35.6419C33.851 35.0681 33.8525 34.455 33.8539 33.8844L33.8541 33.7406V24.5925L33.8539 24.449C33.8525 23.8783 33.851 23.265 34.0448 22.6915C34.5777 21.1142 35.9766 20.4891 36.7187 20.1576C36.7668 20.1361 36.8123 20.1158 36.8546 20.0966L37.0296 20.0166C37.7856 19.6706 38.4973 19.345 39.2425 19.2847C39.5301 19.2614 39.819 19.2676 40.1041 19.3027V18.75C40.1041 11.7483 33.5443 5.72919 25 5.72919ZM40.3799 22.7617C40.2526 22.6273 40.1654 22.561 40.106 22.5277C39.9341 22.4313 39.7183 22.3814 39.4944 22.3995C39.3702 22.4096 39.1983 22.4629 38.15 22.9404C37.6921 23.149 37.435 23.269 37.2368 23.4127C37.0856 23.5223 37.0368 23.599 37.0058 23.6902C37.0033 23.7013 36.9956 23.7423 36.9898 23.8386C36.9798 23.9996 36.9791 24.214 36.9791 24.5925V33.7406C36.9791 34.1194 36.9798 34.3338 36.9898 34.4948C36.9956 34.5911 37.0033 34.6321 37.0058 34.6431C37.0368 34.7344 37.0856 34.8111 37.2368 34.9206C37.435 35.0644 37.6921 35.1844 38.15 35.3929C39.1983 35.8704 39.3702 35.9238 39.4944 35.9338C39.7183 35.9519 39.9341 35.9021 40.106 35.8056C40.185 35.7613 40.2912 35.6725 41.0016 34.8098C41.2843 34.4662 41.5483 34.1618 41.8028 33.8683L41.8193 33.8494C42.2001 33.41 42.5607 32.9939 42.9335 32.5063C43.5171 31.7425 43.9237 31.0486 44.1083 30.3725C44.325 29.5798 44.325 28.7536 44.1083 27.9608C43.9954 27.5471 43.7704 27.0888 43.2866 26.4021C42.7921 25.6998 42.0993 24.8569 41.1019 23.6452C40.9589 23.4719 40.8654 23.3513 40.7837 23.2458C40.7246 23.1695 40.6717 23.1012 40.6107 23.0267C40.5242 22.9474 40.4467 22.8585 40.3799 22.7617ZM9.87706 22.5913C9.59871 22.7996 9.33746 23.1121 8.89817 23.6456C7.90058 24.8573 7.2079 25.7002 6.71329 26.4025C6.22958 27.0892 6.00454 27.5475 5.89152 27.9613C5.675 28.754 5.675 29.5802 5.89152 30.3729C6.07621 31.049 6.48288 31.7429 7.06644 32.5067C7.44107 32.9968 7.80332 33.4146 8.18634 33.8563L8.18811 33.8583C8.44535 34.1549 8.71228 34.4626 8.99833 34.8102C9.40456 35.3036 9.65783 35.5877 9.90944 35.7667C10.0958 35.8992 10.253 35.9546 10.5056 35.9342C10.6298 35.9242 10.8016 35.8708 11.85 35.3933C12.6492 35.0294 12.7455 34.9681 12.7994 34.9213C12.8927 34.8402 12.9309 34.7731 12.962 34.6471C13.0079 34.4611 13.0208 34.2142 13.0208 33.7411V24.5929C13.0208 24.12 13.0079 23.8729 12.962 23.6871C12.9309 23.5611 12.8927 23.494 12.7994 23.4129C12.7455 23.3658 12.6492 23.3048 11.85 22.9408C10.8016 22.4633 10.6298 22.41 10.5056 22.3999C10.2474 22.379 10.0826 22.4376 9.87706 22.5913Z" fill="#1B8354"/>
</svg>
