<svg width="50" height="50" viewBox="0 0 50 50" fill="none" xmlns="http://www.w3.org/2000/svg">
<path d="M33.3333 5.72916C35.3416 5.72916 36.6907 5.73248 37.6971 5.86778C38.6584 5.99703 39.0699 6.22041 39.3414 6.49191C39.6129 6.7634 39.8363 7.17485 39.9655 8.13623C40.1008 9.14256 40.1041 10.4916 40.1041 12.5V25C40.1041 27.0084 40.1008 28.3574 39.9655 29.3638C39.8363 30.3251 39.6129 30.7366 39.3414 31.0081C39.0699 31.2796 38.6584 31.503 37.6971 31.6322C36.6907 31.7675 35.3416 31.7708 33.3333 31.7708H18.75C17.887 31.7708 17.1875 32.4704 17.1875 33.3333C17.1875 34.1963 17.887 34.8958 18.75 34.8958L33.4416 34.8958C35.3134 34.8959 36.8743 34.8959 38.1135 34.7293C39.4214 34.5535 40.6022 34.1667 41.5511 33.2178C42.5 32.2689 42.8868 31.0881 43.0626 29.7802C43.2292 28.541 43.2292 26.9802 43.2291 25.1083V12.3917C43.2292 10.5198 43.2292 8.95896 43.0626 7.71983C42.8868 6.41193 42.5 5.23109 41.5511 4.2822C40.6022 3.3333 39.4214 2.94649 38.1135 2.77065C36.8743 2.60405 35.3135 2.6041 33.4417 2.60416L4.16663 2.60416C3.30368 2.60416 2.60413 3.30372 2.60413 4.16666C2.60413 5.02961 3.30368 5.72916 4.16663 5.72916H33.3333Z" fill="#1B8354"/>
<path d="M20.8333 11.9792C19.9703 11.9792 19.2708 12.6787 19.2708 13.5417C19.2708 14.4046 19.9703 15.1042 20.8333 15.1042H33.3333C34.1962 15.1042 34.8958 14.4046 34.8958 13.5417C34.8958 12.6787 34.1962 11.9792 33.3333 11.9792H20.8333Z" fill="#1B8354"/>
<path fill-rule="evenodd" clip-rule="evenodd" d="M8.24008 21.3542L25 21.3542C25.8629 21.3542 26.5625 22.0537 26.5625 22.9167C26.5625 23.7796 25.8629 24.4792 25 24.4792H14.0625V45.8333C14.0625 46.6963 13.3629 47.3958 12.5 47.3958C11.637 47.3958 10.9375 46.6963 10.9375 45.8333V36.9792H5.72914V45.8333C5.72914 46.6963 5.02959 47.3958 4.16664 47.3958C3.3037 47.3958 2.60414 46.6963 2.60414 45.8333L2.60413 26.9901C2.60403 26.0884 2.60393 25.2617 2.69435 24.5892C2.79392 23.8486 3.02818 23.0658 3.67198 22.422C4.31578 21.7782 5.09854 21.5439 5.83912 21.4444C6.51165 21.354 7.33838 21.3541 8.24008 21.3542ZM10.9375 33.8542V24.4792H8.33331C7.30704 24.4792 6.69453 24.4825 6.25552 24.5415C6.05436 24.5686 5.95361 24.6004 5.90823 24.6191C5.89772 24.6234 5.89082 24.6268 5.88679 24.6289L5.88172 24.6318L5.87885 24.6368C5.87675 24.6409 5.87338 24.6478 5.86905 24.6583C5.85039 24.7036 5.81853 24.8044 5.79148 25.0056C5.73246 25.4446 5.72914 26.0571 5.72914 27.0833V33.8542H10.9375Z" fill="#1B8354"/>
<path fill-rule="evenodd" clip-rule="evenodd" d="M8.33329 7.81249C5.16916 7.81249 2.60413 10.3775 2.60413 13.5417C2.60413 16.7058 5.16916 19.2708 8.33329 19.2708C11.4974 19.2708 14.0625 16.7058 14.0625 13.5417C14.0625 10.3775 11.4974 7.81249 8.33329 7.81249ZM5.72913 13.5417C5.72913 12.1034 6.89505 10.9375 8.33329 10.9375C9.77153 10.9375 10.9375 12.1034 10.9375 13.5417C10.9375 14.9799 9.77153 16.1458 8.33329 16.1458C6.89505 16.1458 5.72913 14.9799 5.72913 13.5417Z" fill="#1B8354"/>
</svg>
