<svg width="50" height="50" viewBox="0 0 50 50" fill="none" xmlns="http://www.w3.org/2000/svg">
<path fill-rule="evenodd" clip-rule="evenodd" d="M11.9788 13.5417C11.9788 7.50106 16.8756 2.60417 22.9163 2.60417C28.9569 2.60417 33.8538 7.50106 33.8538 13.5417C33.8538 19.5823 28.9569 24.4792 22.9163 24.4792C16.8756 24.4792 11.9788 19.5823 11.9788 13.5417ZM22.9163 5.72917C18.6015 5.72917 15.1038 9.22695 15.1038 13.5417C15.1038 17.8564 18.6015 21.3542 22.9163 21.3542C27.231 21.3542 30.7288 17.8564 30.7288 13.5417C30.7288 9.22695 27.231 5.72917 22.9163 5.72917Z" fill="#1B8354"/>
<path d="M23.8856 30.7517C19.9171 30.567 15.9094 31.5177 12.4193 33.5958C12.0695 33.8041 11.6862 34.0216 11.2847 34.2493C9.80013 35.0916 8.06675 36.075 6.85822 37.2579C6.10796 37.9923 5.78815 38.5981 5.73698 39.0661C5.69636 39.4377 5.79031 40.0505 6.72912 40.9449C8.88714 43.0009 11.08 44.2708 13.7309 44.2708H25C25.8629 44.2708 26.5625 44.9704 26.5625 45.8333C26.5625 46.6963 25.8629 47.3958 25 47.3958H13.7309C9.9428 47.3958 7.01407 45.5326 4.57356 43.2075C3.15894 41.8597 2.45381 40.3429 2.63049 38.7266C2.79662 37.2067 3.71048 35.9661 4.67229 35.0247C6.21014 33.5194 8.45496 32.2529 9.93998 31.4151C10.2789 31.2239 10.5782 31.0551 10.8205 30.9108C14.8544 28.5088 19.4719 27.4179 24.0309 27.6301C24.893 27.6702 25.5592 28.4015 25.5191 29.2635C25.479 30.1256 24.7477 30.7918 23.8856 30.7517Z" fill="#1B8354"/>
<path fill-rule="evenodd" clip-rule="evenodd" d="M39.0623 27.0833C39.0623 26.2204 38.3627 25.5208 37.4998 25.5208C36.6368 25.5208 35.9373 26.2204 35.9373 27.0833V28.3386C34.1846 28.6548 32.6152 29.4933 31.4132 30.6881L30.0114 29.7869C29.2855 29.3202 28.3188 29.5303 27.8521 30.2562C27.3855 30.9821 27.5956 31.9489 28.3215 32.4155L29.6503 33.2698C29.2274 34.2503 28.9928 35.3279 28.9928 36.4583C28.9928 37.5889 29.2275 38.6667 29.6505 39.6473L28.3224 40.5012C27.5965 40.9678 27.3864 41.9346 27.853 42.6604C28.3197 43.3863 29.2864 43.5965 30.0123 43.1298L31.4136 42.2289C32.6155 43.4235 34.1848 44.262 35.9373 44.5781V45.8333C35.9373 46.6963 36.6368 47.3958 37.4998 47.3958C38.3627 47.3958 39.0623 46.6963 39.0623 45.8333V44.5781C40.8148 44.262 42.3841 43.4235 43.586 42.2289L44.9873 43.1298C45.7132 43.5965 46.6799 43.3863 47.1466 42.6604C47.6132 41.9346 47.4031 40.9678 46.6772 40.5012L45.3491 39.6473C45.7721 38.6667 46.0067 37.5889 46.0067 36.4583C46.0067 35.3279 45.7721 34.2503 45.3492 33.2698L46.6781 32.4155C47.404 31.9489 47.6141 30.9821 47.1474 30.2562C46.6808 29.5303 45.714 29.3202 44.9882 29.7869L43.5863 30.6881C42.3844 29.4933 40.815 28.6548 39.0623 28.3386V27.0833ZM33.0054 33.6332C33.9624 32.2518 35.6084 31.3244 37.4998 31.3244C39.3912 31.3244 41.0372 32.2518 41.9941 33.6332C42.5574 34.4463 42.8817 35.4157 42.8817 36.4583C42.8817 37.5011 42.5573 38.4706 41.9939 39.2837C41.037 40.665 39.391 41.5923 37.4998 41.5923C35.6085 41.5923 33.9626 40.665 33.0056 39.2837C32.4423 38.4706 32.1178 37.5011 32.1178 36.4583C32.1178 35.4157 32.4422 34.4463 33.0054 33.6332Z" fill="#1B8354"/>
</svg>
