<svg width="50" height="50" viewBox="0 0 50 50" fill="none" xmlns="http://www.w3.org/2000/svg">
<path fill-rule="evenodd" clip-rule="evenodd" d="M24.9998 6.77084C20.1098 6.77084 16.1456 10.735 16.1456 15.625C16.1456 20.515 20.1098 24.4792 24.9998 24.4792C29.8898 24.4792 33.854 20.515 33.854 15.625C33.854 10.735 29.8898 6.77084 24.9998 6.77084ZM19.2706 15.625C19.2706 12.4609 21.8357 9.89584 24.9998 9.89584C28.1639 9.89584 30.729 12.4609 30.729 15.625C30.729 18.7891 28.1639 21.3542 24.9998 21.3542C21.8357 21.3542 19.2706 18.7891 19.2706 15.625Z" fill="#1B8354"/>
<path d="M11.4582 10.9375C7.71879 10.9375 4.68739 13.9689 4.68739 17.7083C4.68739 21.4478 7.71879 24.4792 11.4582 24.4792C12.3212 24.4792 13.0207 23.7796 13.0207 22.9167C13.0207 22.0537 12.3212 21.3542 11.4582 21.3542C9.44468 21.3542 7.81239 19.7219 7.81239 17.7083C7.81239 15.6948 9.44468 14.0625 11.4582 14.0625C12.3212 14.0625 13.0207 13.363 13.0207 12.5C13.0207 11.6371 12.3212 10.9375 11.4582 10.9375Z" fill="#1B8354"/>
<path d="M11.9727 26.9426C11.8949 26.0831 11.1352 25.4494 10.2758 25.5272C8.32051 25.7041 6.41936 26.4563 4.74375 27.7466C4.6472 27.821 4.52003 27.9135 4.37059 28.0222C3.66083 28.5385 2.44895 29.4202 1.63226 30.454C1.11043 31.1146 0.622426 31.9791 0.534566 33.0186C0.442552 34.1072 0.807502 35.1647 1.58991 36.1287C2.78752 37.6043 4.43085 39.0625 6.72063 39.0625C7.58358 39.0625 8.28313 38.363 8.28313 37.5C8.28313 36.6371 7.58358 35.9375 6.72063 35.9375C5.88832 35.9375 5.04837 35.431 4.0163 34.1594C3.65761 33.7175 3.63512 33.4397 3.64846 33.2817C3.66596 33.0747 3.77613 32.7814 4.08442 32.3911C4.60368 31.7338 5.33157 31.1988 6.03907 30.6788C6.24652 30.5264 6.45221 30.3752 6.65038 30.2226C7.88031 29.2755 9.22336 28.7602 10.5573 28.6395C11.4168 28.5617 12.0504 27.802 11.9727 26.9426Z" fill="#1B8354"/>
<path d="M37.4998 10.9375C36.6369 10.9375 35.9373 11.6371 35.9373 12.5C35.9373 13.363 36.6369 14.0625 37.4998 14.0625C39.5133 14.0625 41.1456 15.6948 41.1456 17.7083C41.1456 19.7219 39.5133 21.3542 37.4998 21.3542C36.6369 21.3542 35.9373 22.0537 35.9373 22.9167C35.9373 23.7796 36.6369 24.4792 37.4998 24.4792C41.2392 24.4792 44.2706 21.4478 44.2706 17.7083C44.2706 13.9689 41.2392 10.9375 37.4998 10.9375Z" fill="#1B8354"/>
<path d="M39.7239 25.5272C38.8645 25.4494 38.1047 26.0831 38.027 26.9426C37.9492 27.802 38.5829 28.5617 39.4423 28.6395C40.7763 28.7602 42.1194 29.2755 43.3493 30.2226C43.5474 30.3751 43.7531 30.5263 43.9605 30.6787C44.668 31.1987 45.396 31.7338 45.9153 32.3911C46.2235 32.7814 46.3337 33.0747 46.3512 33.2817C46.3646 33.4397 46.3421 33.7175 45.9834 34.1594C44.9513 35.431 44.1114 35.9375 43.279 35.9375C42.4161 35.9375 41.7165 36.6371 41.7165 37.5C41.7165 38.363 42.4161 39.0625 43.279 39.0625C45.5688 39.0625 47.2122 37.6043 48.4098 36.1287C49.1922 35.1647 49.5571 34.1072 49.4651 33.0186C49.3773 31.9791 48.8893 31.1146 48.3674 30.454C47.5507 29.4202 46.3391 28.5387 45.6293 28.0224C45.4799 27.9137 45.3525 27.821 45.2559 27.7466C43.5803 26.4563 41.6792 25.7041 39.7239 25.5272Z" fill="#1B8354"/>
<path fill-rule="evenodd" clip-rule="evenodd" d="M16.0196 30.1527C21.515 26.7547 28.4852 26.7547 33.9806 30.1527C34.1426 30.2528 34.3477 30.3729 34.5834 30.5108C35.6506 31.1353 37.345 32.1268 38.501 33.3018C39.2271 34.0399 39.9513 35.046 40.0833 36.3004C40.2246 37.6424 39.655 38.8845 38.5684 39.9596C36.7734 41.7355 34.5498 43.2292 31.6342 43.2292H18.366C15.4505 43.2292 13.2269 41.7355 11.4318 39.9596C10.3452 38.8845 9.77562 37.6424 9.91688 36.3004C10.0489 35.046 10.7731 34.0399 11.4992 33.3018C12.6552 32.1268 14.3494 31.1354 15.4166 30.5109C15.6524 30.373 15.8576 30.2529 16.0196 30.1527ZM32.3371 32.8106C27.8489 30.0354 22.1513 30.0354 17.6631 32.8106C17.3937 32.9772 17.1048 33.1475 16.8068 33.3233C15.7404 33.9521 14.5565 34.6502 13.7268 35.4934C13.2164 36.0122 13.0496 36.3909 13.0247 36.6275C13.009 36.7765 13.0165 37.1315 13.6297 37.7381C15.1558 39.2479 16.6311 40.1042 18.366 40.1042H31.6342C33.3691 40.1042 34.8444 39.2479 36.3706 37.7381C36.9837 37.1315 36.9912 36.7765 36.9755 36.6275C36.9506 36.3909 36.7838 36.0122 36.2734 35.4934C35.4437 34.6502 34.2599 33.9521 33.1935 33.3233C32.8954 33.1476 32.6065 32.9772 32.3371 32.8106Z" fill="#1B8354"/>
</svg>
