<svg width="50" height="50" viewBox="0 0 50 50" fill="none" xmlns="http://www.w3.org/2000/svg">
<path d="M20.3125 29.1667C20.3125 28.3037 19.6129 27.6042 18.75 27.6042C17.887 27.6042 17.1875 28.3037 17.1875 29.1667C17.1875 32.3308 19.7525 34.8958 22.9166 34.8958H27.0833C30.2474 34.8958 32.8125 32.3308 32.8125 29.1667C32.8125 28.3037 32.1129 27.6042 31.25 27.6042C30.387 27.6042 29.6875 28.3037 29.6875 29.1667C29.6875 30.6049 28.5215 31.7708 27.0833 31.7708H22.9166C21.4784 31.7708 20.3125 30.6049 20.3125 29.1667Z" fill="#1B8354"/>
<path fill-rule="evenodd" clip-rule="evenodd" d="M20.725 2.60416H29.275C31.1468 2.6041 32.7077 2.60405 33.9468 2.77065C35.2547 2.94649 36.4355 3.3333 37.3844 4.2822C38.3333 5.23109 38.7201 6.41193 38.896 7.71983C39.0343 8.74845 39.0577 9.99879 39.0617 11.4647C39.2208 11.5268 39.3775 11.5967 39.5322 11.6755C40.8062 12.3246 41.842 13.3604 42.4911 14.6344C42.9059 15.4485 43.0741 16.3201 43.153 17.2853C43.2263 18.1832 43.229 19.2805 43.2291 20.6134L43.2523 20.628C44.3786 21.3356 45.331 22.288 46.0387 23.4143C46.7801 24.5942 47.0977 25.9209 47.2488 27.4784C47.3958 28.9945 47.3958 30.8846 47.3958 33.2519V33.4147C47.3958 35.7821 47.3958 37.6722 47.2488 39.1883C47.0977 40.7457 46.7801 42.0724 46.0387 43.2524C45.331 44.3786 44.3786 45.331 43.2523 46.0387C42.0724 46.7801 40.7457 47.0978 39.1882 47.2488C37.6721 47.3959 35.782 47.3958 33.4147 47.3958H16.5852C14.2179 47.3958 12.3278 47.3959 10.8117 47.2488C9.25421 47.0978 7.92751 46.7801 6.74759 46.0387C5.62131 45.331 4.66895 44.3786 3.96126 43.2524C3.21987 42.0724 2.90218 40.7457 2.75113 39.1883C2.60409 37.6722 2.60411 35.782 2.60413 33.4147V33.252C2.60411 30.8846 2.60409 28.9945 2.75113 27.4784C2.90218 25.9209 3.21987 24.5942 3.96126 23.4143C4.66895 22.288 5.62131 21.3356 6.74759 20.628L6.7708 20.6134C6.77088 19.2805 6.77357 18.1832 6.84694 17.2853C6.9258 16.3201 7.094 15.4485 7.50877 14.6344C8.15791 13.3604 9.19372 12.3246 10.4677 11.6755C10.6224 11.5967 10.7792 11.5267 10.9382 11.4647C10.9422 9.99879 10.9657 8.74845 11.1039 7.71983C11.2798 6.41193 11.6666 5.23109 12.6155 4.2822C13.5644 3.3333 14.7452 2.94649 16.0531 2.77065C17.2922 2.60405 18.8532 2.6041 20.725 2.60416ZM35.7988 8.13623C35.8963 8.86095 35.9253 9.76344 35.9339 10.9619C35.1999 10.9375 34.3592 10.9375 33.3987 10.9375H16.6012C15.6407 10.9375 14.8 10.9375 14.0661 10.9619C14.0747 9.76344 14.1036 8.86095 14.2011 8.13623C14.3303 7.17485 14.5537 6.7634 14.8252 6.49191C15.0967 6.22041 15.5082 5.99703 16.4695 5.86778C17.4759 5.73248 18.8249 5.72916 20.8333 5.72916H29.1666C31.175 5.72916 32.5241 5.73248 33.5304 5.86778C34.4918 5.99703 34.9032 6.22041 35.1747 6.49191C35.4462 6.7634 35.6696 7.17485 35.7988 8.13623ZM40.1016 19.5314C40.0967 18.7139 40.082 18.0744 40.0384 17.5397C39.9753 16.7679 39.8597 16.3532 39.7068 16.0532C39.3572 15.3671 38.7995 14.8094 38.1135 14.4599C37.8134 14.307 37.3988 14.1913 36.6269 14.1283C35.8368 14.0637 34.8175 14.0625 33.3333 14.0625H16.6666C15.1824 14.0625 14.1632 14.0637 13.373 14.1283C12.6012 14.1913 12.1865 14.307 11.8865 14.4599C11.2004 14.8094 10.6427 15.3671 10.2932 16.0532C10.1403 16.3532 10.0246 16.7679 9.96156 17.5397C9.91788 18.0744 9.9032 18.7139 9.89828 19.5314C10.1938 19.4854 10.4981 19.4482 10.8117 19.4178C12.3278 19.2708 14.2179 19.2708 16.5853 19.2708H33.4147C35.782 19.2708 37.6721 19.2708 39.1882 19.4178C39.5018 19.4482 39.8061 19.4854 40.1016 19.5314ZM8.41019 23.274C9.00898 22.8977 9.78981 22.6566 11.1133 22.5282C12.4609 22.3975 14.1994 22.3958 16.6666 22.3958H33.3333C35.8005 22.3958 37.539 22.3975 38.8866 22.5282C40.2101 22.6566 40.9909 22.8977 41.5897 23.274C42.3185 23.7319 42.9347 24.3481 43.3926 25.0769C43.7689 25.6757 44.01 26.4565 44.1384 27.78C44.2691 29.1276 44.2708 30.8661 44.2708 33.3333C44.2708 35.8006 44.2691 37.539 44.1384 38.8866C44.01 40.2101 43.7689 40.991 43.3927 41.5898C42.9347 42.3185 42.3185 42.9348 41.5897 43.3927C40.9909 43.7689 40.2101 44.0101 38.8866 44.1384C37.539 44.2691 35.8005 44.2708 33.3333 44.2708H16.6666C14.1994 44.2708 12.4609 44.2691 11.1133 44.1384C9.78981 44.0101 9.00898 43.7689 8.41019 43.3927C7.68142 42.9348 7.06519 42.3185 6.60727 41.5898C6.23103 40.991 5.9899 40.2101 5.86154 38.8866C5.73084 37.539 5.72913 35.8006 5.72913 33.3333C5.72913 30.8661 5.73084 29.1276 5.86154 27.78C5.9899 26.4565 6.23103 25.6757 6.60727 25.0769C7.06519 24.3481 7.68142 23.7319 8.41019 23.274Z" fill="#1B8354"/>
</svg>
