<?xml version="1.0" encoding="UTF-8"?>
<svg id="Layer_1" data-name="Layer 1" xmlns="http://www.w3.org/2000/svg" viewBox="0 0 518.72 347.03">
  <defs>
    <style>
      .cls-1 {
        fill: #fff;
      }
    </style>
  </defs>
  <g>
    <rect class="cls-1" x="305.58" y="6.3" width="5.84" height="5.82"/>
    <rect class="cls-1" x="426.89" y="78.68" width="5.84" height="5.82"/>
    <path class="cls-1" d="M497.8,72.44c1.43-.68,2.59-1.66,3.47-2.95.88-1.28,1.49-2.84,1.85-4.65.36-1.82.54-3.87.54-6.14V17.94h-5.84v40.76c0,1.64-.08,3.04-.25,4.18s-.46,2.06-.88,2.77c-.42.7-.98,1.21-1.67,1.53-.71.32-1.62.47-2.73.47-.53,0-1-.03-1.38-.07-.39-.04-.92-.17-1.6-.36l-1.53,5.6c1.6.45,3.19.65,4.74.65,2.08-.01,3.84-.35,5.28-1.03Z"/>
    <path class="cls-1" d="M477.74,7.62h-8.01v-1.35c0-.74.15-1.31.47-1.71.26-.33.89-.5,1.8-.5h4.01V0h-4.11c-2.23,0-3.97.59-5.14,1.74-1.18,1.16-1.78,3.05-1.78,5.6v4.75h12.77v-4.47h-.01Z"/>
    <rect class="cls-1" x="415.22" y="78.68" width="5.84" height="5.82"/>
    <rect class="cls-1" x="317.25" y="6.3" width="5.84" height="5.82"/>
    <path class="cls-1" d="M451.46,52.83c2.21,1.57,4.78,2.74,7.69,3.5s6,1.13,9.26,1.13h1.55l1.96-4.11v5.78c0,3.05-.88,5.24-2.62,6.55-1.76,1.31-4.21,1.96-7.37,1.96-1.8,0-3.41-.17-4.85-.52-1.43-.33-3.08-.92-4.92-1.74l-1.82,5.6c2.23.82,4.22,1.45,5.95,1.85,1.73.42,3.47.61,5.21.61,5.68,0,9.82-1.35,12.4-4.04,2.58-2.7,3.86-6.32,3.86-10.88V17.94h-9.33c-3.59,0-6.88.52-9.85,1.53-2.97,1.02-5.5,2.41-7.62,4.18-2.12,1.77-3.76,3.89-4.92,6.34-1.17,2.45-1.76,5.11-1.76,7.97,0,3.44.64,6.39,1.94,8.84,1.27,2.44,3.02,4.46,5.24,6.03ZM451.46,32.2c.89-1.74,2.09-3.23,3.57-4.47s3.18-2.19,5.07-2.87c1.84-.65,3.75-.99,5.72-1h0s9.43-.01,9.43-.01l-3.33,1.66v26.14h-5.91c-2.19,0-4.23-.31-6.16-.92-1.92-.6-3.61-1.49-5.07-2.66-1.46-1.17-2.6-2.59-3.43-4.29s-1.24-3.64-1.24-5.82c-.01-2.09.43-4.01,1.34-5.75Z"/>
    <path class="cls-1" d="M307.17,72.65h12.12v-4.36c.11.21.24.42.36.6.88,1.28,2.03,2.27,3.47,2.95,1.43.68,3.19,1.02,5.28,1.02h106.35V17.94h-5.84v49.11h-100.3c-1.11,0-2.03-.15-2.73-.47-.7-.32-1.27-.82-1.67-1.53-.4-.71-.7-1.63-.88-2.77-.17-1.14-.25-2.54-.25-4.18V17.94h-15.77c-16.13,0-27.11,12.77-27.11,27.36v.15c.01,14.58,10.84,27.2,26.97,27.2ZM286.43,45.14c0-12.02,8.64-21.69,20.74-21.69h13.65l-3.58,1.78v32.86c0,2.28.18,4.33.54,6.14.21,1.06.52,2.02.91,2.9h-11.38c-12.12,0-20.89-9.82-20.89-21.84v-.15h.01Z"/>
    <polygon class="cls-1" points="251.04 58.19 253.59 64.91 216.54 17.87 210.76 17.87 210.76 72.54 216.77 72.54 216.77 31.34 213.35 23.37 252.14 72.54 257.07 72.54 257.07 17.87 251.04 17.87 251.04 58.19"/>
    <path class="cls-1" d="M334.11,159.87l33.62-32.05v-21.98h-89.87v25.03h46.08l17.09-10.98-42.66,42.83,4.57,18.58h12.16c16.34,0,26.03,6.07,26.03,16.88v.38c0,9.86-7.79,16.12-18.8,16.12-13.48,0-22.98-5.68-32.11-15.93l-20.14,19.15c11.39,13.47,27.93,22.94,51.87,22.94,29.64,0,47.87-18.4,47.87-43.43v-.38c.01-24.64-17.66-34.13-35.71-37.16Z"/>
    <path class="cls-1" d="M172.79,16.94c-16.66,0-28.01,13.19-28.01,28.28v.15c0,15.07,11.18,28.11,27.86,28.11s28.01-13.19,28.01-28.26v-.15c-.01-15.08-11.2-28.12-27.86-28.12ZM194.22,45.37c0,12.41-8.91,22.41-21.44,22.41s-21.59-10.15-21.59-22.56v-.15c0-12.41,8.93-22.41,21.44-22.41s21.59,10.15,21.59,22.56v.15Z"/>
    <path class="cls-1" d="M448.24,103.56c-41.03,0-70.87,30.91-70.87,68.64v.38c0,37.73,29.45,68.26,70.48,68.26s70.87-30.91,70.87-68.64v-.38c.01-37.73-29.45-68.26-70.48-68.26ZM488.15,172.58c0,22.76-16.34,41.34-39.91,41.34s-40.28-18.96-40.28-41.72v-.38c0-22.76,16.34-41.34,39.89-41.34s40.28,18.96,40.28,41.72v.38h.01Z"/>
    <rect class="cls-1" x="127.92" y="17.87" width="6.18" height="54.66"/>
    <path class="cls-1" d="M28.64,223.4l5.64-4.35,29.07-22.4c23.55-18.2,34.96-29.19,34.96-51.38v-.38c0-24.85-18.23-40.96-45.78-40.96-23.75,0-36.48,9.67-49.59,27.5l20.52,16.49c9.88-12.13,16.91-17.81,27.17-17.81s17.86,6.07,17.86,17.26-6.46,18.2-22.98,31.86L1.24,215.44v23.14h98.42v-25.22h-50.71l-20.31,10.06Z"/>
    <polygon class="cls-1" points="29.04 72.93 52.58 17.87 45.94 17.87 27.33 62.68 27.91 68.7 26.38 64.96 10.27 26.02 6.89 17.87 .01 17.87 23.57 72.93 29.04 72.93"/>
    <rect class="cls-1" x="60.98" y="17.87" width="6.18" height="54.66"/>
    <path class="cls-1" d="M99.9,42.23c-12.05-2.58-14.86-5.46-14.86-10.61v-.15c0-4.92,4.54-8.82,11.66-8.82,5.63,0,10.73,1.8,15.81,5.93l3.59-4.76c-5.56-4.46-11.27-6.71-19.25-6.71-10.4,0-18,6.32-18,14.92v.15c0,8.98,5.79,13.04,18.39,15.78,11.51,2.42,14.24,5.31,14.24,10.39v.15c0,5.39-4.85,9.29-12.2,9.29s-13.07-2.58-18.78-7.73l-3.83,4.53c6.57,5.86,13.69,8.75,22.37,8.75,10.88,0,18.69-6.09,18.69-15.46v-.15c0-8.37-5.63-12.83-17.83-15.49Z"/>
  </g>
  <polygon class="cls-1" points="179.12 94.83 185.86 101.28 179.4 108 172.66 101.55 179.12 94.83"/>
  <polygon class="cls-1" points="194.54 101.55 201.27 108 207.73 101.28 201.01 94.83 194.54 101.55"/>
  <polygon class="cls-1" points="185.06 110.02 190.31 115.05 195.34 109.81 190.09 104.79 185.06 110.02"/>
  <polygon class="cls-1" points="204.29 112.89 209.53 117.92 214.56 112.68 209.32 107.67 204.29 112.89"/>
  <polygon class="cls-1" points="176.48 118.02 181.73 123.05 186.76 117.81 181.52 112.79 176.48 118.02"/>
  <polygon class="cls-1" points="194.08 118.63 199.32 123.66 204.35 118.42 199.11 113.39 194.08 118.63"/>
  <polygon class="cls-1" points="187.2 124.65 190.88 128.19 194.43 124.51 190.74 120.97 187.2 124.65"/>
  <polygon class="cls-1" points="201.12 127.43 204.79 130.96 208.35 127.28 204.65 123.74 201.12 127.43"/>
  <rect class="cls-1" x="232.49" y="98.29" width="11.63" height="11.62" transform="translate(-14.86 44.67) rotate(-10.39)"/>
  <rect class="cls-1" x="217.45" y="103.23" width="9.33" height="9.32" transform="translate(-15.8 41.77) rotate(-10.38)"/>
  <rect class="cls-1" x="235.07" y="116.1" width="9.33" height="9.32" transform="translate(-17.85 45.23) rotate(-10.39)"/>
  <rect class="cls-1" x="222.31" y="117.56" width="7.27" height="7.26" transform="translate(-18.14 42.7) rotate(-10.38)"/>
  <rect class="cls-1" x="236.23" y="131.11" width="7.27" height="7.26" transform="translate(-20.35 45.43) rotate(-10.38)"/>
  <rect class="cls-1" x="211.62" y="120.47" width="7.27" height="7.26" transform="translate(-18.84 40.82) rotate(-10.38)"/>
  <rect class="cls-1" x="224.6" y="129.82" width="7.27" height="7.26" transform="translate(-20.31 43.31) rotate(-10.38)"/>
  <rect class="cls-1" x="215.24" y="130.9" width="5.11" height="5.1" transform="translate(-20.49 41.46) rotate(-10.39)"/>
  <rect class="cls-1" x="224.9" y="141.28" width="5.11" height="5.1" transform="translate(-22.15 43.24) rotate(-10.36)"/>
  <polygon class="cls-1" points="265.54 136.84 260.54 147.32 271.04 152.31 276.04 141.84 265.54 136.84"/>
  <polygon class="cls-1" points="250.62 131.99 246.61 140.4 255.04 144.41 259.05 136 250.62 131.99"/>
  <polygon class="cls-1" points="257.51 152.71 253.5 161.13 261.94 165.13 265.96 156.73 257.51 152.71"/>
  <polygon class="cls-1" points="246.47 146.4 243.35 152.97 249.91 156.07 253.04 149.52 246.47 146.4"/>
  <polygon class="cls-1" points="249.81 165.53 246.68 172.08 253.24 175.2 256.37 168.64 249.81 165.53"/>
  <polygon class="cls-1" points="236.08 142.5 232.96 149.07 239.52 152.17 242.65 145.62 236.08 142.5"/>
  <polygon class="cls-1" points="241.13 157.66 238.01 164.22 244.57 167.33 247.69 160.78 241.13 157.66"/>
  <polygon class="cls-1" points="233.24 153.05 231.04 157.66 235.66 159.85 237.85 155.24 233.24 153.05"/>
  <rect class="cls-1" x="233.69" y="168.04" width="5.1" height="5.11" transform="translate(-19.31 310.61) rotate(-64.55)"/>
  <polygon class="cls-1" points="271.19 187.06 261 192.63 266.6 202.82 276.79 197.24 271.19 187.06"/>
  <polygon class="cls-1" points="261.94 174.42 253.75 178.9 258.25 187.06 266.43 182.58 261.94 174.42"/>
  <polygon class="cls-1" points="255.38 195.25 247.21 199.74 251.69 207.9 259.88 203.42 255.38 195.25"/>
  <polygon class="cls-1" points="250.13 183.68 243.75 187.17 247.25 193.53 253.63 190.04 250.13 183.68"/>
  <polygon class="cls-1" points="241.62 201.13 235.26 204.63 238.75 210.98 245.12 207.5 241.62 201.13"/>
  <polygon class="cls-1" points="243.99 174.46 237.62 177.94 241.11 184.31 247.49 180.81 243.99 174.46"/>
  <polygon class="cls-1" points="239.2 189.7 232.82 193.18 236.31 199.54 242.69 196.05 239.2 189.7"/>
  <polygon class="cls-1" points="235.51 181.34 231.02 183.79 233.49 188.26 237.96 185.81 235.51 181.34"/>
  <polygon class="cls-1" points="228.68 193.76 224.2 196.21 226.66 200.69 231.15 198.23 228.68 193.76"/>
  <rect class="cls-1" x="234.14" y="230.43" width="11.62" height="11.63" transform="translate(-23.94 445.42) rotate(-82.96)"/>
  <rect class="cls-1" x="236.34" y="214.8" width="9.32" height="9.33" transform="translate(-6.44 431.64) rotate(-82.93)"/>
  <rect class="cls-1" x="218.8" y="227.87" width="9.32" height="9.33" transform="translate(-34.8 425.71) rotate(-82.93)"/>
  <rect class="cls-1" x="223.48" y="215.46" width="7.26" height="7.27" transform="translate(-18.19 417.6) rotate(-82.95)"/>
  <rect class="cls-1" x="206.36" y="224.63" width="7.26" height="7.27" transform="translate(-42.33 408.66) rotate(-82.95)"/>
  <rect class="cls-1" x="223.95" y="204.49" width="7.26" height="7.27" transform="translate(-6.96 408.37) rotate(-82.93)"/>
  <rect class="cls-1" x="211.13" y="214.05" width="7.26" height="7.27" transform="translate(-27.69 404.03) rotate(-82.93)"/>
  <rect class="cls-1" x="215.3" y="205.18" width="5.1" height="5.11" transform="translate(-15.07 398.42) rotate(-82.95)"/>
  <rect class="cls-1" x="202.54" y="211.24" width="5.1" height="5.11" transform="translate(-32.26 391.1) rotate(-82.95)"/>
  <polygon class="cls-1" points="200.39 252.28 191.87 244.38 183.94 252.89 192.47 260.79 200.39 252.28"/>
  <polygon class="cls-1" points="198.82 89.62 190.29 81.72 182.37 90.23 190.91 98.13 198.82 89.62"/>
  <polygon class="cls-1" points="209.49 239.53 202.65 233.19 196.3 240.02 203.14 246.36 209.49 239.53"/>
  <polygon class="cls-1" points="187.62 239.89 180.77 233.56 174.42 240.38 181.27 246.72 187.62 239.89"/>
  <polygon class="cls-1" points="196.95 231.27 191.63 226.33 186.69 231.65 192.01 236.58 196.95 231.27"/>
  <polygon class="cls-1" points="177.67 228.71 172.35 223.78 167.41 229.09 172.74 234.03 177.67 228.71"/>
  <polygon class="cls-1" points="203.79 222.54 198.47 217.61 193.53 222.92 198.85 227.86 203.79 222.54"/>
  <polygon class="cls-1" points="187.79 222.8 182.47 217.87 177.52 223.18 182.84 228.12 187.79 222.8"/>
  <polygon class="cls-1" points="194.57 216.68 190.82 213.19 187.34 216.94 191.09 220.41 194.57 216.68"/>
  <polygon class="cls-1" points="180.61 214.13 176.87 210.66 173.38 214.39 177.13 217.86 180.61 214.13"/>
  <rect class="cls-1" x="138.04" y="232.26" width="11.63" height="11.62" transform="translate(-43.98 32.91) rotate(-11.33)"/>
  <rect class="cls-1" x="155.46" y="229.29" width="9.33" height="9.32" transform="translate(-42.83 36.01) rotate(-11.33)"/>
  <rect class="cls-1" x="137.36" y="216.9" width="9.33" height="9.32" transform="translate(-40.81 32.26) rotate(-11.34)"/>
  <rect class="cls-1" x="152.39" y="217.09" width="7.27" height="7.26" transform="translate(-40.31 34.94) rotate(-11.33)"/>
  <rect class="cls-1" x="163.05" y="214" width="7.27" height="7.26" transform="translate(-39.5 36.98) rotate(-11.33)"/>
  <rect class="cls-1" x="149.92" y="204.89" width="7.27" height="7.26" transform="translate(-37.96 34.22) rotate(-11.33)"/>
  <rect class="cls-1" x="161.16" y="205.8" width="5.11" height="5.1" transform="translate(-37.7 36.17) rotate(-11.31)"/>
  <rect class="cls-1" x="151.35" y="195.59" width="5.11" height="5.1" transform="translate(-35.97 34.14) rotate(-11.34)"/>
  <polygon class="cls-1" points="116.04 205.78 120.87 195.21 110.27 190.41 105.45 200.96 116.04 205.78"/>
  <polygon class="cls-1" points="131.04 210.38 134.9 201.91 126.42 198.04 122.54 206.52 131.04 210.38"/>
  <polygon class="cls-1" points="123.8 189.78 127.67 181.3 119.17 177.44 115.3 185.92 123.8 189.78"/>
  <rect class="cls-1" x="129.61" y="187.45" width="7.26" height="7.27" transform="translate(-95.9 233.04) rotate(-65.49)"/>
  <polygon class="cls-1" points="143.8 212.41 146.81 205.81 140.19 202.8 137.18 209.4 143.8 212.41"/>
  <rect class="cls-1" x="125.84" y="168.46" width="7.26" height="7.27" transform="translate(-80.84 218.44) rotate(-65.47)"/>
  <rect class="cls-1" x="139.93" y="191.25" width="7.26" height="7.27" transform="translate(-93.34 244.6) rotate(-65.47)"/>
  <rect class="cls-1" x="134.64" y="176" width="7.26" height="7.27" transform="translate(-82.57 230.79) rotate(-65.45)"/>
  <polygon class="cls-1" points="148.06 189.04 150.19 184.4 145.54 182.29 143.41 186.94 148.06 189.04"/>
  <polygon class="cls-1" points="146.08 175.03 148.2 170.38 143.55 168.26 141.43 172.91 146.08 175.03"/>
  <polygon class="cls-1" points="109.55 155.67 119.66 149.91 113.9 139.83 103.78 145.58 109.55 155.67"/>
  <polygon class="cls-1" points="119.01 168.15 127.13 163.54 122.49 155.44 114.38 160.06 119.01 168.15"/>
  <polygon class="cls-1" points="125.22 147.21 133.33 142.6 128.7 134.51 120.59 139.12 125.22 147.21"/>
  <polygon class="cls-1" points="130.67 158.69 136.98 155.1 133.38 148.8 127.07 152.39 130.67 158.69"/>
  <polygon class="cls-1" points="138.88 141.11 145.19 137.52 141.6 131.21 135.28 134.8 138.88 141.11"/>
  <polygon class="cls-1" points="136.96 167.81 143.27 164.22 139.68 157.92 133.35 161.52 136.96 167.81"/>
  <polygon class="cls-1" points="141.5 152.51 147.81 148.91 144.22 142.6 137.89 146.21 141.5 152.51"/>
  <polygon class="cls-1" points="145.33 160.79 149.78 158.27 147.24 153.84 142.8 156.36 145.33 160.79"/>
  <polygon class="cls-1" points="151.95 148.27 156.39 145.74 153.86 141.31 149.41 143.83 151.95 148.27"/>
  <rect class="cls-1" x="134.24" y="100.16" width="11.62" height="11.63" transform="translate(19.78 233.97) rotate(-83.9)"/>
  <rect class="cls-1" x="134.49" y="118" width="9.32" height="9.33" transform="translate(2.37 247.98) rotate(-83.89)"/>
  <rect class="cls-1" x="151.81" y="104.66" width="9.32" height="9.33" transform="translate(31.12 253.27) rotate(-83.89)"/>
  <rect class="cls-1" x="149.31" y="119.12" width="7.26" height="7.27" transform="translate(14.59 261.75) rotate(-83.89)"/>
  <rect class="cls-1" x="166.42" y="109.82" width="7.26" height="7.27" transform="translate(39.19 270.51) rotate(-83.91)"/>
  <rect class="cls-1" x="149.12" y="130.21" width="7.26" height="7.27" transform="translate(3.4 271.47) rotate(-83.89)"/>
  <rect class="cls-1" x="161.78" y="120.43" width="7.26" height="7.27" transform="translate(24.43 275.33) rotate(-83.89)"/>
  <rect class="cls-1" x="159.93" y="131.41" width="5.1" height="5.11" transform="translate(11.99 281.27) rotate(-83.89)"/>
  <rect class="cls-1" x="172.61" y="125.21" width="5.1" height="5.11" transform="translate(29.58 288.43) rotate(-83.93)"/>
  <path class="cls-1" d="M227.29,178.39c-.86-.49-2.44-1.31-4.61-1.99-3.13-1-7.51-1.76-12.69-.93-1.74.28-3.58.74-5.49,1.42-.18.07-.36.13-.54.2-.97.36-1.94.81-2.91,1.3-.82.42-1.66.88-2.48,1.38-1.88,1.13-3.73,2.41-5.53,3.8-2.05-12.38-1.04-23.87-.57-29.51,0-.03.04-.04.07-.03,4.39,2.76,3.16,10.46,2.23,12.68-.01.04.04.07.08.04,5.46-6.45,2.8-13.58,1.67-15.38-.03-.04.03-.08.07-.06.79.64,1.43,1.32,1.98,2.02,1.69,2.16,2.31,4.49,2.48,6.55.08,1.09.06,2.09,0,2.95-.01.24-.03.45-.06.65,0,.03.03.04.06.03.01,0,.03,0,.03-.01,1.48-2.9,2.19-7.27-.03-11.52-.6-1.16-1.41-2.3-2.48-3.4-.31-.32-.64-.63-.99-.95-.03-.03,0-.08.04-.07.33.08.64.18.95.28.93.32,1.76.77,2.48,1.31,1.66,1.23,2.79,2.9,3.45,4.65.56,1.45.81,2.94.81,4.26,0,.06.07.06.08.01,1.03-3.77.4-6.63-.89-8.71-.92-1.49-2.19-2.58-3.45-3.34-.86-.52-1.73-.88-2.48-1.1-.45-.14-.84-.22-1.18-.26-.06,0-.04-.08.01-.08.4-.04.79-.06,1.17-.07.92-.01,1.74.07,2.48.2,1.46.28,2.6.78,3.45,1.37,1.39.93,2.09,2.03,2.33,2.48.03.04.08.01.08-.03-.2-1.99-1.11-3.55-2.4-4.67-.99-.86-2.2-1.46-3.45-1.82-.82-.22-1.66-.35-2.48-.36-1.11-.01-2.19.17-3.09.56-.04.01-.07-.03-.06-.07.81-1.16,1.95-1.85,3.15-2.23.84-.25,1.69-.35,2.48-.29.77.04,1.46.21,2.03.47.04.01.07-.03.04-.07-.63-.71-1.34-1.27-2.08-1.69-.79-.45-1.63-.71-2.48-.81-2.21-.25-4.47.7-5.98,2.97-.01.03-.06.03-.07,0-.29-.52-.57-1.09-.82-1.69-.6-1.39-1.09-2.95-1.35-4.51-.01-.06-.07-.06-.07,0-.26,1.56-.77,3.13-1.36,4.53-.26.6-.53,1.16-.82,1.66-.01.03-.06.03-.07,0-2.62-3.97-7.54-3.89-10.53-.46-.03.03,0,.08.04.07,1.99-.95,5.77-.67,7.66,2.05.03.04-.01.08-.06.07-2.91-1.23-7.42-.43-9.83,2.44-.86,1.02-1.45,2.31-1.6,3.86,0,.04.06.07.08.03.18-.35.65-1.1,1.52-1.87,1.41-1.24,3.86-2.49,7.91-2.12.06.01.06.08.01.08-2.08.25-6.35,2.1-7.93,6.34-.7,1.87-.88,4.21-.1,7.08.01.04.08.04.08-.01,0-.07,0-.13.01-.2.04-3.84,2.24-9,7.69-10.31.04-.01.07.04.04.07-6.09,5.35-5.49,11.95-3.5,15.85.03.04.08.03.08-.01-.26-2.95-.47-8.2,4.4-12.17.04-.03.1.01.07.06-1.13,1.81-3.79,8.93,1.67,15.38.03.04.1.01.08-.04-.92-2.2-2.15-9.92,2.23-12.68.03-.01.07,0,.07.03.47,5.64,1.48,17.13-.57,29.51-3.52-2.7-7.24-5.07-10.92-6.46-.46-.17-.91-.32-1.34-.47-3.8-1.25-7.28-1.6-10.32-1.46-4.88.21-8.61,1.67-10.66,2.69-.42.21-.77.4-1.03.56-.11.07-.03.22.08.18.32-.1.63-.2.95-.28,3.75-1.06,7.3-1.34,10.66-1.04,3.66.32,7.1,1.32,10.32,2.77,4.51,2.03,8.59,4.93,12.29,8-5.21,4.54-9.61,8.96-12.29,10.5-.14.07-.26.15-.39.22-.64-.88-1.76-1.38-2.97-1.11-1.06.24-1.92,1.09-2.16,2.13-.21.93.03,1.95.56,2.48,1.42,1.42,3.06,1.52,4.96.72,3.61-1.52,8.09-6.28,13.59-11.32.46-.42.92-.85,1.39-1.27.47.42.93.84,1.39,1.25,2.49,2.28,4.78,4.51,6.87,6.41.86.78,1.69,1.5,2.48,2.15,1.23,1,2.38,1.82,3.45,2.4,2.1,1.11,3.93,1.25,5.49-.13.08-.07.17-.14.25-.22.36-.36.78-1.55.56-2.48-.13-.54-.42-1.03-.82-1.41-.36-.35-.84-.61-1.34-.72-1.21-.26-2.33.24-2.97,1.11-.36-.18-.75-.43-1.18-.72-.99-.68-2.15-1.64-3.45-2.79-.78-.68-1.6-1.43-2.48-2.23-1.7-1.55-3.57-3.25-5.54-4.99,1.76-1.46,3.61-2.88,5.54-4.19.81-.54,1.63-1.07,2.48-1.57,1.13-.67,2.27-1.28,3.45-1.85,1.77-.85,3.59-1.56,5.49-2.1,3.93-1.13,8.15-1.5,12.69-.78,1.48.24,2.98.59,4.53,1.06.11.07.19-.08.08-.15"/>
  <g>
    <rect class="cls-1" x="27.02" y="304.87" width="3.43" height="3.43"/>
    <path class="cls-1" d="M257.72,300.92v-22.62h-3.34v19.28h-12.61v-19.28h-3.34v19.28h-13.27v-19.28h-5.25c-2.09,0-3.98.28-5.68.85-1.7.57-3.15,1.37-4.35,2.37-1.2,1.02-2.12,2.21-2.77,3.61s-.98,2.88-.98,4.5c0,1.98.38,3.66,1.13,5.08s1.76,2.58,3.01,3.5c1.25.92,2.72,1.6,4.39,2.03,1.67.45,3.43.67,5.27.67h37.8ZM215,297.04c-1.1-.36-2.06-.88-2.88-1.56s-1.46-1.52-1.94-2.49c-.47-.99-.71-2.1-.71-3.36s.26-2.28.78-3.27,1.2-1.82,2.05-2.54,1.81-1.25,2.9-1.63c1.09-.38,2.2-.56,3.34-.56h3.3v15.95h-3.3c-1.25,0-2.44-.18-3.54-.54Z"/>
    <rect class="cls-1" x="186.31" y="271.03" width="3.34" height="29.89"/>
    <rect class="cls-1" x="221.73" y="271.03" width="3.43" height="3.43"/>
    <rect class="cls-1" x="254.34" y="304.83" width="3.43" height="3.43"/>
    <rect class="cls-1" x="32.87" y="304.87" width="3.43" height="3.43"/>
    <path class="cls-1" d="M173.25,297.59h-5.46c-1.95,0-3.48-.28-4.6-.84s-1.99-1.39-2.63-2.49c.2-.86.29-1.91.29-3.12v-10.75h-3.34v11.28c0,1.92-.52,3.45-1.55,4.61s-2.59,1.73-4.68,1.73c-.97,0-1.87-.15-2.67-.46-.81-.31-1.5-.72-2.09-1.25s-1.04-1.14-1.38-1.85c-.33-.71-.52-1.46-.54-2.27v-11.78h-3.34v11.53c0,1.03-.15,1.89-.46,2.6s-.72,1.3-1.25,1.76c-.53.46-1.13.79-1.8,1s-1.38.31-2.13.31h-6.46v-17.2h-3.34v17.2h-17.52l5.84-13.96c-.89-.78-1.84-1.5-2.84-2.19-1-.68-2.03-1.28-3.09-1.8s-2.13-.92-3.22-1.21c-1.09-.29-2.16-.43-3.22-.43s-2.17.15-3.26.43c-1.09.29-2.16.68-3.23,1.18-1.07.5-2.1,1.1-3.09,1.8s-1.91,1.42-2.77,2.2l5.88,13.96h-11.56v-19.28h-5.33c-2.06,0-3.94.29-5.64.88-1.7.59-3.15,1.38-4.36,2.4-1.21,1.02-2.15,2.23-2.81,3.62-.67,1.41-1,2.93-1,4.57,0,1.98.36,3.66,1.1,5.06.74,1.41,1.74,2.56,3.01,3.45,1.27.91,2.73,1.57,4.4,1.99,1.67.43,3.44.64,5.31.64h2.01v.96c0,1.76-.5,2.99-1.5,3.75s-2.41,1.13-4.22,1.13c-1.03,0-1.95-.1-2.77-.29-.82-.2-1.76-.53-2.81-1l-1.04,3.2c1.28.47,2.41.82,3.4,1.06s1.98.36,2.98.36c3.26,0,5.61-.77,7.09-2.31,1.48-1.55,2.21-3.62,2.21-6.23v-.63h51.87c1.62,0,3.05-.35,4.32-1.04s2.28-1.63,3.06-2.79c.81,1.34,1.91,2.38,3.3,3.12,1.39.75,3.05,1.13,4.97,1.13s3.71-.35,5.11-1.04,2.48-1.76,3.23-3.2c.28.47.61.93,1.02,1.39s.92.86,1.56,1.23,1.42.65,2.31.88c.68.17,1.5.25,2.4.29v.04h9.64v-29.89h-3.34v26.58h.08ZM80.42,297.59h-3.38c-1.25,0-2.42-.17-3.52-.52s-2.06-.85-2.9-1.52-1.49-1.49-1.96-2.45c-.47-.98-.71-2.09-.71-3.33s.25-2.28.77-3.29c.52-1,1.2-1.85,2.05-2.56s1.81-1.25,2.9-1.64c1.09-.39,2.21-.59,3.38-.59h3.38v15.89ZM98.84,297.59l-5.21-12.79c1.28-1.09,2.59-1.88,3.94-2.37,1.35-.5,2.76-.75,4.23-.75s2.99.29,4.47.89c1.48.6,2.73,1.34,3.76,2.23l-5.21,12.79h-5.99Z"/>
    <rect class="cls-1" x="15.6" y="271.03" width="3.43" height="3.43"/>
    <rect class="cls-1" x="353.27" y="271.03" width="3.43" height="3.43"/>
    <rect class="cls-1" x="323.7" y="271.03" width="3.34" height="29.89"/>
    <rect class="cls-1" x="215.88" y="271.03" width="3.43" height="3.43"/>
    <path class="cls-1" d="M59.31,287.81c0-1.31-.17-2.52-.53-3.66-.35-1.14-.88-2.1-1.6-2.91-.89-.98-1.88-1.7-2.98-2.19s-2.44-.72-4.03-.72h-2.47v3.33h2.93c.81,0,1.57.18,2.3.52.72.35,1.32.79,1.8,1.35.47.59.79,1.23.97,1.92s.28,1.53.28,2.49v9.67h-15.66v3.33h18.98v-13.12h0Z"/>
    <rect class="cls-1" x="500.32" y="271.03" width="3.34" height="29.89"/>
    <rect class="cls-1" x="359.12" y="271.03" width="3.43" height="3.43"/>
    <path class="cls-1" d="M490.6,271.03h-3.34v26.56h-11.48c.7-1.53,1.04-3.16,1.04-4.92s-.32-3.33-.93-4.81c-.63-1.49-1.48-2.77-2.56-3.84-1.09-1.09-2.37-1.94-3.86-2.56-1.49-.63-3.09-.93-4.82-.93s-3.23.32-4.68.96-2.7,1.5-3.77,2.6-1.91,2.38-2.52,3.86-.92,3.05-.92,4.75c0,.89.1,1.74.28,2.56s.42,1.6.72,2.35h-10.35c.7-1.53,1.04-3.16,1.04-4.92s-.32-3.33-.93-4.81c-.63-1.49-1.48-2.77-2.56-3.84-1.09-1.09-2.37-1.94-3.86-2.56-1.49-.63-3.09-.93-4.82-.93s-3.22.32-4.67.96-2.7,1.5-3.77,2.6-1.91,2.38-2.52,3.86-.92,3.05-.92,4.75c0,.89.1,1.74.28,2.56s.42,1.6.72,2.35h-10.6v-26.56h-3.34v26.56h-10.64v-5.1c0-1.28-.17-2.49-.5-3.65s-.86-2.13-1.59-2.94c-.86-.98-1.84-1.7-2.93-2.17-1.09-.47-2.47-.71-4.14-.71h-14.78l6.28-12.01h-3.64l-6.41,11.96c.11.72.28,1.35.53,1.88.24.53.56,1.03.98,1.5h17.02c1.06,0,1.96.15,2.73.49.77.32,1.38.75,1.85,1.31s.79,1.2.96,1.92c.17.72.25,1.53.25,2.41v5.1h-30.88v-19.28h-5.27c-2.09,0-3.98.28-5.67.85-1.7.57-3.15,1.37-4.35,2.37-1.2,1.02-2.12,2.21-2.77,3.61s-.98,2.88-.98,4.5c0,1.98.38,3.66,1.13,5.08s1.76,2.58,3.01,3.5c1.25.92,2.72,1.6,4.39,2.03,1.67.45,3.43.67,5.25.67h66.23c1.09,1.17,2.37,2.09,3.86,2.77s3.11,1.02,4.86,1.02,3.44-.33,4.99-1c1.55-.67,2.87-1.6,3.98-2.79h14.69c1.09,1.17,2.37,2.09,3.86,2.77s3.11,1.02,4.86,1.02,3.44-.33,4.99-1c1.55-.67,2.87-1.6,3.98-2.79h16.98v-29.95h0ZM359.22,297.59h-3.3c-1.25,0-2.42-.18-3.52-.54-1.1-.36-2.06-.88-2.88-1.56s-1.46-1.52-1.94-2.49c-.47-.99-.71-2.1-.71-3.36s.25-2.28.77-3.27,1.2-1.82,2.05-2.54,1.81-1.25,2.9-1.63c1.09-.38,2.2-.56,3.34-.56h3.3v15.95h0ZM440.41,296.11c-.46,1.07-1.09,1.99-1.88,2.77-.79.78-1.73,1.38-2.8,1.81s-2.23.64-3.48.64-2.35-.24-3.4-.68c-1.04-.46-1.95-1.09-2.72-1.88s-1.36-1.71-1.8-2.77c-.43-1.06-.64-2.19-.64-3.37s.22-2.33.64-3.4c.43-1.07,1.03-1.99,1.78-2.79.75-.79,1.64-1.42,2.69-1.89s2.19-.71,3.44-.71,2.45.22,3.52.67,2.01,1.06,2.8,1.84,1.41,1.7,1.85,2.77.67,2.24.67,3.52c.01,1.24-.22,2.4-.68,3.47ZM472.8,296.11c-.46,1.07-1.09,1.99-1.88,2.77-.79.78-1.73,1.38-2.8,1.81s-2.23.64-3.48.64-2.35-.24-3.4-.68c-1.04-.46-1.95-1.09-2.72-1.88s-1.36-1.71-1.8-2.77c-.43-1.06-.65-2.19-.65-3.37s.22-2.33.65-3.4,1.02-1.99,1.77-2.79c.75-.79,1.64-1.42,2.69-1.89s2.19-.71,3.44-.71,2.45.22,3.52.67,2.01,1.06,2.8,1.84,1.41,1.7,1.85,2.77.67,2.24.67,3.52c.03,1.24-.21,2.4-.67,3.47Z"/>
    <path class="cls-1" d="M8.52,300.25c1.67.45,3.43.67,5.25.67h21.87v-22.62h-3.34v19.28h-13.27v-19.28h-5.27c-2.09,0-3.97.28-5.67.85s-3.15,1.37-4.35,2.37c-1.2,1.02-2.12,2.21-2.77,3.61s-.97,2.88-.97,4.5c0,1.98.38,3.66,1.13,5.08s1.76,2.58,3.01,3.5c1.25.93,2.72,1.62,4.39,2.05ZM3.34,289.63c0-1.2.26-2.28.78-3.27.52-.99,1.2-1.82,2.05-2.54s1.81-1.25,2.9-1.63c1.09-.38,2.2-.56,3.34-.56h3.3v15.95h-3.3c-1.25,0-2.42-.18-3.52-.54s-2.06-.88-2.88-1.56-1.46-1.52-1.94-2.49c-.49-.99-.72-2.1-.72-3.36Z"/>
    <rect class="cls-1" x="242.14" y="304.87" width="3.43" height="3.43"/>
    <rect class="cls-1" x="236.29" y="304.87" width="3.43" height="3.43"/>
    <path class="cls-1" d="M270.72,305.15c.21-1.04.32-2.21.32-3.52v-.71h42.94v-29.89h-3.34v26.56h-14.19l5.84-13.96c-.89-.78-1.84-1.5-2.84-2.19-1-.68-2.03-1.28-3.09-1.8-1.06-.52-2.13-.92-3.22-1.21-1.09-.29-2.16-.43-3.22-.43s-2.17.15-3.26.43c-1.09.29-2.16.68-3.23,1.18s-2.1,1.1-3.09,1.8c-.99.7-1.91,1.42-2.77,2.2l5.88,13.96h-12.44v-19.28h-3.34v23.33c0,.95-.04,1.74-.14,2.4-.1.65-.26,1.18-.5,1.59s-.56.7-.96.88-.92.28-1.56.28c-.31,0-.57-.01-.79-.04-.22-.03-.53-.1-.92-.21l-.88,3.2c.92.25,1.82.38,2.72.38,1.2,0,2.2-.2,3.02-.59.82-.39,1.48-.95,1.98-1.69.54-.74.89-1.63,1.1-2.67ZM281.76,284.8c1.28-1.09,2.59-1.88,3.94-2.37,1.35-.5,2.76-.75,4.23-.75s2.99.29,4.47.89,2.73,1.34,3.76,2.23l-5.21,12.79h-5.96l-5.24-12.79Z"/>
    <rect class="cls-1" x="9.75" y="271.03" width="3.43" height="3.43"/>
    <polygon class="cls-1" points="23.96 322.81 18.82 322.81 7.47 334.79 7.47 322.81 3.27 322.81 3.27 346.62 7.47 346.62 7.47 339.72 11.18 335.91 19.32 346.62 24.4 346.62 14.04 333.05 23.96 322.81"/>
    <rect class="cls-1" x="28.22" y="322.81" width="4.19" height="23.8"/>
    <polygon class="cls-1" points="55.52 339.28 42.75 322.81 38.86 322.81 38.86 346.62 42.98 346.62 42.98 329.68 56.13 346.62 59.64 346.62 59.64 322.81 55.52 322.81 55.52 339.28"/>
    <path class="cls-1" d="M77,336.96h6.1v4.46c-1.46,1.09-3.51,1.8-5.75,1.8-4.88,0-8.11-3.61-8.11-8.5v-.07c0-4.55,3.33-8.4,7.73-8.4,3.04,0,4.83.99,6.67,2.55l2.66-3.16c-2.45-2.08-5.01-3.23-9.17-3.23-7.19,0-12.3,5.64-12.3,12.31v.07c0,6.94,4.9,12.24,12.37,12.24,4.22,0,7.61-1.7,9.95-3.71v-10h-10.15v3.64h0Z"/>
    <path class="cls-1" d="M101.82,322.81h-8.89v23.8h8.89c7.49,0,12.68-5.2,12.68-11.91v-.07c0-6.69-5.18-11.83-12.68-11.83ZM110.11,334.79c0,4.65-3.27,8.02-8.27,8.02h-4.69v-16.19h4.69c5.01,0,8.27,3.44,8.27,8.09v.07Z"/>
    <path class="cls-1" d="M130.93,322.41c-7.33,0-12.49,5.61-12.49,12.31v.07c0,6.7,5.11,12.24,12.44,12.24s12.51-5.61,12.51-12.31v-.07c-.03-6.7-5.14-12.24-12.45-12.24ZM138.97,334.79c0,4.62-3.3,8.4-8.04,8.4s-8.11-3.84-8.11-8.47v-.07c0-4.62,3.3-8.4,8.04-8.4s8.11,3.84,8.11,8.47v.07Z"/>
    <polygon class="cls-1" points="160.28 334.07 153.02 322.81 148.56 322.81 148.56 346.62 152.69 346.62 152.69 329.62 160.15 340.77 160.28 340.77 167.81 329.55 167.81 346.62 172.01 346.62 172.01 322.81 167.53 322.81 160.28 334.07"/>
    <path class="cls-1" d="M199.81,322.41c-7.33,0-12.49,5.61-12.49,12.31v.07c0,6.7,5.11,12.24,12.44,12.24s12.51-5.61,12.51-12.31v-.07c-.01-6.7-5.13-12.24-12.45-12.24ZM207.84,334.79c0,4.62-3.3,8.4-8.04,8.4s-8.11-3.84-8.11-8.47v-.07c0-4.62,3.3-8.4,8.04-8.4s8.11,3.84,8.11,8.47v.07h0Z"/>
    <polygon class="cls-1" points="217.46 346.62 221.65 346.62 221.65 336.92 233.67 336.92 233.67 333.12 221.65 333.12 221.65 326.63 235.2 326.63 235.2 322.81 217.46 322.81 217.46 346.62"/>
    <path class="cls-1" d="M259.23,332.81c-4.57-1.09-5.66-1.91-5.66-3.73v-.07c0-1.56,1.43-2.83,3.89-2.83,2.19,0,4.33.85,6.48,2.45l2.24-3.16c-2.42-1.94-5.18-2.99-8.65-2.99-4.74,0-8.15,2.83-8.15,6.89v.07c0,4.39,2.87,5.88,7.94,7.1,4.43,1.02,5.38,1.94,5.38,3.64v.08c0,1.81-1.63,2.99-4.22,2.99-2.97,0-5.25-1.13-7.54-3.09l-2.52,2.99c2.87,2.55,6.3,3.8,9.95,3.8,5.01,0,8.51-2.65,8.51-7.1v-.07c.01-3.96-2.6-5.75-7.65-6.98Z"/>
    <path class="cls-1" d="M279.73,322.65l-10.49,23.97h4.29l2.45-5.75h11.28l2.42,5.75h4.43l-10.49-23.97h-3.9ZM277.52,337.17l4.1-9.53,4.12,9.53h-8.22Z"/>
    <path class="cls-1" d="M312.78,336.52c0,4.39-2.28,6.63-6,6.63s-6.03-2.38-6.03-6.8v-13.54h-4.19v13.71c0,6.89,3.96,10.47,10.15,10.47s10.25-3.57,10.25-10.67v-13.5h-4.19v13.69h.01Z"/>
    <path class="cls-1" d="M332.01,322.81h-8.89v23.8h8.89c7.49,0,12.68-5.2,12.68-11.91v-.07c0-6.69-5.18-11.83-12.68-11.83ZM340.28,334.79c0,4.65-3.27,8.02-8.27,8.02h-4.69v-16.19h4.69c5.01,0,8.27,3.44,8.27,8.09v.07Z"/>
    <rect class="cls-1" x="349.99" y="322.81" width="4.19" height="23.8"/>
    <path class="cls-1" d="M379.21,322.65l-10.49,23.97h4.29l2.45-5.75h11.28l2.42,5.75h4.43l-10.49-23.97h-3.9ZM377,337.17l4.1-9.53,4.12,9.53h-8.22Z"/>
    <path class="cls-1" d="M417.04,330.4v-.07c0-2.08-.71-3.84-1.98-5.14-1.53-1.49-3.89-2.38-6.88-2.38h-10.63v23.8h4.19v-8.3h5.25l5.86,8.3h4.94l-6.44-9.01c3.32-.95,5.67-3.3,5.67-7.2ZM401.75,334.61v-8h6.1c3.11,0,4.94,1.39,4.94,3.94v.07c0,2.41-1.91,3.98-4.9,3.98h-6.14Z"/>
    <path class="cls-1" d="M431.36,322.65l-10.49,23.97h4.29l2.45-5.75h11.28l2.42,5.75h4.43l-10.49-23.97h-3.9ZM429.14,337.17l4.1-9.53,4.12,9.53h-8.22Z"/>
    <path class="cls-1" d="M464.82,334.25c1.77-.92,3.41-2.45,3.41-5.31v-.07c0-1.6-.54-2.88-1.6-3.94-1.36-1.37-3.51-2.1-6.24-2.1h-10.7v23.8h11.03c5.32,0,8.82-2.27,8.82-6.53v-.07c.01-3.23-1.92-4.83-4.72-5.78ZM453.81,326.52h6.03c2.69,0,4.19,1.16,4.19,3.02v.07c0,2.17-1.81,3.23-4.5,3.23h-5.72v-6.32h0ZM465.36,339.65c0,2.15-1.74,3.26-4.6,3.26h-6.95v-6.53h6.64c3.3,0,4.9,1.2,4.9,3.2v.07h0Z"/>
    <rect class="cls-1" x="474.75" y="322.81" width="4.19" height="23.8"/>
    <path class="cls-1" d="M497.31,322.65h-3.89l-10.49,23.97h4.29l2.45-5.75h11.28l2.42,5.75h4.43l-10.5-23.97ZM491.21,337.17l4.1-9.53,4.12,9.53h-8.22Z"/>
  </g>
</svg>