<?xml version="1.0" encoding="UTF-8"?>
<svg id="Layer_2" data-name="Layer 2" xmlns="http://www.w3.org/2000/svg" viewBox="0 0 1082.57 1082.57">
  <defs>
    <style>
      .cls-1 {
        fill: #33b7e7;
      }

      .cls-1, .cls-2, .cls-3 {
        fill-rule: evenodd;
      }

      .cls-2 {
        fill: #e4232b;
      }

      .cls-3 {
        fill: #83bc41;
      }

      .cls-4 {
        fill: none;
        stroke: #0f84c6;
        stroke-miterlimit: 2.6;
        stroke-width: 2.57px;
      }
    </style>
  </defs>
  <path class="cls-1" d="M845.51,911.43c7.61,0,22.82-12.68,32.96-22.82,35.49-32.96,68.45-70.99,93.8-114.08,12.68-17.75,20.28-38.03,30.42-58.31,38.03-93.8,35.49-210.42,12.68-309.3-20.28-81.13-58.31-157.18-119.15-212.96-96.34-88.73-210.42-78.59-286.48-22.82-63.38,48.17-93.8,126.76-83.66,205.35,7.61,65.92,48.17,103.94,106.48,134.37,68.45,35.49,131.83,17.75,200.28,126.76,35.49,55.77,40.56,141.97,27.89,205.35l-15.21,68.45h0Z"/>
  <path class="cls-2" d="M57.06,630.02c2.54,10.14,5.07,25.35,5.07,38.03,0,10.14,5.07,20.28,10.14,32.96,68.45,225.63,360,375.21,578.03,306.76,134.37-43.1,215.49-162.25,159.72-299.15-55.77-131.83-197.75-164.79-314.37-70.99-78.59,65.92-91.27,116.62-220.56,109.01-60.85-2.54-149.58-53.24-195.21-96.34-12.68-12.68-12.68-15.21-22.82-17.75"/>
  <path class="cls-3" d="M721.29,95.09c0-7.61-12.68-10.14-22.82-15.21C346.08-57.02-95.05,328.33,105.23,589.46c22.82,27.89,58.31,53.24,93.8,65.92,134.37,50.7,278.87-40.56,268.73-197.75,0-50.7-25.35-88.73-12.68-144.51,20.28-111.55,101.41-169.86,202.82-202.82,10.14-2.54,20.28-5.07,30.42-7.61,5.07,0,30.42-7.61,32.96-7.61"/>
  <path class="cls-4" d="M541.29,1.29c299.16,0,540,243.38,540,540s-243.38,540-540,540S1.29,837.91,1.29,541.29,244.67,1.29,541.29,1.29h0Z"/>
</svg>