<?xml version="1.0" encoding="UTF-8"?>
<svg id="Layer_2" data-name="Layer 2" xmlns="http://www.w3.org/2000/svg" viewBox="0 0 1656.25 773.1">
  <defs>
    <style>
      .cls-1 {
        font-family: GEDinarOne-Medium, 'GE Dinar One';
        font-size: 138.05px;
        font-weight: 500;
      }

      .cls-1, .cls-2, .cls-3 {
        fill: #fff;
      }

      .cls-2 {
        fill-rule: evenodd;
      }

      .cls-4 {
        fill: none;
        stroke: #fff;
        stroke-miterlimit: 2.6;
      }

      .cls-3 {
        font-family: Bahnschrift, Bahnschrift;
        font-size: 136.09px;
        font-variation-settings: 'wght' 400, 'wdth' 100;
      }
    </style>
  </defs>
  <g>
    <path class="cls-2" d="M1405.64,354c2.95,0,8.86-4.92,12.8-8.86,13.79-12.8,26.59-27.57,36.43-44.31,4.92-6.89,7.88-14.77,11.82-22.65,14.77-36.43,13.79-81.73,4.92-120.13-7.88-31.51-22.65-61.05-46.28-82.71-37.42-34.46-81.73-30.53-111.27-8.86-24.62,18.71-36.43,49.23-32.49,79.76,2.95,25.6,18.71,40.37,41.36,52.19,26.59,13.79,51.2,6.89,77.79,49.23,13.79,21.66,15.75,55.14,10.83,79.76l-5.91,26.59h0Z"/>
    <path class="cls-2" d="M1099.4,244.7c.98,3.94,1.97,9.85,1.97,14.77,0,3.94,1.97,7.88,3.94,12.8,26.59,87.64,139.82,145.73,224.51,119.15,52.19-16.74,83.7-63.02,62.03-116.19-21.66-51.2-76.8-64-122.1-27.57-30.53,25.6-35.45,45.3-85.67,42.34-23.63-.98-58.1-20.68-75.82-37.42-4.92-4.92-4.92-5.91-8.86-6.89"/>
    <path class="cls-2" d="M1357.39,36.93c0-2.95-4.92-3.94-8.86-5.91-136.87-53.17-308.2,96.5-230.41,197.92,8.86,10.83,22.65,20.68,36.43,25.6,52.19,19.69,108.31-15.75,104.38-76.8,0-19.69-9.85-34.46-4.92-56.13,7.88-43.33,39.39-65.97,78.77-78.77,3.94-.98,7.88-1.97,11.82-2.95,1.97,0,11.82-2.95,12.8-2.95"/>
    <path class="cls-4" d="M1287.48.5c116.19,0,209.74,94.53,209.74,209.74s-94.53,209.74-209.74,209.74-209.74-94.53-209.74-209.74S1172.27.5,1287.48.5h0Z"/>
    <path class="cls-2" d="M491.86,385.51h138.84c-3.94-3.94-8.86-7.88-11.82-11.82-11.82-14.77-11.82-39.39-11.82-58.1V34.96h-86.65v280.63c0,21.66-2.95,36.43-5.91,43.33-6.89,15.75-11.82,15.75-22.65,26.59"/>
    <path class="cls-2" d="M350.06,385.51h136.87l-4.92-3.94c-23.63-17.72-32.49-51.2-43.33-77.79l-103.39-249.12c-4.92-11.82-5.91-18.71-12.8-23.63l-34.46,86.65c-8.86,21.66-13.79,20.68-3.94,43.33l54.16,130.96c14.77,35.45,34.46,67.94,11.82,92.56"/>
    <path class="cls-2" d="M890.65,380.59l-7.88-6.89c-8.86-6.89-14.77-13.79-19.69-22.65-30.53-54.16-31.51-238.29,0-295.4,7.88-13.79,14.77-17.72,26.59-25.6l3.94-2.95c-45.3,1.97-90.59,31.51-113.24,54.16-24.62,25.6-46.28,69.91-46.28,119.15,0,55.14,16.74,90.59,43.33,123.08,19.69,23.63,66.96,55.14,112.25,57.11"/>
    <path class="cls-2" d="M159.03,384.52h108.31c-45.3-6.89-44.31-66.96-45.3-96.5-6.89,6.89-20.68,48.25-42.34,75.82-9.85,12.8-12.8,11.82-16.74,16.74-2.95,2.95,0-1.97-2.95,3.94"/>
    <path class="cls-2" d="M392.4,128.51l3.94-7.88c6.89-20.68,14.77-36.43,31.51-52.19,29.54-26.59,55.14-26.59,64-32.49h-99.45v92.56h0Z"/>
    <path class="cls-2" d="M734.09,133.43V35.95h-99.45l8.86,3.94c22.65,6.89,37.42,12.8,56.13,29.54,20.68,18.71,23.63,32.49,34.46,64"/>
    <path class="cls-2" d="M949.73,382.56c36.43,0,67.94-11.82,93.54-25.6l-5.91-85.67c-4.92,11.82-6.89,22.65-12.8,35.45-5.91,12.8-11.82,22.65-18.71,31.51-11.82,14.77-22.65,24.62-38.4,33.48-3.94,1.97-4.92,1.97-8.86,3.94l-8.86,5.91s0,.98,0,.98Z"/>
    <path class="cls-2" d="M1037.37,136.39l5.91-86.65c-21.66-15.75-68.93-26.59-100.44-24.62,49.23,13.79,82.71,55.14,94.53,110.28"/>
  </g>
  <text class="cls-3" transform="translate(0 736.28)"><tspan x="0" y="0">Amal Trooq Contracting Co.</tspan></text>
  <text class="cls-1" transform="translate(23.95 567.75)"><tspan x="0" y="0">شركة أعمال طروق للمقاولات</tspan></text>
</svg>